<svg width="17" height="17" viewBox="0 0 17 17" fill="none" xmlns="http://www.w3.org/2000/svg">
<g clip-path="url(#clip0_605_3017)">
<path d="M8.60791 0.19043C4.19666 0.19043 0.60791 3.77918 0.60791 8.19043C0.60791 12.6017 4.19666 16.1904 8.60791 16.1904C13.0192 16.1904 16.6079 12.6017 16.6079 8.19043C16.6079 3.77918 13.0192 0.19043 8.60791 0.19043ZM8.60791 15.0254C4.83916 15.0254 1.77297 11.9592 1.77297 8.19043C1.77297 4.42168 4.83916 1.35549 8.60791 1.35549C12.3767 1.35549 15.4428 4.42168 15.4428 8.19043C15.4428 11.9592 12.3767 15.0254 8.60791 15.0254Z" fill="#ED5450"/>
<path d="M13.3026 2.69057L3.08887 12.9043L3.91253 13.728L14.1263 3.51423L13.3026 2.69057Z" fill="#ED5450"/>
</g>
<defs>
<clipPath id="clip0_605_3017">
<rect width="16" height="16" fill="white" transform="translate(0.60791 0.19043)"/>
</clipPath>
</defs>
</svg>
