<svg width="15" height="15" viewBox="0 0 15 15" fill="none" xmlns="http://www.w3.org/2000/svg">
<path d="M3.89832 0.871094C3.67957 0.871094 3.46082 1.04609 3.46082 1.30859V1.74609H2.14832C1.44832 1.74609 0.835815 2.31484 0.835815 3.05859V4.80859V13.5586C0.835815 14.3023 1.40457 14.8711 2.14832 14.8711H13.5233C14.2671 14.8711 14.8358 14.3023 14.8358 13.5586V4.80859V3.05859C14.8358 2.31484 14.2671 1.74609 13.5233 1.74609H12.2108V1.30859C12.2108 1.04609 12.0358 0.871094 11.7733 0.871094C11.5108 0.871094 11.3358 1.04609 11.3358 1.30859V1.74609H4.33582V1.30859C4.33582 1.04609 4.16082 0.871094 3.89832 0.871094ZM13.9608 13.5586C13.9608 13.8211 13.7858 13.9961 13.5233 13.9961H2.14832C1.88582 13.9961 1.71082 13.8211 1.71082 13.5586V5.24609H13.9608V13.5586ZM11.3358 2.62109V3.05859C11.3358 3.32109 11.5108 3.49609 11.7733 3.49609C12.0358 3.49609 12.2108 3.32109 12.2108 3.05859V2.62109H13.5233C13.7858 2.62109 13.9608 2.79609 13.9608 3.05859V4.37109H1.71082V3.05859C1.71082 2.79609 1.88582 2.62109 2.14832 2.62109H3.46082V3.05859C3.46082 3.32109 3.63582 3.49609 3.89832 3.49609C4.16082 3.49609 4.33582 3.32109 4.33582 3.05859V2.62109H11.3358Z" fill="#DADADA"/>
<path d="M3.50452 8.96484H5.25452C5.51702 8.96484 5.69202 8.78984 5.69202 8.52734V6.77734C5.69202 6.51484 5.51702 6.33984 5.25452 6.33984H3.50452C3.24202 6.33984 3.06702 6.51484 3.06702 6.77734V8.52734C3.06702 8.78984 3.24202 8.96484 3.50452 8.96484ZM3.94202 7.21484H4.81702V8.08984H3.94202V7.21484Z" fill="#DADADA"/>
<path d="M7.00452 8.96484H8.75452C9.01702 8.96484 9.19202 8.78984 9.19202 8.52734V6.77734C9.19202 6.51484 9.01702 6.33984 8.75452 6.33984H7.00452C6.74202 6.33984 6.56702 6.51484 6.56702 6.77734V8.52734C6.56702 8.78984 6.74202 8.96484 7.00452 8.96484ZM7.44202 7.21484H8.31702V8.08984H7.44202V7.21484Z" fill="#DADADA"/>
<path d="M10.5045 8.96484H12.2545C12.517 8.96484 12.692 8.78984 12.692 8.52734V6.77734C12.692 6.51484 12.517 6.33984 12.2545 6.33984H10.5045C10.242 6.33984 10.067 6.51484 10.067 6.77734V8.52734C10.067 8.78984 10.242 8.96484 10.5045 8.96484ZM10.942 7.21484H11.817V8.08984H10.942V7.21484Z" fill="#DADADA"/>
<path d="M3.50452 12.9023H5.25452C5.51702 12.9023 5.69202 12.7273 5.69202 12.4648V10.7148C5.69202 10.4523 5.51702 10.2773 5.25452 10.2773H3.50452C3.24202 10.2773 3.06702 10.4523 3.06702 10.7148V12.4648C3.06702 12.7273 3.24202 12.9023 3.50452 12.9023ZM3.94202 11.1523H4.81702V12.0273H3.94202V11.1523Z" fill="#DADADA"/>
<path d="M7.00452 12.9023H8.75452C9.01702 12.9023 9.19202 12.7273 9.19202 12.4648V10.7148C9.19202 10.4523 9.01702 10.2773 8.75452 10.2773H7.00452C6.74202 10.2773 6.56702 10.4523 6.56702 10.7148V12.4648C6.56702 12.7273 6.74202 12.9023 7.00452 12.9023ZM7.44202 11.1523H8.31702V12.0273H7.44202V11.1523Z" fill="#DADADA"/>
<path d="M10.5045 12.9023H12.2545C12.517 12.9023 12.692 12.7273 12.692 12.4648V10.7148C12.692 10.4523 12.517 10.2773 12.2545 10.2773H10.5045C10.242 10.2773 10.067 10.4523 10.067 10.7148V12.4648C10.067 12.7273 10.242 12.9023 10.5045 12.9023ZM10.942 11.1523H11.817V12.0273H10.942V11.1523Z" fill="#DADADA"/>
</svg>
