<svg width="18" height="16" viewBox="0 0 18 16" fill="none" xmlns="http://www.w3.org/2000/svg">
<g clip-path="url(#clip0_1157_1200)">
<path d="M0.287109 4.65039H17.288V14.2098C17.288 15.1206 16.6827 15.8295 15.7837 15.9672C15.6505 15.9873 15.5161 15.9976 15.3814 15.9979C10.8625 15.9979 6.3433 15.9979 1.82378 15.9979C0.912188 15.9979 0.333533 15.437 0.29133 14.5139C0.288047 14.4434 0.288516 14.372 0.288516 14.3016C0.288516 11.1513 0.288516 8.00097 0.288516 4.85043L0.287109 4.65039ZM12.822 6.61865C12.6053 6.61865 12.3887 6.61581 12.1725 6.61865C11.9071 6.6229 11.7364 6.77376 11.7299 7.04001C11.7186 7.48738 11.7186 7.93476 11.7299 8.38213C11.736 8.6271 11.8855 8.78694 12.1261 8.79404C12.5878 8.80791 13.0497 8.80791 13.5118 8.79404C13.7664 8.78647 13.8925 8.63798 13.8954 8.38213C13.9007 7.94075 13.9007 7.49936 13.8954 7.05798C13.8925 6.78558 13.7265 6.62432 13.4527 6.61959C13.244 6.61581 13.0335 6.61865 12.8229 6.61865H12.822ZM8.58711 13.5974H9.23658C9.5034 13.5884 9.65111 13.4678 9.65861 13.2049C9.67237 12.7462 9.67237 12.2871 9.65861 11.8278C9.65204 11.5766 9.49214 11.422 9.24173 11.4168C8.79719 11.4067 8.35265 11.4067 7.90811 11.4168C7.65113 11.4229 7.4978 11.5918 7.49545 11.849C7.49076 12.2848 7.49076 12.7203 7.49545 13.1557C7.49826 13.43 7.66145 13.5908 7.93624 13.596C8.15242 13.6002 8.36906 13.5969 8.58711 13.5974ZM13.9005 12.5201C13.9005 12.3021 13.9033 12.0846 13.9005 11.8665C13.8963 11.596 13.7491 11.4234 13.486 11.4168C13.0414 11.4055 12.595 11.4064 12.1524 11.4168C11.902 11.4225 11.7406 11.5771 11.7341 11.8268C11.7219 12.2799 11.7219 12.7339 11.7341 13.1864C11.7416 13.4432 11.9132 13.5936 12.1702 13.5964C12.6091 13.6007 13.048 13.6012 13.4865 13.5964C13.7528 13.5927 13.8935 13.4456 13.8996 13.1751C13.9024 12.9557 13.8986 12.7381 13.8986 12.5201H13.9005ZM8.59274 6.61865C8.37047 6.61865 8.14773 6.61534 7.92592 6.61865C7.66239 6.62385 7.49873 6.78464 7.49592 7.05041C7.49076 7.48596 7.4917 7.92152 7.49592 8.35754C7.49826 8.61717 7.64363 8.78789 7.90201 8.79546C8.35781 8.8087 8.81454 8.80775 9.26987 8.79546C9.52215 8.78836 9.65064 8.65926 9.65767 8.40672C9.6708 7.948 9.6708 7.48896 9.65767 7.02961C9.65064 6.76998 9.48182 6.62432 9.22345 6.61959C9.01384 6.61534 8.80329 6.61865 8.59274 6.61865ZM3.30981 12.5125C3.30981 12.7187 3.30981 12.9249 3.30981 13.1311C3.31309 13.429 3.47065 13.5936 3.76279 13.5964C4.17232 13.5996 4.58185 13.5996 4.99138 13.5964C5.27883 13.5931 5.47063 13.4163 5.47813 13.1264C5.48907 12.6963 5.48907 12.2663 5.47813 11.8363C5.47109 11.5771 5.30978 11.4211 5.05094 11.4159C4.61327 11.407 4.17436 11.407 3.73419 11.4159C3.46784 11.422 3.31685 11.5904 3.31216 11.8585C3.30653 12.0765 3.30981 12.2945 3.30981 12.5125ZM4.39725 6.61817H3.74732C3.47534 6.62621 3.31356 6.78653 3.31075 7.06318C3.307 7.49322 3.307 7.92325 3.31075 8.35328C3.31075 8.6148 3.45612 8.78694 3.71309 8.79546C4.15153 8.80964 4.59092 8.8087 5.02937 8.79546C5.29337 8.78742 5.46969 8.60913 5.47719 8.34288C5.48938 7.9015 5.48829 7.46011 5.47391 7.01873C5.46547 6.7695 5.29478 6.62527 5.04672 6.62007C4.83007 6.61534 4.61343 6.61865 4.39725 6.61817Z" fill="#00ADA6"/>
<path d="M17.2339 3.51481H0.315931C0.315931 2.76666 0.284982 2.02845 0.325779 1.29496C0.359541 0.680178 0.857073 -0.0324993 1.79446 0.00249615C2.21649 0.0181022 2.63853 0.00249615 3.06056 0.00249615H3.25235V0.387919C3.25235 0.759627 3.25235 1.13133 3.25235 1.50304C3.25235 1.89083 3.46102 2.13343 3.78786 2.13107C4.11471 2.1287 4.31212 1.89461 4.31353 1.51297C4.31353 1.08262 4.31353 0.651803 4.31353 0.220981V0.0152647H12.7753C12.7786 0.0791077 12.7847 0.141532 12.7847 0.204429C12.7847 0.664572 12.7814 1.12471 12.7875 1.58486C12.7908 1.85063 12.9441 2.04973 13.1739 2.11499C13.3844 2.17505 13.633 2.09891 13.7441 1.90407C13.8072 1.78611 13.8411 1.65455 13.8431 1.52054C13.8553 1.08404 13.8477 0.647547 13.8477 0.210577V0.00296907C14.372 0.00296907 14.8752 -0.0116912 15.3769 0.00958979C15.6279 0.0159761 15.8761 0.0639055 16.1117 0.151463C16.6866 0.380352 17.0965 0.777597 17.2212 1.41839C17.2281 1.44709 17.2321 1.47639 17.2334 1.50588C17.2343 2.17269 17.2339 2.83807 17.2339 3.51481Z" fill="#00ADA6"/>
</g>
<defs>
<clipPath id="clip0_1157_1200">
<rect width="17" height="16" fill="white" transform="translate(0.288086)"/>
</clipPath>
</defs>
</svg>
