<svg width="16" height="17" viewBox="0 0 16 17" fill="none" xmlns="http://www.w3.org/2000/svg">
<g clip-path="url(#clip0_818_3371)">
<path d="M10.2067 5.90723C9.99977 5.90723 9.83203 6.07497 9.83203 6.28193V13.3639C9.83203 13.5707 9.99977 13.7386 10.2067 13.7386C10.4137 13.7386 10.5814 13.5707 10.5814 13.3639V6.28193C10.5814 6.07497 10.4137 5.90723 10.2067 5.90723Z" fill="#A3A3A3"/>
<path d="M5.78584 5.90723C5.57887 5.90723 5.41113 6.07497 5.41113 6.28193V13.3639C5.41113 13.5707 5.57887 13.7386 5.78584 13.7386C5.99281 13.7386 6.16055 13.5707 6.16055 13.3639V6.28193C6.16055 6.07497 5.99281 5.90723 5.78584 5.90723Z" fill="#A3A3A3"/>
<path d="M2.56325 4.87371V14.1057C2.56325 14.6513 2.76334 15.1638 3.11287 15.5315C3.46079 15.9002 3.94498 16.1095 4.45171 16.1104H11.5413C12.0481 16.1095 12.5323 15.9002 12.8801 15.5315C13.2296 15.1638 13.4297 14.6513 13.4297 14.1057V4.87371C14.1245 4.68928 14.5748 4.01803 14.4818 3.30506C14.3887 2.59224 13.7815 2.05902 13.0625 2.05887H11.144V1.59049C11.1462 1.19661 10.9905 0.81839 10.7116 0.540142C10.4328 0.26204 10.054 0.107181 9.66012 0.110401H6.33285C5.93897 0.107181 5.56017 0.26204 5.28133 0.540142C5.0025 0.81839 4.84676 1.19661 4.84896 1.59049V2.05887H2.93049C2.21152 2.05902 1.60424 2.59224 1.51115 3.30506C1.4182 4.01803 1.86843 4.68928 2.56325 4.87371ZM11.5413 15.3609H4.45171C3.81105 15.3609 3.31266 14.8106 3.31266 14.1057V4.90664H12.6803V14.1057C12.6803 14.8106 12.1819 15.3609 11.5413 15.3609ZM5.59837 1.59049C5.59588 1.39538 5.67258 1.20759 5.81104 1.06985C5.94936 0.93212 6.13759 0.856447 6.33285 0.859813H9.66012C9.85538 0.856447 10.0436 0.93212 10.1819 1.06985C10.3204 1.20744 10.3971 1.39538 10.3946 1.59049V2.05887H5.59837V1.59049ZM2.93049 2.80828H13.0625C13.435 2.80828 13.737 3.11025 13.737 3.48276C13.737 3.85527 13.435 4.15723 13.0625 4.15723H2.93049C2.55798 4.15723 2.25602 3.85527 2.25602 3.48276C2.25602 3.11025 2.55798 2.80828 2.93049 2.80828Z" fill="#A3A3A3"/>
<path d="M7.9958 5.90723C7.78883 5.90723 7.62109 6.07497 7.62109 6.28193V13.3639C7.62109 13.5707 7.78883 13.7386 7.9958 13.7386C8.20277 13.7386 8.37051 13.5707 8.37051 13.3639V6.28193C8.37051 6.07497 8.20277 5.90723 7.9958 5.90723Z" fill="#A3A3A3"/>
</g>
<defs>
<clipPath id="clip0_818_3371">
<rect width="16" height="16" fill="white" transform="translate(0 0.110352)"/>
</clipPath>
</defs>
</svg>
