<svg width="137" height="33" viewBox="0 0 137 33" fill="none" xmlns="http://www.w3.org/2000/svg">
<path d="M74.7874 28.9036H84.4054V31.5462H71.6199V14.5498H84.0624V17.1956H74.7874V21.6117H83.0269V24.2063H74.7874V28.9036Z" fill="url(#paint0_linear_605_2855)"/>
<path d="M100.105 14.5498H103.27L95.851 31.5334H92.7347L85.2711 14.5498H88.7048L94.3762 27.651L100.105 14.5498Z" fill="url(#paint1_linear_605_2855)"/>
<path d="M108.236 28.9036H117.854V31.5462H105.072V14.5498H117.511V17.1956H108.236V21.6117H116.463V24.2063H108.236V28.9036Z" fill="url(#paint2_linear_605_2855)"/>
<path d="M133.384 14.5498H136.522V31.5334H133.919L124.522 20.0299V31.5334H121.38V14.5498H123.987L133.384 26.0533V14.5498Z" fill="url(#paint3_linear_605_2855)"/>
<path d="M50.6462 31.5366L48.9438 27.603H40.4062L38.7263 31.5366H35.4658L43.1346 14.5498H46.2508L53.9452 31.5366H50.6462ZM41.477 25.1298H47.8891L44.6831 17.7037L41.477 25.1298Z" fill="#FCB445"/>
<path d="M56.0964 31.5366V14.5498H59.2608V28.8652H68.1831V31.5366H56.0964Z" fill="#FCB445"/>
<path d="M61.1973 27.008V14.5459H64.3617V24.3334H67.9588V27.0016L61.1973 27.008Z" fill="#FCB445"/>
<path d="M21.3402 25.708C24.0974 20.4579 27.4893 13.3513 27.4893 10.2102C27.4893 7.66782 26.476 5.22953 24.6723 3.43176C22.8685 1.634 20.4222 0.624023 17.8713 0.624023C15.3204 0.624023 12.8741 1.634 11.0703 3.43176C9.26659 5.22953 8.25327 7.66782 8.25327 10.2102C8.25327 13.297 11.5266 20.1991 14.2517 25.4204L14.3062 25.5162L14.4056 25.708L15.6207 27.9447H15.5854C16.9031 30.3733 17.8649 32.0285 17.8649 32.0285C17.8649 32.0285 18.8267 30.3733 20.1444 27.9447L21.3306 25.708H21.3402ZM17.8745 5.42672C18.7484 5.42672 19.6027 5.68505 20.3293 6.16903C21.0559 6.65301 21.6221 7.34089 21.9564 8.14567C22.2907 8.95045 22.378 9.83596 22.2073 10.6902C22.0365 11.5444 21.6154 12.329 20.9973 12.9447C20.3791 13.5604 19.5916 13.9795 18.7344 14.149C17.8772 14.3186 16.9888 14.2309 16.1816 13.8972C15.3744 13.5634 14.6847 12.9985 14.1996 12.274C13.7146 11.5494 13.456 10.6978 13.4566 9.82679C13.4566 9.24869 13.5709 8.67627 13.793 8.14222C14.015 7.60817 14.3405 7.12297 14.7508 6.71434C15.1611 6.30571 15.6481 5.98168 16.1841 5.76074C16.7201 5.5398 17.2945 5.4263 17.8745 5.42672ZM15.5598 25.708H17.3712V27.9447H16.778L15.5598 25.708ZM18.9998 27.9447H18.3778V25.708H20.1892L18.9998 27.9447Z" fill="#FCB445"/>
<path d="M13.4278 28.0889L14.2581 27.6096L13.3348 25.8681C12.1806 23.6728 10.9207 21.1612 9.82743 18.7327C8.93882 19.1163 7.93676 19.1472 7.02604 18.8192C6.11532 18.4911 5.36468 17.8287 4.92751 16.9675C4.49035 16.1062 4.39966 15.1111 4.67398 14.1855C4.9483 13.2598 5.56691 12.4735 6.40342 11.9872C6.65338 11.8442 6.91911 11.7306 7.1953 11.6485C7.03283 11.0107 6.94144 10.357 6.92279 9.6993C6.92266 8.92794 7.01195 8.15914 7.18889 7.4082C5.86211 7.61515 4.60585 8.14096 3.52863 8.94021C2.45141 9.73946 1.58564 10.7881 1.00612 11.9955C0.426594 13.203 0.150748 14.5329 0.202414 15.8704C0.25408 17.2079 0.631703 18.5127 1.30266 19.6722C2.63636 21.9729 8.03527 25.7115 12.3345 28.4308L12.4051 28.4723L12.575 28.581L14.4409 29.7153H14.4152C14.9346 30.0349 15.4155 30.3257 15.8451 30.5845L15.0276 29.0443L13.4278 28.0889Z" fill="#00B4A9"/>
<path d="M22.2473 28.0889L21.4169 27.6096L22.3403 25.8681C23.4944 23.6728 24.7544 21.1612 25.8476 18.7327C26.7368 19.1204 27.7411 19.1543 28.6546 18.8273C29.568 18.5003 30.3212 17.8373 30.7597 16.9743C31.1981 16.1113 31.2886 15.1138 31.0125 14.1864C30.7364 13.259 30.1146 12.4721 29.2748 11.9872C29.0241 11.8435 28.7573 11.7298 28.4798 11.6485C28.6422 11.0107 28.7336 10.357 28.7523 9.6993C28.7524 8.92794 28.6631 8.15914 28.4862 7.4082C29.8129 7.61515 31.0692 8.14096 32.1464 8.94021C33.2236 9.73946 34.0894 10.7881 34.6689 11.9955C35.2485 13.203 35.5243 14.5329 35.4726 15.8704C35.421 17.2079 35.0434 18.5127 34.3724 19.6722C33.0419 21.9729 27.6238 25.7115 23.3405 28.4308L23.27 28.4723L23.1001 28.581L21.2342 29.7153H21.263L19.8299 30.5845L20.6475 29.0443L22.2473 28.0889Z" fill="#00B4A9"/>
<defs>
<linearGradient id="paint0_linear_605_2855" x1="77.6055" y1="15.2528" x2="78.1469" y2="33.2143" gradientUnits="userSpaceOnUse">
<stop stop-color="#00B4A9"/>
<stop offset="0.99" stop-color="#0E8A80"/>
</linearGradient>
<linearGradient id="paint1_linear_605_2855" x1="94.28" y1="14.7479" x2="94.8215" y2="32.7094" gradientUnits="userSpaceOnUse">
<stop stop-color="#00B4A9"/>
<stop offset="0.99" stop-color="#0E8A80"/>
</linearGradient>
<linearGradient id="paint2_linear_605_2855" x1="111.022" y1="14.243" x2="111.567" y2="32.2045" gradientUnits="userSpaceOnUse">
<stop stop-color="#00B4A9"/>
<stop offset="0.99" stop-color="#0E8A80"/>
</linearGradient>
<linearGradient id="paint3_linear_605_2855" x1="128.668" y1="13.7094" x2="129.212" y2="31.6709" gradientUnits="userSpaceOnUse">
<stop stop-color="#00B4A9"/>
<stop offset="0.99" stop-color="#0E8A80"/>
</linearGradient>
</defs>
</svg>
