<svg width="16" height="17" viewBox="0 0 16 17" fill="none" xmlns="http://www.w3.org/2000/svg">
<path d="M15.8482 15.1549L11.7172 11.09C12.799 9.91469 13.4637 8.36034 13.4637 6.64994C13.4632 2.99107 10.4494 0.0253906 6.73158 0.0253906C3.0137 0.0253906 0 2.99107 0 6.64994C0 10.3088 3.0137 13.2745 6.73158 13.2745C8.33795 13.2745 9.81129 12.7189 10.9686 11.7951L15.1155 15.8761C15.3176 16.0751 15.6457 16.0751 15.8477 15.8761C16.0502 15.6771 16.0502 15.354 15.8482 15.1549ZM6.73158 12.2553C3.58585 12.2553 1.03575 9.74568 1.03575 6.64994C1.03575 3.5542 3.58585 1.04462 6.73158 1.04462C9.87733 1.04462 12.4274 3.5542 12.4274 6.64994C12.4274 9.74568 9.87733 12.2553 6.73158 12.2553Z" fill="#A3A3A3"/>
</svg>
