<svg width="11" height="14" viewBox="0 0 11 14" fill="none" xmlns="http://www.w3.org/2000/svg">
<path fill-rule="evenodd" clip-rule="evenodd" d="M5.71286 12.8821C3.28568 12.8821 1.21289 12.4969 1.21289 10.9545C1.21289 9.41218 3.27253 7.98828 5.71286 7.98828C8.14012 7.98828 10.2129 9.39837 10.2129 10.9408C10.2129 12.4825 8.15327 12.8821 5.71286 12.8821Z" stroke="#FEE798" stroke-width="0.7" stroke-linecap="round" stroke-linejoin="round"/>
<path fill-rule="evenodd" clip-rule="evenodd" d="M5.70816 6.76449C7.30105 6.76449 8.59203 5.44812 8.59203 3.82397C8.59203 2.19981 7.30105 0.882812 5.70816 0.882812C4.11535 0.882812 2.82375 2.19981 2.82375 3.82397C2.81837 5.44264 4.10041 6.75906 5.68784 6.76449C5.69501 6.76449 5.70158 6.76449 5.70816 6.76449Z" stroke="#FEE798" stroke-width="0.7" stroke-linecap="round" stroke-linejoin="round"/>
</svg>
