<svg width="11" height="14" viewBox="0 0 11 14" fill="none" xmlns="http://www.w3.org/2000/svg">
<path fill-rule="evenodd" clip-rule="evenodd" d="M5.71286 12.884C3.28568 12.884 1.21289 12.4989 1.21289 10.9565C1.21289 9.41413 3.27253 7.99023 5.71286 7.99023C8.14012 7.99023 10.2129 9.40032 10.2129 10.9427C10.2129 12.4845 8.15327 12.884 5.71286 12.884Z" stroke="white" stroke-width="0.7" stroke-linecap="round" stroke-linejoin="round"/>
<path fill-rule="evenodd" clip-rule="evenodd" d="M5.70791 6.76546C7.3008 6.76546 8.59178 5.4491 8.59178 3.82495C8.59178 2.20079 7.3008 0.883789 5.70791 0.883789C4.1151 0.883789 2.8235 2.20079 2.8235 3.82495C2.81813 5.44361 4.10017 6.76003 5.6876 6.76546C5.69476 6.76546 5.70134 6.76546 5.70791 6.76546Z" stroke="white" stroke-width="0.7" stroke-linecap="round" stroke-linejoin="round"/>
</svg>
