<svg width="18" height="20" viewBox="0 0 18 20" fill="none" xmlns="http://www.w3.org/2000/svg">
<g clip-path="url(#clip0_1157_1094)">
<path fill-rule="evenodd" clip-rule="evenodd" d="M8.94365 18.0611C13.7245 18.0611 17.6002 14.1855 17.6002 9.40459C17.6002 4.62371 13.7245 0.748047 8.94365 0.748047C4.16277 0.748047 0.287109 4.62371 0.287109 9.40459C0.287109 14.1855 4.16277 18.0611 8.94365 18.0611ZM9.5436 4.60254C9.5436 4.27117 9.27497 4.00254 8.9436 4.00254C8.61223 4.00254 8.3436 4.27117 8.3436 4.60254V10.3536V10.577L8.48979 10.7461L11.2366 13.922C11.4534 14.1727 11.8323 14.2001 12.0829 13.9833C12.3335 13.7666 12.361 13.3877 12.1442 13.137L9.5436 10.1301V4.60254Z" fill="#00ADA6"/>
</g>
<defs>
<clipPath id="clip0_1157_1094">
<rect width="17.2507" height="18.5" fill="white" transform="translate(0.288086 0.75)"/>
</clipPath>
</defs>
</svg>
