<svg width="12" height="12" viewBox="0 0 12 12" fill="none" xmlns="http://www.w3.org/2000/svg">
<path d="M0.91267 10.7767L0.913023 10.7783C0.970571 11.0522 1.18502 11.2353 1.53963 11.2353H1.54811H1.55658H1.56506H1.57353H1.58201H1.59049H1.59896H1.60744H1.61591H1.62439H1.63287H1.64134H1.64982H1.65829H1.66677H1.67525H1.68372H1.6922H1.70067H1.70915H1.71763H1.7261H1.73458H1.74305H1.75153H1.76001H1.76848H1.77696H1.78543H1.79391H1.80239H1.81086H1.81934H1.82781H1.83629H1.84477H1.85324H1.86172H1.87019H1.87867H1.88715H1.89562H1.9041H1.91257H1.92105H1.92953H1.938H1.94648H1.95495H1.96343H1.97191H1.98038H1.98886H1.99733H2.00581H2.01429H2.02276H2.03124H2.03971H2.04819H2.05667H2.06514H2.07362H2.08209H2.09057H2.09905H2.10752H2.116H2.12447H2.13295H2.14142H2.1499H2.15838H2.16685H2.17533H2.1838H2.19228H2.20076H2.20923H2.21771H2.22618H2.23466H2.24314H2.25161H2.26009H2.26856H2.27704H2.28552H2.29399H2.30247H2.31094H2.31942H2.3279H2.33637H2.34485H2.35332H2.3618H2.37028H2.37875H2.38723H2.3957H2.40418H2.41266H2.42113H2.42961H2.43808H2.44656H2.45504H2.46351H2.47199H2.48046H2.48894H2.49742H2.50589H2.51437H2.52284H2.53132H2.5398H2.54827H2.55675H2.56522H2.5737H2.58218H2.59065H2.59913H2.6076H2.61608H2.62456H2.63303H2.64151H2.64998H2.65846H2.66694H2.67541H2.68389H2.69236H2.70084H2.70932H2.71779H2.72627H2.73474H2.74322H2.75169H2.76017H2.76865H2.77712H2.7856H2.79407H2.80255H2.81103H2.8195H2.82798H2.83645H2.84493H2.85341H2.86188H2.87036H2.87883H2.88731H2.89579H2.90426H2.91274H2.92121H2.92969H2.93817H2.94664H2.95512H2.96359H2.97207H2.98055H2.98902H2.9975H3.00597H3.01445H3.02293H3.0314H3.03988H3.04835H3.05683H3.06531H3.07378H3.08226H3.09073H3.09921H3.10769H3.11616H3.12464H3.13311H3.14159H3.15007H3.15854H3.16702H3.17549H3.18397H3.19245H3.20092H3.2094H3.21787H3.22635H3.23483H3.2433H3.25178H3.26025H3.26873H3.27721H3.28568H3.29416H3.30263H3.31111H3.31959H3.32806H3.33654H3.34501H3.35349H3.36197H3.37044H3.37892H3.38739H3.39587H3.40435H3.41282H3.4213H3.42977H3.43825H3.44672H3.4552H3.46368H3.47215H3.48063H3.4891H3.49758H3.50606H3.51453H3.52301H3.53148H3.53996H3.54844H3.55691H3.56539H3.57386H3.58234H3.59082H3.59929H3.60777H3.61624H3.62472H3.6332H3.64167H3.65015H3.65862H3.6671H3.67558H3.68405H3.69253H3.701H3.70948H3.71796H3.72643H3.73491H3.74338H3.75186H3.76034H3.76881H3.77729H3.78576H3.79424H3.80272H3.81119H3.81967H3.82814H3.83662H3.8451H3.85357H3.86205H3.87052H3.879H3.88748H3.89595H3.90443H3.9129H3.92138H3.92986H3.93833H3.94681H3.95528H3.96376H3.97224H3.98071H3.98919H3.99766H4.00614H4.01462H4.02309H4.03157H4.04004H4.04852H4.05699H4.06547H4.07395H4.08242H4.0909H4.09937H4.10785H4.11633H4.1248H4.13328H4.14175H4.15023H4.15871H4.16718H4.17566H4.18413H4.19261H4.20109H4.20956H4.21804H4.22651H4.23499H4.24347H4.25194H4.26042H4.26889H4.27737H4.28585H4.29432H4.3028H4.31127H4.31975H4.32823H4.3367H4.34518H4.35365H4.36213H4.37061H4.37908H4.38756H4.39603H4.40451H4.41299H4.42146H4.42994H4.43841H4.44689H4.45537H4.46384H4.47232H4.48079H4.48927H4.49775H4.50622H4.5147H4.52317H4.53165H4.54013H4.5486H4.55708H4.56555H4.57403H4.58251H4.59098H4.59946H4.60793H4.61641H4.62489H4.63336H4.64184H4.65031H4.65879H4.66726H4.67574H4.68422H4.69269H4.70117H4.70964H4.71812H4.7266H4.73507H4.74355H4.75202H4.7605H4.76898H4.77745H4.78593H4.7944H4.80288H4.81136H4.81983H4.82831H4.83678H4.84526H4.85374H4.86221H4.87069H4.87916H4.88764H4.89612H4.90459H4.91307H4.92154H4.93002H4.9385H4.94697H4.95545H4.96392H4.9724H4.98088H4.98935H4.99783H5.0063H5.01478H5.02326H5.03173H5.04021H5.04868H5.05716H5.06564H5.07411H5.08259H5.09106H5.09954H5.10802H5.11649H5.12497H5.13344H5.14192H5.1504H5.15887H5.16735H5.17582H5.1843H5.19278H5.20125H5.20973H5.2182H5.22668H5.23516H5.24363H5.25211H5.26058H5.26906H5.27753H5.28601H5.29449H5.30296H5.31144H5.31991H5.32839H5.33687H5.34534H5.35382H5.36229H5.37077H5.37925H5.38772H5.3962H5.40467H5.41315H5.42163H5.4301H5.43858H5.44705H5.45553H5.46401H5.47248H5.48096H5.48943H5.49791H5.50639H5.51486H5.52334H5.53181H5.54029H5.54877H5.55724H5.56572H5.57419H5.58267H5.59115H5.59962H5.6081H5.61657H5.62505H5.63353H5.642H5.65048H5.65895H5.66743H5.67591H5.68438H5.69286H5.70133H5.70981H5.71829H5.72676H5.73524H5.74371H5.75219H5.76067H5.76914H5.77762H5.78609H5.79457H5.80305H5.81152H5.82H5.82847H5.83695H5.84543H5.8539H5.86238H5.87085H5.8792H5.87933L8.55634 11.2343H8.55647C8.7457 11.2343 8.93409 11.2347 9.12205 11.2351C9.49628 11.236 9.86874 11.2368 10.2425 11.2343M0.91267 10.7767L10.2448 11.5843M0.91267 10.7767C0.861512 10.5389 0.927706 10.352 1.13095 10.1771L1.13104 10.177M0.91267 10.7767L1.13104 10.177M10.2425 11.2343L10.2448 11.5843M10.2425 11.2343C10.2425 11.2343 10.2424 11.2343 10.2424 11.2343L10.2448 11.5843M10.2425 11.2343C10.6426 11.2316 10.8903 10.9546 10.8603 10.5816M10.2448 11.5843C10.8416 11.5803 11.256 11.1359 11.2092 10.5536M10.8603 10.5816C10.8603 10.5817 10.8603 10.5818 10.8604 10.5819L11.2092 10.5536M10.8603 10.5816C10.8476 10.4254 10.7641 10.2946 10.5803 10.1291M10.8603 10.5816L11.2092 10.5536M11.2092 10.5536L10.5803 10.1291M10.5803 10.1291C9.80754 9.43326 9.35183 8.55247 9.2859 7.50104M10.5803 10.1291L9.2859 7.50104M1.13104 10.177C1.46112 9.89281 1.74139 9.55549 1.96029 9.17895C2.32805 8.55005 2.49603 7.86987 2.49784 7.1546V7.15371M1.13104 10.177L2.49784 7.15371M2.49784 7.15371C2.49784 7.01027 2.49739 6.86782 2.49694 6.72603C2.49575 6.35151 2.49458 5.98156 2.50179 5.6099L2.50179 5.60982M2.49784 7.15371L2.50179 5.60982M2.50179 5.60982C2.53197 4.03429 3.72909 2.64929 5.28766 2.38814C5.34844 2.37813 5.48721 2.35133 5.59148 2.23262C5.70252 2.1062 5.70471 1.95799 5.70167 1.88665L5.70164 1.88601M2.50179 5.60982L5.70164 1.88601M5.70164 1.88601C5.69516 1.74006 5.6963 1.5912 5.70176 1.43934L5.70177 1.4392M5.70164 1.88601L5.70177 1.4392M5.70177 1.4392C5.70342 1.39274 5.72304 1.34871 5.75653 1.3164C5.79002 1.28409 5.83476 1.26602 5.88133 1.26602C5.92791 1.26602 5.97265 1.28409 6.00614 1.3164C6.03963 1.34871 6.05925 1.39274 6.0609 1.4392L6.06091 1.43936M5.70177 1.4392L6.06091 1.43936M6.06091 1.43936C6.06658 1.59677 6.06569 1.75583 6.06084 1.91743L6.06068 1.91743M6.06091 1.43936L6.06068 1.91743M6.06068 1.91743V1.92793M6.06068 1.91743V1.92793M6.06068 1.92793C6.06068 1.9915 6.06862 2.12317 6.16853 2.23737C6.26451 2.34708 6.38827 2.37476 6.44923 2.38464C7.90897 2.64596 9.00051 3.75843 9.22782 5.2182C9.25204 5.40786 9.26362 5.59894 9.26249 5.79015L9.2624 5.79015M6.06068 1.92793L9.2624 5.79015M9.2624 5.79015L9.26253 5.79805M9.2624 5.79015L9.26253 5.79805M9.26253 5.79805C9.26559 5.98194 9.26505 6.17382 9.2645 6.36964M9.26253 5.79805L9.2645 6.36964M9.2645 6.36964C9.26345 6.7419 9.26236 7.12835 9.2859 7.50104M9.2645 6.36964L9.2859 7.50104" stroke="white" stroke-width="0.7"/>
</svg>
