<svg width="20" height="21" viewBox="0 0 20 21" fill="none" xmlns="http://www.w3.org/2000/svg">
<path d="M6.34736 7.67602L9.01817 5.73602C9.31801 5.5166 9.68267 5.40394 10.054 5.41602C10.5069 5.42731 10.9451 5.57944 11.3076 5.85125C11.67 6.12307 11.9388 6.50106 12.0765 6.93268C12.2315 7.41852 12.3732 7.74685 12.5015 7.91768C12.8893 8.43502 13.3923 8.85485 13.9706 9.14385C14.5489 9.43293 15.1867 9.5831 15.8332 9.58268V11.2493C14.9726 11.2503 14.1225 11.0604 13.3441 10.6934C12.5657 10.3264 11.8783 9.79135 11.3315 9.12685L10.7507 12.4227L12.4682 13.8643L14.3207 18.9543L12.754 19.5243L11.054 14.8543L8.22902 12.4835C7.99719 12.2963 7.81979 12.0503 7.71529 11.7713C7.61079 11.4923 7.58301 11.1903 7.63486 10.8968L8.05902 8.49268L7.49486 8.90268L5.72236 11.3427L4.37402 10.3627L6.33319 7.66602L6.34736 7.67602ZM11.2498 4.99935C10.8078 4.99935 10.3839 4.82376 10.0713 4.51119C9.75876 4.19863 9.58317 3.77471 9.58317 3.33268C9.58317 2.89066 9.75876 2.46673 10.0713 2.15417C10.3839 1.84161 10.8078 1.66602 11.2498 1.66602C11.6919 1.66602 12.1158 1.84161 12.4283 2.15417C12.7409 2.46673 12.9165 2.89066 12.9165 3.33268C12.9165 3.77471 12.7409 4.19863 12.4283 4.51119C12.1158 4.82376 11.6919 4.99935 11.2498 4.99935ZM8.77317 15.9835L6.09486 19.1752L4.81819 18.1043L7.29819 15.1493L7.91986 13.3327L9.41234 14.5827L8.77317 15.9835Z" fill="#FDB737"/>
</svg>
