<svg width="11" height="9" viewBox="0 0 11 9" fill="none" xmlns="http://www.w3.org/2000/svg">
<path d="M1.17157 0.186523C0.643416 0.186523 0.215088 0.614828 0.215088 1.14336C0.215088 1.67152 0.643416 2.09946 1.17157 2.09946C1.69972 2.09946 2.12805 1.67152 2.12805 1.14336C2.12805 0.614828 1.69972 0.186523 1.17157 0.186523Z" fill="white" stroke="#00ADA6" stroke-width="0.3"/>
<path d="M1.17157 3.06445C0.643416 3.06445 0.215088 3.4924 0.215088 4.02093C0.215088 4.54909 0.643416 4.97739 1.17157 4.97739C1.69972 4.97739 2.12805 4.54909 2.12805 4.02093C2.12805 3.4924 1.69972 3.06445 1.17157 3.06445Z" fill="white" stroke="#00ADA6" stroke-width="0.3"/>
<path d="M1.17157 5.94141C0.643416 5.94141 0.215088 6.36971 0.215088 6.89786C0.215088 7.42602 0.643416 7.85435 1.17157 7.85435C1.69972 7.85435 2.12805 7.42602 2.12805 6.89786C2.12805 6.36971 1.69972 5.94141 1.17157 5.94141Z" fill="white" stroke="#00ADA6" stroke-width="0.3"/>
<path d="M9.58108 0.423828H3.60468C3.25581 0.423828 2.9729 0.745899 2.9729 1.14343C2.9729 1.54063 3.25579 1.86267 3.60468 1.86267H9.58108C9.92994 1.86267 10.2129 1.54063 10.2129 1.14343C10.2129 0.745899 9.92994 0.423828 9.58108 0.423828Z" fill="white" stroke="#00ADA6" stroke-width="0.3"/>
<path d="M9.58108 3.30078H3.60468C3.25581 3.30078 2.9729 3.62283 2.9729 4.02038C2.9729 4.41758 3.25579 4.73963 3.60468 4.73963H9.58108C9.92994 4.73963 10.2129 4.41758 10.2129 4.02038C10.2129 3.62283 9.92994 3.30078 9.58108 3.30078Z" fill="white" stroke="#00ADA6" stroke-width="0.3"/>
<path d="M9.58108 6.17871H3.60468C3.25581 6.17871 2.9729 6.50076 2.9729 6.89796C2.9729 7.29513 3.25579 7.61717 3.60468 7.61717H9.58108C9.92994 7.61717 10.2129 7.29513 10.2129 6.89796C10.2129 6.50073 9.92994 6.17871 9.58108 6.17871Z" fill="white" stroke="#00ADA6" stroke-width="0.3"/>
</svg>
