<svg width="13" height="13" viewBox="0 0 13 13" fill="none" xmlns="http://www.w3.org/2000/svg">
<g clip-path="url(#clip0_512_2735)">
<path d="M5.71278 6.32174V0.907234C5.71278 0.769234 5.60077 0.657227 5.46277 0.657227C2.56777 0.657227 0.212769 3.23673 0.212769 6.40722C0.212769 9.5777 2.79228 12.1572 5.96276 12.1572C7.38127 12.1572 8.14875 11.9002 9.12176 11.1002C9.22627 11.0142 9.24326 10.8607 9.16027 10.7537L5.71278 6.32174ZM5.96276 11.6572C3.06776 11.6572 0.712761 9.30224 0.712761 6.40724C0.712761 3.60524 2.70926 1.30874 5.21276 1.16425V6.40724C5.21276 6.46274 5.23125 6.51674 5.26575 6.56073L8.61375 10.8652C7.82426 11.4682 7.16576 11.6572 5.96276 11.6572Z" fill="white" stroke="white" stroke-width="0.1"/>
<path d="M6.46278 6.15723H11.9628C12.1008 6.15723 12.2128 6.04522 12.2128 5.90722C12.2128 2.73673 9.63326 0.157227 6.46278 0.157227C6.32478 0.157227 6.21277 0.269234 6.21277 0.407234V5.90724C6.21277 6.04522 6.32478 6.15723 6.46278 6.15723ZM6.71276 0.663219C9.40927 0.790227 11.5798 2.96073 11.7068 5.65721H6.71276V0.663219Z" fill="white" stroke="white" stroke-width="0.1"/>
<path d="M11.9628 6.65723H6.96281C6.86681 6.65723 6.77831 6.71273 6.7368 6.79973C6.69529 6.88673 6.70781 6.98973 6.7683 7.06422L10.0183 11.0877C10.0618 11.1422 10.1258 11.1752 10.1953 11.1802C10.2013 11.1807 10.2068 11.1807 10.2128 11.1807C10.2758 11.1807 10.3368 11.1567 10.3833 11.1137C11.5458 10.0292 12.2128 8.49623 12.2128 6.90723C12.2128 6.76923 12.1008 6.65723 11.9628 6.65723ZM10.2343 10.5592L7.48631 7.15724H11.7068C11.6453 8.42823 11.1193 9.64373 10.2343 10.5592Z" fill="white" stroke="white" stroke-width="0.1"/>
</g>
<defs>
<clipPath id="clip0_512_2735">
<rect width="12" height="12" fill="white" transform="translate(0.212769 0.157227)"/>
</clipPath>
</defs>
</svg>
