<svg width="18" height="23" viewBox="0 0 18 23" fill="none" xmlns="http://www.w3.org/2000/svg">
<path d="M8.67951 22.2075L8.67949 22.2075C8.53081 22.0475 6.62696 19.9844 4.76407 17.2915C3.83259 15.9451 2.9199 14.4534 2.242 12.9728C1.5605 11.4844 1.13711 10.0517 1.13711 8.81132C1.13711 4.76567 4.55227 1.43789 8.79321 1.43789C13.0341 1.43789 16.4492 4.76566 16.4493 8.81132C16.4493 10.0517 16.0259 11.4844 15.3444 12.9728C14.6665 14.4534 13.7538 15.9451 12.8224 17.2915C10.9595 19.9844 9.05562 22.0475 8.90693 22.2075L8.9069 22.2075C8.88062 22.2358 8.84101 22.2542 8.79321 22.2542C8.74549 22.2542 8.70593 22.2359 8.67951 22.2075ZM4.0394 8.81132C4.0394 11.3742 6.19126 13.423 8.79321 13.423C11.3951 13.423 13.547 11.3743 13.547 8.81136C13.547 6.24844 11.3951 4.19971 8.79321 4.19971C6.19132 4.19971 4.0394 6.24838 4.0394 8.81132Z" stroke="#00ADA6" stroke-width="1.2"/>
</svg>
