<svg width="124" height="124" viewBox="0 0 124 124" fill="none" xmlns="http://www.w3.org/2000/svg">
<path d="M98.9462 123.137H25.3126C18.713 123.137 12.3837 120.524 7.71704 115.873C3.0504 111.221 0.428711 104.913 0.428711 98.3353V24.9452C0.428711 18.3674 3.0504 12.059 7.71704 7.40778C12.3837 2.75657 18.713 0.143555 25.3126 0.143555H98.9462C105.546 0.143555 111.875 2.75657 116.542 7.40778C121.208 12.059 123.83 18.3674 123.83 24.9452V98.3353C123.83 104.913 121.208 111.221 116.542 115.873C111.875 120.524 105.546 123.137 98.9462 123.137Z" fill="url(#paint0_linear_492_2129)"/>
<path d="M68.3621 98.6424L71.6308 92.5071H71.671C79.2668 78.0267 88.6242 58.4591 88.6242 49.7802C88.6242 42.7704 85.8303 36.0476 80.8572 31.0909C75.884 26.1343 69.139 23.3496 62.1059 23.3496C55.0729 23.3496 48.3278 26.1343 43.3547 31.0909C38.3815 36.0476 35.5876 42.7704 35.5876 49.7802C35.5876 58.2922 44.6102 77.3323 52.1323 91.7326L52.2797 92.0064L52.5543 92.5271L55.9034 98.6624H55.8029C59.44 105.338 62.0925 109.932 62.0925 109.932C62.0925 109.932 64.7718 105.365 68.3822 98.6624L68.3621 98.6424ZM65.2139 98.6424H63.4992V92.5071H68.4625L65.2139 98.6424ZM62.1059 36.5549C64.5163 36.5536 66.8729 37.2648 68.8775 38.5987C70.8822 39.9326 72.4449 41.8291 73.3679 44.0484C74.291 46.2676 74.5328 48.7099 74.0629 51.0662C73.593 53.4224 72.4324 55.5869 70.7281 57.2856C69.0237 58.9844 66.8521 60.1411 64.488 60.6094C62.1239 61.0778 59.6735 60.8367 57.4469 59.9168C55.2203 58.9968 53.3175 57.4393 51.9792 55.4412C50.6409 53.4432 49.9272 51.0944 49.9286 48.692C49.9321 45.4753 51.2166 42.3917 53.5 40.1184C55.7833 37.8451 58.8786 36.5682 62.1059 36.5682V36.5549ZM55.7359 92.5071H60.7261V98.6424H59.085L55.7359 92.5071Z" fill="#00ADA6"/>
<path d="M49.8481 99.0767L52.1322 97.7415L49.5869 92.9414C46.4053 86.8795 42.9289 79.9564 39.908 73.2536C38.5986 73.8389 37.1826 74.1499 35.7477 74.1672C34.3127 74.1845 32.8895 73.9078 31.5663 73.3543C30.2431 72.8008 29.0482 71.9822 28.0555 70.9493C27.0629 69.9164 26.2937 68.6913 25.7957 67.3499C25.2978 66.0085 25.0816 64.5794 25.1607 63.1513C25.2397 61.7232 25.6123 60.3265 26.2553 59.0479C26.8984 57.7692 27.7981 56.6359 28.8988 55.7181C29.9994 54.8004 31.2775 54.1178 32.6538 53.7128C32.2046 51.9657 31.9508 50.1746 31.8969 48.3719C31.8979 46.2407 32.1474 44.1168 32.6404 42.043C28.98 42.6126 25.5138 44.062 22.5415 46.2661C19.5692 48.4702 17.1801 51.3626 15.5808 54.6933C13.9815 58.024 13.22 61.6928 13.3623 65.3826C13.5045 69.0723 14.5462 72.6721 16.3972 75.8706C20.0745 82.2129 35.0116 92.5608 46.8205 100.031L47.0081 100.145L47.477 100.445L52.6212 103.576L52.5475 103.616C53.9876 104.498 55.3139 105.305 56.4928 106.013L54.2422 101.767L49.8481 99.0767Z" fill="#00ADA6"/>
<path d="M99.2744 44.8065C96.8397 43.4013 94.1641 42.4595 91.3839 42.0293C91.8769 44.1031 92.1265 46.227 92.1274 48.3582C92.0736 50.1609 91.8197 51.9521 91.3705 53.6991C92.733 54.1153 93.9959 54.8044 95.0818 55.7242C96.1677 56.6439 97.0538 57.7749 97.6857 59.0479C98.3177 60.3209 98.6823 61.7091 98.7572 63.1275C98.8321 64.5458 98.6156 65.9645 98.1211 67.2966C97.6266 68.6286 96.8644 69.8461 95.8813 70.8743C94.8982 71.9025 93.7149 72.7198 92.4037 73.2763C91.0926 73.8327 89.6813 74.1165 88.2563 74.1102C86.8313 74.104 85.4225 73.8078 84.1164 73.2399C81.0955 79.916 77.6191 86.8658 74.4374 92.9277L71.8921 97.7278L74.1762 99.063L69.7688 101.733L67.5115 105.979C68.6971 105.272 70.0233 104.464 71.4634 103.583L71.3897 103.543L76.534 100.412L76.9961 100.111L77.1904 99.9976C88.9994 92.5071 103.963 82.1992 107.614 75.857C109.116 73.2734 110.092 70.4199 110.485 67.4599C110.879 64.4998 110.683 61.4915 109.908 58.6071C109.134 55.7227 107.796 53.019 105.971 50.6508C104.146 48.2827 101.871 46.2967 99.2744 44.8065Z" fill="#00ADA6"/>
<path d="M71.671 94.1223C79.2668 79.6352 88.6242 60.041 88.6242 51.3954C88.6242 44.3856 85.8303 37.6629 80.8572 32.7062C75.884 27.7495 69.139 24.9648 62.1059 24.9648C55.0729 24.9648 48.3278 27.7495 43.3547 32.7062C38.3815 37.6629 35.5876 44.3856 35.5876 51.3954C35.5876 59.9141 44.6102 78.9543 52.1323 93.3479L52.2797 93.6149L52.5543 94.1423L55.9034 100.271H55.8029C59.44 106.947 62.0925 111.54 62.0925 111.54C62.0925 111.54 64.7718 106.974 68.3822 100.271L71.6509 94.1423L71.671 94.1223ZM62.1059 38.1768C64.516 38.1755 66.8723 38.8866 68.8769 40.2201C70.8814 41.5537 72.4441 43.4499 73.3673 45.6687C74.2905 47.8876 74.5328 50.3295 74.0634 52.6856C73.594 55.0417 72.4341 57.2062 70.7304 58.9052C69.0267 60.6042 66.8558 61.7614 64.4921 62.2305C62.1284 62.6996 59.6783 62.4596 57.4515 61.5406C55.2248 60.6217 53.3215 59.0652 51.9824 57.068C50.6433 55.0708 49.9286 52.7227 49.9286 50.3206C49.9277 48.7262 50.242 47.1472 50.8536 45.6739C51.4652 44.2005 52.362 42.8618 53.4928 41.734C54.6237 40.6063 55.9664 39.7117 57.4443 39.1013C58.9221 38.491 60.5062 38.1768 62.1059 38.1768ZM55.7359 94.1223H60.7261V100.251H59.085L55.7359 94.1223ZM65.2206 100.251H63.5058V94.1223H68.4625L65.2206 100.251Z" fill="url(#paint1_linear_492_2129)"/>
<path d="M49.8482 100.685L52.1323 99.35L49.587 94.5499C46.4053 88.488 42.9289 81.565 39.9081 74.8689C38.5997 75.4463 37.1864 75.7506 35.7556 75.7627C34.3247 75.7749 32.9064 75.4948 31.5883 74.9396C30.2702 74.3845 29.0802 73.5661 28.0917 72.5349C27.1032 71.5037 26.3371 70.2816 25.8407 68.9439C25.3443 67.6063 25.1281 66.1815 25.2054 64.7573C25.2828 63.3332 25.652 61.94 26.2904 60.6636C26.9288 59.3871 27.8228 58.2546 28.9172 57.3358C30.0117 56.417 31.2833 55.7314 32.6539 55.3213C32.2043 53.5744 31.9504 51.7831 31.897 49.9804C31.8973 47.8514 32.1468 45.7296 32.6405 43.6582C28.9753 44.2189 25.5028 45.6631 22.5249 47.8654C19.547 50.0677 17.1537 52.9615 15.5529 56.2953C13.9521 59.629 13.1923 63.3019 13.3395 66.9949C13.4866 70.6878 14.5363 74.2892 16.3973 77.4859C20.0746 83.8282 35.0117 94.1427 46.8206 101.647L47.0082 101.767C47.1689 101.86 47.323 101.96 47.477 102.061L52.6213 105.192L52.5476 105.232C53.9877 106.12 55.314 106.921 56.4929 107.628L54.2423 103.382L49.8482 100.685Z" fill="url(#paint2_linear_492_2129)"/>
<path d="M74.1628 100.685L71.8787 99.35L74.424 94.5499C77.6057 88.488 81.082 81.565 84.1029 74.8689C85.4113 75.4463 86.8246 75.7506 88.2555 75.7627C89.6864 75.7749 91.1046 75.4948 92.4226 74.9396C93.7407 74.3845 94.9308 73.5661 95.9193 72.5349C96.9078 71.5037 97.6739 70.2816 98.1703 68.9439C98.6667 67.6063 98.8829 66.1815 98.8056 64.7573C98.7282 63.3332 98.3589 61.94 97.7206 60.6636C97.0822 59.3871 96.1882 58.2546 95.0938 57.3358C93.9993 56.417 92.7276 55.7314 91.3571 55.3213C91.8067 53.5744 92.0606 51.7831 92.114 49.9804C92.1137 47.8514 91.8642 45.7296 91.3705 43.6582C95.0358 44.2189 98.5082 45.6631 101.486 47.8654C104.464 50.0677 106.857 52.9615 108.458 56.2953C110.059 59.629 110.819 63.3019 110.672 66.9949C110.524 70.6878 109.475 74.2892 107.614 77.4859C103.963 83.8282 88.9994 94.1293 77.1703 101.633L76.9761 101.753L76.5139 102.047L71.3763 105.192L71.45 105.232C70.0099 106.12 68.6836 106.921 67.498 107.628L69.7553 103.382L74.1628 100.685Z" fill="url(#paint3_linear_492_2129)"/>
<defs>
<linearGradient id="paint0_linear_492_2129" x1="62.1328" y1="2.81398" x2="62.1328" y2="121.081" gradientUnits="userSpaceOnUse">
<stop stop-color="#00B4A9"/>
<stop offset="0.99" stop-color="#0E8A80"/>
</linearGradient>
<linearGradient id="paint1_linear_492_2129" x1="60.9471" y1="22.3879" x2="64.3474" y2="107.676" gradientUnits="userSpaceOnUse">
<stop stop-color="#FDE495"/>
<stop offset="1" stop-color="#FCB445"/>
</linearGradient>
<linearGradient id="paint2_linear_492_2129" x1="34.9246" y1="39.1986" x2="34.9246" y2="101.747" gradientUnits="userSpaceOnUse">
<stop stop-color="white"/>
<stop offset="1" stop-color="#ACAEB3"/>
</linearGradient>
<linearGradient id="paint3_linear_492_2129" x1="89.0864" y1="39.1986" x2="89.0864" y2="101.747" gradientUnits="userSpaceOnUse">
<stop stop-color="white"/>
<stop offset="1" stop-color="#ACAEB3"/>
</linearGradient>
</defs>
</svg>
