<svg width="164" height="48" viewBox="0 0 164 48" fill="none" xmlns="http://www.w3.org/2000/svg">
<path d="M158.086 0.327515H5.87607C2.79325 0.327515 0.294128 2.82664 0.294128 5.90946V41.9727C0.294128 45.0556 2.79325 47.5547 5.87607 47.5547H158.086C161.169 47.5547 163.668 45.0556 163.668 41.9727V5.90946C163.668 2.82664 161.169 0.327515 158.086 0.327515Z" fill="black"/>
<path d="M82.7148 26.2102C81.6922 26.2132 80.6935 26.5191 79.8447 27.0894C78.9959 27.6597 78.3351 28.4687 77.9459 29.4143C77.5566 30.3599 77.4564 31.3997 77.6577 32.4022C77.859 33.4048 78.3529 34.3252 79.077 35.0472C79.8012 35.7692 80.723 36.2605 81.7262 36.4589C82.7293 36.6573 83.7688 36.5539 84.7132 36.1619C85.6577 35.7699 86.4648 35.1068 87.0326 34.2564C87.6004 33.4059 87.9034 32.4063 87.9034 31.3837C87.9137 30.7002 87.7864 30.0216 87.5291 29.3883C87.2717 28.755 86.8897 28.1799 86.4056 27.6972C85.9215 27.2146 85.3453 26.8342 84.7113 26.5787C84.0772 26.3233 83.3983 26.1979 82.7148 26.2102ZM82.7148 34.5301C82.0842 34.5757 81.4544 34.4303 80.9077 34.1127C80.3609 33.7952 79.9225 33.3203 79.6496 32.7499C79.3767 32.1796 79.282 31.5402 79.3777 30.9152C79.4735 30.2903 79.7554 29.7086 80.1866 29.2462C80.6177 28.7837 81.1782 28.4619 81.795 28.3227C82.4118 28.1834 83.0561 28.2332 83.6442 28.4656C84.2322 28.6979 84.7366 29.1021 85.0916 29.6253C85.4466 30.1485 85.6357 30.7665 85.6344 31.3988C85.6588 32.1988 85.3654 32.9758 84.8182 33.5599C84.271 34.1439 83.5147 34.4874 82.7148 34.515V34.5301ZM71.3694 26.2102C70.3468 26.2132 69.3481 26.5191 68.4993 27.0894C67.6505 27.6597 66.9897 28.4687 66.6005 29.4143C66.2112 30.3599 66.1109 31.3997 66.3123 32.4022C66.5136 33.4048 67.0075 34.3252 67.7316 35.0472C68.4558 35.7692 69.3776 36.2605 70.3808 36.4589C71.3839 36.6573 72.4234 36.5539 73.3678 36.1619C74.3123 35.7699 75.1194 35.1068 75.6872 34.2564C76.255 33.4059 76.558 32.4063 76.558 31.3837C76.5682 30.7015 76.4414 30.0241 76.185 29.3919C75.9286 28.7596 75.5479 28.1852 75.0655 27.7027C74.583 27.2203 74.0086 26.8396 73.3763 26.5832C72.744 26.3268 72.0667 26.2 71.3845 26.2102H71.3694ZM71.3694 34.5301C70.7387 34.5757 70.109 34.4303 69.5623 34.1127C69.0155 33.7952 68.5771 33.3203 68.3042 32.7499C68.0313 32.1796 67.9366 31.5402 68.0323 30.9152C68.1281 30.2903 68.41 29.7086 68.8411 29.2462C69.2723 28.7837 69.8328 28.4619 70.4496 28.3227C71.0663 28.1834 71.7107 28.2332 72.2988 28.4656C72.8868 28.6979 73.3912 29.1021 73.7462 29.6253C74.1012 30.1485 74.2903 30.7665 74.2889 31.3988C74.3135 32.1962 74.0221 32.9711 73.4781 33.5547C72.9342 34.1383 72.1817 34.4835 71.3845 34.515L71.3694 34.5301ZM57.891 27.8137V30.0071H63.1402C63.0638 31.0356 62.6427 32.0082 61.9451 32.7678C61.4194 33.3047 60.7871 33.7254 60.0888 34.0029C59.3905 34.2804 58.6418 34.4085 57.891 34.3789C56.3778 34.3244 54.9447 33.685 53.8934 32.5952C52.8421 31.5054 52.2546 30.0502 52.2546 28.536C52.2546 27.0218 52.8421 25.5666 53.8934 24.4768C54.9447 23.387 56.3778 22.7476 57.891 22.6931C59.3657 22.6744 60.7878 23.24 61.8468 24.2663L63.3595 22.7536C62.6355 22.0362 61.7755 21.4706 60.8299 21.0901C59.8844 20.7095 58.8724 20.5217 57.8532 20.5375C56.7771 20.5045 55.7054 20.6879 54.7015 21.0769C53.6976 21.4659 52.7821 22.0526 52.0093 22.8021C51.2364 23.5516 50.622 24.4487 50.2024 25.4401C49.7827 26.4316 49.5665 27.4972 49.5665 28.5738C49.5665 29.6504 49.7827 30.716 50.2024 31.7075C50.622 32.6989 51.2364 33.596 52.0093 34.3455C52.7821 35.095 53.6976 35.6817 54.7015 36.0707C55.7054 36.4597 56.7771 36.6432 57.8532 36.6101C58.8948 36.6504 59.9331 36.469 60.8993 36.0778C61.8655 35.6866 62.7376 35.0946 63.4578 34.3411C64.738 32.9433 65.4195 31.0997 65.3563 29.2054C65.361 28.7465 65.323 28.2882 65.2429 27.8364L57.891 27.8137ZM113.022 29.523C112.71 28.586 112.118 27.7676 111.325 27.1789C110.532 26.5903 109.577 26.26 108.59 26.2329C107.925 26.2371 107.268 26.376 106.659 26.6413C106.049 26.9065 105.5 27.2926 105.044 27.7762C104.588 28.2598 104.235 28.8308 104.006 29.4547C103.777 30.0787 103.677 30.7426 103.711 31.4064C103.697 32.0865 103.82 32.7625 104.072 33.3942C104.325 34.0258 104.702 34.6001 105.181 35.0829C105.661 35.5657 106.232 35.947 106.862 36.2042C107.492 36.4614 108.167 36.5892 108.847 36.5799C109.697 36.5875 110.536 36.3842 111.288 35.9882C112.041 35.5922 112.683 35.0159 113.158 34.3108L111.396 33.1309C111.131 33.5695 110.757 33.9319 110.31 34.1825C109.864 34.4331 109.359 34.5633 108.847 34.5604C108.32 34.5823 107.798 34.4445 107.35 34.1652C106.902 33.8859 106.548 33.478 106.336 32.9947L113.257 30.1357L113.022 29.523ZM105.98 31.2248C105.955 30.8474 106.005 30.4686 106.128 30.1108C106.251 29.753 106.445 29.4235 106.697 29.1416C106.949 28.8596 107.255 28.631 107.597 28.4692C107.939 28.3074 108.31 28.2157 108.688 28.1994C109.081 28.1745 109.472 28.2651 109.813 28.46C110.154 28.6549 110.431 28.9456 110.609 29.2961L105.98 31.2248ZM100.353 36.2395H102.622V21.0367H100.353V36.2395ZM96.6318 27.3674H96.5562C96.2111 26.9915 95.7896 26.6937 95.32 26.4941C94.8503 26.2945 94.3434 26.1977 93.8333 26.2102C92.5096 26.2818 91.2637 26.8581 90.3519 27.8204C89.4402 28.7828 88.9321 30.058 88.9321 31.3837C88.9321 32.7093 89.4402 33.9846 90.3519 34.9469C91.2637 35.9093 92.5096 36.4856 93.8333 36.5572C94.3456 36.5698 94.8545 36.4708 95.3247 36.2671C95.7949 36.0633 96.2151 35.7597 96.5562 35.3773H96.6318V36.1336C96.6318 38.1153 95.5729 39.1591 93.8711 39.1591C93.3023 39.1443 92.7507 38.961 92.2862 38.6325C91.8217 38.3039 91.4651 37.8449 91.2617 37.3136L89.28 38.138C89.6601 39.0399 90.2992 39.8088 91.1165 40.3474C91.9337 40.8859 92.8924 41.1699 93.8711 41.1634C96.5335 41.1634 98.7875 39.5978 98.7875 35.7706V26.4976H96.6318V27.3674ZM94.03 34.515C93.2445 34.4481 92.5128 34.0889 91.9796 33.5083C91.4463 32.9278 91.1504 32.1682 91.1504 31.3799C91.1504 30.5916 91.4463 29.8321 91.9796 29.2515C92.5128 28.6709 93.2445 28.3117 94.03 28.2448C95.5427 28.2448 96.7907 29.576 96.7907 31.3988C96.8216 31.7875 96.7734 32.1784 96.6492 32.548C96.525 32.9176 96.3273 33.2583 96.0679 33.5494C95.8086 33.8406 95.493 34.0762 95.1401 34.2422C94.7873 34.4081 94.4045 34.5009 94.0148 34.515H94.03ZM123.687 21.0367H118.233V36.2395H120.503V30.4836H123.672C124.308 30.5091 124.943 30.4058 125.538 30.1799C126.133 29.954 126.677 29.6101 127.136 29.169C127.595 28.7279 127.96 28.1985 128.21 27.6128C128.459 27.027 128.588 26.3968 128.588 25.7601C128.588 25.1234 128.459 24.4933 128.21 23.9075C127.96 23.3217 127.595 22.7924 127.136 22.3513C126.677 21.9102 126.133 21.5663 125.538 21.3404C124.943 21.1145 124.308 21.0112 123.672 21.0367H123.687ZM123.747 28.3658H120.503V23.1545H123.732C124.086 23.1354 124.44 23.1886 124.773 23.311C125.106 23.4333 125.41 23.6222 125.668 23.866C125.925 24.1098 126.13 24.4035 126.27 24.7292C126.41 25.0549 126.482 25.4056 126.482 25.7601C126.482 26.1146 126.41 26.4654 126.27 26.7911C126.13 27.1168 125.925 27.4105 125.668 27.6543C125.41 27.8981 125.106 28.087 124.773 28.2093C124.44 28.3316 124.086 28.3849 123.732 28.3658H123.747ZM137.748 26.1799C136.92 26.1319 136.095 26.3268 135.377 26.7407C134.658 27.1545 134.075 27.7693 133.701 28.5095L135.713 29.3491C135.914 28.9817 136.218 28.6809 136.587 28.4835C136.957 28.286 137.376 28.2004 137.793 28.2372C138.965 28.2372 140.16 28.9406 140.176 30.1886V30.3475C139.447 29.9589 138.634 29.7563 137.808 29.7575C135.637 29.7575 133.429 30.9526 133.429 33.1838C133.429 35.2184 135.206 36.5345 137.211 36.5345C137.785 36.5652 138.357 36.441 138.866 36.1748C139.376 35.9087 139.805 35.5105 140.107 35.0218H140.183V36.1941H142.377V30.3626C142.377 27.6851 140.357 26.1799 137.748 26.1799ZM137.475 34.4999C136.719 34.4999 135.698 34.1293 135.698 33.2065C135.698 32.0342 136.991 31.5879 138.103 31.5879C138.827 31.5669 139.543 31.742 140.176 32.0947C140.095 32.7554 139.778 33.3647 139.283 33.8097C138.788 34.2547 138.148 34.5053 137.483 34.515L137.475 34.4999ZM150.333 26.4976L147.732 33.0931H147.656L144.978 26.4976H142.535L146.582 35.7101L144.275 40.8685H146.642L152.875 26.4976H150.333ZM129.912 36.2244H132.181V21.0215H129.912V36.2244Z" fill="white"/>
<path d="M12.517 8.92733C12.1184 9.40446 11.9181 10.0163 11.9572 10.6367V37.5178C11.9181 38.1382 12.1184 38.75 12.517 39.2272L12.6077 39.3179L27.6669 24.2285V23.873L12.6077 8.84414L12.517 8.92733Z" fill="#5BC9F4"/>
<path d="M32.6815 29.2734L27.6668 24.2285V23.873L32.6891 18.8508L32.8025 18.9113L38.7475 22.2922C40.4493 23.2604 40.4493 24.8336 38.7475 25.8017L32.8025 29.1827L32.6815 29.2734Z" fill="url(#paint0_linear_14_247)"/>
<path d="M32.8025 29.2129L27.6668 24.0772L12.5396 39.2045C13.0993 39.7944 14.0523 39.8701 15.0659 39.2801L32.8252 29.1902" fill="url(#paint1_linear_14_247)"/>
<path d="M32.8025 18.934L15.0432 8.8517C13.9994 8.26173 13.0766 8.33737 12.5169 8.92733L27.6442 24.0545L32.8025 18.934Z" fill="url(#paint2_linear_14_247)"/>
<path d="M55.5917 9.78959C55.1211 9.3634 54.5096 9.12632 53.8747 9.12399C53.1465 9.12399 52.4482 9.41325 51.9333 9.92815C51.4184 10.443 51.1291 11.1414 51.1291 11.8696C51.1291 12.5978 51.4184 13.2961 51.9333 13.811C52.4482 14.3259 53.1465 14.6152 53.8747 14.6152C54.1512 14.6421 54.4303 14.6132 54.6954 14.5301C54.9605 14.447 55.2062 14.3115 55.4179 14.1316C55.6296 13.9516 55.8029 13.731 55.9276 13.4827C56.0523 13.2345 56.1258 12.9637 56.1438 12.6864H54.1016V11.8469H57.2405C57.2405 14.358 55.9018 15.5455 53.8596 15.5455C52.9145 15.5026 52.0224 15.097 51.3687 14.413C50.7151 13.729 50.3504 12.8194 50.3504 11.8734C50.3504 10.9273 50.7151 10.0177 51.3687 9.33372C52.0224 8.64976 52.9145 8.24413 53.8596 8.20123C54.7547 8.19856 55.6174 8.53657 56.2724 9.14668L55.5917 9.78959Z" fill="white"/>
<path d="M62.8149 8.28443V9.1845H59.5399V11.4536H62.3989V12.3612H59.5399V14.5244H62.9208V15.4245H58.5793V8.2693L62.8149 8.28443Z" fill="white"/>
<path d="M69.0776 8.28442V9.19962H66.9068V15.4396H65.9311V9.19962H63.7604V8.28442H69.0776Z" fill="white"/>
<path d="M73.7141 8.28442V15.4396H72.7459V8.28442H73.7141Z" fill="white"/>
<path d="M80.302 8.28442V9.19962H78.1312V15.4396H77.1555V9.19962H74.9696V8.28442H80.302Z" fill="white"/>
<path d="M87.1168 8.20123C87.8463 8.18922 88.5628 8.39456 89.1752 8.7911C89.7877 9.18765 90.2682 9.75746 90.5557 10.428C90.8432 11.0985 90.9247 11.8395 90.7898 12.5565C90.6549 13.2735 90.3096 13.9341 89.798 14.4543C89.2864 14.9744 88.6316 15.3306 87.917 15.4774C87.2023 15.6242 86.4601 15.555 85.7849 15.2786C85.1097 15.0023 84.532 14.5313 84.1253 13.9255C83.7187 13.3198 83.5015 12.6067 83.5014 11.8771C83.4954 11.3978 83.5844 10.9221 83.7632 10.4774C83.942 10.0326 84.2071 9.6277 84.5432 9.28595C84.8794 8.94421 85.2798 8.6724 85.7215 8.48622C86.1633 8.30005 86.6375 8.20319 87.1168 8.20123ZM87.1168 14.6076C87.6621 14.6257 88.2005 14.4804 88.6627 14.1904C89.1249 13.9004 89.4899 13.479 89.7109 12.9801C89.9319 12.4812 89.9988 11.9276 89.9031 11.3904C89.8073 10.8533 89.5532 10.3569 89.1733 9.96519C88.7935 9.57343 88.3053 9.30409 87.7713 9.19174C87.2374 9.07938 86.682 9.12912 86.1765 9.33459C85.671 9.54005 85.2385 9.89187 84.9343 10.3449C84.6302 10.7979 84.4683 11.3315 84.4695 11.8771C84.4605 12.2312 84.5221 12.5835 84.6509 12.9134C84.7797 13.2433 84.973 13.5442 85.2195 13.7985C85.4661 14.0528 85.7609 14.2553 86.0866 14.3942C86.4124 14.5332 86.7626 14.6057 87.1168 14.6076Z" fill="white"/>
<path d="M96.4654 15.4396L93.2055 10.0467V15.4396H92.2373V8.28442H93.1903L96.42 13.6319V8.28442H97.3882V15.4396H96.4654Z" fill="white"/>
<defs>
<linearGradient id="paint0_linear_14_247" x1="37.6432" y1="24.0772" x2="8.22836" y2="24.0772" gradientUnits="userSpaceOnUse">
<stop stop-color="#FEE000"/>
<stop offset="0.42" stop-color="#FBBC0E"/>
<stop offset="0.78" stop-color="#FAA418"/>
<stop offset="1" stop-color="#F99B1C"/>
</linearGradient>
<linearGradient id="paint1_linear_14_247" x1="30.0115" y1="26.8682" x2="2.34388" y2="54.5283" gradientUnits="userSpaceOnUse">
<stop stop-color="#EF4547"/>
<stop offset="1" stop-color="#C6186D"/>
</linearGradient>
<linearGradient id="paint2_linear_14_247" x1="2.22287" y1="-6.49487" x2="24.8078" y2="16.0901" gradientUnits="userSpaceOnUse">
<stop stop-color="#279E6F"/>
<stop offset="0.04" stop-color="#2BA06F"/>
<stop offset="0.46" stop-color="#53B26C"/>
<stop offset="0.8" stop-color="#6BBD6A"/>
<stop offset="1" stop-color="#74C169"/>
</linearGradient>
</defs>
</svg>
