<svg width="164" height="48" viewBox="0 0 164 48" fill="none" xmlns="http://www.w3.org/2000/svg">
<path d="M158.37 0.327515H6.16019C3.07737 0.327515 0.578247 2.82664 0.578247 5.90946V41.9727C0.578247 45.0556 3.07737 47.5547 6.16019 47.5547H158.37C161.453 47.5547 163.952 45.0556 163.952 41.9727V5.90946C163.952 2.82664 161.453 0.327515 158.37 0.327515Z" fill="black"/>
<path d="M54.7639 13.4806L54.0756 15.7497H52.5629L55.1119 7.78523H56.9649L59.5668 15.7497H58.0087L57.2524 13.4806H54.7639ZM57.033 12.3839L56.4128 10.4552C56.2615 9.97112 56.1329 9.42654 56.0119 8.94247C55.8985 9.40385 55.7775 9.96355 55.6338 10.4552L55.0211 12.4142L57.033 12.3839Z" fill="white"/>
<path d="M61.7376 9.9938L62.6679 12.9134C62.8343 13.4201 62.9553 13.8815 63.0612 14.3504H63.099C63.2049 13.8815 63.3335 13.4352 63.4848 12.9134L64.4076 9.9938H65.9203L63.7344 15.7497H62.3049L60.1644 9.9938H61.7376Z" fill="white"/>
<path d="M71.7216 14.3656C71.7142 14.8289 71.7471 15.292 71.8199 15.7497H70.5114L70.4055 15.1068C70.1997 15.356 69.9389 15.554 69.6436 15.6853C69.3483 15.8165 69.0265 15.8774 68.7037 15.8632C68.4704 15.8766 68.2369 15.8421 68.0175 15.7618C67.7981 15.6814 67.5975 15.557 67.4281 15.3961C67.2587 15.2352 67.1241 15.0412 67.0326 14.8263C66.941 14.6113 66.8945 14.3799 66.896 14.1462C66.896 12.7091 68.1818 11.9679 70.3072 11.9755V11.8847C70.3072 11.5065 70.1559 10.8788 69.1424 10.8788C68.5968 10.8776 68.061 11.0239 67.5918 11.3023L67.312 10.3569C67.9491 10.009 68.6663 9.83432 69.392 9.8501C71.2299 9.8501 71.7594 11.0225 71.7594 12.2856L71.7216 14.3656ZM70.3072 12.9361C69.2785 12.9361 68.3028 13.1403 68.3028 14.0101C68.2923 14.121 68.3064 14.2328 68.3441 14.3376C68.3818 14.4424 68.4422 14.5376 68.5209 14.6164C68.5997 14.6951 68.6949 14.7555 68.7997 14.7932C68.9045 14.8309 69.0163 14.845 69.1272 14.8345C69.3724 14.8418 69.6138 14.7731 69.8183 14.6376C70.0228 14.5022 70.1804 14.3068 70.2693 14.0782C70.2879 13.9731 70.2879 13.8656 70.2693 13.7605L70.3072 12.9361Z" fill="white"/>
<path d="M74.4974 9.16937C74.3943 9.17557 74.2911 9.16059 74.194 9.12537C74.097 9.09014 74.0081 9.03541 73.933 8.96455C73.8579 8.89369 73.7981 8.80819 73.7573 8.71334C73.7165 8.61848 73.6955 8.51628 73.6957 8.41301C73.7152 8.2109 73.8093 8.0233 73.9596 7.88679C74.1099 7.75028 74.3057 7.67466 74.5088 7.67466C74.7118 7.67466 74.9076 7.75028 75.0579 7.88679C75.2082 8.0233 75.3023 8.2109 75.3219 8.41301C75.3221 8.51696 75.3009 8.61984 75.2597 8.71523C75.2184 8.81063 75.1579 8.89649 75.0819 8.96747C75.006 9.03844 74.9162 9.093 74.8183 9.12774C74.7203 9.16248 74.6162 9.17665 74.5125 9.16937H74.4974ZM73.7411 15.7497V9.99381H75.2538V15.7497H73.7411Z" fill="white"/>
<path d="M77.3186 7.35411H78.7708V15.7497H77.3186V7.35411Z" fill="white"/>
<path d="M85.336 14.3656C85.3266 14.8287 85.357 15.2918 85.4268 15.7497H84.1183L84.0124 15.1068H83.9746C83.7688 15.356 83.508 15.554 83.2127 15.6853C82.9174 15.8165 82.5956 15.8774 82.2728 15.8632C82.0399 15.8767 81.8067 15.8421 81.5877 15.7617C81.3687 15.6813 81.1686 15.5567 80.9998 15.3957C80.831 15.2347 80.6971 15.0407 80.6064 14.8257C80.5157 14.6108 80.4702 14.3795 80.4726 14.1462C80.4726 12.7091 81.7584 11.9679 83.8838 11.9755V11.8847C83.8838 11.5065 83.725 10.8788 82.7115 10.8788C82.1787 10.8843 81.6569 11.0304 81.1987 11.3023L80.9113 10.3569C81.5488 10.01 82.2657 9.83538 82.9913 9.8501C84.8293 9.8501 85.3663 11.0225 85.3663 12.2856L85.336 14.3656ZM83.9141 12.9361C82.893 12.9361 81.9097 13.1403 81.9097 14.0101C81.8992 14.121 81.9133 14.2328 81.951 14.3376C81.9887 14.4424 82.0491 14.5376 82.1279 14.6164C82.2066 14.6951 82.3018 14.7555 82.4066 14.7932C82.5114 14.8309 82.6233 14.845 82.7342 14.8345C82.9801 14.8412 83.2223 14.7723 83.4279 14.637C83.6335 14.5018 83.7926 14.3067 83.8838 14.0782C83.8987 13.9728 83.8987 13.8659 83.8838 13.7605L83.9141 12.9361Z" fill="white"/>
<path d="M87.3555 7.35411H88.8683V10.788C89.0701 10.488 89.3461 10.2454 89.6695 10.0837C89.9929 9.92197 90.3527 9.84671 90.7138 9.86522C92.1206 9.86522 93.119 11.0376 93.1114 12.7848C93.1114 14.8496 91.7954 15.8783 90.502 15.8783C90.1364 15.8968 89.7728 15.8142 89.4512 15.6393C89.1296 15.4645 88.8624 15.2043 88.6792 14.8875L88.5808 15.7497H87.3555C87.3555 15.3564 87.4009 14.7211 87.4009 14.1387L87.3555 7.35411ZM88.8077 13.405C88.7962 13.5182 88.7962 13.6322 88.8077 13.7454C88.8773 14.034 89.0419 14.2909 89.2751 14.4748C89.5084 14.6586 89.7966 14.7587 90.0936 14.7589C91.0012 14.7589 91.5609 14.0403 91.5609 12.8755C91.5609 11.8545 91.0768 11.03 90.1087 11.03C89.8057 11.0363 89.5136 11.1441 89.2791 11.336C89.0446 11.528 88.8813 11.7931 88.8153 12.0889C88.7877 12.2132 88.7725 12.3399 88.7699 12.4671L88.8077 13.405Z" fill="white"/>
<path d="M94.8132 7.35411H96.2654V15.7497H94.8132V7.35411Z" fill="white"/>
<path d="M99.3892 13.2764C99.3948 13.4959 99.4464 13.7118 99.5408 13.91C99.6352 14.1083 99.7702 14.2844 99.9371 14.4271C100.104 14.5697 100.299 14.6757 100.51 14.7381C100.72 14.8004 100.941 14.8178 101.159 14.7891C101.702 14.7964 102.242 14.7094 102.755 14.532L102.967 15.5228C102.329 15.7758 101.648 15.8993 100.962 15.8859C100.569 15.9233 100.172 15.8743 99.7995 15.7425C99.4269 15.6106 99.0876 15.399 98.8052 15.1224C98.5229 14.8459 98.3043 14.511 98.1648 14.1412C98.0253 13.7714 97.9682 13.3756 97.9975 12.9814C97.9975 11.3855 98.9657 9.88792 100.811 9.88792C102.657 9.88792 103.284 11.4006 103.284 12.6865C103.286 12.8916 103.271 13.0965 103.239 13.2991L99.3892 13.2764ZM101.915 12.2629C101.94 12.0908 101.928 11.9154 101.88 11.7483C101.832 11.5812 101.749 11.4261 101.637 11.2933C101.525 11.1604 101.386 11.0528 101.229 10.9774C101.073 10.9021 100.902 10.8607 100.728 10.8561C100.369 10.8789 100.031 11.0364 99.783 11.2972C99.5349 11.5581 99.3942 11.9029 99.3892 12.2629H101.915Z" fill="white"/>
<path d="M110.455 15.8783C110.065 15.8929 109.677 15.8256 109.315 15.6806C108.953 15.5356 108.626 15.3163 108.354 15.0368C108.083 14.7573 107.873 14.4239 107.738 14.0581C107.604 13.6923 107.547 13.3023 107.573 12.9134C107.546 12.5136 107.604 12.1125 107.743 11.7367C107.882 11.3608 108.099 11.0187 108.38 10.7329C108.66 10.447 108.999 10.2239 109.372 10.0783C109.745 9.93263 110.145 9.86775 110.546 9.88792C110.933 9.87319 111.319 9.94013 111.678 10.0844C112.038 10.2287 112.363 10.447 112.633 10.7253C112.903 11.0035 113.111 11.3354 113.244 11.6993C113.377 12.0633 113.431 12.4512 113.405 12.8377C113.435 13.2374 113.38 13.6389 113.244 14.016C113.109 14.3931 112.895 14.7374 112.618 15.0265C112.34 15.3155 112.005 15.5428 111.633 15.6935C111.262 15.8442 110.863 15.9149 110.462 15.901L110.455 15.8783ZM110.5 14.827C111.325 14.827 111.907 14.0252 111.907 12.8528C111.907 11.9528 111.499 10.9166 110.508 10.9166C109.517 10.9166 109.071 11.9225 109.071 12.8755C109.071 13.9874 109.623 14.827 110.485 14.827H110.5Z" fill="white"/>
<path d="M115.114 11.7107C115.114 11.0451 115.114 10.493 115.069 9.99381H116.332L116.4 10.8561C116.594 10.5457 116.865 10.2911 117.188 10.1174C117.51 9.94367 117.872 9.85677 118.238 9.86523C119.244 9.86523 120.28 10.5157 120.28 12.331V15.7497H118.828V12.4974C118.828 11.6729 118.525 11.0451 117.731 11.0451C117.477 11.0532 117.231 11.1397 117.028 11.2927C116.825 11.4457 116.674 11.6578 116.596 11.8998C116.548 12.0486 116.525 12.2047 116.528 12.3612V15.7497H115.114V11.7107Z" fill="white"/>
<path d="M127.012 8.51891V9.99381H128.396V11.083H127.012V13.6092C127.012 14.3202 127.201 14.6681 127.768 14.6681C127.959 14.678 128.15 14.6602 128.335 14.6152V15.7119C127.996 15.8212 127.64 15.8724 127.284 15.8632C127.055 15.8753 126.826 15.8398 126.611 15.7591C126.396 15.6784 126.2 15.5542 126.036 15.3942C125.68 14.9338 125.515 14.3543 125.574 13.7756V11.083H124.758V9.99381H125.574V8.94247L127.012 8.51891Z" fill="white"/>
<path d="M130.007 7.35411H131.459V10.7729C131.652 10.4958 131.912 10.272 132.215 10.1224C132.522 9.95514 132.865 9.86676 133.214 9.86522C134.197 9.86522 135.226 10.5157 135.226 12.3612V15.7497H133.773V12.5125C133.773 11.6881 133.463 11.0451 132.662 11.0451C132.411 11.0472 132.168 11.1269 131.964 11.2732C131.761 11.4195 131.608 11.6252 131.527 11.862C131.483 12.0039 131.462 12.1521 131.466 12.3007V15.7497H130.014L130.007 7.35411Z" fill="white"/>
<path d="M138.304 13.2764C138.309 13.4959 138.361 13.7118 138.456 13.91C138.55 14.1083 138.685 14.2844 138.852 14.4271C139.019 14.5697 139.214 14.6757 139.424 14.7381C139.635 14.8004 139.856 14.8178 140.074 14.7891C140.617 14.7964 141.157 14.7094 141.67 14.532L141.882 15.5228C141.244 15.7758 140.563 15.8993 139.877 15.8859C139.484 15.9233 139.087 15.8743 138.714 15.7425C138.342 15.6106 138.002 15.399 137.72 15.1224C137.438 14.8459 137.219 14.511 137.08 14.1412C136.94 13.7714 136.883 13.3756 136.912 12.9814C136.912 11.3855 137.88 9.88792 139.726 9.88792C141.571 9.88792 142.199 11.4006 142.199 12.6865C142.201 12.8916 142.186 13.0965 142.154 13.2991L138.304 13.2764ZM140.83 12.2629C140.855 12.0908 140.843 11.9154 140.795 11.7483C140.747 11.5812 140.664 11.4261 140.552 11.2933C140.44 11.1604 140.301 11.0528 140.144 10.9774C139.987 10.9021 139.817 10.8607 139.643 10.8561C139.283 10.8789 138.946 11.0364 138.698 11.2972C138.45 11.5581 138.309 11.9029 138.304 12.2629H140.83Z" fill="white"/>
<path d="M36.6794 23.4646C36.6963 22.269 37.0151 21.0972 37.6062 20.0578C38.1973 19.0185 39.0414 18.1454 40.0603 17.5196C39.4127 16.596 38.5587 15.8362 37.5661 15.3005C36.5735 14.7648 35.4696 14.468 34.3422 14.4336C31.937 14.1765 29.6074 15.8707 28.3821 15.8707C27.1568 15.8707 25.2432 14.4563 23.2161 14.4942C21.9019 14.5388 20.6215 14.9222 19.499 15.6074C18.3766 16.2925 17.4502 17.256 16.8098 18.4045C14.0415 23.1999 16.1063 30.2416 18.7612 34.1217C20.0924 36.0126 21.6429 38.138 23.6699 38.0624C25.697 37.9867 26.3928 36.7917 28.7905 36.7917C31.1882 36.7917 31.8689 38.0624 33.9338 38.0094C35.9986 37.9565 37.4055 36.1034 38.6837 34.1898C39.6391 32.8393 40.3744 31.3458 40.862 29.7651C39.6236 29.2411 38.5666 28.3644 37.8229 27.2441C37.0791 26.1237 36.6814 24.8093 36.6794 23.4646Z" fill="white"/>
<path d="M32.7841 11.8847C33.9598 10.4954 34.5437 8.70031 34.4103 6.88517C32.6355 7.0706 30.996 7.91872 29.8192 9.26014C29.2431 9.9146 28.8021 10.6766 28.5217 11.5022C28.2413 12.3277 28.1271 13.2006 28.1854 14.0706C29.072 14.0795 29.949 13.8875 30.7508 13.5089C31.5525 13.1303 32.258 12.575 32.8144 11.8847" fill="white"/>
<path d="M65.4211 37.7447H62.6528L61.1401 32.9796H55.8455L54.3933 37.7447H51.7083L56.9347 21.5359H60.1265L65.4211 37.7447ZM60.6863 30.9828L59.3172 26.7472C59.166 26.3161 58.8937 25.3025 58.4928 23.7218H58.4474C58.2886 24.41 58.0314 25.4236 57.6911 26.7472L56.3447 30.9828H60.6863Z" fill="white"/>
<path d="M78.8238 31.7543C78.9179 33.4768 78.3404 35.1686 77.2128 36.474C76.7558 36.965 76.2001 37.3536 75.5822 37.6143C74.9643 37.8751 74.2981 38.002 73.6276 37.9867C72.9757 38.0398 72.3217 37.9135 71.7364 37.6215C71.1512 37.3295 70.6569 36.883 70.3072 36.3303H70.2618V42.4871H67.6902V29.9012C67.6902 28.6532 67.6902 27.375 67.5919 26.0513H69.8609L70.0122 27.9044H70.0576C70.4526 27.3033 70.9823 26.8025 71.6046 26.4418C72.2269 26.081 72.9247 25.8703 73.6426 25.8262C74.3606 25.7822 75.0789 25.906 75.7406 26.188C76.4024 26.47 76.9893 26.9023 77.4548 27.4506C78.4214 28.6706 78.9131 30.1996 78.8389 31.7543H78.8238ZM76.1917 31.8526C76.238 30.8589 75.9736 29.8755 75.4353 29.039C75.2157 28.7304 74.9348 28.4706 74.6101 28.2755C74.2855 28.0805 73.9241 27.9546 73.5485 27.9056C73.173 27.8566 72.7914 27.8857 72.4276 27.9909C72.0638 28.0961 71.7256 28.2752 71.4342 28.5171C70.9124 28.944 70.5521 29.5365 70.4131 30.1962C70.3427 30.4426 70.3021 30.6965 70.2921 30.9526V32.904C70.2645 33.692 70.5345 34.4616 71.0484 35.0596C71.3021 35.3466 71.616 35.574 71.9677 35.7257C72.3194 35.8774 72.7002 35.9495 73.083 35.937C73.5259 35.9523 73.9655 35.8565 74.3619 35.6583C74.7582 35.4601 75.0986 35.1659 75.3521 34.8024C75.9342 33.9211 76.2203 32.8773 76.169 31.8224" fill="white"/>
<path d="M92.2719 31.7543C92.3671 33.4782 91.7865 35.1714 90.6533 36.474C90.1984 36.9655 89.6441 37.3546 89.0273 37.6155C88.4105 37.8763 87.7452 38.0028 87.0757 37.9867C86.4238 38.0398 85.7698 37.9135 85.1845 37.6215C84.5992 37.3295 84.105 36.883 83.7553 36.3303H83.7099V42.4871H81.108V29.9012C81.108 28.6532 81.108 27.375 81.0097 26.0513H83.2788L83.43 27.9044H83.4754C83.8704 27.3033 84.4001 26.8025 85.0224 26.4418C85.6447 26.081 86.3425 25.8703 87.0604 25.8262C87.7784 25.7822 88.4967 25.906 89.1585 26.188C89.8202 26.47 90.4071 26.9023 90.8726 27.4506C91.8392 28.6706 92.3309 30.1996 92.2568 31.7543H92.2719ZM89.6095 31.8526C89.6558 30.8589 89.3914 29.8755 88.8531 29.039C88.6335 28.7304 88.3526 28.4706 88.0279 28.2755C87.7033 28.0805 87.3419 27.9546 86.9664 27.9056C86.5908 27.8566 86.2092 27.8857 85.8454 27.9909C85.4816 28.0961 85.1434 28.2752 84.852 28.5171C84.3302 28.944 83.9699 29.5365 83.8309 30.1962C83.7606 30.4426 83.7199 30.6965 83.7099 30.9526V32.904C83.6823 33.692 83.9523 34.4616 84.4662 35.0596C84.7199 35.3466 85.0338 35.574 85.3855 35.7257C85.7372 35.8774 86.118 35.9495 86.5008 35.937C86.9437 35.9523 87.3833 35.8565 87.7797 35.6583C88.176 35.4601 88.5164 35.1659 88.7699 34.8024C89.3591 33.9341 89.6583 32.9015 89.6246 31.8526" fill="white"/>
<path d="M107.308 33.199C107.329 33.8316 107.21 34.461 106.96 35.0426C106.711 35.6242 106.336 36.1439 105.864 36.5648C104.623 37.5787 103.046 38.0866 101.447 37.9867C99.9771 38.0535 98.5188 37.702 97.2411 36.9732L97.8462 34.81C98.9854 35.5016 100.295 35.8605 101.628 35.8462C102.439 35.8935 103.241 35.6583 103.897 35.1806C104.163 34.9705 104.375 34.7008 104.517 34.3933C104.659 34.0858 104.726 33.7492 104.714 33.4107C104.721 33.1022 104.665 32.7955 104.549 32.5093C104.433 32.2232 104.26 31.9637 104.041 31.7467C103.379 31.1783 102.606 30.7533 101.772 30.4987C98.9379 29.4348 97.5185 27.8843 97.5134 25.8471C97.5008 25.2223 97.6304 24.6027 97.8925 24.0353C98.1546 23.468 98.5422 22.9676 99.0262 22.5721C100.15 21.676 101.562 21.2214 102.997 21.2938C104.268 21.248 105.531 21.5074 106.681 22.0502L106.03 24.168C105.076 23.6595 104.01 23.3994 102.929 23.4116C102.157 23.3617 101.393 23.6018 100.788 24.0848C100.578 24.272 100.41 24.503 100.298 24.7617C100.185 25.0204 100.131 25.3005 100.138 25.5824C100.134 25.8874 100.2 26.1893 100.331 26.4647C100.462 26.7402 100.655 26.9817 100.894 27.1708C101.605 27.707 102.396 28.1258 103.239 28.4112C104.405 28.8195 105.46 29.4957 106.317 30.3853C106.986 31.1673 107.339 32.1705 107.308 33.199Z" fill="white"/>
<path d="M115.893 28.0028H113.072V33.683C113.072 35.1201 113.571 35.8462 114.584 35.8462C114.971 35.8559 115.358 35.8152 115.734 35.7252L115.81 37.6993C115.158 37.9104 114.475 38.0077 113.79 37.9867C113.345 38.0128 112.9 37.9425 112.485 37.7807C112.07 37.6188 111.695 37.3692 111.385 37.0488C110.709 36.146 110.386 35.0268 110.477 33.9024V28.0028H108.776V26.0513H110.477V23.9108L113.034 23.1545V26.0665H115.893V28.0028Z" fill="white"/>
<path d="M128.812 31.8073C128.879 33.4195 128.339 34.9985 127.299 36.232C126.757 36.8216 126.094 37.2861 125.355 37.5931C124.615 37.9001 123.818 38.0422 123.018 38.0094C122.25 38.0447 121.483 37.9097 120.773 37.6142C120.063 37.3187 119.427 36.87 118.911 36.3C117.878 35.1101 117.337 33.5711 117.398 31.9963C117.33 30.3666 117.894 28.7734 118.971 27.5489C119.511 26.9686 120.172 26.513 120.906 26.2139C121.64 25.9148 122.43 25.7793 123.222 25.8169C123.994 25.786 124.763 25.922 125.477 26.2157C126.191 26.5095 126.833 26.9539 127.359 27.5187C128.392 28.7028 128.934 30.2371 128.872 31.8073H128.812ZM126.18 31.8905C126.207 30.9178 125.964 29.9567 125.476 29.1146C125.259 28.686 124.925 28.3273 124.513 28.0798C124.101 27.8323 123.627 27.706 123.147 27.7153C122.658 27.7022 122.176 27.8264 121.755 28.0738C121.334 28.3211 120.99 28.6818 120.764 29.1146C120.279 29.9738 120.038 30.9495 120.068 31.9358C120.041 32.9074 120.282 33.8678 120.764 34.7117C120.99 35.1399 121.33 35.4972 121.747 35.7442C122.163 35.9912 122.64 36.1181 123.124 36.1109C123.599 36.0998 124.062 35.9585 124.462 35.7025C124.862 35.4464 125.184 35.0853 125.393 34.6587C125.903 33.8154 126.165 32.8455 126.149 31.8602" fill="white"/>
<path d="M137.275 28.3356C137.006 28.2891 136.732 28.2663 136.458 28.2675C136.047 28.2503 135.638 28.3361 135.268 28.517C134.898 28.698 134.579 28.9684 134.341 29.3037C133.895 29.9748 133.668 30.7674 133.69 31.5728V37.7069H131.073V29.697C131.073 28.3507 131.073 27.1254 130.982 26.0135H133.251L133.342 28.2826H133.41C133.662 27.5554 134.113 26.9134 134.711 26.4295C135.257 26.0271 135.917 25.8098 136.595 25.8093C136.81 25.8077 137.025 25.8229 137.237 25.8547L137.275 28.3356Z" fill="white"/>
<path d="M148.87 31.3459C148.876 31.7411 148.846 32.1361 148.78 32.5258H140.989C140.972 33.0226 141.064 33.517 141.259 33.9744C141.454 34.4317 141.746 34.8409 142.116 35.1731C142.841 35.7408 143.745 36.0306 144.665 35.9899C145.742 36.0042 146.811 35.817 147.819 35.4378L148.227 37.2379C146.985 37.7585 145.649 38.016 144.302 37.9943C143.519 38.0369 142.735 37.9164 142.001 37.6404C141.266 37.3644 140.597 36.9389 140.036 36.3908C139.505 35.8139 139.094 35.1368 138.828 34.3991C138.561 33.6614 138.445 32.8779 138.486 32.0947C138.426 30.502 138.939 28.9406 139.93 27.6926C140.416 27.0811 141.039 26.5925 141.748 26.2666C142.458 25.9407 143.234 25.7866 144.015 25.8169C144.761 25.7683 145.507 25.9125 146.181 26.2357C146.855 26.5589 147.435 27.0503 147.864 27.6624C148.579 28.7548 148.938 30.0414 148.893 31.3459H148.87ZM146.42 30.6727C146.454 29.9714 146.278 29.2758 145.913 28.6759C145.698 28.3245 145.392 28.0382 145.027 27.8477C144.662 27.6572 144.252 27.5696 143.841 27.5943C143.436 27.5885 143.036 27.682 142.676 27.8666C142.316 28.0512 142.007 28.3213 141.776 28.6532C141.336 29.2404 141.073 29.9411 141.019 30.6727H146.42Z" fill="white"/>
</svg>
