<svg width="14" height="16" viewBox="0 0 14 16" fill="none" xmlns="http://www.w3.org/2000/svg">
<path d="M3.2001 15.75C2.3501 15.75 1.5501 15.4 1.0001 14.85C-0.199902 13.6 -0.199902 11.65 1.0001 10.4L7.6001 3.75C8.0001 3.35 8.5001 3.15 9.0001 3.15C9.5501 3.15 10.0501 3.35 10.4001 3.75C10.8001 4.15 11.0001 4.65 11.0001 5.15C11.0001 5.65 10.8001 6.2 10.4001 6.55L5.9001 11.05L5.3501 10.5L9.8501 6C10.1001 5.75 10.2001 5.45 10.2001 5.1C10.2001 4.75 10.0501 4.45 9.8501 4.2C9.6001 3.95 9.3001 3.85 8.9501 3.85C8.6001 3.85 8.3001 4 8.0501 4.2L1.5001 10.9C0.550098 11.85 0.550098 13.35 1.5001 14.3C1.9501 14.75 2.5501 15 3.2001 15C3.8501 15 4.4501 14.75 4.9001 14.3L12.2001 7C13.5501 5.65 13.5501 3.45 12.2001 2.1C11.5501 1.45 10.6501 1.1 9.7501 1.1C8.8001 1.1 7.9501 1.45 7.3001 2.1L2.4001 7L1.8501 6.45L6.7501 1.5C7.5501 0.7 8.6001 0.25 9.7501 0.25C10.9001 0.25 11.9501 0.7 12.7501 1.5C14.4001 3.15 14.4001 5.85 12.7501 7.5L5.4001 14.8C4.8001 15.4 4.0001 15.75 3.2001 15.75Z" fill="#00ADA6"/>
</svg>
