<svg width="13" height="13" viewBox="0 0 13 13" fill="none" xmlns="http://www.w3.org/2000/svg">
<g clip-path="url(#clip0_512_2747)">
<path d="M12.0864 3.12061L9.74271 0.776813C9.67678 0.710859 9.58735 0.673828 9.49411 0.673828H4.10339C3.52184 0.673828 3.04871 1.14696 3.04871 1.72852V6.36534C1.46888 6.5408 0.236206 7.88393 0.236206 9.50977C0.236206 11.2544 1.6556 12.6738 3.40027 12.6738H11.1346C11.7162 12.6738 12.1893 12.2007 12.1893 11.6191V3.36921C12.1893 3.27595 12.1523 3.18656 12.0864 3.12061V3.12061ZM9.84558 1.87413L10.6094 2.63798L10.989 3.01758H9.84558V1.87413ZM0.939331 9.50977C0.939331 8.1528 2.04331 7.04883 3.40027 7.04883C4.75723 7.04883 5.86121 8.1528 5.86121 9.50977C5.86121 10.8667 4.75723 11.9707 3.40027 11.9707C2.04331 11.9707 0.939331 10.8667 0.939331 9.50977ZM11.1346 11.9707H5.38657C6.01852 11.4596 6.45038 10.7107 6.54471 9.86133H10.1971C10.3913 9.86133 10.5487 9.70392 10.5487 9.50977C10.5487 9.31561 10.3913 9.1582 10.1971 9.1582H6.54469C6.48736 8.64211 6.30553 8.16307 6.02982 7.75195H10.1971C10.3913 7.75195 10.5487 7.59455 10.5487 7.40039C10.5487 7.20623 10.3913 7.04883 10.1971 7.04883H5.38657C4.92905 6.67884 4.36678 6.43364 3.75183 6.36534V1.72852C3.75183 1.53466 3.90954 1.37695 4.10339 1.37695H9.14246V3.36914C9.14246 3.5633 9.29986 3.7207 9.49402 3.7207H11.4862V11.6191C11.4862 11.813 11.3285 11.9707 11.1346 11.9707V11.9707Z" fill="white"/>
<path d="M10.1971 4.93945H5.04089C4.84674 4.93945 4.68933 5.09686 4.68933 5.29102C4.68933 5.48517 4.84674 5.64258 5.04089 5.64258H10.1971C10.3913 5.64258 10.5487 5.48517 10.5487 5.29102C10.5487 5.09686 10.3913 4.93945 10.1971 4.93945Z" fill="white"/>
<path d="M4.7973 8.62835C4.66002 8.49107 4.43741 8.49107 4.30012 8.62835L2.90809 10.0204L2.45355 9.56582C2.31627 9.42855 2.09366 9.42855 1.95637 9.56582C1.81907 9.7031 1.81907 9.9257 1.95637 10.063L2.65949 10.7661C2.72814 10.8348 2.81812 10.8691 2.90809 10.8691C2.99807 10.8691 3.08805 10.8348 3.15667 10.7661L4.7973 9.1255C4.93459 8.98823 4.93459 8.76562 4.7973 8.62835V8.62835Z" fill="white"/>
</g>
<defs>
<clipPath id="clip0_512_2747">
<rect width="12" height="12" fill="white" transform="translate(0.212769 0.673828)"/>
</clipPath>
</defs>
</svg>
