<svg width="11" height="9" viewBox="0 0 11 9" fill="none" xmlns="http://www.w3.org/2000/svg">
<path d="M1.17181 0.185547C0.64366 0.185547 0.215332 0.613851 0.215332 1.14239C0.215332 1.67054 0.64366 2.09849 1.17181 2.09849C1.69997 2.09849 2.12829 1.67054 2.12829 1.14239C2.12829 0.613851 1.69997 0.185547 1.17181 0.185547Z" fill="#FEE798" stroke="#00ADA6" stroke-width="0.3"/>
<path d="M1.17181 3.0625C0.64366 3.0625 0.215332 3.49045 0.215332 4.01898C0.215332 4.54713 0.64366 4.97544 1.17181 4.97544C1.69997 4.97544 2.12829 4.54713 2.12829 4.01898C2.12829 3.49045 1.69997 3.0625 1.17181 3.0625Z" fill="#FEE798" stroke="#00ADA6" stroke-width="0.3"/>
<path d="M1.17181 5.94141C0.64366 5.94141 0.215332 6.36971 0.215332 6.89786C0.215332 7.42602 0.64366 7.85435 1.17181 7.85435C1.69997 7.85435 2.12829 7.42602 2.12829 6.89786C2.12829 6.36971 1.69997 5.94141 1.17181 5.94141Z" fill="#FEE798" stroke="#00ADA6" stroke-width="0.3"/>
<path d="M9.58133 0.421875H3.60493C3.25605 0.421875 2.97314 0.743946 2.97314 1.14148C2.97314 1.53867 3.25603 1.86072 3.60493 1.86072H9.58133C9.93018 1.86072 10.2131 1.53867 10.2131 1.14148C10.2131 0.743946 9.93018 0.421875 9.58133 0.421875Z" fill="#FEE798" stroke="#00ADA6" stroke-width="0.3"/>
<path d="M9.58133 3.30078H3.60493C3.25605 3.30078 2.97314 3.62283 2.97314 4.02038C2.97314 4.41758 3.25603 4.73963 3.60493 4.73963H9.58133C9.93018 4.73963 10.2131 4.41758 10.2131 4.02038C10.2131 3.62283 9.93018 3.30078 9.58133 3.30078Z" fill="#FEE798" stroke="#00ADA6" stroke-width="0.3"/>
<path d="M9.58133 6.17773H3.60493C3.25605 6.17773 2.97314 6.49978 2.97314 6.89698C2.97314 7.29415 3.25603 7.6162 3.60493 7.6162H9.58133C9.93018 7.6162 10.2131 7.29415 10.2131 6.89698C10.2131 6.49976 9.93018 6.17773 9.58133 6.17773Z" fill="#FEE798" stroke="#00ADA6" stroke-width="0.3"/>
</svg>
