<svg width="13" height="13" viewBox="0 0 13 13" fill="none" xmlns="http://www.w3.org/2000/svg">
<g clip-path="url(#clip0_539_3327)">
<path d="M12.0865 3.12061L9.74284 0.776813C9.67691 0.710859 9.58747 0.673828 9.49423 0.673828H4.10352C3.52196 0.673828 3.04883 1.14696 3.04883 1.72852V6.36534C1.469 6.5408 0.236328 7.88393 0.236328 9.50977C0.236328 11.2544 1.65573 12.6738 3.40039 12.6738H11.1348C11.7163 12.6738 12.1895 12.2007 12.1895 11.6191V3.36921C12.1895 3.27595 12.1524 3.18656 12.0865 3.12061ZM9.8457 1.87413L10.6095 2.63798L10.9891 3.01758H9.8457V1.87413ZM0.939453 9.50977C0.939453 8.1528 2.04343 7.04883 3.40039 7.04883C4.75735 7.04883 5.86133 8.1528 5.86133 9.50977C5.86133 10.8667 4.75735 11.9707 3.40039 11.9707C2.04343 11.9707 0.939453 10.8667 0.939453 9.50977ZM11.1348 11.9707H5.38669C6.01864 11.4596 6.4505 10.7107 6.54484 9.86133H10.1973C10.3914 9.86133 10.5488 9.70392 10.5488 9.50977C10.5488 9.31561 10.3914 9.1582 10.1973 9.1582H6.54481C6.48748 8.64211 6.30566 8.16307 6.02994 7.75195H10.1973C10.3914 7.75195 10.5488 7.59455 10.5488 7.40039C10.5488 7.20623 10.3914 7.04883 10.1973 7.04883H5.38669C4.92917 6.67884 4.36691 6.43364 3.75195 6.36534V1.72852C3.75195 1.53466 3.90966 1.37695 4.10352 1.37695H9.14258V3.36914C9.14258 3.5633 9.29998 3.7207 9.49414 3.7207H11.4863V11.6191C11.4863 11.813 11.3286 11.9707 11.1348 11.9707Z" fill="#FEE798"/>
<path d="M10.1973 4.93945H5.04102C4.84686 4.93945 4.68945 5.09686 4.68945 5.29102C4.68945 5.48517 4.84686 5.64258 5.04102 5.64258H10.1973C10.3914 5.64258 10.5488 5.48517 10.5488 5.29102C10.5488 5.09686 10.3914 4.93945 10.1973 4.93945Z" fill="#FEE798"/>
<path d="M4.79742 8.62835C4.66014 8.49107 4.43754 8.49107 4.30024 8.62835L2.90821 10.0204L2.45367 9.56582C2.31639 9.42855 2.09379 9.42855 1.95649 9.56582C1.81919 9.7031 1.81919 9.9257 1.95649 10.063L2.65961 10.7661C2.72826 10.8348 2.81824 10.8691 2.90821 10.8691C2.99819 10.8691 3.08817 10.8348 3.15679 10.7661L4.79742 9.1255C4.93472 8.98823 4.93472 8.76562 4.79742 8.62835Z" fill="#FEE798"/>
</g>
<defs>
<clipPath id="clip0_539_3327">
<rect width="12" height="12" fill="white" transform="translate(0.212891 0.673828)"/>
</clipPath>
</defs>
</svg>
