<svg width="18" height="22" viewBox="0 0 18 22" fill="none" xmlns="http://www.w3.org/2000/svg">
<path d="M12.1758 0.12706C12.075 0.0208131 11.9367 -0.0429688 11.7933 -0.0429688H3.21114C1.6275 -0.0429688 0.320312 1.25902 0.320312 2.84249V19.0714C0.320312 20.6551 1.6275 21.9571 3.21114 21.9571H14.8594C16.443 21.9571 17.7502 20.6551 17.7502 19.0714V6.18499C17.7502 6.04686 17.6864 5.91409 17.5961 5.81304L12.1758 0.12706ZM12.3299 1.83289L15.9595 5.64302H13.6C12.8986 5.64302 12.3299 5.07972 12.3299 4.37829V1.83289ZM14.8594 20.8943H3.21114C2.21749 20.8943 1.38312 20.0706 1.38312 19.0714V2.84249C1.38312 1.84883 2.21212 1.01984 3.21114 1.01984H11.2671V4.37829C11.2671 5.66954 12.3088 6.70582 13.6 6.70582H16.6874V19.0714C16.6874 20.0706 15.8584 20.8943 14.8594 20.8943Z" fill="#FEE798"/>
<path d="M13.4086 17.2275H4.66177C4.36955 17.2275 4.13037 17.4666 4.13037 17.7589C4.13037 18.0512 4.36955 18.2903 4.66177 18.2903H13.414C13.7062 18.2903 13.9454 18.0512 13.9454 17.7589C13.9454 17.4666 13.7062 17.2275 13.4086 17.2275Z" fill="#FEE798"/>
<path d="M6.31466 11.5097L8.50405 9.15548V14.9584C8.50405 15.2507 8.74324 15.4899 9.03546 15.4899C9.32785 15.4899 9.56686 15.2507 9.56686 14.9584V9.15548L11.7563 11.5097C11.8625 11.6211 12.0008 11.6797 12.1442 11.6797C12.2717 11.6797 12.4047 11.6319 12.5055 11.5362C12.7182 11.3343 12.7341 10.9994 12.5322 10.7869L9.41815 7.44444C9.31711 7.3382 9.17897 7.27441 9.03025 7.27441C8.88137 7.27441 8.74324 7.3382 8.64236 7.44444L5.5283 10.7869C5.32638 10.9994 5.34232 11.3395 5.55482 11.5362C5.77805 11.7381 6.11274 11.7222 6.31466 11.5097Z" fill="#FEE798"/>
</svg>
