<svg width="18" height="18" viewBox="0 0 18 18" fill="none" xmlns="http://www.w3.org/2000/svg">
<path d="M10.4848 8.28234C10.3088 8.28234 10.1328 8.21531 9.9987 8.0809C8.92654 7.00875 7.18201 7.0084 6.10951 8.0809C5.84139 8.34937 5.40551 8.34937 5.13739 8.0809C4.86892 7.81243 4.86892 7.37725 5.13739 7.10878C6.74579 5.50003 9.36276 5.50037 10.9708 7.10878C11.2393 7.37725 11.2393 7.81243 10.9708 8.0809C10.8368 8.21531 10.6604 8.28234 10.4848 8.28234Z" fill="#00ADA6"/>
<path d="M9.99844 12.2059C8.9421 12.2059 7.88575 11.8037 7.08172 10.9996C6.81325 10.7312 6.81325 10.296 7.08172 10.0275C7.34985 9.75905 7.78572 9.75905 8.05385 10.0275C9.126 11.0997 10.8705 11.1 11.943 10.0275C12.2112 9.75905 12.647 9.75905 12.9152 10.0275C13.1836 10.296 13.1836 10.7312 12.9152 10.9996C12.1108 11.8037 11.0544 12.2059 9.99844 12.2059Z" fill="#00ADA6"/>
<path d="M12.4286 11.1997C12.2526 11.1997 12.0766 11.1326 11.9426 10.9982C11.6741 10.7298 11.6741 10.2946 11.9426 10.0261L15.7829 6.18573C16.0511 5.91726 16.4869 5.91726 16.7551 6.18573C17.0235 6.4542 17.0235 6.88938 16.7551 7.15785L12.9147 10.9982C12.7806 11.1326 12.6046 11.1997 12.4286 11.1997Z" fill="#00ADA6"/>
<path d="M6.64396 16.9845C6.46796 16.9845 6.29196 16.9175 6.15789 16.7831C5.88943 16.5146 5.88943 16.0794 6.15789 15.811L8.30461 13.6642C8.57274 13.3958 9.00861 13.3958 9.27674 13.6642C9.54521 13.9327 9.54521 14.3679 9.27674 14.6364L7.13002 16.7831C6.99596 16.9175 6.81996 16.9845 6.64396 16.9845Z" fill="#00ADA6"/>
<path d="M1.78263 12.1231C1.60663 12.1231 1.43063 12.0561 1.29657 11.9217C1.0281 11.6532 1.0281 11.2181 1.29657 10.9496L5.13694 7.10955C5.40541 6.84109 5.84094 6.84109 6.10907 7.10955C6.37753 7.37802 6.37753 7.81321 6.10907 8.08168L2.26869 11.9217C2.13429 12.0558 1.95828 12.1231 1.78263 12.1231Z" fill="#00ADA6"/>
<path d="M9.26114 4.64502C9.08514 4.64502 8.90949 4.57799 8.77508 4.44393C8.50661 4.17546 8.50661 3.74027 8.77508 3.47146L10.9218 1.3244C11.1903 1.05593 11.6255 1.05593 11.8943 1.3244C12.1627 1.59287 12.1627 2.02805 11.8943 2.29687L9.74755 4.44393C9.61314 4.57765 9.4368 4.64502 9.26114 4.64502Z" fill="#00ADA6"/>
<path d="M4.2135 17.9691C3.15028 17.9691 2.08706 17.5738 1.29678 16.7832C-0.284473 15.2019 -0.284473 12.5306 1.29678 10.9494C1.5649 10.6809 2.00078 10.6809 2.2689 10.9494C2.53737 11.2179 2.53737 11.6531 2.2689 11.9215C1.21496 12.9755 1.21496 14.7568 2.2689 15.8107C3.32284 16.8646 5.10415 16.8646 6.15809 15.8107C6.42621 15.5422 6.86209 15.5422 7.13021 15.8107C7.39868 16.0792 7.39868 16.5144 7.13021 16.7828C6.33993 17.5738 5.27671 17.9691 4.2135 17.9691Z" fill="#00ADA6"/>
<path d="M16.2689 7.35948C16.0929 7.35948 15.9169 7.29245 15.7829 7.15805C15.5144 6.88958 15.5144 6.45439 15.7829 6.18592C16.8368 5.13198 16.8368 3.35067 15.7829 2.29673C14.7289 1.2428 12.9476 1.2428 11.8937 2.29673C11.6256 2.5652 11.1897 2.5652 10.9216 2.29673C10.6531 2.02827 10.6531 1.59308 10.9216 1.32461C12.5028 -0.256641 15.1741 -0.256641 16.7553 1.32461C18.3366 2.90586 18.3366 5.57714 16.7553 7.15839C16.6209 7.29245 16.4449 7.35948 16.2689 7.35948Z" fill="#00ADA6"/>
</svg>
