<svg width="16" height="16" viewBox="0 0 16 16" fill="none" xmlns="http://www.w3.org/2000/svg">
<path d="M15.5019 2.10934L14.0521 0.749966C13.3896 0.128903 12.3118 0.128932 11.6493 0.749966C11.0256 1.33476 1.49887 10.2667 0.862214 10.8636C0.794402 10.9272 0.748965 11.0117 0.732777 11.0943L0.00784107 14.7647C-0.0202526 14.9069 0.0281223 15.0531 0.137278 15.1554C0.246559 15.2579 0.402497 15.3032 0.55409 15.2768L4.46874 14.5971C4.55921 14.5813 4.64814 14.5383 4.71483 14.4757L15.5019 4.36206C16.1659 3.73956 16.166 2.73193 15.5019 2.10934ZM1.05378 14.2961L1.49231 12.0759L3.42187 13.885L1.05378 14.2961ZM4.3834 13.5435L1.85656 11.1744L11.0819 2.52503L13.6087 4.89412L4.3834 13.5435ZM14.839 3.74059L14.2716 4.27264L11.7447 1.90356L12.3122 1.3715C12.6091 1.09312 13.0922 1.09309 13.3892 1.3715L14.839 2.73087C15.1367 3.00992 15.1367 3.4615 14.839 3.74059Z" fill="#A3A3A3"/>
</svg>
