<svg width="137" height="33" viewBox="0 0 137 33" fill="none" xmlns="http://www.w3.org/2000/svg">
<path d="M74.7874 28.9036H84.4054V31.5462H71.6199V14.5498H84.0624V17.1956H74.7874V21.6117H83.0268V24.2063H74.7874V28.9036Z" fill="url(#paint0_linear_514_5406)"/>
<path d="M100.105 14.5498H103.27L95.8511 31.5334H92.7348L85.2712 14.5498H88.7049L94.3763 27.651L100.105 14.5498Z" fill="url(#paint1_linear_514_5406)"/>
<path d="M108.236 28.9036H117.854V31.5462H105.072V14.5498H117.511V17.1956H108.236V21.6117H116.463V24.2063H108.236V28.9036Z" fill="url(#paint2_linear_514_5406)"/>
<path d="M133.384 14.5498H136.522V31.5334H133.919L124.522 20.0299V31.5334H121.38V14.5498H123.987L133.384 26.0533V14.5498Z" fill="url(#paint3_linear_514_5406)"/>
<path d="M50.6463 31.5366L48.9439 27.603H40.4063L38.7263 31.5366H35.4658L43.1346 14.5498H46.2508L53.9452 31.5366H50.6463ZM41.4771 25.1298H47.8891L44.6831 17.7037L41.4771 25.1298Z" fill="#FCB445"/>
<path d="M56.0964 31.5366V14.5498H59.2608V28.8652H68.1831V31.5366H56.0964Z" fill="#FCB445"/>
<path d="M61.1973 27.008V14.5459H64.3616V24.3334H67.9587V27.0016L61.1973 27.008Z" fill="#FCB445"/>
<path d="M21.3401 25.708C24.0973 20.4579 27.4892 13.3513 27.4892 10.2102C27.4892 7.66782 26.4759 5.22953 24.6722 3.43176C22.8684 1.634 20.4221 0.624023 17.8712 0.624023C15.3203 0.624023 12.874 1.634 11.0702 3.43176C9.2665 5.22953 8.25317 7.66782 8.25317 10.2102C8.25317 13.297 11.5265 20.1991 14.2516 25.4204L14.3061 25.5162L14.4055 25.708L15.6206 27.9447H15.5853C16.903 30.3733 17.8648 32.0285 17.8648 32.0285C17.8648 32.0285 18.8266 30.3733 20.1443 27.9447L21.3305 25.708H21.3401ZM17.8744 5.42672C18.7483 5.42672 19.6026 5.68505 20.3292 6.16903C21.0558 6.65301 21.622 7.34089 21.9563 8.14567C22.2906 8.95045 22.3779 9.83596 22.2072 10.6902C22.0364 11.5444 21.6154 12.329 20.9972 12.9447C20.379 13.5604 19.5915 13.9795 18.7343 14.149C17.8771 14.3186 16.9887 14.2309 16.1815 13.8972C15.3743 13.5634 14.6846 12.9985 14.1995 12.274C13.7145 11.5494 13.4559 10.6978 13.4565 9.82679C13.4565 9.24869 13.5708 8.67627 13.7929 8.14222C14.0149 7.60817 14.3404 7.12297 14.7507 6.71434C15.161 6.30571 15.648 5.98168 16.184 5.76074C16.72 5.5398 17.2944 5.4263 17.8744 5.42672ZM15.5597 25.708H17.3711V27.9447H16.7779L15.5597 25.708ZM18.9997 27.9447H18.3777V25.708H20.1891L18.9997 27.9447Z" fill="#FCB445"/>
<path d="M13.4278 28.0889L14.2581 27.6096L13.3348 25.8681C12.1806 23.6728 10.9207 21.1612 9.82743 18.7327C8.93882 19.1163 7.93676 19.1472 7.02604 18.8192C6.11532 18.4911 5.36468 17.8287 4.92751 16.9675C4.49035 16.1062 4.39966 15.1111 4.67398 14.1855C4.9483 13.2598 5.56691 12.4735 6.40342 11.9872C6.65338 11.8442 6.91911 11.7306 7.1953 11.6485C7.03283 11.0107 6.94144 10.357 6.92279 9.6993C6.92266 8.92794 7.01195 8.15914 7.18889 7.4082C5.86211 7.61515 4.60585 8.14096 3.52863 8.94021C2.45141 9.73946 1.58564 10.7881 1.00612 11.9955C0.426594 13.203 0.150748 14.5329 0.202414 15.8704C0.25408 17.2079 0.631703 18.5127 1.30266 19.6722C2.63636 21.9729 8.03527 25.7115 12.3345 28.4308L12.4051 28.4723L12.575 28.581L14.4409 29.7153H14.4152C14.9346 30.0349 15.4155 30.3257 15.8451 30.5845L15.0276 29.0443L13.4278 28.0889Z" fill="#00B4A9"/>
<path d="M22.2472 28.0889L21.4168 27.6096L22.3401 25.8681C23.4943 23.6728 24.7543 21.1612 25.8475 18.7327C26.7367 19.1204 27.741 19.1543 28.6544 18.8273C29.5679 18.5003 30.3211 17.8373 30.7596 16.9743C31.198 16.1113 31.2885 15.1138 31.0124 14.1864C30.7363 13.259 30.1145 12.4721 29.2747 11.9872C29.024 11.8435 28.7571 11.7298 28.4796 11.6485C28.6421 11.0107 28.7335 10.357 28.7522 9.6993C28.7523 8.92794 28.663 8.15914 28.4861 7.4082C29.8128 7.61515 31.0691 8.14096 32.1463 8.94021C33.2235 9.73946 34.0893 10.7881 34.6688 11.9955C35.2484 13.203 35.5242 14.5329 35.4725 15.8704C35.4209 17.2079 35.0432 18.5127 34.3723 19.6722C33.0418 21.9729 27.6236 25.7115 23.3404 28.4308L23.2699 28.4723L23.1 28.581L21.2341 29.7153H21.2629L19.8298 30.5845L20.6474 29.0443L22.2472 28.0889Z" fill="#00B4A9"/>
<defs>
<linearGradient id="paint0_linear_514_5406" x1="77.6055" y1="15.2528" x2="78.1469" y2="33.2143" gradientUnits="userSpaceOnUse">
<stop stop-color="#00B4A9"/>
<stop offset="0.99" stop-color="#0E8A80"/>
</linearGradient>
<linearGradient id="paint1_linear_514_5406" x1="94.2801" y1="14.7479" x2="94.8216" y2="32.7094" gradientUnits="userSpaceOnUse">
<stop stop-color="#00B4A9"/>
<stop offset="0.99" stop-color="#0E8A80"/>
</linearGradient>
<linearGradient id="paint2_linear_514_5406" x1="111.022" y1="14.243" x2="111.567" y2="32.2045" gradientUnits="userSpaceOnUse">
<stop stop-color="#00B4A9"/>
<stop offset="0.99" stop-color="#0E8A80"/>
</linearGradient>
<linearGradient id="paint3_linear_514_5406" x1="128.668" y1="13.7094" x2="129.212" y2="31.6709" gradientUnits="userSpaceOnUse">
<stop stop-color="#00B4A9"/>
<stop offset="0.99" stop-color="#0E8A80"/>
</linearGradient>
</defs>
</svg>
