<svg width="46" height="47" viewBox="0 0 46 47" fill="none" xmlns="http://www.w3.org/2000/svg">
<path opacity="0.1" d="M20.8569 5.66211C23.3852 5.66211 25.8099 6.66647 27.5977 8.45424C29.3855 10.242 30.3898 12.6667 30.3898 15.195V45.9581H11.324V15.195C11.324 13.9431 11.5706 12.7035 12.0496 11.5469C12.5287 10.3903 13.2309 9.33945 14.1161 8.45424C15.0013 7.56902 16.0522 6.86683 17.2088 6.38776C18.3654 5.90869 19.605 5.66211 20.8569 5.66211Z" fill="#00ACA4"/>
<path opacity="0.1" d="M20.8569 7.16089C23.1391 7.16226 25.3273 8.06967 26.9407 9.6837C28.5541 11.2977 29.4606 13.4863 29.4611 15.7684V46.0191H12.2477V15.7684C12.2477 13.4851 13.1547 11.2953 14.7693 9.68078C16.3838 8.06623 18.5736 7.15918 20.8569 7.15918V7.16089Z" fill="#00ACA4"/>
<path d="M21.359 17.335L21.6093 18.0204L19.0542 17.9364L17.4828 17.2818L17.368 17.2356L17.524 17.0642C17.7032 16.8985 17.8594 16.7094 17.9883 16.5021C17.9592 16.3428 17.9387 16.1937 17.9233 16.0497C17.9146 16.0456 17.9066 16.0404 17.8992 16.0343C17.8992 16.0343 17.9164 15.9246 17.7073 15.2032C17.6748 15.0867 17.6353 14.9547 17.5908 14.8056C17.5577 14.7032 17.541 14.5962 17.5411 14.4886C17.5518 14.2875 17.6043 14.0908 17.6953 13.9111C17.7125 13.858 17.7399 13.8015 17.6953 13.8186C17.5 13.9591 16.6277 13.1811 16.5249 12.799L16.6826 12.6396C16.6826 12.6396 17.416 11.8376 17.7467 11.7382C18.0015 11.6862 18.2615 11.6643 18.5213 11.6731C18.6927 11.6731 18.8092 11.6731 18.8092 11.6731H18.8829C18.9594 11.6683 19.0319 11.6366 19.0874 11.5837C19.1428 11.5307 19.1778 11.4598 19.1862 11.3835C19.1999 11.2704 19.2102 11.1368 19.2222 10.9791V10.8746C19.3387 10.7341 20.4012 11.1196 20.4012 11.1196C20.4092 11.1291 20.415 11.1402 20.4183 11.1522C20.4183 11.1813 20.4183 11.2104 20.4183 11.2413C20.4186 11.3175 20.4232 11.3935 20.432 11.4692C20.4311 11.4755 20.4311 11.4818 20.432 11.4881C20.4438 11.5407 20.4721 11.5882 20.5128 11.6236C20.5535 11.6591 20.6044 11.6806 20.6582 11.6851L20.7644 11.7074C20.7644 11.7074 21.9006 11.8273 22.1131 12.0775C22.2651 12.2736 22.3753 12.4987 22.4369 12.739C22.4455 12.7681 22.4541 12.7973 22.4609 12.823C22.4609 13.2976 22.137 13.9882 21.5938 14.708C21.5818 14.7234 21.5938 14.7439 21.5853 14.7628C21.5746 14.8209 21.5597 14.8782 21.5407 14.9342C21.3693 15.4825 21.0969 16.2913 21.0712 16.3051C21.0599 16.4108 21.064 16.5175 21.0832 16.6221C21.1192 16.6958 21.2442 17.0214 21.359 17.335Z" fill="#B6D7FF"/>
<path d="M19.4464 24.7412C19.1208 25.7865 19.2871 26.3229 19.2871 26.3229C19.7515 28.4255 19.395 32.2212 19.395 32.2212H18.665C17.5631 29.3235 17.5306 27.5036 17.4655 26.8216C17.4003 26.1395 15.7638 21.6995 15.7518 20.7485C15.7518 19.7563 16.7355 18.166 16.7355 18.166C17.5266 18.4717 18.2941 18.8354 19.0317 19.2542C19.2665 19.3774 19.4694 19.5533 19.6246 19.7683C19.8354 20.1607 19.9862 23.0036 19.4464 24.7412Z" fill="#B6D7FF"/>
<path d="M23.6192 32.1146H22.8001C22.8001 32.1146 19.6042 27.4878 19.4945 26.3191C19.3557 24.8505 18.3292 19.0516 18.3292 19.0516L21.6091 18.0234C21.6091 18.0234 21.8953 18.7603 22.1352 19.504C22.2397 19.8279 22.3357 20.1518 22.3957 20.4191C22.5259 21.0052 22.1575 23.2209 21.9039 24.7974C21.8058 25.3236 21.7343 25.8543 21.6897 26.3877C21.7085 26.9823 22.7864 27.0577 23.6192 32.1146Z" fill="#B6D7FF"/>
<path d="M22.3956 20.4195C21.7335 20.4509 21.0764 20.5515 20.4352 20.7193C19.784 20.8907 19.1346 21.1803 18.7764 21.6276C18.7764 21.6276 17.8442 20.6182 16.732 20.3681C16.4246 20.2935 16.1038 20.2935 15.7964 20.3681C15.7964 20.3681 15.8238 19.3399 17.1433 17.5354C17.2307 17.4155 17.3249 17.2938 17.4243 17.167C17.4243 17.167 18.6907 17.897 20.7676 17.4446C20.9561 17.4035 21.1532 17.3521 21.3554 17.2887C21.3554 17.2887 21.8318 18.4368 21.986 18.8978C22.0923 19.2199 22.3956 20.4195 22.3956 20.4195Z" fill="#B6D7FF"/>
<path d="M18.6651 32.2217C18.6526 32.4162 18.6188 32.6087 18.564 32.7957C18.4118 33.0276 18.1998 33.214 17.9505 33.3355C17.6575 33.4452 16.8161 33.3887 16.751 33.6937H19.7138C19.7362 33.4383 19.7112 33.1809 19.6402 32.9345C19.5271 32.633 19.3951 32.2217 19.3951 32.2217H18.6651Z" fill="#B6D7FF"/>
<path d="M23.6192 32.1151C23.7696 32.3173 23.9075 32.5285 24.0322 32.7474C24.1144 32.9274 24.6525 33.6865 24.5874 33.6934C24.5223 33.7002 23.0863 33.6934 23.0863 33.6934C23.0068 33.5018 22.9621 33.2975 22.9543 33.0902C22.9714 32.8451 22.759 32.3807 22.8001 32.1151C22.8412 31.8495 23.6192 32.1151 23.6192 32.1151Z" fill="#B6D7FF"/>
<path d="M17.5204 17.083C17.505 17.1584 17.493 17.2287 17.4793 17.2921L17.3645 17.2458L17.5204 17.083Z" fill="#B6D7FF"/>
<path d="M20.4336 11.2584C20.4336 11.2584 20.4336 11.2584 20.4336 11.2721C20.4062 11.3698 20.007 11.3869 19.7619 11.3355C19.5614 11.2927 19.2821 11.1436 19.2324 10.9928C19.2204 10.9631 19.2204 10.9299 19.2324 10.9002V10.8882C19.3489 10.7477 20.4114 11.1333 20.4114 11.1333C20.4194 11.1427 20.4253 11.1539 20.4285 11.1658C20.44 11.1954 20.4418 11.2278 20.4336 11.2584Z" fill="#96BEF3"/>
<path d="M19.4398 14.8136C19.6677 15.0263 19.9695 15.1418 20.2812 15.1358C20.7953 15.1238 21.1226 14.632 21.0711 14.4761C21.0197 14.3201 20.4885 14.6577 20.1646 14.6063C19.8408 14.5549 19.2975 14.5412 19.4398 14.8136Z" fill="#A8CCFF"/>
<path d="M17.5514 14.5761C17.5988 14.6801 17.6667 14.7736 17.7508 14.851C17.835 14.9284 17.9338 14.9882 18.0415 15.0268C18.4013 15.1485 18.7578 14.8674 18.7646 14.7406C18.7715 14.6138 18.3139 14.7269 18.1048 14.607C17.8958 14.487 17.5205 14.3396 17.5514 14.5761Z" fill="#A8CCFF"/>
<path d="M22.4042 21.8044C22.5105 24.0321 21.5251 26.7174 20.5398 28.8012C20.2194 29.4866 19.8972 30.095 19.6144 30.6108C19.0712 31.5995 18.6668 32.2199 18.6668 32.2199L17.6146 29.233C17.3559 28.9228 17.02 26.7225 17.02 26.7225C16.7098 26.2564 16.1221 22.9423 16.1221 22.9423C15.6731 22.4762 15.7639 21.544 15.7639 21.544C15.5703 21.2595 15.6988 20.8448 15.6988 20.8448C15.6217 20.5021 15.7982 20.3735 15.7982 20.3735C17.995 20.1868 21.6108 18.0293 21.6108 18.0293C22.7812 19.3317 22.4042 21.8044 22.4042 21.8044Z" fill="#A8CCFF"/>
<path d="M20.5655 28.6909C20.5655 28.6909 20.5552 28.732 20.5398 28.8005C20.2194 29.486 19.8972 30.0943 19.6144 30.6101C19.6144 30.593 19.6144 30.5724 19.6144 30.5536C19.4585 29.025 19.0438 26.7219 19.294 26.3209C19.5442 25.9199 20.5655 28.6909 20.5655 28.6909Z" fill="#96BEF3"/>
<path d="M21.9038 18.3174C21.9038 18.3174 18.9684 20.492 17.7911 21.1483C16.6138 21.8046 18.3052 21.8046 19.3796 20.8056C20.4541 19.8065 21.9038 18.3174 21.9038 18.3174Z" fill="#96BEF3"/>
<path d="M21.9759 18.7314C21.9759 18.7314 20.4131 21.7012 18.6532 22.6848C16.8933 23.6684 16.6859 24.0557 17.2548 23.9786C17.8238 23.9015 19.9967 22.4774 20.4919 21.7012C20.9871 20.9249 21.9759 18.7314 21.9759 18.7314Z" fill="#96BEF3"/>
<path d="M21.9038 20.3887C21.9038 20.3887 21.4548 23.2539 20.9715 24.2546C20.4883 25.2554 20.8328 26.3264 21.0401 26.2578C21.1319 26.1913 21.2085 26.106 21.2649 26.0076C21.3214 25.9093 21.3563 25.8001 21.3674 25.6872C21.3674 25.3513 22.1471 22.2617 21.9038 20.3887Z" fill="#96BEF3"/>
<path d="M17.0183 26.7236C17.0183 26.7236 17.8751 27.4485 17.9677 27.0664C18.0602 26.6842 17.1383 26.895 17.0183 26.7236Z" fill="#96BEF3"/>
<path d="M16.1204 22.9431C16.3597 22.9855 16.6058 22.9678 16.8366 22.8917C17.1211 22.7615 17.2119 22.4376 17.0183 22.5027C16.8247 22.5678 16.5556 22.9294 16.1204 22.9431Z" fill="#96BEF3"/>
<path d="M15.7622 21.5449C15.7622 21.5449 16.242 21.8876 16.4477 21.8174C16.6533 21.7471 15.7622 21.5449 15.7622 21.5449Z" fill="#96BEF3"/>
<path d="M25.6757 33.7139H15.9919V34.9048H25.6757V33.7139Z" fill="#96BEF3"/>
<path d="M26.9711 34.8965H14.6981V46.0128H26.9711V34.8965Z" fill="#B6D7FF"/>
<path d="M23.0724 36.7764H18.5947V38.1353H23.0724V36.7764Z" fill="#96BEF3"/>
<path d="M23.4787 38.5H18.1887V36.4111H23.4787V38.5ZM18.3053 38.3852H23.3622V36.5277H18.3053V38.3852Z" fill="#96BEF3"/>
<path opacity="0.1" d="M45.5245 35.1924V46.0808L45.0293 46.0996H30.4103V35.1924H45.5245Z" fill="#00ACA4"/>
<path opacity="0.4" d="M9.1322 44.5682H1.69331C1.69331 44.2501 1.56697 43.945 1.34201 43.72C1.11705 43.4951 0.811912 43.3687 0.493774 43.3687V37.4378C0.811912 37.4378 1.11705 37.3114 1.34201 37.0865C1.56697 36.8615 1.69331 36.5564 1.69331 36.2383H9.1322C9.1322 36.5564 9.25859 36.8615 9.48355 37.0865C9.7085 37.3114 10.0136 37.4378 10.3317 37.4378V43.3687C10.0136 43.3687 9.7085 43.4951 9.48355 43.72C9.25859 43.945 9.1322 44.2501 9.1322 44.5682Z" fill="#96BEF3"/>
<path opacity="0.4" d="M43.7388 44.5682H36.3017C36.3017 44.2501 36.1753 43.945 35.9504 43.72C35.7254 43.4951 35.4203 43.3687 35.1022 43.3687V37.4378C35.4203 37.4378 35.7254 37.3114 35.9504 37.0865C36.1753 36.8615 36.3017 36.5564 36.3017 36.2383H43.7388C43.7388 36.5564 43.8652 36.8615 44.0902 37.0865C44.3151 37.3114 44.6202 37.4378 44.9384 37.4378V43.3687C44.6202 43.3687 44.3151 43.4951 44.0902 43.72C43.8652 43.945 43.7388 44.2501 43.7388 44.5682Z" fill="#96BEF3"/>
<path opacity="0.5" d="M41.8728 27.9307H37.3951V29.2896H41.8728V27.9307Z" fill="#96BEF3"/>
<path d="M42.2773 29.6561H36.9873V27.5654H42.2773V29.6561ZM37.1038 29.5395H42.1625V27.682H37.1038V29.5395Z" fill="#96BEF3"/>
<path d="M45.1389 10.8594H33.7158V26.5357H45.1389V10.8594Z" fill="#A8CCFF"/>
<path d="M38.9904 12.6175C38.9904 12.6175 39.9877 12.4359 41.0981 13.2293C41.799 13.7297 42.1366 13.4898 42.421 14.2438C42.7055 14.9978 43.4972 15.4536 43.2779 16.1699C43.0585 16.8862 43.6549 16.6994 43.4852 17.3985C43.3156 18.0977 43.5983 18.437 43.5229 18.9408C43.4475 19.4446 41.7099 20.0375 40.8976 19.9039C40.0853 19.7702 39.0846 19.3384 39.3673 18.2057C39.6501 17.073 38.9904 12.6175 38.9904 12.6175Z" fill="#80B6FF"/>
<path d="M37.3043 13.4944C37.3043 13.4944 38.1937 12.1749 40.0667 12.713C40.0667 12.713 40.7796 13.0094 41.0366 14.2227C41.3005 15.4616 40.4763 16.4024 40.0513 16.1711C39.7771 16.0203 39.5714 16.4984 39.5714 16.4984L37.3043 13.4944Z" fill="#80B6FF"/>
<path d="M41.6963 22.5253C41.6591 22.7829 41.5959 23.0361 41.5078 23.2811C41.1291 24.3281 40.9338 24.7565 40.9423 25.1523C40.9509 25.4951 41.1137 25.8275 41.4564 26.5352H36.5229C37.0952 24.1276 36.3515 23.3188 36.307 22.0387C36.301 21.9205 36.301 21.8021 36.307 21.684C36.4149 20.0389 37.6881 18.2704 37.6881 18.2704H37.7378H37.7738H37.791H37.8629C37.9486 18.2259 37.9709 17.8677 37.9709 17.4907V17.4222C37.9709 17.3879 37.9709 17.3536 37.9709 17.3193C37.9709 17.2851 37.9709 17.2594 37.9709 17.2285C37.97 17.2137 37.97 17.1988 37.9709 17.184V17.052C37.9709 17.0332 37.9709 17.0143 37.9709 16.9955C37.9718 16.9875 37.9718 16.9795 37.9709 16.9715C37.9709 16.9441 37.9709 16.9184 37.9709 16.8927C37.9718 16.8807 37.9718 16.8686 37.9709 16.8567C37.9709 16.8447 37.9709 16.8327 37.9709 16.8207V16.7693C37.9709 16.7693 37.9709 16.7693 37.9709 16.759C37.9718 16.7413 37.9718 16.7236 37.9709 16.7059C37.9709 16.6716 37.9709 16.6407 37.9709 16.6168V16.603C37.9709 16.5911 37.9709 16.5791 37.9709 16.5722V16.5568L39.4121 16.2706L39.4943 16.2535L39.5834 16.2363C39.5834 16.3323 39.5834 16.4248 39.5834 16.5139C39.628 17.525 39.9262 18.1436 40.1164 18.1933H40.1472C40.3751 18.2844 40.5712 18.4405 40.711 18.6423C41.0063 19.0315 41.2377 19.4654 41.3965 19.9275C41.7055 20.7563 41.8084 21.6479 41.6963 22.5253Z" fill="#D8EBFF"/>
<path d="M37.9451 16.5396C37.9451 16.5396 37.9793 17.0195 37.981 17.4736C38.8379 17.4496 39.2869 16.6682 39.4719 16.2363L37.9451 16.5396Z" fill="#C0DFF9"/>
<path d="M39.6261 16.0697C39.8805 15.6646 40.0685 15.2215 40.1831 14.7571C40.2585 14.3253 40.0391 12.723 38.43 12.9544C38.106 12.9993 37.7962 13.1165 37.5235 13.2971C37.1808 13.5336 36.6667 14.0425 37.2322 15.4408L37.3796 15.9121L39.6261 16.0697Z" fill="#80B6FF"/>
<path d="M37.659 16.9685C37.659 16.9685 39.6828 17.0011 39.6828 15.7415C39.6828 14.482 39.9467 13.6389 38.6546 13.5635C37.3626 13.4881 37.1124 13.9697 37.0078 14.3895C36.9033 14.8093 37.1329 16.9274 37.659 16.9685Z" fill="#D8EBFF"/>
<path d="M37.7412 13.5325C37.7412 13.5325 38.2947 15.0114 39.1447 15.229C39.9946 15.4466 40.3631 15.229 40.3631 15.229C39.9434 14.8609 39.6652 14.3579 39.5765 13.8067C39.5765 13.8067 38.1525 12.8299 37.7412 13.5325Z" fill="#80B6FF"/>
<path d="M37.8716 13.6521C37.8716 13.6521 37.4586 13.9829 37.3575 14.3033C37.2564 14.6238 37.2118 15.2835 37.0148 15.2612C37.0148 15.2612 36.5984 14.257 37.0679 13.6881C37.57 13.0866 37.8716 13.6521 37.8716 13.6521Z" fill="#80B6FF"/>
<path d="M41.4735 23.9685C41.6072 24.8373 41.8162 25.7336 42.0081 26.539H35.5701C35.6969 25.1064 35.9916 23.499 36.0567 22.3851C36.0567 22.2943 36.0567 22.2052 36.067 22.1212C35.9803 21.6194 35.9407 21.1105 35.9488 20.6012C35.9762 19.4325 36.3189 18.7779 36.5828 18.514C36.7166 18.4259 36.8717 18.3755 37.0318 18.3684C37.186 18.3427 37.3985 18.3135 37.6984 18.2741H37.7481H37.7841H37.8183C37.7938 18.3616 37.7834 18.4524 37.7875 18.5432C37.7754 18.8196 37.8161 19.0959 37.9074 19.3571C38.2502 20.0289 39.1961 19.9655 39.6211 19.3571L39.6536 19.3057C39.8407 18.9508 39.9922 18.5783 40.106 18.1936H40.142C40.4194 18.1908 40.6964 18.2132 40.9697 18.2604C41.2778 18.3317 41.5689 18.4627 41.8265 18.646C41.8755 18.6788 41.9165 18.7221 41.9465 18.7728C42.0983 19.0826 42.2232 19.4048 42.32 19.7359C42.6748 20.8634 43.0055 22.4777 43.2642 23.7183C42.7217 24.029 42.0804 24.1186 41.4735 23.9685Z" fill="#96BEF3"/>
<path d="M44.2086 26.5354H35.2977C35.2634 25.4849 35.3183 23.5571 36.0603 22.3815C36.1362 22.2603 36.2222 22.1457 36.3173 22.0388C36.5323 21.7912 36.8081 21.604 37.1176 21.4956C37.3925 21.4028 37.6595 21.2882 37.9161 21.1529C38.6592 20.7367 39.3317 20.2058 39.9091 19.5798C40.191 19.2824 40.4554 18.9689 40.7008 18.6407C40.8104 18.4933 40.8876 18.3802 40.9304 18.3151L40.9698 18.2568C40.9698 18.2568 41.9894 18.483 42.5567 19.0485C42.6646 19.2016 42.7441 19.3728 42.7914 19.5541C43.2661 20.9798 43.9378 24.8954 44.2086 26.5354Z" fill="#B6D7FF"/>
<path d="M38.4969 22.0849V26.5403H34.7561C35.0183 24.4942 35.7414 19.0792 36.127 18.6216C36.6085 18.0544 37.868 18.2583 37.868 18.2583C37.868 18.2583 37.8303 18.3629 37.7824 18.5342C37.6675 18.9352 37.491 19.6961 37.6007 20.2924C37.6625 20.5909 37.7658 20.8793 37.9074 21.1492C38.0761 21.4778 38.2734 21.7909 38.4969 22.0849Z" fill="#B6D7FF"/>
<path d="M37.3043 13.4943C37.3043 13.4943 37.719 13.2167 38.6564 13.5628C39.5938 13.909 39.6846 15.3467 39.6846 15.3467C39.6846 15.3467 40.0599 15.004 40.1164 14.7024C40.173 14.4008 39.8868 13.3829 39.5492 13.1498C39.3195 13.0037 39.0628 12.9053 38.7942 12.8606C38.5257 12.8158 38.251 12.8256 37.9863 12.8894C37.5699 13.0025 37.3043 13.4943 37.3043 13.4943Z" fill="#B6D7FF"/>
<path d="M41.3964 21.5732C41.3964 21.5732 39.8867 24.315 38.5877 24.6578C37.2888 25.0005 38.2553 25.6243 39.2218 25.0502C40.1883 24.4761 41.3964 21.5732 41.3964 21.5732Z" fill="#A2CCF7"/>
<path d="M41.6826 22.9404C41.6826 22.9404 40.8909 24.3679 40.3237 24.9334C39.7565 25.4989 40.6013 25.5743 40.9492 25.1527C41.297 24.7312 41.6826 22.9404 41.6826 22.9404Z" fill="#A2CCF7"/>
<path d="M36.6001 20.248C36.6001 20.248 36.4441 21.0449 36.3173 21.6892C36.1905 22.3335 36.2145 23.6702 36.4647 23.5742C36.7149 23.4782 36.6001 20.248 36.6001 20.248Z" fill="#A2CCF7"/>
<path d="M33.3303 10.626V26.9209H45.5228V10.626H33.3303ZM44.7534 26.1497H34.1015V11.3954H44.7534V26.1497Z" fill="#83B8F1"/>
<path d="M35.5665 0.851562V10.6261V10.7752H35.7036V10.6261V0.952667L35.5665 0.851562Z" fill="#96BEF3"/>
<path d="M43.3859 5.45605V10.6261V10.7752H43.5212V10.6261V5.50404L43.3859 5.45605Z" fill="#96BEF3"/>
<path d="M33.2035 38.4883H32.8539V45.9546H33.2035V38.4883Z" fill="#02867D"/>
<path d="M32.705 38.2294C32.7048 38.1417 32.7383 38.0573 32.7986 37.9935C32.8588 37.9298 32.9412 37.8915 33.0288 37.8867C33.1164 37.8915 33.1988 37.9298 33.259 37.9935C33.3193 38.0573 33.3528 38.1417 33.3527 38.2294C33.3528 38.3172 33.3193 38.4016 33.259 38.4654C33.1988 38.5291 33.1164 38.5673 33.0288 38.5722C32.9412 38.5673 32.8588 38.5291 32.7986 38.4654C32.7383 38.4016 32.7048 38.3172 32.705 38.2294Z" fill="#02867D"/>
<path d="M33.3338 45.8516H32.7048V46.0281H33.3338V45.8516Z" fill="#02867D"/>
<path d="M33.296 38.4297H32.7665V38.5719H33.296V38.4297Z" fill="#02867D"/>
<path d="M17.4793 40.5252C15.4847 40.5252 13.3478 40.4738 11.0704 40.3538C5.22521 40.0437 1.17076 39.4182 1.13135 39.4113L1.18958 38.9795C1.23071 38.9795 5.26974 39.6084 11.0961 39.9186C16.47 40.203 24.507 40.2716 32.2783 38.9795L32.3416 39.4113C29.0361 39.9545 24.0323 40.5252 17.4793 40.5252Z" fill="#FDB737"/>
<path d="M0.898171 38.4883H0.548584V45.9546H0.898171V38.4883Z" fill="#02867D"/>
<path d="M0.399537 38.2294C0.399404 38.1417 0.432915 38.0573 0.493167 37.9935C0.553418 37.9298 0.635804 37.8915 0.723394 37.8867C0.810984 37.8915 0.893411 37.9298 0.953663 37.9935C1.01391 38.0573 1.04743 38.1417 1.04729 38.2294C1.04743 38.3172 1.01391 38.4016 0.953663 38.4654C0.893411 38.5291 0.810984 38.5673 0.723394 38.5722C0.635804 38.5673 0.553418 38.5291 0.493167 38.4654C0.432915 38.4016 0.399404 38.3172 0.399537 38.2294Z" fill="#02867D"/>
<path d="M1.02847 45.8516H0.399536V46.0281H1.02847V45.8516Z" fill="#0D458E"/>
<path d="M0.990708 38.4297H0.461182V38.5719H0.990708V38.4297Z" fill="#02867D"/>
<path d="M1.89905 39.0416L1.8168 39.5574L1.07654 39.4288L1.16904 38.9268L1.89905 39.0416Z" fill="#02867D"/>
<path d="M1.50315 39.0876C1.47745 39.0496 1.43924 39.0217 1.39517 39.0088H1.37634L1.16042 38.9728L1.03362 38.9522C0.986459 38.9454 0.93841 38.9558 0.898234 38.9814L0.887942 38.9899C0.866635 39.0062 0.848814 39.0265 0.835563 39.0498C0.822312 39.073 0.813912 39.0987 0.810838 39.1253C0.804462 39.1644 0.8093 39.2044 0.824769 39.2408C0.840239 39.2772 0.865708 39.3085 0.898234 39.331C0.920765 39.3467 0.946512 39.3573 0.973624 39.3618L1.08503 39.3807H1.13469L1.31635 39.4098H1.34723C1.39424 39.4083 1.4392 39.3903 1.47428 39.359C1.50937 39.3276 1.53232 39.285 1.53913 39.2384C1.54673 39.1854 1.53387 39.1315 1.50315 39.0876ZM1.49457 39.2333C1.49225 39.2534 1.48595 39.2728 1.47604 39.2904C1.46613 39.3081 1.45283 39.3236 1.43688 39.336C1.42093 39.3484 1.40268 39.3576 1.38316 39.3629C1.36365 39.3682 1.34326 39.3696 1.32321 39.3669L1.13984 39.3361L1.09185 39.3275L0.97877 39.3104C0.947548 39.304 0.918926 39.2885 0.896519 39.2658C0.879884 39.2475 0.867434 39.2257 0.860037 39.202C0.852641 39.1783 0.850475 39.1533 0.853678 39.1288C0.858269 39.0958 0.87328 39.0652 0.896519 39.0414L0.913672 39.0259C0.928813 39.0135 0.946423 39.0045 0.96534 38.9995C0.984257 38.9945 1.00403 38.9935 1.02333 38.9968L1.15013 39.0174H1.18268L1.36777 39.0482C1.38757 39.0514 1.40646 39.0587 1.42328 39.0696C1.4401 39.0805 1.45449 39.0948 1.46546 39.1116C1.49015 39.147 1.50054 39.1905 1.49457 39.2333Z" fill="#02867D"/>
<path d="M45.5418 40.0111C44.7912 39.9837 44.0749 39.9511 43.4015 39.9151C38.9889 39.6821 35.601 39.2674 34.1993 39.0772L33.7023 39.0086L33.5035 38.9795V39.024L33.459 39.3376V39.3856V39.4113C33.4693 39.4113 33.7109 39.4507 34.1444 39.5107C35.5428 39.7009 38.9512 40.1191 43.398 40.3538C44.1349 40.3938 44.8563 40.4258 45.5623 40.4498L45.5418 40.0111Z" fill="#FDB737"/>
<path d="M34.2061 39.0416L34.1238 39.5574L33.3835 39.4288L33.4761 38.9268L34.2061 39.0416Z" fill="#02867D"/>
<path d="M33.8102 39.0878C33.7845 39.0497 33.7463 39.0219 33.7022 39.009H33.6834L33.4658 38.973L33.339 38.9524C33.2916 38.9451 33.2431 38.9561 33.2036 38.9832H33.195C33.152 39.0163 33.1237 39.0649 33.1162 39.1186C33.1106 39.1576 33.1158 39.1974 33.1312 39.2336C33.1466 39.2699 33.1716 39.3012 33.2036 39.3243C33.2267 39.34 33.253 39.3506 33.2807 39.3551L33.3921 39.374H33.44L33.6234 39.4031H33.6525C33.6998 39.402 33.7452 39.3842 33.7807 39.3528C33.8161 39.3214 33.8393 39.2785 33.8462 39.2317C33.8513 39.181 33.8386 39.1301 33.8102 39.0878ZM33.7999 39.2334C33.7978 39.2536 33.7917 39.2732 33.7819 39.2909C33.772 39.3087 33.7587 39.3242 33.7427 39.3367C33.7267 39.3492 33.7083 39.3583 33.6887 39.3636C33.6691 39.3688 33.6486 39.37 33.6286 39.3671L33.4452 39.3363L33.3989 39.3277L33.2841 39.3106C33.2525 39.3042 33.2237 39.288 33.2019 39.2643C33.1849 39.2465 33.1721 39.225 33.1647 39.2016C33.1573 39.1781 33.1554 39.1532 33.159 39.1289C33.1652 39.0964 33.18 39.0663 33.2019 39.0415L33.219 39.0261C33.2344 39.0135 33.2523 39.0045 33.2715 38.9994C33.2907 38.9944 33.3108 38.9936 33.3304 38.997L33.4555 39.0175H33.488L33.6748 39.0484C33.6946 39.0515 33.7135 39.0588 33.7303 39.0697C33.7472 39.0807 33.7616 39.095 33.7725 39.1118C33.7966 39.1474 33.8064 39.1909 33.7999 39.2334Z" fill="#02867D"/>
<path d="M31.9303 39.5176L31.8669 38.9983L32.609 38.8887L32.662 39.3976L31.9303 39.5176Z" fill="#02867D"/>
<path d="M32.9429 39.0977C32.9395 39.0673 32.9293 39.0382 32.9129 39.0123C32.8966 38.9865 32.8746 38.9647 32.8487 38.9486C32.8114 38.9238 32.7659 38.9146 32.7219 38.9229L32.6088 38.94L32.3774 38.976H32.3483C32.3229 38.9849 32.2995 38.9989 32.2798 39.0172C32.2541 39.0408 32.2347 39.0703 32.223 39.1031C32.2114 39.136 32.2079 39.1712 32.2129 39.2057C32.2206 39.2589 32.2481 39.3073 32.29 39.341C32.3021 39.3516 32.316 39.3598 32.3312 39.365C32.363 39.3807 32.399 39.3861 32.434 39.3805L32.6516 39.3445L32.7784 39.3256C32.8032 39.3215 32.8271 39.3127 32.8487 39.2999C32.8721 39.2857 32.892 39.2663 32.907 39.2434C32.9364 39.2009 32.9492 39.149 32.9429 39.0977ZM32.871 39.2211C32.871 39.2314 32.8555 39.2382 32.8487 39.2468C32.827 39.2663 32.8003 39.2794 32.7716 39.2845L32.6465 39.3033L32.4289 39.3393C32.3907 39.3443 32.3521 39.3345 32.3209 39.3119C32.3047 39.2992 32.2912 39.2835 32.2812 39.2655C32.2712 39.2476 32.2649 39.2278 32.2626 39.2074C32.2563 39.1657 32.2668 39.1231 32.2918 39.0891C32.3147 39.0574 32.3492 39.0359 32.3877 39.0292L32.6174 38.9932L32.7322 38.976C32.7537 38.972 32.7759 38.9733 32.7969 38.9799C32.8178 38.9865 32.8367 38.9981 32.8521 39.0137C32.8795 39.0389 32.8971 39.0729 32.9018 39.1097C32.9063 39.1487 32.8972 39.188 32.8761 39.2211H32.871Z" fill="#02867D"/>
<path d="M33.9969 28.6349C33.9969 28.6212 34.1974 28.2065 34.134 28.1757C34.0706 28.1448 33.9627 28.1482 33.9421 28.2202C33.9487 28.3597 33.967 28.4985 33.9969 28.6349Z" fill="#FBBA83"/>
<path d="M36.9924 23.4787C36.9924 23.4787 38.168 22.0649 38.7917 22.9646C38.7917 22.9646 39.2562 23.1565 39.4241 23.9482C39.592 24.7399 39.0591 25.3688 38.7815 25.218C38.6101 25.1203 38.4696 25.4305 38.4696 25.4305L36.9924 23.4787Z" fill="#522F25"/>
<path d="M35.5324 31.0032C34.5967 30.6605 33.697 29.0565 33.697 29.0565L33.9918 28.8509C34.2369 29.2108 35.3421 29.8997 35.3421 29.8997C35.3678 29.5981 35.4038 29.3222 35.4501 29.0737C35.7568 27.3823 36.4577 26.8802 36.6496 26.774L36.6976 26.75C36.6976 26.75 36.6976 26.762 36.6976 26.786C36.6976 26.8374 36.689 26.9402 36.6788 27.0807C36.5999 28.1312 36.3138 31.2911 35.5324 31.0032Z" fill="#FBBA83"/>
<path d="M38.6631 22.819C38.6631 22.819 38.8208 22.1867 39.7495 22.3838C39.7495 22.3838 39.3057 22.3289 39.184 22.5003C39.184 22.5003 39.5268 22.3392 39.7564 22.4729C39.986 22.6065 40.0135 23.0641 39.9809 23.2012C39.9483 23.3383 39.705 23.753 39.5422 23.753C39.4147 23.737 39.2936 23.688 39.1909 23.6107L38.6631 22.819Z" fill="#522F25"/>
<path d="M40.053 32.7305C39.592 31.7023 39.3675 31.4007 39.3675 31.0751C39.3675 30.8163 39.4892 30.5387 39.7359 29.8567C39.7929 29.6966 39.8342 29.5313 39.8593 29.3632C40.0547 28.0471 39.2938 26.6214 38.8209 26.5288C38.6889 26.4946 38.4661 26.0148 38.4696 25.2539L38.4096 25.2659L37.414 25.463C37.414 25.463 37.438 25.7766 37.438 26.0713C37.438 26.3164 37.4243 26.5494 37.3677 26.5854L37.2546 26.5974C37.2546 26.5974 36.4235 27.7489 36.3549 28.8251C36.2864 29.9013 37.0198 30.3674 36.3549 32.5043C35.6592 34.6823 40.3117 33.3028 40.053 32.7305Z" fill="#FBBA83"/>
<path d="M37.4088 25.4627C37.4088 25.4627 37.4328 25.7763 37.4328 26.071C37.9897 26.0556 38.2896 25.5467 38.4044 25.2656L37.4088 25.4627Z" fill="#F48F4E"/>
<path d="M38.5072 25.1558C38.6733 24.8916 38.7954 24.6023 38.8688 24.299C38.9202 24.018 38.7763 22.9744 37.7275 23.1252C37.5162 23.1539 37.3141 23.23 37.1363 23.3479C36.9084 23.5022 36.5794 23.8329 36.9479 24.7445L37.0438 25.0513L38.5072 25.1558Z" fill="#522F25"/>
<path d="M37.2273 25.7426C37.2273 25.7426 38.5451 25.7632 38.5451 24.9424C38.5451 24.1215 38.7165 23.5715 37.8768 23.5235C37.0371 23.4755 36.8709 23.7874 36.804 24.0616C36.7372 24.3357 36.8846 25.7152 37.2273 25.7426Z" fill="#FBBA83"/>
<path d="M37.2717 23.5042C37.2717 23.5042 37.6333 24.4673 38.1868 24.6095C38.7403 24.7517 38.9802 24.6095 38.9802 24.6095C38.7063 24.3696 38.5245 24.0418 38.4661 23.6824C38.4661 23.6824 37.5442 23.045 37.2717 23.5042Z" fill="#522F25"/>
<path d="M37.3626 23.5807C37.2162 23.6923 37.0986 23.8375 37.0199 24.0039C36.9548 24.213 36.9239 24.6448 36.7988 24.6294C36.7988 24.6294 36.5263 23.9748 36.8331 23.6012C37.1398 23.2277 37.3626 23.5807 37.3626 23.5807Z" fill="#522F25"/>
<path d="M38.4129 42.6741C38.2102 43.4755 37.9319 44.2558 37.5819 45.0046L37.0866 45.0577C37.2673 44.2478 37.3553 43.4199 37.3488 42.5901C37.3526 41.513 37.1819 40.4424 36.8433 39.4199C35.5426 35.7065 38.3513 35.9515 38.377 37.1425C38.3992 38.2152 38.4181 39.0275 38.4181 39.0275C38.8893 40.0317 38.718 41.4608 38.4129 42.6741Z" fill="#FFAE73"/>
<path d="M41.7682 33.8306L41.3724 33.9489C41.3724 33.9489 40.0666 31.7846 39.9483 31.2208C39.9089 31.0374 39.8147 30.6707 39.7033 30.2594C39.4754 29.4026 39.1789 28.3642 39.1789 28.3642L39.0813 27.9426L38.7488 26.5049C39.0924 26.5397 39.431 26.6133 39.7581 26.7242C39.8598 26.7555 39.9475 26.8209 40.0066 26.9093C40.2808 27.5108 40.5533 29.0273 40.7452 30.1086C40.8531 30.7118 40.9337 31.1814 40.9765 31.279C41.0947 31.5584 41.458 33.0784 41.7682 33.8306Z" fill="#FBBA83"/>
<path d="M40.2893 42.4633C40.2183 43.3323 39.9593 44.1754 39.5302 44.9344L39.3228 45.0852C39.3228 45.0852 39.1257 44.0279 38.9801 42.7701C38.8481 41.5705 38.6665 40.3093 38.466 39.9237C37.6503 38.3917 37.4053 32.6117 37.4053 32.6117L39.8832 32.4883C40.1334 32.9081 40.2413 33.5953 40.267 34.3733C40.3321 36.3474 39.8695 38.9195 39.7992 39.2914C39.7954 39.3205 39.8015 39.3501 39.8164 39.3754C40.3116 40.3556 40.3819 41.4728 40.2893 42.4633Z" fill="#FFAE73"/>
<path d="M37.3112 23.6133C37.3112 23.6133 37.5682 24.6209 38.2674 24.9448C38.2674 24.9448 37.5682 24.3244 37.5099 23.6596C37.4517 22.9947 37.3112 23.6133 37.3112 23.6133Z" fill="#914324"/>
<path d="M40.3648 33.4778C40.3648 33.5617 41.0125 40.819 40.9971 40.8669C40.944 41.0383 36.019 41.7906 35.8785 40.7727C35.7242 39.652 36.1612 30.167 36.1869 29.0977C36.1294 28.7708 36.103 28.4392 36.1081 28.1072C36.127 27.3447 36.3497 26.918 36.5211 26.7466C36.6088 26.6901 36.7099 26.6576 36.8141 26.6524C36.9152 26.6352 37.0523 26.6164 37.2494 26.5907C37.275 26.5891 37.3008 26.5891 37.3265 26.5907C37.2905 26.6558 36.9838 27.223 36.9923 27.4149C37.0317 27.8571 37.9246 27.8176 38.4301 27.5092C38.8276 27.2676 39.0281 26.5479 39.0281 26.5479C39.0281 26.5479 39.6382 26.6147 39.9364 26.8323C39.9685 26.8534 39.9955 26.8815 40.0152 26.9146C40.3322 27.5195 40.9782 29.5844 41.201 30.6726C41.0828 31.4437 40.3185 31.7796 40.1728 31.7401C40.2225 32.6484 40.3356 32.9071 40.3648 33.4778Z" fill="#02867D"/>
<path d="M33.9918 28.8509C33.9918 28.8097 34.0261 28.2219 33.9198 28.0969C33.8136 27.9718 33.6011 27.7987 33.5343 27.8038C33.4407 27.8756 33.368 27.9712 33.324 28.0806C33.28 28.19 33.2662 28.3093 33.2841 28.4259C33.3841 28.6585 33.5238 28.8719 33.6971 29.0565L33.9918 28.8509Z" fill="#FBBA83"/>
<path d="M34.4331 26.6027L33.6691 26.62C33.6435 26.6206 33.6233 26.6418 33.6239 26.6673L33.6569 28.1253C33.6575 28.1508 33.6787 28.1711 33.7042 28.1705L34.4683 28.1531C34.4939 28.1526 34.5141 28.1314 34.5135 28.1058L34.4804 26.6479C34.4799 26.6224 34.4587 26.6021 34.4331 26.6027Z" fill="#FC9F38"/>
<path d="M34.2344 26.6113L33.5424 26.627C33.4969 26.6281 33.4609 26.6657 33.4619 26.7111L33.4934 28.0971C33.4944 28.1425 33.5321 28.1785 33.5775 28.1775L34.2696 28.1618C34.315 28.1607 34.351 28.1231 34.35 28.0777L34.3185 26.6917C34.3175 26.6463 34.2799 26.6103 34.2344 26.6113Z" fill="#E65F00"/>
<path d="M36.6257 31.1074C36.5965 31.1074 36.3481 31.1279 36.0962 31.1468C35.8442 31.1656 35.5821 31.1862 35.5478 31.1793C35.4714 31.1486 35.4071 31.0939 35.3644 31.0234C35.0834 30.6241 34.8949 29.6268 34.8949 29.6268C34.9617 29.2224 35.421 29.0664 35.5084 28.6946C35.9265 26.9176 36.5948 26.7119 36.5948 26.7119C36.5948 26.7119 37.0901 31.1331 36.6257 31.1074Z" fill="#02867D"/>
<path d="M33.471 27.8479C33.471 27.8479 33.7263 27.4572 33.788 27.4794C33.8771 27.5103 33.5584 28.0055 33.5584 28.0055C33.5584 28.0055 33.7931 27.6354 33.8308 27.6628C33.9148 27.7262 33.6252 28.3243 33.6252 28.3243L33.4539 28.1186L33.471 27.8479Z" fill="#FBBA83"/>
<path d="M33.2859 28.2115C33.2979 28.1636 33.4572 27.2313 33.4847 27.3205C33.5012 27.5091 33.5046 27.6986 33.4949 27.8877L33.2859 28.2115Z" fill="#FBBA83"/>
<path d="M37.5819 45.0052L37.1637 44.6934C37.1422 44.806 37.1023 44.9142 37.0455 45.0138C36.9204 45.1373 36.7839 45.2486 36.6377 45.3463C36.4548 45.4526 36.2654 45.547 36.0704 45.629C36.0704 45.7884 36.9272 45.8004 37.126 45.8192C37.3248 45.8381 37.5202 45.8381 37.5664 45.6804C37.5761 45.5145 37.5698 45.3481 37.5476 45.1835C37.5499 45.1227 37.5615 45.0626 37.5819 45.0052Z" fill="#FFAE73"/>
<path d="M36.9924 45.9525C36.7635 45.9367 36.5336 45.9465 36.3069 45.9817C35.8511 46.0194 35.6832 45.8806 35.6575 45.8103C35.6318 45.7401 35.846 45.6886 36.0773 45.615H36.0859C36.3005 45.699 36.5338 45.7232 36.7611 45.6852C37.0661 45.6338 37.3694 45.483 37.5785 45.4453C37.6004 45.513 37.6131 45.5833 37.6162 45.6544C37.6076 45.8789 37.5784 45.9885 36.9924 45.9525Z" fill="#1E194B"/>
<path d="M39.8954 44.1641L39.191 44.248C39.2108 44.4801 39.2108 44.7134 39.191 44.9455C39.1652 45.0548 39.1122 45.156 39.0371 45.2395C38.9619 45.3231 38.867 45.3864 38.7609 45.4236C38.6118 45.487 38.1903 45.6258 38.1903 45.6292C38.1903 45.7886 39.0471 45.8006 39.2476 45.8194C39.4481 45.8383 39.64 45.8383 39.688 45.6806C39.697 45.5147 39.6901 45.3483 39.6674 45.1837C39.664 45.0963 39.8954 44.1641 39.8954 44.1641Z" fill="#FFAE73"/>
<path d="M39.1755 45.9679C38.923 45.9472 38.669 45.9541 38.418 45.9885C37.9622 46.0262 37.7926 45.8874 37.7669 45.8172C37.7412 45.7469 37.9571 45.6955 38.1867 45.6218H38.1953C38.4104 45.7059 38.6443 45.7302 38.8722 45.6921C39.1755 45.6406 39.4788 45.4898 39.6879 45.4521C39.7098 45.5198 39.7225 45.5901 39.7256 45.6612C39.7256 45.8788 39.6262 46.0005 39.1755 45.9679Z" fill="#1E194B"/>
<path d="M40.1677 31.7297C40.1763 31.7297 39.5594 29.6117 39.4823 29.7539C39.4052 29.8962 40.3991 33.9403 40.3991 33.9403L40.1677 31.7297Z" fill="#00685E"/>
<path d="M36.1046 31.1437C35.8459 31.1643 35.5906 31.1831 35.5563 31.1763C35.4799 31.1455 35.4156 31.0908 35.3729 31.0203C35.4569 30.9124 35.7756 30.801 35.887 30.7256C36.0292 30.6313 36.2657 29.5997 36.3137 29.79C36.3617 29.9802 36.1046 31.1437 36.1046 31.1437Z" fill="#00685E"/>
<path d="M37.5133 25.3014C37.5133 25.3014 37.4893 25.3991 37.2494 25.3836C37.2494 25.3836 37.0472 25.3716 37.0523 25.2637C37.2055 25.2197 37.3693 25.2331 37.5133 25.3014Z" fill="white"/>
<path d="M41.7322 33.7861C41.7322 33.7861 42.2085 34.1032 42.2822 34.2385C42.3559 34.3739 42.5256 34.864 42.5256 34.864C42.5256 34.864 42.4039 34.8829 42.2822 34.6687C42.1606 34.4544 41.7596 34.475 41.6259 34.3585C41.5073 34.223 41.4097 34.0705 41.3363 33.9061L41.7322 33.7861Z" fill="#FBBA83"/>
<path d="M41.3878 34.0068C41.419 34.176 41.4768 34.3391 41.5592 34.4901C41.6569 34.598 41.7905 34.7814 41.8453 34.7317C41.9002 34.682 41.7854 34.2759 41.7854 34.2759L41.3878 34.0068Z" fill="#FBBA83"/>
<path d="M42.2156 34.2754C42.2276 34.2942 42.6474 34.7398 42.6474 34.7398C42.6474 34.7398 42.4949 34.8083 42.452 34.7398C42.4092 34.6712 42.2156 34.2754 42.2156 34.2754Z" fill="#FBBA83"/>
<path d="M9.35149 44.6883L8.96249 44.5632C8.91967 43.7891 8.95066 43.0128 9.05503 42.2446C9.14667 41.4237 9.37486 40.6238 9.73019 39.8781C9.88306 39.5735 10.0858 39.2967 10.33 39.059C10.33 39.059 10.6281 38.3735 11.024 37.4413C11.4627 36.4131 14.2113 36.1098 12.6434 38.2656C12.3212 38.7094 11.975 39.4874 11.562 39.9604C10.9096 40.7321 10.3859 41.6042 10.0112 42.5428C9.72228 43.2349 9.50135 43.9534 9.35149 44.6883Z" fill="#FFAE73"/>
<path d="M8.46733 44.753C8.34909 44.9432 8.60444 45.13 8.91803 45.3065C9.23163 45.483 9.10309 45.5002 9.5058 45.8C9.9085 46.0999 10.145 46.0674 10.2067 46.0228C10.2684 45.9783 10.097 45.8 9.92391 45.5961L9.85881 45.5207C9.66689 45.2894 9.63774 45.0066 9.54692 44.6982C9.4561 44.3897 9.59834 43.706 9.59834 43.706L9.06024 43.2793C9.06024 43.2793 8.95228 43.9236 8.88887 44.1909C8.8382 44.3432 8.74484 44.4776 8.61986 44.5782C8.56161 44.6296 8.51032 44.6883 8.46733 44.753Z" fill="#FFAE73"/>
<path d="M8.91803 45.302C9.23334 45.4734 9.10309 45.4957 9.50579 45.7956C9.9085 46.0954 10.145 46.0629 10.2067 46.0183C10.2684 45.9738 10.097 45.7956 9.92391 45.5916C9.67421 45.5457 9.44155 45.4332 9.25046 45.266C8.99685 45.0416 8.80151 44.7263 8.62844 44.5703C8.56921 44.6204 8.51676 44.678 8.47247 44.7417C8.34909 44.9387 8.60958 45.1255 8.91803 45.302Z" fill="#1E194B"/>
<path d="M12.0367 24.4566C11.7504 24.4321 11.4631 24.4915 11.2099 24.6275C10.9567 24.7635 10.7486 24.9703 10.611 25.2225C10.1346 26.1051 10.174 27.3834 9.71131 27.9866C9.24863 28.5898 9.78842 29.1605 9.78842 29.1605L13.387 29.2821C13.5368 28.7994 13.5368 28.2826 13.387 27.7998C13.1454 26.991 14.3673 24.5782 12.0367 24.4566Z" fill="#84653C"/>
<path d="M15.0082 35.1701C15.0082 35.3141 15.0562 35.6208 14.9619 35.6208C14.8677 35.6208 14.7357 35.2318 14.638 35.1496C14.5157 35.0271 14.421 34.8799 14.3604 34.7177C14.3499 34.6612 14.3245 34.6086 14.2867 34.5652C14.2867 34.5652 13.1489 32.4849 13.0598 31.9519C13.0307 31.7806 12.9553 31.4379 12.8679 31.0403C12.7719 30.617 12.6622 30.1441 12.5782 29.7893C12.9392 29.7246 13.3049 29.6902 13.6716 29.6865C13.7384 30.1184 13.7984 30.5588 13.8429 30.9409C13.92 31.5115 13.9783 31.9537 14.0143 32.0479C14.112 32.3084 14.3861 33.7084 14.6432 34.435C14.6719 34.5427 14.7189 34.6447 14.782 34.7366C14.9068 34.8494 14.987 35.0032 15.0082 35.1701Z" fill="#F48F4E"/>
<path d="M13.0272 33.1094C12.3983 31.0993 13.6647 31.125 13.5996 30.1191C13.5345 29.1132 12.7547 28.0319 12.7547 28.0319H12.6776C12.6647 28.0308 12.6524 28.026 12.642 28.0181C12.6317 28.0102 12.6239 27.9996 12.6194 27.9874C12.5875 27.8446 12.5748 27.6982 12.5817 27.5521C12.5817 27.2745 12.604 26.9815 12.604 26.9815L11.6701 26.7964L11.6152 26.7861C11.6282 27.1352 11.5657 27.4831 11.4318 27.8057C11.409 27.8515 11.3754 27.891 11.3339 27.9208C11.2924 27.9507 11.2443 27.97 11.1937 27.9771C10.9235 28.0088 10.6578 28.0715 10.4019 28.1639C10.3063 28.1923 10.2234 28.2528 10.1672 28.3353C9.91015 28.899 9.65311 30.3231 9.48174 31.3375C9.38064 31.9047 9.31038 32.3434 9.26411 32.436C9.15272 32.6964 8.81341 34.1256 8.52209 34.835L8.89394 34.9464C8.89394 34.9464 10.1175 32.9141 10.2289 32.3863C10.2648 32.2149 10.354 31.8722 10.4585 31.4832C10.4739 31.4249 10.4894 31.3649 10.5065 31.3118C10.6898 31.8088 10.7841 32.0384 10.7789 32.2543C10.7789 32.5593 10.563 32.8352 10.1295 33.8069C9.88445 34.3312 13.6698 35.1572 13.0272 33.1094Z" fill="#FBBA83"/>
<path d="M12.6041 26.9741C12.6041 26.9741 12.5835 27.2672 12.5818 27.5448C12.0677 27.5293 11.7833 27.053 11.6702 26.7891L12.6041 26.9741Z" fill="#F48F4E"/>
<path d="M12.7788 27.2363C12.7788 27.2363 11.5433 27.2569 11.5416 26.4857C11.5399 25.7146 11.3805 25.2005 12.1705 25.1542C12.9605 25.108 13.113 25.4027 13.1764 25.6598C13.2398 25.9168 13.101 27.2106 12.7788 27.2363Z" fill="#FBBA83"/>
<path d="M14.5045 45.1868L14.1069 45.2844C13.6628 44.649 13.2806 43.9725 12.9656 43.2641C12.6116 42.5186 12.384 41.7194 12.2922 40.8993C12.2623 40.5596 12.2889 40.2174 12.371 39.8865C12.371 39.8865 12.2613 39.1411 12.1088 38.1455C11.9374 37.0402 11.7232 35.6247 11.5519 34.5863L11.6547 34.5554L13.3427 33.5684C13.3427 33.5684 14.1189 35.3351 13.9201 37.9947C13.879 38.5396 13.9955 39.3844 13.8927 40.0047C13.7444 41.0041 13.7588 42.0209 13.9356 43.0156C14.0542 43.7561 14.2447 44.4832 14.5045 45.1868Z" fill="#FFAE73"/>
<path d="M10.426 31.0974C10.6574 31.7366 10.7773 31.9988 10.7687 32.2404C11.5073 31.0957 12.8405 30.9244 12.8405 30.9244L10.3077 30.6348C10.3311 30.7927 10.3707 30.9477 10.426 31.0974Z" fill="#D67936"/>
<path d="M13.1386 25.2318C12.9484 25.0005 12.8045 25.0502 12.7239 25.1205C12.5479 25.0141 12.34 24.9731 12.1368 25.0044C11.9335 25.0357 11.7477 25.1374 11.6118 25.2918C11.5561 25.6282 11.386 25.9351 11.1302 26.1606C11.1302 26.1606 11.3496 26.2772 11.8757 26.1606C12.4977 26.0287 12.6691 25.3278 12.6948 25.2353C12.8109 25.333 12.9029 25.4562 12.9638 25.5951C13.0255 25.7905 13.053 26.1949 13.1712 26.1812C13.1712 26.1932 13.4265 25.5797 13.1386 25.2318Z" fill="#84653C"/>
<path d="M8.54096 34.7646C8.48983 34.894 8.41151 35.0109 8.31132 35.1074C8.19308 35.1828 8.02686 35.361 8.0577 35.5032C8.08855 35.6455 8.11939 35.8682 8.26848 35.8682C8.41756 35.8682 8.76198 35.2136 8.80654 35.0902C8.85109 34.9669 8.88711 34.9412 8.88711 34.9412L8.54096 34.7646Z" fill="#FFAE73"/>
<path d="M14.3672 40.6096C12.8747 41.4664 8.94359 40.1041 8.94874 40.0253C8.9693 39.6089 9.34628 37.095 9.79011 34.6959C10.0626 33.2205 10.7892 32.6687 10.6727 32.5761C10.2254 32.2591 10.419 31.7193 10.4482 31.5188C10.0784 31.606 9.68926 31.549 9.35999 31.3595C9.56905 30.3313 9.87411 28.9021 10.1654 28.3349C10.1833 28.3036 10.2086 28.2771 10.2391 28.2578C10.5184 28.0539 11.0959 27.9922 11.0959 27.9922C11.2135 28.2898 11.348 28.5804 11.4986 28.8627C12.1087 29.6236 13.202 29.2808 13.0529 28.8062C12.946 28.541 12.8247 28.2818 12.6896 28.0299C12.7153 28.0283 12.741 28.0283 12.7667 28.0299C12.9501 28.0539 13.0803 28.0727 13.1745 28.0899C13.2721 28.094 13.3668 28.1242 13.4487 28.1773C13.6098 28.3383 13.8206 28.7393 13.8377 29.4539C13.8377 29.7195 14.1205 32.6533 13.2242 32.6018C13.2037 32.6018 13.2242 32.6481 13.2602 32.7389C13.5599 33.355 13.759 34.0151 13.8497 34.6942C14.1753 37.7376 14.3672 40.6096 14.3672 40.6096Z" fill="#FEE798"/>
<path d="M12.4241 26.7801C12.4241 26.7801 12.4464 26.8761 12.6828 26.859C12.6828 26.859 12.8816 26.8435 12.8747 26.739C12.7245 26.6975 12.5643 26.7121 12.4241 26.7801Z" fill="white"/>
<path d="M8.80651 35.0859C8.80651 35.0859 8.76539 35.3841 8.68657 35.4544C8.60774 35.5246 8.59575 35.6463 8.5152 35.5795C8.43466 35.5126 8.80651 35.0859 8.80651 35.0859Z" fill="#FFAE73"/>
<path d="M13.7829 45.704C13.7829 45.9267 14.0982 45.9524 14.4581 45.937C14.818 45.9216 14.7169 46.0038 15.2173 46.0467C15.7177 46.0895 15.9027 45.937 15.9318 45.8667C15.961 45.7965 15.7194 45.7348 15.4675 45.6543L15.3715 45.6217C15.0853 45.5274 14.9088 45.2961 14.674 45.0888C14.4393 44.8814 14.1942 44.2182 14.1942 44.2182L13.5088 44.1377C13.5088 44.1377 13.7556 44.7426 13.8515 45.0031C13.8894 45.1586 13.881 45.3218 13.8275 45.4726C13.8023 45.5474 13.7873 45.6252 13.7829 45.704Z" fill="#FFAE73"/>
<path d="M14.4581 45.9366C14.8197 45.9211 14.7169 46.0034 15.2173 46.0462C15.7177 46.0891 15.9027 45.9366 15.9319 45.8663C15.961 45.7961 15.7194 45.7344 15.4675 45.6538C15.2313 45.7471 14.9742 45.7744 14.7238 45.7327C14.3896 45.6761 14.0572 45.5099 13.8275 45.4688C13.8035 45.5437 13.7896 45.6215 13.7864 45.7001C13.783 45.9263 14.0931 45.952 14.4581 45.9366Z" fill="#1E194B"/>
<path d="M14.3672 40.6097C12.8747 41.4665 8.94359 40.1041 8.94874 40.0253C8.9693 39.6089 9.34628 37.095 9.79011 34.6959C10.0626 33.2205 10.7892 32.6687 10.6727 32.5762C11.0281 32.8264 11.4622 32.939 11.8945 32.8932C12.3481 32.8665 12.8 32.8156 13.2482 32.7407C13.548 33.3567 13.747 34.0169 13.8377 34.6959C14.1753 37.7376 14.3672 40.6097 14.3672 40.6097Z" fill="#00ACA4"/>
<path d="M10.666 32.5742C11.4849 32.8744 12.3819 32.8847 13.2074 32.6034L13.2742 32.8107C13.2742 32.8107 11.9187 33.2819 10.6129 32.7456L10.666 32.5742Z" fill="#1F346F"/>
<path d="M6.51193 35.0469C6.51193 35.0469 7.65661 37.3808 7.51781 37.5573C7.379 37.7338 6.40056 36.9199 6.18464 36.3715C5.96872 35.8232 6.51193 35.0469 6.51193 35.0469Z" fill="#FFAE73"/>
<path d="M8.09542 35.5664C8.09542 35.5664 7.40995 36.562 7.09464 37.011C6.92328 37.2578 7.36371 37.5782 7.51108 37.5576C7.65846 37.5371 8.21879 35.9691 8.21879 35.9691L8.09542 35.5664Z" fill="#FFAE73"/>
<path d="M4.425 35.6125C4.425 35.6125 3.51677 35.2115 2.82789 35.561C2.13901 35.9106 2.56055 38.7981 3.54418 39.0774C3.54418 39.0774 5.38635 39.6463 4.425 35.6125Z" fill="#32478F"/>
<path d="M7.51632 45.1689C7.56401 45.2199 7.62153 45.2606 7.68546 45.2886C7.74939 45.3166 7.81838 45.3313 7.88816 45.3317C8.02158 45.3266 8.15254 45.3685 8.25829 45.45C8.27735 45.4654 8.29163 45.4859 8.29942 45.5091C8.3072 45.5324 8.30816 45.5574 8.30222 45.5811C8.29628 45.6049 8.28366 45.6265 8.26586 45.6433C8.24806 45.6602 8.22584 45.6716 8.20177 45.6762L7.11531 45.9161C7.09111 45.9233 7.0656 45.925 7.04064 45.9212C7.01568 45.9174 6.99189 45.9081 6.97094 45.8941C6.94998 45.88 6.93239 45.8614 6.91943 45.8398C6.90648 45.8181 6.89845 45.7938 6.89596 45.7687C6.88568 45.6916 6.8737 45.5974 6.8617 45.5391C6.85463 45.4237 6.89132 45.3099 6.96449 45.2204L7.51632 45.1689Z" fill="#1E194B"/>
<path d="M6.96438 45.2204C6.96438 45.2204 6.96441 45.2067 6.95584 45.1809C6.88387 44.8674 6.40746 42.7819 6.29437 42.6362C6.26523 42.5968 6.05273 42.141 5.97733 42.009C5.97733 42.009 5.45297 39.7505 5.5198 39.5808C5.58663 39.4112 6.63195 39.4094 6.63709 39.4232C6.65765 39.5088 6.6885 39.6254 6.72449 39.7659C6.72804 39.7838 6.73263 39.8016 6.73821 39.819C6.94042 40.6176 7.30026 42.0347 7.35509 42.2763C7.4185 42.5608 7.48878 44.3944 7.50934 44.9873C7.50934 45.1038 7.50934 45.1707 7.50934 45.1707C7.52134 45.181 7.52645 45.2341 6.96438 45.2204Z" fill="#FFAE73"/>
<path d="M7.65848 44.8784C7.5136 44.9689 7.3523 45.0301 7.1838 45.0583C6.78109 45.1286 6.60804 45.0172 6.60804 45.0172C6.60804 45.0172 6.30985 43.3241 6.11964 42.7449C6.05057 42.5517 5.9699 42.3629 5.87803 42.1794C5.8787 42.1754 5.8787 42.1714 5.87803 42.1674C5.81463 42.0372 5.74605 41.8984 5.6758 41.7579C5.5387 41.4905 5.39307 41.2215 5.27312 41.0004L5.18057 40.8291C5.06919 40.6269 4.99377 40.4863 4.99377 40.4863L5.26626 40.2019L5.34336 40.1196L5.89514 39.5387L6.12993 39.2919L6.30129 39.1206L6.31841 39.1034L6.54976 38.8584C6.54976 38.8584 6.60461 39.0383 6.68686 39.3211C6.90963 40.0922 7.34489 41.6225 7.45456 42.2565C7.56424 42.8906 7.65848 44.8784 7.65848 44.8784Z" fill="#ED9621"/>
<path d="M6.15375 39.7832L6.14522 39.8655L5.86759 42.1669C5.80418 42.0367 5.73565 41.8978 5.66539 41.7573L5.62427 41.9287L5.58314 42.0915C5.46319 41.8224 5.34321 41.526 5.26267 41.3101C5.20955 41.1713 5.17187 41.0685 5.15817 41.0256C5.15936 41.0217 5.15936 41.0175 5.15817 41.0136C5.15576 40.9561 5.16092 40.8984 5.17356 40.8423C5.1907 40.7343 5.22155 40.5869 5.26267 40.4241C5.28324 40.335 5.30893 40.2391 5.33635 40.1431C5.38947 39.958 5.45117 39.7661 5.518 39.5964C5.57522 39.4325 5.65606 39.2778 5.75793 39.1372C5.8162 39.0652 5.87618 39.0275 5.9293 39.0378C5.95608 39.0426 5.98147 39.0532 6.00368 39.0689C6.0259 39.0846 6.04439 39.105 6.05782 39.1286C6.09021 39.1863 6.11114 39.2498 6.11949 39.3154C6.12946 39.3847 6.1352 39.4545 6.13664 39.5245C6.13727 39.611 6.14297 39.6974 6.15375 39.7832Z" fill="#9C2828"/>
<path d="M5.86779 34.968L4.93387 35.429L4.74707 34.8035C4.83408 34.6236 4.89193 34.4309 4.91843 34.2328C4.94339 34.0627 4.94973 33.8903 4.9373 33.7188L5.69814 34.0958C5.68372 34.152 5.67343 34.2093 5.66731 34.2671C5.65004 34.3978 5.65464 34.5304 5.68099 34.6595C5.70579 34.7808 5.7718 34.8898 5.86779 34.968Z" fill="#FFAE73"/>
<path d="M4.30145 39.4629C4.30145 39.4629 3.92787 41.7266 3.95872 45.3509L4.48649 45.416C4.48649 45.416 4.90804 44.0143 5.17194 42.6177C5.32788 41.7917 5.22507 39.3789 5.22507 39.3789L4.30145 39.4629Z" fill="#FFAE73"/>
<path d="M6.33902 39.0977L6.32873 39.1319L6.24134 39.4832L6.1454 39.8654L5.67073 41.7504L5.6296 41.9217L5.58847 42.0845L4.82931 45.1982C4.73806 45.2126 4.64581 45.2194 4.55344 45.2187C4.29429 45.2186 4.03781 45.1661 3.79942 45.0645C3.79942 45.0645 3.76516 40.7496 3.77887 39.5158C3.77887 39.3444 3.77887 39.221 3.77887 39.1731L5.75641 39.1165L6.05972 39.1079H6.24477H6.33559L6.33902 39.0977Z" fill="#ED9621"/>
<path d="M6.46411 39.441C5.42565 39.7135 4.10102 39.561 3.77543 39.5164L3.70004 39.5061C3.64589 39.4942 3.59732 39.4644 3.56219 39.4215C3.52706 39.3786 3.50739 39.3251 3.50638 39.2697C3.50471 39.2554 3.50471 39.2411 3.50638 39.2268L3.81313 37.5749L3.71029 36.7455L3.65206 36.2725L3.51667 35.1929C3.89984 34.9989 4.31184 34.8682 4.73676 34.8057C4.82974 34.9071 4.94362 34.9872 5.07053 35.0405C5.19744 35.0937 5.33437 35.1188 5.47191 35.1141C5.70839 35.0833 5.76154 34.965 5.75811 34.8365C6.01693 34.8696 6.26931 34.9413 6.50695 35.049L6.82742 38.9321C6.8363 39.0461 6.80473 39.1596 6.7383 39.2526C6.67188 39.3457 6.5748 39.4124 6.46411 39.441Z" fill="#FEE798"/>
<path d="M4.74181 34.8037L4.60132 35.0745L4.46594 35.3349L3.80618 36.7213C3.70165 36.5893 2.93225 36.3271 2.93225 36.3271C2.93225 36.3271 3.27497 35.4703 3.52344 35.191C3.61941 35.0966 3.7371 35.0271 3.86617 34.9888C3.99388 34.9442 4.12441 34.9082 4.25688 34.8808C4.52078 34.8277 4.74181 34.8037 4.74181 34.8037Z" fill="#FEE798"/>
<path d="M3.53381 38.9868L3.62464 38.5481C4.97841 36.6631 5.18577 36.2689 4.57743 35.419C4.40168 35.211 4.17056 35.0571 3.91085 34.9751C4.05011 34.9303 4.19205 34.8943 4.33582 34.8672C4.45851 34.9213 4.57371 34.991 4.67855 35.0745C6.55326 36.6288 3.53381 38.9868 3.53381 38.9868Z" fill="#32478F"/>
<path d="M4.44727 37.134C4.50905 37.1141 4.56921 37.0895 4.62721 37.0604C4.66996 36.9224 4.74816 36.798 4.854 36.6997C4.95985 36.6013 5.08964 36.5325 5.23041 36.5C5.23041 36.5 5.45147 36.5 5.40177 36.6474C5.35208 36.7947 5.35205 36.7296 5.29208 36.937C5.27338 37.0296 5.22755 37.1146 5.16042 37.1811C5.09328 37.2476 5.00789 37.2927 4.91509 37.3105L4.74372 37.3534C4.74372 37.3534 4.35987 37.1392 4.44727 37.134Z" fill="#FFAE73"/>
<path d="M4.627 37.0609C4.28197 37.0864 3.93868 37.1316 3.59883 37.1963C3.59883 37.1963 3.6725 37.0061 3.79931 36.7216C3.56992 36.5675 3.31703 36.4518 3.05047 36.3789C2.85142 36.816 2.79619 37.305 2.89279 37.7755C2.89867 37.7991 2.91203 37.8202 2.93086 37.8357C2.9497 37.8511 2.97302 37.8601 2.99734 37.8612C3.2818 37.8732 4.226 37.8612 4.91317 37.3111L4.627 37.0609Z" fill="#FFAE73"/>
<path d="M5.69639 34.655C5.26285 34.6447 4.93384 34.2334 4.93384 34.2334L5.68267 34.2625C5.6654 34.3932 5.67005 34.5258 5.69639 34.655Z" fill="#F48F4E"/>
<path d="M5.86768 34.471C5.86768 34.471 4.72982 34.6047 4.70583 33.8301C4.68184 33.0556 5.15651 32.5535 5.47182 32.5586C6.10415 32.5706 6.20867 32.8174 6.28065 33.0727C6.35262 33.3281 6.39547 34.4111 5.86768 34.471Z" fill="#FFAE73"/>
<path d="M5.56775 34.0189C5.56775 34.0189 5.59176 34.1165 5.84195 34.0977C5.84195 34.0977 6.051 34.0823 6.04243 33.976C5.88404 33.9346 5.71615 33.9497 5.56775 34.0189Z" fill="white"/>
<path d="M4.49684 45.4111C4.53044 45.4684 4.57547 45.5182 4.62913 45.5574C4.68278 45.5966 4.7439 45.6244 4.80873 45.639C4.93666 45.6632 5.05193 45.7318 5.1343 45.8326C5.14768 45.8512 5.1556 45.8732 5.15719 45.8961C5.15877 45.919 5.15397 45.9418 5.1433 45.9621C5.13262 45.9824 5.11652 45.9993 5.09678 46.0109C5.07703 46.0226 5.05443 46.0285 5.03151 46.028H3.93648C3.91463 46.0281 3.89301 46.0236 3.87301 46.0148C3.85301 46.006 3.83508 45.9932 3.82038 45.977C3.80568 45.9608 3.79453 45.9418 3.78767 45.921C3.7808 45.9003 3.77839 45.8784 3.78055 45.8566C3.78912 45.7778 3.79767 45.6853 3.80109 45.6167C3.8221 45.5067 3.88316 45.4084 3.97246 45.3408L4.49684 45.4111Z" fill="#1E194B"/>
<path d="M4.91838 34.267C4.91838 34.267 4.17126 33.7358 4.17126 33.1035C4.17126 32.3186 4.66993 32.1044 5.3708 32.0753C6.07168 32.0462 6.57032 32.6065 6.37668 32.9013C6.18304 33.196 5.96027 33.1258 5.51987 33.0726C5.07947 33.0195 5.09659 33.4154 4.90981 33.3982C4.72302 33.3811 4.66819 33.3177 4.65276 33.4411C4.63734 33.5645 4.84815 33.6124 4.81216 33.7273C4.78728 33.914 4.82459 34.1037 4.91838 34.267Z" fill="#84653C"/>
<path d="M4.91504 33.4539C4.91504 33.4539 4.76253 33.2602 4.658 33.3099C4.55347 33.3596 4.65803 33.6526 4.73171 33.6869C4.8054 33.7212 4.90305 33.7537 4.91504 33.7366C4.92363 33.6426 4.92363 33.5479 4.91504 33.4539Z" fill="#FFAE73"/>
<path d="M6.51224 35.0469C6.51224 35.0469 6.88751 35.3656 7.1377 36.1436C7.1377 36.1436 7.21654 36.9062 6.51224 36.9799C5.80794 37.0535 6.51224 35.0469 6.51224 35.0469Z" fill="#FEE798"/>
<path d="M4.62708 37.0609C4.6474 36.9665 4.67256 36.8733 4.70246 36.7815C4.75045 36.6427 4.77789 36.5074 4.81216 36.5708C4.83858 36.6476 4.85416 36.7278 4.85843 36.809L4.62708 37.0609Z" fill="#FFAE73"/>
<path d="M8.09546 35.6874C8.09546 35.6874 8.23599 35.1288 8.58558 35.151C8.93516 35.1733 8.87517 35.5143 8.70895 35.6874C8.56191 35.8155 8.39136 35.9139 8.20683 35.977L8.09546 35.6874Z" fill="#FFAE73"/>
<path d="M14.3896 34.79C14.3896 34.79 14.525 35.3795 14.561 35.335C14.588 35.2474 14.6002 35.1558 14.597 35.0642L14.3896 34.79Z" fill="#F48F4E"/>
<path d="M31.0238 29.7178C31.0238 29.7178 29.9236 29.7383 29.8431 30.0605C29.6717 30.7785 30.4275 32.8023 30.2492 33.4055C30.071 34.0087 29.5638 35.5338 29.4884 35.8508C29.4884 35.8508 29.6957 35.9828 29.8191 35.9348C29.8911 35.9057 31.0872 33.8408 31.214 33.5357C31.3408 33.2307 31.0238 29.7178 31.0238 29.7178Z" fill="#FBBA83"/>
<path d="M30.4618 43.4625C30.2664 44.8574 29.6272 45.5994 29.6272 45.5994L29.4473 45.8685C29.4473 45.8685 29.3085 44.8729 29.2314 43.6922C29.1594 42.5715 29.0429 41.3822 28.8681 41.0138C28.1723 39.5486 28.1826 34.1404 28.1826 34.1404L30.5029 34.1318C30.7171 34.5328 30.789 35.1806 30.7805 35.9106C30.7565 37.7562 30.215 40.1381 30.1345 40.4825C30.1291 40.5092 30.1327 40.537 30.1447 40.5614C30.5714 41.497 30.5903 42.5406 30.4618 43.4625Z" fill="#02867D"/>
<path d="M27.9941 40.4196C26.7791 36.9478 26.9745 34.4219 26.9745 34.4219L29.2604 34.6892L29.3667 34.7029C29.377 35.7517 29.4027 37.1774 29.4267 38.2913C29.4472 39.2937 29.4661 40.0443 29.4661 40.0443C29.9065 40.9834 28.3471 41.4289 27.9941 40.4196Z" fill="#00ACA4"/>
<path d="M29.466 40.0439C29.466 40.0439 30.7084 40.5169 31.2105 44.4257L30.8386 44.5868L27.994 40.4192L29.466 40.0439Z" fill="#00ACA4"/>
<path d="M29.9219 46.0128H29.6631C29.5757 45.9991 29.5123 45.9734 29.4232 45.9614C29.3865 45.9528 29.3483 45.953 29.3117 45.9619C29.275 45.9708 29.2411 45.9883 29.2124 46.0128H28.1089C28.0814 45.9734 28.1088 45.8826 28.1328 45.814C28.1419 45.7914 28.156 45.7711 28.1741 45.7547C28.1922 45.7384 28.2139 45.7264 28.2374 45.7198C28.4422 45.6851 28.6343 45.597 28.7943 45.4644C28.9126 45.3582 29.3684 45.0703 29.3684 45.0703C29.3786 45.0703 29.4266 45.0857 29.6323 45.2605C29.7385 45.3496 29.9219 45.132 29.9219 45.132C29.9469 45.1554 29.9672 45.1833 29.9818 45.2143C30.0079 45.2674 30.0158 45.3276 30.0041 45.3856C30.0052 45.5258 30.0319 45.6646 30.083 45.7952C30.1087 45.8706 30.131 45.9237 30.131 45.9237C30.131 45.9237 30.1447 45.9837 29.9219 46.0128Z" fill="#1E194B"/>
<path d="M29.9837 45.2152C29.8998 45.2785 29.8052 45.3261 29.7044 45.3558C29.5862 45.3712 29.3617 45.0713 29.3617 45.0713C29.372 45.0713 29.4199 45.0867 29.6256 45.2615C29.7318 45.3506 29.9152 45.133 29.9152 45.133C29.9433 45.1556 29.9666 45.1835 29.9837 45.2152Z" fill="#3D6AA9"/>
<path d="M28.1329 45.8152C28.1672 45.7861 28.1758 45.9455 28.1946 45.9695L29.144 45.9421C29.2065 45.9062 29.2756 45.8834 29.3471 45.8748C29.4186 45.8663 29.4912 45.8722 29.5604 45.8924C29.7409 45.906 29.9218 45.8717 30.0848 45.793C30.1105 45.8684 30.1327 45.9215 30.1327 45.9215C30.1327 45.9215 30.1447 45.9832 29.922 46.0123H29.6632C29.5758 45.9986 29.5124 45.9729 29.4233 45.9609C29.3866 45.9523 29.3484 45.9525 29.3117 45.9614C29.2751 45.9704 29.2411 45.9878 29.2125 46.0123H28.1089C28.0815 45.9746 28.1072 45.8838 28.1329 45.8152Z" fill="#3D6AA9"/>
<path d="M31.7847 44.7531L31.5996 44.9364C31.5294 44.9878 31.466 45.0135 31.394 45.0684C31.3622 45.0881 31.3355 45.1149 31.3159 45.1467C31.2962 45.1786 31.2843 45.2145 31.2809 45.2517L30.496 46.0263C30.4498 46.0263 30.4035 45.9338 30.3744 45.8669C30.3638 45.8453 30.3583 45.8216 30.3583 45.7975C30.3583 45.7735 30.3638 45.7497 30.3744 45.7281C30.4961 45.5591 30.5717 45.3612 30.5937 45.1541C30.6023 44.9947 30.724 44.4686 30.724 44.4686C30.724 44.4686 30.7754 44.4395 31.0461 44.4189C31.1849 44.4069 31.161 44.1242 31.161 44.1242C31.1948 44.1231 31.2284 44.1283 31.2603 44.1396C31.3159 44.159 31.364 44.1956 31.3974 44.2441C31.4954 44.3439 31.6118 44.4236 31.7401 44.4789C31.8121 44.5149 31.8652 44.5371 31.8652 44.5371C31.8652 44.5371 31.9235 44.5697 31.7847 44.7531Z" fill="#1E194B"/>
<path d="M31.2671 44.1356C31.2546 44.2402 31.2207 44.3411 31.1677 44.4321C31.0957 44.5263 30.7307 44.4681 30.7307 44.4681C30.7307 44.4681 30.7821 44.4389 31.0529 44.4184C31.1917 44.4064 31.1677 44.1236 31.1677 44.1236C31.2012 44.1214 31.235 44.1255 31.2671 44.1356Z" fill="#3D6AA9"/>
<path d="M30.5269 45.9307L31.1832 45.2452C31.2023 45.1759 31.2352 45.1112 31.28 45.055C31.3248 44.9987 31.3805 44.9521 31.4437 44.9179C31.5825 44.801 31.6873 44.6489 31.747 44.4775C31.819 44.5135 31.8721 44.5358 31.8721 44.5358C31.8721 44.5358 31.9235 44.5718 31.7847 44.7483L31.5996 44.9316C31.5294 44.9831 31.466 45.0088 31.394 45.0636C31.3623 45.0833 31.3355 45.1102 31.3159 45.142C31.2963 45.1738 31.2843 45.2097 31.2809 45.247L30.4961 46.0215C30.4498 46.0215 30.4035 45.929 30.3744 45.8622C30.3727 45.8193 30.4961 45.9256 30.5269 45.9307Z" fill="#3D6AA9"/>
<path d="M30.7874 34.8239C30.5218 32.6476 30.7223 31.3624 30.6572 30.3685C30.5921 29.3746 29.6701 28.4338 29.6701 28.4338L29.5639 28.4235C29.5108 28.3961 29.4971 28.1785 29.4988 27.9488C29.4988 27.673 29.5194 27.3799 29.5194 27.3799L29.2658 27.3285L28.5889 27.1949L28.534 27.1846C28.5345 27.3254 28.5265 27.4662 28.51 27.6061C28.4895 27.7937 28.4434 27.9777 28.373 28.1528C28.3164 28.2864 28.2547 28.3635 28.2016 28.3755C27.7595 28.4664 27.05 29.7961 27.2317 31.0248C27.2547 31.1819 27.2932 31.3363 27.3465 31.4858C27.5778 32.1232 27.6892 32.3837 27.6892 32.6253C27.6132 33.4381 27.4078 34.2336 27.0809 34.9816C26.8478 35.5111 30.8868 35.6602 30.7874 34.8239Z" fill="#FEE798"/>
<path d="M29.6702 28.4268C29.6702 28.4268 30.455 28.4884 30.6983 28.6941C31.0411 29.0025 31.2622 31.4359 31.2467 31.4959C31.2313 31.5558 31.0754 31.8026 30.6435 31.7478C30.2117 31.6929 30.2837 29.2956 30.2168 29.1619C30.15 29.0282 29.6702 28.4268 29.6702 28.4268Z" fill="#FEE798"/>
<path d="M26.4879 36.0858L26.8718 36.1235C26.8718 36.1235 27.6789 33.8958 27.6857 33.3646C27.6857 33.1932 27.7097 32.8351 27.7372 32.4392C27.7937 31.6167 27.8759 30.6074 27.8759 30.6074L27.8897 30.2029L27.9359 28.832C27.627 28.926 27.3298 29.0548 27.05 29.2159C26.9621 29.2626 26.8931 29.3383 26.8546 29.4301C26.7124 30.0316 26.7346 31.471 26.7552 32.4975C26.7655 33.0698 26.7741 33.5137 26.7552 33.6131C26.6952 33.8804 26.637 35.3421 26.4879 36.0858Z" fill="#FFAE73"/>
<path d="M26.577 35.9326C26.577 35.9326 26.248 36.3919 26.2343 36.5512C26.2365 36.7455 26.2742 36.9378 26.3456 37.1185C26.373 37.163 26.565 36.9248 26.613 36.8014C26.6609 36.678 26.7363 36.4399 26.7586 36.5478C26.7809 36.6558 26.7706 36.7792 26.8494 36.7277C26.9282 36.6763 26.8683 36.0337 26.8683 36.0337L26.577 35.9326Z" fill="#FFAE73"/>
<path d="M26.2855 31.7398C26.2855 31.7398 27.252 32.2539 28.0677 31.8821C28.8834 31.5102 27.9358 28.8232 27.9358 28.8232H27.2109C27.2109 28.8232 26.5614 29.4453 26.2855 31.7398Z" fill="#FEE798"/>
<path d="M29.0292 24.9161C29.3343 24.8863 29.6401 24.9664 29.8915 25.142C30.1428 25.3177 30.3231 25.5772 30.4001 25.874C30.6537 26.7086 31.2055 27.1507 31.1883 28.0332C31.1712 28.9157 30.9998 28.9157 31.1883 29.3887C31.3768 29.8617 31.1455 30.775 30.7051 30.9481C27.7508 32.1151 27.6206 29.5858 27.5349 29.1402C27.4492 28.6947 27.8536 27.8773 27.7062 27.5448C27.5589 27.2124 27.9067 26.7086 27.8245 26.0026C27.8132 25.8465 27.8377 25.69 27.8961 25.5448C27.9545 25.3997 28.0452 25.2698 28.1614 25.165C28.2776 25.0603 28.4162 24.9834 28.5665 24.9402C28.7169 24.8971 28.8751 24.8889 29.0292 24.9161Z" fill="#914324"/>
<path d="M23.4479 45.0764C23.4479 45.0764 23.3862 46.0446 23.1994 46.0583H22.2483L21.0659 46.0498C21.0754 45.9601 21.1161 45.8766 21.181 45.8139C21.2458 45.7512 21.3307 45.7134 21.4207 45.7071C21.7634 45.6471 22.3443 45.4055 22.5551 44.9496C22.7658 44.4938 23.4479 45.0764 23.4479 45.0764Z" fill="#1E194B"/>
<path d="M27.1974 45.0819C27.1974 45.0819 27.1357 46.0518 26.9472 46.0655C26.9232 46.0655 25.9978 46.0655 25.9978 46.0655L24.8154 46.0569C24.8248 45.9675 24.8653 45.8842 24.9298 45.8216C24.9943 45.759 25.0787 45.721 25.1684 45.7142C25.5111 45.6542 26.0938 45.4126 26.3046 44.9568C26.5153 44.501 27.1974 45.0819 27.1974 45.0819Z" fill="#1E194B"/>
<path d="M24.1761 34.4715C24.1761 34.4715 24.3287 36.4662 25.2043 40.0563C26.08 43.6463 26.1108 45.1749 26.1108 45.1749L27.3464 45.2383C27.3464 45.2383 27.6616 41.4152 27.2726 39.6141C26.8837 37.8131 27.6634 33.2617 27.6634 33.2617L24.1761 34.4715Z" fill="#02867D"/>
<path d="M23.5729 33.0732C23.2023 35.2626 22.9841 37.4751 22.92 39.6947C22.8121 43.3876 22.3785 44.8887 22.3785 44.8887L23.5883 45.1372C23.5883 45.1372 24.9318 41.6551 25.0329 39.8129C25.1341 37.9708 27.0893 33.7913 27.0893 33.7913L23.5729 33.0732Z" fill="#00ACA4"/>
<path d="M26.0664 26.3175L25.4066 26.7476L24.4573 26.5762C24.471 26.4991 24.5344 26.1804 24.5909 25.8908L24.6012 25.8411L24.6938 25.3852L25.5831 24.9945L25.9139 24.8506C25.9139 24.8506 25.8882 25.1213 25.8847 25.1608C25.8427 25.5556 25.9054 25.9545 26.0664 26.3175Z" fill="#FBBA83"/>
<path d="M24.7021 26.0982C24.7192 26.0896 25.8468 25.7554 25.9685 25.8C26.0901 25.8445 26.1638 26.0776 26.1638 26.0776L24.3199 26.4906C24.4039 26.3236 24.5374 26.1865 24.7021 26.0982Z" fill="#ED9621"/>
<path d="M23.5301 33.8376C23.8109 34.063 24.146 34.2107 24.5018 34.266C24.784 34.3242 25.0706 34.3592 25.3586 34.3705C26.4553 34.4202 27.612 34.1769 27.7268 33.6628C27.9187 32.7923 27.5709 26.493 26.1725 26.0783C25.8812 25.9926 24.3287 26.4912 24.3287 26.4912C24.1563 26.9628 24.0205 27.4469 23.9226 27.9393C23.8397 28.3369 23.7938 28.7413 23.7855 29.1474C23.7735 30.0042 23.5507 31.6578 23.4787 32.7614C23.4342 33.3269 23.4376 33.7467 23.5301 33.8376Z" fill="#FDB737"/>
<path d="M25.8178 25.1675C25.6224 25.4982 24.8941 25.781 24.5908 25.8855L24.6011 25.8358L24.6937 25.38L25.583 24.9893C25.7784 24.9876 25.8983 25.0321 25.8178 25.1675Z" fill="#FFA05E"/>
<path d="M24.3595 25.3257C24.3595 25.3257 25.7886 25.7747 26.0543 24.8802C26.3199 23.9857 26.6849 23.4425 25.7835 23.1169C24.8821 22.7913 24.6028 23.0809 24.44 23.3568C24.2772 23.6327 23.9945 25.1852 24.3595 25.3257Z" fill="#FBBA83"/>
<path d="M24.4367 23.2715C24.4367 23.2715 24.5257 24.3133 24.7399 24.2688C24.9541 24.2242 25.1513 24.1917 25.1187 24.5053C25.0861 24.8189 25.5231 25.3209 25.8436 25.3621C26.284 25.4152 27.0208 24.0237 26.8717 23.4103C26.6027 22.3667 23.6621 21.7772 24.4367 23.2715Z" fill="#914324"/>
<path d="M23.6671 34.2188C24.029 34.5464 24.4575 34.7919 24.9232 34.9385C25.6446 35.1424 24.6593 36.0472 24.2909 35.9769C24.0518 35.9139 23.8455 35.7626 23.7133 35.5537L23.6671 34.2188Z" fill="#02867D"/>
<path d="M24.4828 34.5843C24.4828 34.5843 24.4263 34.9013 24.332 34.8482C24.2378 34.7951 23.9413 34.5689 23.9687 34.4918C23.9961 34.4147 24.4828 34.5843 24.4828 34.5843Z" fill="#FFAE73"/>
<path d="M25.5197 35.1417V35.0354C25.1613 35.0325 24.8082 34.9489 24.4866 34.7907C24.165 34.6326 23.8832 34.4041 23.6621 34.1221V34.2934C23.6895 34.3243 24.2122 35.1057 25.5197 35.1417Z" fill="#02867D"/>
<path d="M24.5018 34.2654C24.7841 34.3236 25.0707 34.3586 25.3586 34.3699C26.2155 32.6717 25.8522 29.6592 25.8522 29.6592L24.5018 34.2654Z" fill="#ED9621"/>
<path d="M24.0049 34.471L24.483 34.5789C24.483 34.5789 24.9371 33.621 25.3209 32.6597C25.3826 32.5072 25.4409 32.3564 25.4923 32.209H24.2825C24.2705 32.2947 24.2585 32.3803 24.2482 32.466C24.1163 33.4651 24.0049 34.471 24.0049 34.471Z" fill="#FBBA83"/>
<path d="M24.2534 32.4714L25.321 32.665C25.5469 32.1486 25.722 31.6114 25.8437 31.0611C25.979 30.1254 25.7117 27.1112 25.453 26.9484C25.1942 26.7856 24.5961 26.8353 24.5961 26.8353C24.5961 26.8353 24.5516 30.0226 24.4608 30.8743C24.4213 31.2153 24.3391 31.8373 24.2534 32.4714Z" fill="#FDB737"/>
<path d="M45.5416 45.9814H0.591431V46.331H45.5416V45.9814Z" fill="#02867D"/>
<path d="M5.60547 4.97804V8.54581V10.5113V10.6741V11.6715V12.8693H5.72884V11.6715V10.6741V10.5113V8.54581V4.97461L5.60547 4.97804Z" fill="#96BEF3"/>
<path d="M8.53922 10.5107H0.591431V27.1775H8.53922V10.5107Z" fill="#B6D7FF"/>
<path d="M7.17689 11.6709H0.591431V25.7861H7.17689V11.6709Z" fill="#98C3E8"/>
<path d="M7.17689 18.543H0.591431V25.7848H7.17689V18.543Z" fill="#75B7E5"/>
<path d="M0.591565 19.511C1.61974 19.3619 2.42343 19.1957 2.47656 18.9969C2.51426 18.8667 2.26235 18.7125 1.8288 18.5445C1.50321 18.4177 1.07309 18.2841 0.588135 18.1436L0.591565 19.511Z" fill="#75A9E1"/>
<path d="M0.591431 25.7864H3.68454C3.60057 24.7582 2.17996 23.6632 0.591431 22.7207V25.7864Z" fill="#75A9E1"/>
<path opacity="0.4" d="M0.591431 14.8193L3.76164 14.7867C3.66969 14.6403 3.53821 14.5228 3.38235 14.4479C3.2265 14.373 3.05265 14.3438 2.88086 14.3634C2.88086 14.3634 1.98118 13.5666 1.01984 14.2572C0.877882 14.2358 0.734871 14.222 0.591431 14.2161V14.8193Z" fill="#F6FBFF"/>
<path opacity="0.4" d="M0.591431 16.4359L6.04764 16.3896C6.04764 16.3896 5.7049 15.8635 4.87722 15.9218C4.87722 15.9218 3.67769 15.0427 2.40275 15.8053C1.80064 15.7319 1.19138 15.7399 0.591431 15.8293V16.4359Z" fill="#F6FBFF"/>
</svg>
