<svg width="58" height="41" viewBox="0 0 58 41" fill="none" xmlns="http://www.w3.org/2000/svg">
<path d="M17.0533 3.41651C15.5453 4.90737 13.9482 5.64423 12.2946 5.6031C10.778 5.56198 9.50138 4.8611 8.69597 4.28018C8.33148 4.01799 7.98774 3.7281 7.6678 3.41309H7.50671C7.85431 3.76159 8.22906 4.0819 8.62742 4.371C9.44825 4.96049 10.7489 5.67507 12.2963 5.71791H12.442C14.1025 5.71791 15.7064 4.93822 17.223 3.41309H17.0619L17.0533 3.41651Z" fill="#1E194B"/>
<path d="M25.6249 3.41651C25.0617 4.23501 24.4087 4.98798 23.6782 5.66137C22.5266 6.72553 20.6965 7.99533 18.5133 8.02617H18.4396C16.2907 8.02617 14.5257 6.72553 13.417 5.62709C12.7439 4.95497 12.1447 4.21274 11.6296 3.41309H11.4908C12.0199 4.24193 12.6376 5.01073 13.333 5.70592C13.9947 6.37725 14.7524 6.94666 15.5813 7.39556C16.459 7.87531 17.4411 8.13244 18.4413 8.14441H18.515C19.545 8.12027 20.5552 7.85686 21.4659 7.37499C22.3018 6.93952 23.0739 6.39116 23.7604 5.74533C24.5141 5.04793 25.1861 4.26723 25.7637 3.41823H25.6249V3.41651Z" fill="#1E194B"/>
<path d="M50.7811 3.39062C50.8001 4.50483 50.7578 5.61923 50.6542 6.72877C50.4126 9.07644 49.8711 10.3925 49.0897 10.5245C48.9938 10.5421 48.8951 10.5368 48.8016 10.5091C48.7081 10.4814 48.6225 10.4321 48.5516 10.3651C47.4395 9.37633 47.6194 4.53876 47.6777 3.39062H47.5611C47.5354 3.89272 47.4892 5.08197 47.5303 6.34492C47.6108 8.5812 47.9261 9.96239 48.4745 10.4491C48.6091 10.5772 48.7873 10.6495 48.9732 10.6513C49.0185 10.6507 49.0638 10.6467 49.1085 10.6393C49.9654 10.4902 50.5206 9.17926 50.769 6.74077C50.8733 5.62725 50.9168 4.50888 50.8993 3.39062H50.7811Z" fill="#1E194B"/>
<path d="M49.8334 3.39062C48.9509 4.96031 47.6657 5.12824 46.7283 4.97916C45.4517 4.77866 44.5949 3.74021 44.3292 3.39062H44.1836C44.3723 3.65217 44.5858 3.89491 44.8211 4.11549C45.3395 4.61985 45.9952 4.9602 46.7061 5.09397C46.889 5.1244 47.0741 5.13988 47.2595 5.14024C47.6949 5.14312 48.1251 5.04641 48.5173 4.85749C49.1409 4.53285 49.6459 4.01945 49.9602 3.39062H49.8334Z" fill="#1E194B"/>
<path d="M39.0461 27.2031H18.4825V27.9708H39.0461V27.2031Z" fill="#1E194B"/>
<path d="M21.4009 27.2031H18.4723V30.1163H21.4009V27.2031Z" fill="#1E194B"/>
<path d="M39.0084 27.2031H36.0815V30.1163H39.0084V27.2031Z" fill="#1E194B"/>
<path d="M44.7421 6.40137H12.7778V27.21H44.7421V6.40137Z" fill="#FCB535"/>
<g opacity="0.47">
<path d="M2.88163 0.541016H2.4635V38.7087H2.88163V0.541016Z" fill="#808081"/>
<path d="M5.3527 0.541016H4.93457V38.7087H5.3527V0.541016Z" fill="#808081"/>
<path d="M2.82172 0.614258L2.52527 0.909002L4.97576 3.34578L5.2705 3.05275L2.82172 0.614258Z" fill="#808081"/>
<path d="M5.27222 3.56354L4.97576 3.27051L2.52527 5.69872L2.82172 5.99175L5.27222 3.56354Z" fill="#808081"/>
<path d="M2.82002 5.92871L2.52527 6.22174L4.97404 8.65852L5.2705 8.36549L2.82002 5.92871Z" fill="#808081"/>
<path d="M5.27209 8.87604L4.97563 8.58301L2.52686 11.0112L2.82159 11.3043L5.27209 8.87604Z" fill="#808081"/>
<path d="M2.82002 11.2402L2.52356 11.5333L4.97405 13.97L5.27051 13.6753L2.82002 11.2402Z" fill="#808081"/>
<path d="M5.2705 14.1944L4.97404 13.9014L2.52527 16.3313L2.82002 16.6243L5.2705 14.1944Z" fill="#808081"/>
<path d="M2.81831 16.5576L2.52356 16.8506L4.97405 19.2823L5.2688 18.9893L2.81831 16.5576Z" fill="#808081"/>
<path d="M5.26709 19.5089L4.97063 19.2158L2.52185 21.644L2.8166 21.9371L5.26709 19.5089Z" fill="#808081"/>
<path d="M2.81831 21.8701L2.52356 22.1631L4.97234 24.5948L5.2688 24.3018L2.81831 21.8701Z" fill="#808081"/>
<path d="M5.26709 24.8214L4.97235 24.5283L2.52185 26.9565L2.81832 27.2496L5.26709 24.8214Z" fill="#808081"/>
<path d="M2.81832 27.1836L2.52185 27.4766L4.97235 29.9066L5.2688 29.6135L2.81832 27.1836Z" fill="#808081"/>
<path d="M5.2688 30.1329L4.97235 29.8398L2.52185 32.2698L2.81832 32.5628L5.2688 30.1329Z" fill="#808081"/>
<path d="M35.5023 2.98633H2.44812V3.40103H35.5023V2.98633Z" fill="#808081"/>
<path d="M35.5023 0.537109H2.44812V0.946669H35.5023V0.537109Z" fill="#808081"/>
<path d="M4.69812 3.04612L4.99972 3.34601L7.45021 0.916081L7.15375 0.623047L4.69812 3.04612Z" fill="#808081"/>
<path d="M7.67646 0.619141L7.38 0.91217L9.83049 3.34552L10.1252 3.0525L7.67646 0.619141Z" fill="#808081"/>
<path d="M10.0583 3.04735L10.3548 3.34038L12.8053 0.91217L12.5088 0.619141L10.0583 3.04735Z" fill="#808081"/>
<path d="M13.035 0.621094L12.7402 0.914123L15.1907 3.34576L15.4855 3.05273L13.035 0.621094Z" fill="#808081"/>
<path d="M15.4203 3.04613L15.7167 3.33916L18.1672 0.910955L17.8708 0.616211L15.4203 3.04613Z" fill="#808081"/>
<path d="M18.3951 0.621094L18.1003 0.914123L20.5491 3.34576L20.8456 3.05273L18.3951 0.621094Z" fill="#808081"/>
<path d="M20.7822 3.0454L21.077 3.33843L23.5275 0.910222L23.2327 0.617188L20.7822 3.0454Z" fill="#808081"/>
<path d="M23.7553 0.621094L23.4589 0.914123L25.9059 3.34576L26.2024 3.05102L23.7553 0.621094Z" fill="#808081"/>
<path d="M26.1425 3.0454L26.4389 3.34015L28.8894 0.910222L28.5929 0.617188L26.1425 3.0454Z" fill="#808081"/>
<path d="M29.1174 0.619141L28.8192 0.91217L31.2714 3.34552L31.5679 3.0525L29.1174 0.619141Z" fill="#808081"/>
<path d="M36.8184 2.98542L34.4314 0.617188L34.1315 0.913647L36.2238 2.98542H36.8184Z" fill="#808081"/>
<path d="M31.5044 3.04735L31.8009 3.34552L34.2496 0.91731L33.96 0.619141L31.5044 3.04735Z" fill="#808081"/>
</g>
<g opacity="0.47">
<path d="M54.7687 38.7133H55.1868V0.543945H54.7687V38.7133Z" fill="#808081"/>
<path d="M52.2959 38.7133H52.714V0.543945H52.2959V38.7133Z" fill="#808081"/>
<path d="M52.3763 3.04028L52.6728 3.3333L55.1233 0.905096L54.8268 0.610352L52.3763 3.04028Z" fill="#808081"/>
<path d="M54.827 5.99347L55.1234 5.70043L52.6729 3.27051L52.3782 3.56354L54.827 5.99347Z" fill="#808081"/>
<path d="M52.3763 8.3579L52.6728 8.65093L55.1216 6.22272L54.8268 5.92969L52.3763 8.3579Z" fill="#808081"/>
<path d="M54.8287 11.3069L55.1234 11.0139L52.6746 8.58398L52.3782 8.87873L54.8287 11.3069Z" fill="#808081"/>
<path d="M52.3763 13.6724L52.6711 13.9654L55.1216 11.5372L54.8251 11.2441L52.3763 13.6724Z" fill="#808081"/>
<path d="M54.8268 16.6177L55.1216 16.3247L52.6711 13.8965L52.3763 14.1895L54.8268 16.6177Z" fill="#808081"/>
<path d="M52.3748 18.9858L52.6712 19.2789L55.1217 16.8506L54.8253 16.5576L52.3748 18.9858Z" fill="#808081"/>
<path d="M54.8268 21.9312L55.1233 21.6382L52.6728 19.21L52.3763 19.503L54.8268 21.9312Z" fill="#808081"/>
<path d="M52.3748 24.3003L52.6695 24.5933L55.12 22.1651L54.8253 21.8721L52.3748 24.3003Z" fill="#808081"/>
<path d="M54.827 27.2505L55.1234 26.9575L52.6729 24.5293L52.3782 24.8223L54.827 27.2505Z" fill="#808081"/>
<path d="M52.3729 29.6138L52.6694 29.9085L55.1199 27.4786L54.8234 27.1855L52.3729 29.6138Z" fill="#808081"/>
<path d="M54.8287 32.565L55.1234 32.272L52.6746 29.8438L52.3782 30.1368L54.8287 32.565Z" fill="#808081"/>
<path d="M55.1971 2.98633H35.5023V3.40103H55.1936L55.1971 2.98633Z" fill="#808081"/>
<path d="M55.1971 0.537109H35.5023V0.946669H55.1936L55.1971 0.537109Z" fill="#808081"/>
<path d="M50.4982 0.616211L50.2035 0.90924L52.6523 3.34602L52.9487 3.05299L50.4982 0.616211Z" fill="#808081"/>
<path d="M47.5234 3.0454L47.8199 3.34015L50.2704 0.910222L49.9739 0.617188L47.5234 3.0454Z" fill="#808081"/>
<path d="M45.1363 0.621094L44.8398 0.914123L47.2903 3.34405L47.5851 3.0493L45.1363 0.621094Z" fill="#808081"/>
<path d="M42.1632 3.0454L42.4579 3.33843L44.9084 0.910222L44.612 0.617188L42.1632 3.0454Z" fill="#808081"/>
<path d="M39.7761 0.621094L39.4796 0.914123L41.9301 3.34234L42.2266 3.0493L39.7761 0.621094Z" fill="#808081"/>
<path d="M36.8013 3.04613L37.0977 3.33916L39.5482 0.910955L39.2518 0.616211L36.8013 3.04613Z" fill="#808081"/>
</g>
<path d="M4.01428 5.00098V11.3191H7.59747V5.00098H4.01428Z" fill="#1E194B"/>
<path d="M4.21313 5.27637V11.0462H7.39877V5.27637H4.21313Z" fill="#2D2F67"/>
<path d="M5.1454 10.7154C5.27827 10.7158 5.40591 10.6636 5.50034 10.5701C5.59478 10.4766 5.6483 10.3496 5.64921 10.2167C5.64876 10.151 5.63538 10.086 5.60982 10.0255C5.58426 9.96493 5.54702 9.91002 5.50024 9.86387C5.45346 9.81772 5.39804 9.78124 5.33716 9.75651C5.27628 9.73178 5.21111 9.71929 5.1454 9.71974C5.01299 9.71928 4.8858 9.77133 4.79168 9.86448C4.69757 9.95763 4.64422 10.0843 4.64331 10.2167C4.64354 10.2824 4.65671 10.3474 4.68206 10.408C4.70742 10.4687 4.74445 10.5237 4.79108 10.57C4.8377 10.6163 4.893 10.653 4.95379 10.6779C5.01459 10.7029 5.07969 10.7156 5.1454 10.7154Z" fill="#C4C1D4"/>
<path d="M5.1454 9.34426C5.27827 9.34472 5.40591 9.29249 5.50034 9.19902C5.59478 9.10555 5.6483 8.97846 5.64921 8.8456C5.64876 8.77988 5.63538 8.71491 5.60982 8.65437C5.58426 8.59383 5.54702 8.53892 5.50024 8.49278C5.45346 8.44663 5.39804 8.41015 5.33716 8.38542C5.27628 8.36069 5.21111 8.34819 5.1454 8.34864C5.01299 8.34819 4.8858 8.40024 4.79168 8.49338C4.69757 8.58653 4.64422 8.71318 4.64331 8.8456C4.64354 8.91131 4.65671 8.97633 4.68206 9.03695C4.70742 9.09757 4.74445 9.15261 4.79108 9.19892C4.8377 9.24522 4.893 9.28189 4.95379 9.30683C5.01459 9.33177 5.07969 9.34449 5.1454 9.34426Z" fill="#C4C1D4"/>
<path d="M5.1454 7.97317C5.27827 7.97363 5.40591 7.9214 5.50034 7.82793C5.59478 7.73446 5.6483 7.60737 5.64921 7.4745C5.64876 7.40879 5.63538 7.34381 5.60982 7.28328C5.58426 7.22274 5.54702 7.16783 5.50024 7.12168C5.45346 7.07554 5.39804 7.03906 5.33716 7.01433C5.27628 6.9896 5.21111 6.9771 5.1454 6.97755C5.01299 6.97709 4.8858 7.02914 4.79168 7.12229C4.69757 7.21544 4.64422 7.34209 4.64331 7.4745C4.64354 7.54021 4.65671 7.60523 4.68206 7.66586C4.70742 7.72648 4.74445 7.78152 4.79108 7.82782C4.8377 7.87413 4.893 7.9108 4.95379 7.93574C5.01459 7.96067 5.07969 7.97339 5.1454 7.97317Z" fill="#C4C1D4"/>
<path d="M5.1454 6.60207C5.27827 6.60253 5.40591 6.5503 5.50034 6.45683C5.59478 6.36336 5.6483 6.23627 5.64921 6.10341C5.64876 6.0377 5.63538 5.97272 5.60982 5.91218C5.58426 5.85165 5.54702 5.79674 5.50024 5.75059C5.45346 5.70444 5.39804 5.66796 5.33716 5.64323C5.27628 5.6185 5.21111 5.60601 5.1454 5.60646C5.01299 5.606 4.8858 5.65805 4.79168 5.7512C4.69757 5.84434 4.64422 5.971 4.64331 6.10341C4.64354 6.16912 4.65671 6.23414 4.68206 6.29476C4.70742 6.35539 4.74445 6.41042 4.79108 6.45673C4.8377 6.50303 4.893 6.5397 4.95379 6.56464C5.01459 6.58958 5.07969 6.6023 5.1454 6.60207Z" fill="#C4C1D4"/>
<path d="M6.46658 10.7154C6.53229 10.7156 6.5974 10.7029 6.6582 10.6779C6.71899 10.653 6.77428 10.6163 6.8209 10.57C6.86752 10.5237 6.90457 10.4687 6.92993 10.408C6.95528 10.3474 6.96844 10.2824 6.96867 10.2167C6.96776 10.0843 6.91441 9.95763 6.82029 9.86448C6.72618 9.77133 6.59899 9.71928 6.46658 9.71974C6.40086 9.71929 6.33571 9.73178 6.27483 9.75651C6.21395 9.78124 6.15853 9.81772 6.11175 9.86387C6.06497 9.91002 6.02773 9.96493 6.00217 10.0255C5.97661 10.086 5.96322 10.151 5.96277 10.2167C5.96367 10.3496 6.01721 10.4766 6.11164 10.5701C6.20608 10.6636 6.33371 10.7158 6.46658 10.7154Z" fill="#C4C1D4"/>
<path d="M6.46658 9.34426C6.53229 9.34449 6.5974 9.33177 6.6582 9.30683C6.71899 9.28189 6.77428 9.24522 6.8209 9.19892C6.86752 9.15261 6.90457 9.09757 6.92993 9.03695C6.95528 8.97633 6.96844 8.91131 6.96867 8.8456C6.96776 8.71318 6.91441 8.58653 6.82029 8.49338C6.72618 8.40024 6.59899 8.34819 6.46658 8.34864C6.40086 8.34819 6.33571 8.36069 6.27483 8.38542C6.21395 8.41015 6.15853 8.44663 6.11175 8.49278C6.06497 8.53892 6.02773 8.59383 6.00217 8.65437C5.97661 8.71491 5.96322 8.77988 5.96277 8.8456C5.96367 8.97846 6.01721 9.10555 6.11164 9.19902C6.20608 9.29249 6.33371 9.34472 6.46658 9.34426Z" fill="#C4C1D4"/>
<path d="M6.46658 7.97317C6.53229 7.97339 6.5974 7.96067 6.6582 7.93574C6.71899 7.9108 6.77428 7.87413 6.8209 7.82782C6.86752 7.78152 6.90457 7.72648 6.92993 7.66586C6.95528 7.60523 6.96844 7.54021 6.96867 7.4745C6.96776 7.34209 6.91441 7.21544 6.82029 7.12229C6.72618 7.02914 6.59899 6.97709 6.46658 6.97755C6.40086 6.9771 6.33571 6.9896 6.27483 7.01433C6.21395 7.03906 6.15853 7.07554 6.11175 7.12168C6.06497 7.16783 6.02773 7.22274 6.00217 7.28328C5.97661 7.34381 5.96322 7.40879 5.96277 7.4745C5.96367 7.60737 6.01721 7.73446 6.11164 7.82793C6.20608 7.9214 6.33371 7.97363 6.46658 7.97317Z" fill="#C4C1D4"/>
<path d="M6.46658 6.60207C6.53229 6.6023 6.5974 6.58958 6.6582 6.56464C6.71899 6.5397 6.77428 6.50303 6.8209 6.45673C6.86752 6.41042 6.90457 6.35539 6.92993 6.29476C6.95528 6.23414 6.96844 6.16912 6.96867 6.10341C6.96776 5.971 6.91441 5.84434 6.82029 5.7512C6.72618 5.65805 6.59899 5.606 6.46658 5.60646C6.40086 5.60601 6.33571 5.6185 6.27483 5.64323C6.21395 5.66796 6.15853 5.70444 6.11175 5.75059C6.06497 5.79674 6.02773 5.85165 6.00217 5.91218C5.97661 5.97272 5.96322 6.0377 5.96277 6.10341C5.96367 6.23627 6.01721 6.36336 6.11164 6.45683C6.20608 6.5503 6.33371 6.60253 6.46658 6.60207Z" fill="#C4C1D4"/>
<path d="M4.01428 18.8857V25.2039H7.59747V18.8857H4.01428Z" fill="#1E194B"/>
<path d="M4.21313 19.1592V24.9375H7.39877V19.1677L4.21313 19.1592Z" fill="#2D2F67"/>
<path d="M5.1454 24.595C5.27827 24.5954 5.40591 24.5432 5.50034 24.4498C5.59478 24.3563 5.6483 24.2292 5.64921 24.0963C5.6483 23.9635 5.59478 23.8364 5.50034 23.7429C5.40591 23.6494 5.27827 23.5972 5.1454 23.5977C5.07969 23.5974 5.01459 23.6102 4.95379 23.6351C4.893 23.66 4.8377 23.6967 4.79108 23.743C4.74445 23.7893 4.70742 23.8443 4.68206 23.905C4.65671 23.9656 4.64354 24.0306 4.64331 24.0963C4.64354 24.162 4.65671 24.2271 4.68206 24.2877C4.70742 24.3483 4.74445 24.4033 4.79108 24.4496C4.8377 24.496 4.893 24.5326 4.95379 24.5576C5.01459 24.5825 5.07969 24.5952 5.1454 24.595Z" fill="#C4C1D4"/>
<path d="M5.1454 23.2249C5.27827 23.2253 5.40591 23.1731 5.50034 23.0796C5.59478 22.9862 5.6483 22.8591 5.64921 22.7262C5.6483 22.5933 5.59478 22.4663 5.50034 22.3728C5.40591 22.2793 5.27827 22.2271 5.1454 22.2275C5.07969 22.2273 5.01459 22.24 4.95379 22.265C4.893 22.2899 4.8377 22.3266 4.79108 22.3729C4.74445 22.4192 4.70742 22.4742 4.68206 22.5349C4.65671 22.5955 4.64354 22.6605 4.64331 22.7262C4.64354 22.7919 4.65671 22.8569 4.68206 22.9176C4.70742 22.9782 4.74445 23.0332 4.79108 23.0795C4.8377 23.1258 4.893 23.1625 4.95379 23.1874C5.01459 23.2124 5.07969 23.2251 5.1454 23.2249Z" fill="#C4C1D4"/>
<path d="M5.1454 21.8538C5.27827 21.8542 5.40591 21.802 5.50034 21.7085C5.59478 21.6151 5.6483 21.488 5.64921 21.3551C5.6483 21.2222 5.59478 21.0952 5.50034 21.0017C5.40591 20.9082 5.27827 20.856 5.1454 20.8564C5.07969 20.8562 5.01459 20.8689 4.95379 20.8939C4.893 20.9188 4.8377 20.9555 4.79108 21.0018C4.74445 21.0481 4.70742 21.1031 4.68206 21.1638C4.65671 21.2244 4.64354 21.2894 4.64331 21.3551C4.64354 21.4208 4.65671 21.4858 4.68206 21.5465C4.70742 21.6071 4.74445 21.6621 4.79108 21.7084C4.8377 21.7547 4.893 21.7914 4.95379 21.8163C5.01459 21.8413 5.07969 21.854 5.1454 21.8538Z" fill="#C4C1D4"/>
<path d="M5.1454 20.4944C5.27827 20.4949 5.40591 20.4426 5.50034 20.3492C5.59478 20.2557 5.6483 20.1286 5.64921 19.9957C5.6483 19.8629 5.59478 19.7358 5.50034 19.6423C5.40591 19.5488 5.27827 19.4966 5.1454 19.4971C5.07969 19.4968 5.01459 19.5096 4.95379 19.5345C4.893 19.5594 4.8377 19.5961 4.79108 19.6424C4.74445 19.6887 4.70742 19.7438 4.68206 19.8044C4.65671 19.865 4.64354 19.93 4.64331 19.9957C4.64354 20.0615 4.65671 20.1265 4.68206 20.1871C4.70742 20.2477 4.74445 20.3028 4.79108 20.3491C4.8377 20.3954 4.893 20.432 4.95379 20.457C5.01459 20.4819 5.07969 20.4946 5.1454 20.4944Z" fill="#C4C1D4"/>
<path d="M6.46658 24.595C6.53229 24.5952 6.5974 24.5825 6.6582 24.5576C6.71899 24.5326 6.77428 24.496 6.8209 24.4496C6.86752 24.4033 6.90457 24.3483 6.92993 24.2877C6.95528 24.2271 6.96844 24.162 6.96867 24.0963C6.96844 24.0306 6.95528 23.9656 6.92993 23.905C6.90457 23.8443 6.86752 23.7893 6.8209 23.743C6.77428 23.6967 6.71899 23.66 6.6582 23.6351C6.5974 23.6102 6.53229 23.5974 6.46658 23.5977C6.33371 23.5972 6.20608 23.6494 6.11164 23.7429C6.01721 23.8364 5.96367 23.9635 5.96277 24.0963C5.96367 24.2292 6.01721 24.3563 6.11164 24.4498C6.20608 24.5432 6.33371 24.5954 6.46658 24.595Z" fill="#C4C1D4"/>
<path d="M6.46658 23.2249C6.53229 23.2251 6.5974 23.2124 6.6582 23.1874C6.71899 23.1625 6.77428 23.1258 6.8209 23.0795C6.86752 23.0332 6.90457 22.9782 6.92993 22.9176C6.95528 22.8569 6.96844 22.7919 6.96867 22.7262C6.96844 22.6605 6.95528 22.5955 6.92993 22.5349C6.90457 22.4742 6.86752 22.4192 6.8209 22.3729C6.77428 22.3266 6.71899 22.2899 6.6582 22.265C6.5974 22.24 6.53229 22.2273 6.46658 22.2275C6.33371 22.2271 6.20608 22.2793 6.11164 22.3728C6.01721 22.4663 5.96367 22.5933 5.96277 22.7262C5.96367 22.8591 6.01721 22.9862 6.11164 23.0796C6.20608 23.1731 6.33371 23.2253 6.46658 23.2249Z" fill="#C4C1D4"/>
<path d="M6.46658 21.8538C6.53229 21.854 6.5974 21.8413 6.6582 21.8163C6.71899 21.7914 6.77428 21.7547 6.8209 21.7084C6.86752 21.6621 6.90457 21.6071 6.92993 21.5465C6.95528 21.4858 6.96844 21.4208 6.96867 21.3551C6.96844 21.2894 6.95528 21.2244 6.92993 21.1638C6.90457 21.1031 6.86752 21.0481 6.8209 21.0018C6.77428 20.9555 6.71899 20.9188 6.6582 20.8939C6.5974 20.8689 6.53229 20.8562 6.46658 20.8564C6.33371 20.856 6.20608 20.9082 6.11164 21.0017C6.01721 21.0952 5.96367 21.2222 5.96277 21.3551C5.96367 21.488 6.01721 21.6151 6.11164 21.7085C6.20608 21.802 6.33371 21.8542 6.46658 21.8538Z" fill="#C4C1D4"/>
<path d="M6.46658 20.4944C6.53229 20.4946 6.5974 20.4819 6.6582 20.457C6.71899 20.432 6.77428 20.3954 6.8209 20.3491C6.86752 20.3028 6.90457 20.2477 6.92993 20.1871C6.95528 20.1265 6.96844 20.0615 6.96867 19.9957C6.96844 19.93 6.95528 19.865 6.92993 19.8044C6.90457 19.7438 6.86752 19.6887 6.8209 19.6424C6.77428 19.5961 6.71899 19.5594 6.6582 19.5345C6.5974 19.5096 6.53229 19.4968 6.46658 19.4971C6.33371 19.4966 6.20608 19.5488 6.11164 19.6423C6.01721 19.7358 5.96367 19.8629 5.96277 19.9957C5.96367 20.1286 6.01721 20.2557 6.11164 20.3492C6.20608 20.4426 6.33371 20.4949 6.46658 20.4944Z" fill="#C4C1D4"/>
<path d="M50.2052 5.00684V11.3233H53.7884V5.00684H50.2052Z" fill="#1E194B"/>
<path d="M50.4108 5.2793V11.0577H53.5981V5.28786L50.4108 5.2793Z" fill="#2D2F67"/>
<path d="M51.3413 10.7153C51.407 10.7156 51.4722 10.7029 51.5329 10.6779C51.5937 10.653 51.649 10.6163 51.6957 10.57C51.7423 10.5237 51.7793 10.4687 51.8047 10.408C51.83 10.3474 51.8432 10.2824 51.8434 10.2167C51.8425 10.0843 51.7892 9.95762 51.695 9.86447C51.6009 9.77132 51.4737 9.71927 51.3413 9.71973C51.2089 9.71927 51.0817 9.77132 50.9876 9.86447C50.8935 9.95762 50.8401 10.0843 50.8392 10.2167C50.8395 10.2824 50.8526 10.3474 50.878 10.408C50.9033 10.4687 50.9404 10.5237 50.987 10.57C51.0336 10.6163 51.0889 10.653 51.1497 10.6779C51.2105 10.7029 51.2756 10.7156 51.3413 10.7153Z" fill="#C4C1D4"/>
<path d="M51.3413 9.34425C51.407 9.34448 51.4722 9.33176 51.5329 9.30682C51.5937 9.28188 51.649 9.24521 51.6957 9.19891C51.7423 9.1526 51.7793 9.09757 51.8047 9.03694C51.83 8.97632 51.8432 8.9113 51.8434 8.84559C51.8425 8.71318 51.7892 8.58652 51.695 8.49337C51.6009 8.40023 51.4737 8.34818 51.3413 8.34864C51.2089 8.34818 51.0817 8.40023 50.9876 8.49337C50.8935 8.58652 50.8401 8.71318 50.8392 8.84559C50.8395 8.9113 50.8526 8.97632 50.878 9.03694C50.9033 9.09757 50.9404 9.1526 50.987 9.19891C51.0336 9.24521 51.0889 9.28188 51.1497 9.30682C51.2105 9.33176 51.2756 9.34448 51.3413 9.34425Z" fill="#C4C1D4"/>
<path d="M51.3413 7.97316C51.407 7.97339 51.4722 7.96066 51.5329 7.93573C51.5937 7.91079 51.649 7.87412 51.6957 7.82781C51.7423 7.78151 51.7793 7.72647 51.8047 7.66585C51.83 7.60523 51.8432 7.5402 51.8434 7.47449C51.8425 7.34208 51.7892 7.21543 51.695 7.12228C51.6009 7.02913 51.4737 6.97709 51.3413 6.97754C51.2089 6.97709 51.0817 7.02913 50.9876 7.12228C50.8935 7.21543 50.8401 7.34208 50.8392 7.47449C50.8395 7.5402 50.8526 7.60523 50.878 7.66585C50.9033 7.72647 50.9404 7.78151 50.987 7.82781C51.0336 7.87412 51.0889 7.91079 51.1497 7.93573C51.2105 7.96066 51.2756 7.97339 51.3413 7.97316Z" fill="#C4C1D4"/>
<path d="M51.3413 6.60207C51.407 6.60229 51.4722 6.58957 51.5329 6.56463C51.5937 6.53969 51.649 6.50303 51.6957 6.45672C51.7423 6.41041 51.7793 6.35538 51.8047 6.29475C51.83 6.23413 51.8432 6.16911 51.8434 6.1034C51.8425 5.97099 51.7892 5.84434 51.695 5.75119C51.6009 5.65804 51.4737 5.60599 51.3413 5.60645C51.2089 5.60599 51.0817 5.65804 50.9876 5.75119C50.8935 5.84434 50.8401 5.97099 50.8392 6.1034C50.8395 6.16911 50.8526 6.23413 50.878 6.29475C50.9033 6.35538 50.9404 6.41041 50.987 6.45672C51.0336 6.50303 51.0889 6.53969 51.1497 6.56463C51.2105 6.58957 51.2756 6.60229 51.3413 6.60207Z" fill="#C4C1D4"/>
<path d="M52.6575 10.7153C52.7232 10.7156 52.7883 10.7029 52.8491 10.6779C52.9099 10.653 52.9652 10.6163 53.0118 10.57C53.0584 10.5237 53.0955 10.4687 53.1208 10.408C53.1462 10.3474 53.1594 10.2824 53.1596 10.2167C53.1587 10.0843 53.1053 9.95762 53.0112 9.86447C52.9171 9.77132 52.7899 9.71927 52.6575 9.71973C52.5251 9.71927 52.3979 9.77132 52.3037 9.86447C52.2096 9.95762 52.1563 10.0843 52.1554 10.2167C52.1556 10.2824 52.1688 10.3474 52.1941 10.408C52.2195 10.4687 52.2565 10.5237 52.3032 10.57C52.3498 10.6163 52.4051 10.653 52.4659 10.6779C52.5267 10.7029 52.5918 10.7156 52.6575 10.7153Z" fill="#C4C1D4"/>
<path d="M52.6575 9.34425C52.7232 9.34448 52.7883 9.33176 52.8491 9.30682C52.9099 9.28188 52.9652 9.24521 53.0118 9.19891C53.0584 9.1526 53.0955 9.09757 53.1208 9.03694C53.1462 8.97632 53.1594 8.9113 53.1596 8.84559C53.1587 8.71318 53.1053 8.58652 53.0112 8.49337C52.9171 8.40023 52.7899 8.34818 52.6575 8.34864C52.5251 8.34818 52.3979 8.40023 52.3037 8.49337C52.2096 8.58652 52.1563 8.71318 52.1554 8.84559C52.1556 8.9113 52.1688 8.97632 52.1941 9.03694C52.2195 9.09757 52.2565 9.1526 52.3032 9.19891C52.3498 9.24521 52.4051 9.28188 52.4659 9.30682C52.5267 9.33176 52.5918 9.34448 52.6575 9.34425Z" fill="#C4C1D4"/>
<path d="M52.6575 7.97316C52.7232 7.97339 52.7883 7.96066 52.8491 7.93573C52.9099 7.91079 52.9652 7.87412 53.0118 7.82781C53.0584 7.78151 53.0955 7.72647 53.1208 7.66585C53.1462 7.60523 53.1594 7.5402 53.1596 7.47449C53.1587 7.34208 53.1053 7.21543 53.0112 7.12228C52.9171 7.02913 52.7899 6.97709 52.6575 6.97754C52.5251 6.97709 52.3979 7.02913 52.3037 7.12228C52.2096 7.21543 52.1563 7.34208 52.1554 7.47449C52.1556 7.5402 52.1688 7.60523 52.1941 7.66585C52.2195 7.72647 52.2565 7.78151 52.3032 7.82781C52.3498 7.87412 52.4051 7.91079 52.4659 7.93573C52.5267 7.96066 52.5918 7.97339 52.6575 7.97316Z" fill="#C4C1D4"/>
<path d="M52.6575 6.60207C52.7232 6.60229 52.7883 6.58957 52.8491 6.56463C52.9099 6.53969 52.9652 6.50303 53.0118 6.45672C53.0584 6.41041 53.0955 6.35538 53.1208 6.29475C53.1462 6.23413 53.1594 6.16911 53.1596 6.1034C53.1587 5.97099 53.1053 5.84434 53.0112 5.75119C52.9171 5.65804 52.7899 5.60599 52.6575 5.60645C52.5251 5.60599 52.3979 5.65804 52.3037 5.75119C52.2096 5.84434 52.1563 5.97099 52.1554 6.1034C52.1556 6.16911 52.1688 6.23413 52.1941 6.29475C52.2195 6.35538 52.2565 6.41041 52.3032 6.45672C52.3498 6.50303 52.4051 6.53969 52.4659 6.56463C52.5267 6.58957 52.5918 6.60229 52.6575 6.60207Z" fill="#C4C1D4"/>
<path d="M50.2052 18.8887V25.2068H53.7884V18.8887H50.2052Z" fill="#1E194B"/>
<path d="M50.4108 19.1631V24.938H53.5981V19.1631H50.4108Z" fill="#2D2F67"/>
<path d="M51.3413 24.595C51.407 24.5952 51.4722 24.5825 51.5329 24.5576C51.5937 24.5326 51.649 24.496 51.6957 24.4496C51.7423 24.4033 51.7793 24.3483 51.8047 24.2877C51.83 24.2271 51.8432 24.162 51.8434 24.0963C51.8432 24.0306 51.83 23.9656 51.8047 23.905C51.7793 23.8443 51.7423 23.7893 51.6957 23.743C51.649 23.6967 51.5937 23.66 51.5329 23.6351C51.4722 23.6102 51.407 23.5974 51.3413 23.5977C51.2756 23.5974 51.2105 23.6102 51.1497 23.6351C51.0889 23.66 51.0336 23.6967 50.987 23.743C50.9404 23.7893 50.9033 23.8443 50.878 23.905C50.8526 23.9656 50.8395 24.0306 50.8392 24.0963C50.8395 24.162 50.8526 24.2271 50.878 24.2877C50.9033 24.3483 50.9404 24.4033 50.987 24.4496C51.0336 24.496 51.0889 24.5326 51.1497 24.5576C51.2105 24.5825 51.2756 24.5952 51.3413 24.595Z" fill="#C4C1D4"/>
<path d="M51.3413 23.2249C51.407 23.2251 51.4722 23.2124 51.5329 23.1874C51.5937 23.1625 51.649 23.1258 51.6957 23.0795C51.7423 23.0332 51.7793 22.9782 51.8047 22.9176C51.83 22.8569 51.8432 22.7919 51.8434 22.7262C51.8432 22.6605 51.83 22.5955 51.8047 22.5349C51.7793 22.4742 51.7423 22.4192 51.6957 22.3729C51.649 22.3266 51.5937 22.2899 51.5329 22.265C51.4722 22.24 51.407 22.2273 51.3413 22.2275C51.2756 22.2273 51.2105 22.24 51.1497 22.265C51.0889 22.2899 51.0336 22.3266 50.987 22.3729C50.9404 22.4192 50.9033 22.4742 50.878 22.5349C50.8526 22.5955 50.8395 22.6605 50.8392 22.7262C50.8395 22.7919 50.8526 22.8569 50.878 22.9176C50.9033 22.9782 50.9404 23.0332 50.987 23.0795C51.0336 23.1258 51.0889 23.1625 51.1497 23.1874C51.2105 23.2124 51.2756 23.2251 51.3413 23.2249Z" fill="#C4C1D4"/>
<path d="M51.3413 21.8538C51.407 21.854 51.4722 21.8413 51.5329 21.8163C51.5937 21.7914 51.649 21.7547 51.6957 21.7084C51.7423 21.6621 51.7793 21.6071 51.8047 21.5465C51.83 21.4858 51.8432 21.4208 51.8434 21.3551C51.8432 21.2894 51.83 21.2244 51.8047 21.1638C51.7793 21.1031 51.7423 21.0481 51.6957 21.0018C51.649 20.9555 51.5937 20.9188 51.5329 20.8939C51.4722 20.8689 51.407 20.8562 51.3413 20.8564C51.2756 20.8562 51.2105 20.8689 51.1497 20.8939C51.0889 20.9188 51.0336 20.9555 50.987 21.0018C50.9404 21.0481 50.9033 21.1031 50.878 21.1638C50.8526 21.2244 50.8395 21.2894 50.8392 21.3551C50.8395 21.4208 50.8526 21.4858 50.878 21.5465C50.9033 21.6071 50.9404 21.6621 50.987 21.7084C51.0336 21.7547 51.0889 21.7914 51.1497 21.8163C51.2105 21.8413 51.2756 21.854 51.3413 21.8538Z" fill="#C4C1D4"/>
<path d="M51.3413 20.4944C51.407 20.4946 51.4722 20.4819 51.5329 20.457C51.5937 20.432 51.649 20.3954 51.6957 20.3491C51.7423 20.3028 51.7793 20.2477 51.8047 20.1871C51.83 20.1265 51.8432 20.0615 51.8434 19.9957C51.8432 19.93 51.83 19.865 51.8047 19.8044C51.7793 19.7438 51.7423 19.6887 51.6957 19.6424C51.649 19.5961 51.5937 19.5594 51.5329 19.5345C51.4722 19.5096 51.407 19.4968 51.3413 19.4971C51.2756 19.4968 51.2105 19.5096 51.1497 19.5345C51.0889 19.5594 51.0336 19.5961 50.987 19.6424C50.9404 19.6887 50.9033 19.7438 50.878 19.8044C50.8526 19.865 50.8395 19.93 50.8392 19.9957C50.8395 20.0615 50.8526 20.1265 50.878 20.1871C50.9033 20.2477 50.9404 20.3028 50.987 20.3491C51.0336 20.3954 51.0889 20.432 51.1497 20.457C51.2105 20.4819 51.2756 20.4946 51.3413 20.4944Z" fill="#C4C1D4"/>
<path d="M52.6575 24.595C52.7232 24.5952 52.7883 24.5825 52.8491 24.5576C52.9099 24.5326 52.9652 24.496 53.0118 24.4496C53.0584 24.4033 53.0955 24.3483 53.1208 24.2877C53.1462 24.2271 53.1594 24.162 53.1596 24.0963C53.1594 24.0306 53.1462 23.9656 53.1208 23.905C53.0955 23.8443 53.0584 23.7893 53.0118 23.743C52.9652 23.6967 52.9099 23.66 52.8491 23.6351C52.7883 23.6102 52.7232 23.5974 52.6575 23.5977C52.5918 23.5974 52.5267 23.6102 52.4659 23.6351C52.4051 23.66 52.3498 23.6967 52.3032 23.743C52.2565 23.7893 52.2195 23.8443 52.1941 23.905C52.1688 23.9656 52.1556 24.0306 52.1554 24.0963C52.1556 24.162 52.1688 24.2271 52.1941 24.2877C52.2195 24.3483 52.2565 24.4033 52.3032 24.4496C52.3498 24.496 52.4051 24.5326 52.4659 24.5576C52.5267 24.5825 52.5918 24.5952 52.6575 24.595Z" fill="#C4C1D4"/>
<path d="M52.6575 23.2249C52.7232 23.2251 52.7883 23.2124 52.8491 23.1874C52.9099 23.1625 52.9652 23.1258 53.0118 23.0795C53.0584 23.0332 53.0955 22.9782 53.1208 22.9176C53.1462 22.8569 53.1594 22.7919 53.1596 22.7262C53.1594 22.6605 53.1462 22.5955 53.1208 22.5349C53.0955 22.4742 53.0584 22.4192 53.0118 22.3729C52.9652 22.3266 52.9099 22.2899 52.8491 22.265C52.7883 22.24 52.7232 22.2273 52.6575 22.2275C52.5918 22.2273 52.5267 22.24 52.4659 22.265C52.4051 22.2899 52.3498 22.3266 52.3032 22.3729C52.2565 22.4192 52.2195 22.4742 52.1941 22.5349C52.1688 22.5955 52.1556 22.6605 52.1554 22.7262C52.1556 22.7919 52.1688 22.8569 52.1941 22.9176C52.2195 22.9782 52.2565 23.0332 52.3032 23.0795C52.3498 23.1258 52.4051 23.1625 52.4659 23.1874C52.5267 23.2124 52.5918 23.2251 52.6575 23.2249Z" fill="#C4C1D4"/>
<path d="M52.6575 21.8538C52.7232 21.854 52.7883 21.8413 52.8491 21.8163C52.9099 21.7914 52.9652 21.7547 53.0118 21.7084C53.0584 21.6621 53.0955 21.6071 53.1208 21.5465C53.1462 21.4858 53.1594 21.4208 53.1596 21.3551C53.1594 21.2894 53.1462 21.2244 53.1208 21.1638C53.0955 21.1031 53.0584 21.0481 53.0118 21.0018C52.9652 20.9555 52.9099 20.9188 52.8491 20.8939C52.7883 20.8689 52.7232 20.8562 52.6575 20.8564C52.5918 20.8562 52.5267 20.8689 52.4659 20.8939C52.4051 20.9188 52.3498 20.9555 52.3032 21.0018C52.2565 21.0481 52.2195 21.1031 52.1941 21.1638C52.1688 21.2244 52.1556 21.2894 52.1554 21.3551C52.1556 21.4208 52.1688 21.4858 52.1941 21.5465C52.2195 21.6071 52.2565 21.6621 52.3032 21.7084C52.3498 21.7547 52.4051 21.7914 52.4659 21.8163C52.5267 21.8413 52.5918 21.854 52.6575 21.8538Z" fill="#C4C1D4"/>
<path d="M52.6575 20.4944C52.7232 20.4946 52.7883 20.4819 52.8491 20.457C52.9099 20.432 52.9652 20.3954 53.0118 20.3491C53.0584 20.3028 53.0955 20.2477 53.1208 20.1871C53.1462 20.1265 53.1594 20.0615 53.1596 19.9957C53.1594 19.93 53.1462 19.865 53.1208 19.8044C53.0955 19.7438 53.0584 19.6887 53.0118 19.6424C52.9652 19.5961 52.9099 19.5594 52.8491 19.5345C52.7883 19.5096 52.7232 19.4968 52.6575 19.4971C52.5918 19.4968 52.5267 19.5096 52.4659 19.5345C52.4051 19.5594 52.3498 19.5961 52.3032 19.6424C52.2565 19.6887 52.2195 19.7438 52.1941 19.8044C52.1688 19.865 52.1556 19.93 52.1554 19.9957C52.1556 20.0615 52.1688 20.1265 52.1941 20.1871C52.2195 20.2477 52.2565 20.3028 52.3032 20.3491C52.3498 20.3954 52.4051 20.432 52.4659 20.457C52.5267 20.4819 52.5918 20.4946 52.6575 20.4944Z" fill="#C4C1D4"/>
<path d="M50.4965 29.8701H9.49792V40.2376H50.4965V29.8701Z" fill="#1E194B"/>
<path d="M11.131 37.6445H0.525391V40.2338H11.131V37.6445Z" fill="#1E194B"/>
<path d="M11.1327 35.0488H2.83191V37.6398H11.1327V35.0488Z" fill="#1E194B"/>
<path d="M12.2604 32.459H5.13855V35.0483H12.2604V32.459Z" fill="#1E194B"/>
<path d="M13.8986 29.8701H7.44507V32.4594H13.8986V29.8701Z" fill="#1E194B"/>
<path d="M57.4368 37.6445H46.8123V40.2338H57.4368V37.6445Z" fill="#1E194B"/>
<path d="M55.1251 35.0488H46.8123V37.6398H55.1319L55.1251 35.0488Z" fill="#1E194B"/>
<path d="M52.8099 32.459H45.6777V35.0483H52.8099V32.459Z" fill="#1E194B"/>
<path d="M50.5017 29.8701H44.0344V32.4594H50.5017V29.8701Z" fill="#1E194B"/>
<path opacity="0.5" d="M7.44507 29.8955C7.44507 29.8955 11.7034 30.6615 28.718 30.6615C45.7327 30.6615 50.4966 29.8955 50.4966 29.8955H7.44507Z" fill="#C4C1D4"/>
<path d="M23.2533 40.2387H19.4165L19.7592 34.498H22.902L23.2533 40.2387Z" fill="#00ACA4"/>
<path d="M20.119 37.1687C20.1496 37.169 20.1798 37.1631 20.2081 37.1516C20.2364 37.1401 20.2621 37.1231 20.2837 37.1016C20.3054 37.0801 20.3226 37.0545 20.3343 37.0263C20.3461 36.9981 20.3521 36.9679 20.3521 36.9374C20.3521 36.9069 20.3461 36.8767 20.3343 36.8485C20.3226 36.8203 20.3054 36.7947 20.2837 36.7732C20.2621 36.7517 20.2364 36.7347 20.2081 36.7232C20.1798 36.7116 20.1496 36.7058 20.119 36.7061C20.0884 36.7058 20.0581 36.7116 20.0297 36.7231C20.0014 36.7346 19.9755 36.7516 19.9537 36.7731C19.9319 36.7946 19.9146 36.8202 19.9027 36.8483C19.8908 36.8765 19.8845 36.9068 19.8843 36.9374C19.8845 36.968 19.8908 36.9983 19.9027 37.0265C19.9146 37.0546 19.9319 37.0802 19.9537 37.1017C19.9755 37.1232 20.0014 37.1402 20.0297 37.1517C20.0581 37.1632 20.0884 37.169 20.119 37.1687Z" fill="#464673"/>
<path d="M22.5404 37.1687C22.571 37.169 22.6012 37.1631 22.6295 37.1516C22.6578 37.1401 22.6835 37.1231 22.7051 37.1016C22.7268 37.0801 22.744 37.0545 22.7557 37.0263C22.7674 36.9981 22.7735 36.9679 22.7735 36.9374C22.7735 36.9069 22.7674 36.8767 22.7557 36.8485C22.744 36.8203 22.7268 36.7947 22.7051 36.7732C22.6835 36.7517 22.6578 36.7347 22.6295 36.7232C22.6012 36.7116 22.571 36.7058 22.5404 36.7061C22.4795 36.706 22.421 36.7299 22.3774 36.7725C22.3339 36.8151 22.3087 36.8731 22.3074 36.934C22.3072 36.9647 22.313 36.9952 22.3246 37.0237C22.3362 37.0522 22.3534 37.0781 22.375 37.0999C22.3967 37.1217 22.4225 37.139 22.4508 37.1508C22.4792 37.1627 22.5097 37.1687 22.5404 37.1687Z" fill="#464673"/>
<path d="M21.3272 39.6374C21.6473 39.6387 21.955 39.5134 22.1829 39.2886C22.4109 39.0638 22.5407 38.758 22.5438 38.4378C22.5407 38.1177 22.4109 37.8118 22.1829 37.5871C21.955 37.3623 21.6473 37.2369 21.3272 37.2383C21.007 37.2369 20.6993 37.3623 20.4714 37.5871C20.2434 37.8118 20.1136 38.1177 20.1105 38.4378C20.1136 38.758 20.2434 39.0638 20.4714 39.2886C20.6993 39.5134 21.007 39.6387 21.3272 39.6374Z" fill="#464673"/>
<path d="M21.3271 39.0016C21.4024 39.0021 21.4771 38.9877 21.5468 38.9592C21.6165 38.9308 21.68 38.8888 21.7334 38.8358C21.7869 38.7828 21.8294 38.7198 21.8585 38.6503C21.8876 38.5808 21.9027 38.5063 21.9029 38.431C21.9027 38.3557 21.8876 38.2812 21.8585 38.2117C21.8294 38.1422 21.7869 38.0792 21.7334 38.0262C21.68 37.9732 21.6165 37.9312 21.5468 37.9028C21.4771 37.8743 21.4024 37.8599 21.3271 37.8604C21.1752 37.8599 21.0292 37.9197 20.9213 38.0267C20.8134 38.1337 20.7522 38.279 20.7513 38.431C20.7522 38.583 20.8134 38.7284 20.9213 38.8353C21.0292 38.9423 21.1752 39.0021 21.3271 39.0016Z" fill="#2D2F67"/>
<path d="M21.3271 36.6666C21.4315 36.6673 21.5349 36.6474 21.6315 36.6081C21.7282 36.5687 21.8161 36.5107 21.8903 36.4373C21.9644 36.3639 22.0234 36.2766 22.0638 36.1804C22.1042 36.0842 22.1252 35.981 22.1257 35.8767C22.1252 35.7722 22.1042 35.6689 22.0638 35.5726C22.0235 35.4764 21.9645 35.3889 21.8904 35.3154C21.8162 35.2419 21.7283 35.1837 21.6317 35.1442C21.535 35.1046 21.4315 35.0845 21.3271 35.085C21.2227 35.0845 21.1192 35.1046 21.0226 35.1442C20.9259 35.1837 20.838 35.2419 20.7639 35.3154C20.6897 35.3889 20.6308 35.4764 20.5904 35.5726C20.55 35.6689 20.529 35.7722 20.5286 35.8767C20.529 35.981 20.55 36.0842 20.5904 36.1804C20.6308 36.2766 20.6898 36.3639 20.764 36.4373C20.8382 36.5107 20.9261 36.5687 21.0227 36.6081C21.1193 36.6474 21.2228 36.6673 21.3271 36.6666Z" fill="#464673"/>
<path d="M21.7007 35.9342C21.7086 35.8856 21.7067 35.8359 21.6952 35.788C21.6837 35.7401 21.6629 35.695 21.6339 35.6551C21.6049 35.6153 21.5684 35.5816 21.5263 35.556C21.4842 35.5304 21.4375 35.5133 21.3889 35.5058C21.291 35.4899 21.1908 35.5135 21.1102 35.5713C21.0296 35.6291 20.9751 35.7164 20.9587 35.8143C20.9507 35.8627 20.9524 35.9122 20.9636 35.96C20.9749 36.0078 20.9956 36.0528 21.0245 36.0925C21.0533 36.1323 21.0898 36.1658 21.1318 36.1913C21.1738 36.2168 21.2204 36.2337 21.2689 36.2409C21.3668 36.2573 21.4672 36.2343 21.5482 36.1768C21.6291 36.1193 21.684 36.0321 21.7007 35.9342Z" fill="#2D2F67"/>
<path d="M19.7608 34.498H19.4181L18.7892 40.2387H19.4181L19.7608 34.498Z" fill="#02867D"/>
<path d="M8.64978 40.2384H15.0656L14.4864 27.8506H9.22899L8.64978 40.2384Z" fill="#00ACA4"/>
<path d="M13.7393 35.4917C13.787 35.4919 13.8343 35.4828 13.8784 35.4647C13.9226 35.4467 13.9628 35.4201 13.9967 35.3865C14.0306 35.353 14.0575 35.313 14.076 35.269C14.0944 35.2251 14.1041 35.1779 14.1043 35.1301C14.1043 35.0824 14.0948 35.0351 14.0764 34.991C14.058 34.9469 14.0311 34.9069 13.9972 34.8733C13.9632 34.8396 13.923 34.8131 13.8787 34.7951C13.8344 34.7771 13.787 34.7681 13.7393 34.7686C13.6916 34.7683 13.6443 34.7775 13.6001 34.7956C13.5559 34.8136 13.5158 34.8402 13.4819 34.8738C13.448 34.9073 13.421 34.9473 13.4026 34.9913C13.3841 35.0352 13.3745 35.0824 13.3743 35.1301C13.3752 35.2264 13.414 35.3183 13.4824 35.386C13.5507 35.4537 13.6431 35.4917 13.7393 35.4917Z" fill="#464673"/>
<path d="M9.99146 35.4917C10.0392 35.4919 10.0865 35.4828 10.1306 35.4647C10.1748 35.4467 10.215 35.4201 10.2489 35.3865C10.2827 35.353 10.3097 35.313 10.3282 35.269C10.3466 35.2251 10.3562 35.1779 10.3565 35.1301C10.3565 35.0824 10.347 35.0351 10.3286 34.991C10.3102 34.9469 10.2833 34.9069 10.2494 34.8733C10.2154 34.8396 10.1751 34.8131 10.1309 34.7951C10.0866 34.7771 10.0392 34.7681 9.99146 34.7686C9.94384 34.7683 9.89663 34.7775 9.85256 34.7956C9.8085 34.8137 9.76844 34.8403 9.73468 34.8739C9.70092 34.9075 9.67414 34.9474 9.65586 34.9914C9.63758 35.0354 9.62817 35.0825 9.62817 35.1301C9.62863 35.2262 9.6671 35.3182 9.73518 35.3859C9.80326 35.4537 9.89541 35.4917 9.99146 35.4917Z" fill="#464673"/>
<path d="M11.8679 39.307C12.3649 39.3071 12.8418 39.1108 13.1948 38.761C13.5478 38.4112 13.7484 37.9361 13.7529 37.4392C13.7484 36.9422 13.5478 36.4672 13.1948 36.1173C12.8418 35.7675 12.3649 35.5713 11.8679 35.5713C11.6214 35.57 11.3771 35.6172 11.1489 35.7104C10.9207 35.8036 10.7131 35.9408 10.5381 36.1143C10.363 36.2878 10.2238 36.4941 10.1286 36.7215C10.0333 36.9488 9.98381 37.1927 9.98291 37.4392C9.98381 37.6857 10.0333 37.9295 10.1286 38.1569C10.2238 38.3842 10.363 38.5905 10.5381 38.764C10.7131 38.9375 10.9207 39.0748 11.1489 39.1679C11.3771 39.2611 11.6214 39.3084 11.8679 39.307Z" fill="#464673"/>
<path d="M11.8679 38.3217C11.9844 38.3224 12.0998 38.3001 12.2077 38.2561C12.3156 38.2121 12.4137 38.1472 12.4965 38.0652C12.5792 37.9833 12.645 37.8858 12.6901 37.7783C12.7351 37.6709 12.7585 37.5557 12.759 37.4392C12.7576 37.204 12.663 36.9791 12.496 36.8136C12.3289 36.6482 12.103 36.5557 11.8679 36.5566C11.6331 36.5562 11.4076 36.6488 11.2409 36.8142C11.0742 36.9796 10.9799 37.2043 10.9785 37.4392C10.979 37.5555 11.0023 37.6706 11.0473 37.7779C11.0922 37.8853 11.1578 37.9827 11.2404 38.0646C11.323 38.1466 11.4209 38.2115 11.5286 38.2556C11.6362 38.2997 11.7515 38.3221 11.8679 38.3217Z" fill="#2D2F67"/>
<path d="M11.8679 34.7056C12.0293 34.7065 12.1894 34.6756 12.339 34.6146C12.4885 34.5535 12.6245 34.4636 12.7393 34.35C12.854 34.2364 12.9452 34.1012 13.0077 33.9523C13.0702 33.8034 13.1027 33.6436 13.1034 33.4821C13.1029 33.3205 13.0706 33.1605 13.0082 33.0114C12.9458 32.8623 12.8547 32.7269 12.7399 32.6131C12.6251 32.4993 12.489 32.4092 12.3394 32.3481C12.1897 32.287 12.0295 32.256 11.8679 32.2569C11.7063 32.2562 11.5461 32.2873 11.3966 32.3485C11.2471 32.4098 11.1111 32.4998 10.9963 32.6136C10.8816 32.7274 10.7904 32.8626 10.7279 33.0116C10.6655 33.1607 10.633 33.3205 10.6323 33.4821C10.6341 33.8081 10.7653 34.1201 10.9969 34.3495C11.2286 34.5789 11.5418 34.707 11.8679 34.7056Z" fill="#464673"/>
<path d="M11.8679 34.061C11.9442 34.0615 12.0198 34.0469 12.0905 34.0181C12.1611 33.9893 12.2254 33.9469 12.2797 33.8933C12.334 33.8397 12.3771 33.7759 12.4067 33.7056C12.4363 33.6352 12.4518 33.5598 12.4523 33.4835C12.4514 33.3293 12.3893 33.1817 12.2798 33.0731C12.1703 32.9646 12.0221 32.9038 11.8679 32.9043C11.7916 32.9041 11.716 32.9189 11.6455 32.9479C11.5749 32.9769 11.5107 33.0195 11.4566 33.0732C11.4025 33.127 11.3596 33.1909 11.3302 33.2613C11.3008 33.3317 11.2855 33.4072 11.2853 33.4835C11.2855 33.5597 11.3008 33.6351 11.3302 33.7054C11.3596 33.7757 11.4026 33.8395 11.4567 33.8932C11.5109 33.9468 11.5751 33.9893 11.6456 34.0181C11.7162 34.0469 11.7917 34.0615 11.8679 34.061Z" fill="#2D2F67"/>
<path d="M13.7974 31.8458C13.8924 31.8306 13.9774 31.7784 14.0339 31.7007C14.0904 31.623 14.1138 31.526 14.099 31.4311C14.0831 31.3361 14.0301 31.2513 13.9517 31.1954C13.8733 31.1395 13.7759 31.117 13.6809 31.1329C13.6339 31.14 13.5887 31.1563 13.5481 31.181C13.5074 31.2056 13.472 31.2381 13.444 31.2765C13.416 31.3149 13.3958 31.3585 13.3847 31.4047C13.3736 31.451 13.3718 31.4989 13.3793 31.5459C13.387 31.5931 13.4039 31.6383 13.4291 31.6789C13.4543 31.7195 13.4873 31.7547 13.5261 31.7826C13.565 31.8105 13.6089 31.8304 13.6555 31.8412C13.7021 31.8521 13.7503 31.8536 13.7974 31.8458Z" fill="#464673"/>
<path d="M9.99146 31.8474C10.0392 31.8479 10.0866 31.8389 10.1309 31.8209C10.1751 31.8029 10.2154 31.7764 10.2494 31.7427C10.2833 31.7091 10.3102 31.6691 10.3286 31.625C10.347 31.5809 10.3565 31.5336 10.3565 31.4859C10.3562 31.4382 10.3466 31.3911 10.3281 31.3472C10.3096 31.3033 10.2827 31.2635 10.2487 31.2301C10.2148 31.1966 10.1746 31.1702 10.1305 31.1524C10.0863 31.1345 10.0391 31.1255 9.99146 31.126C9.94398 31.1258 9.89692 31.1349 9.85296 31.1529C9.80901 31.1708 9.76902 31.1973 9.73529 31.2307C9.70155 31.2641 9.67473 31.3038 9.65635 31.3476C9.63797 31.3914 9.6284 31.4384 9.62817 31.4859C9.62817 31.5335 9.63758 31.5806 9.65586 31.6246C9.67414 31.6686 9.70092 31.7085 9.73468 31.7421C9.76844 31.7757 9.8085 31.8023 9.85256 31.8204C9.89663 31.8385 9.94384 31.8477 9.99146 31.8474Z" fill="#464673"/>
<path d="M11.8679 31.064C12.0295 31.0649 12.1897 31.0339 12.3394 30.9728C12.489 30.9117 12.6251 30.8216 12.7399 30.7078C12.8547 30.594 12.9458 30.4586 13.0082 30.3095C13.0706 30.1604 13.1029 30.0004 13.1034 29.8388C13.1027 29.6773 13.0702 29.5175 13.0077 29.3686C12.9452 29.2197 12.854 29.0845 12.7393 28.9709C12.6245 28.8572 12.4885 28.7673 12.339 28.7063C12.1894 28.6453 12.0293 28.6144 11.8679 28.6153C11.5418 28.6139 11.2286 28.742 10.9969 28.9714C10.7653 29.2008 10.6341 29.5128 10.6323 29.8388C10.633 30.0004 10.6655 30.1602 10.7279 30.3092C10.7904 30.4583 10.8816 30.5935 10.9963 30.7073C11.1111 30.8211 11.2471 30.9111 11.3966 30.9723C11.5461 31.0336 11.7063 31.0647 11.8679 31.064Z" fill="#464673"/>
<path d="M11.8679 30.4214C12.0221 30.4218 12.1703 30.3611 12.2798 30.2525C12.3893 30.144 12.4514 29.9964 12.4523 29.8422C12.4518 29.7659 12.4363 29.6904 12.4067 29.6201C12.3771 29.5498 12.334 29.486 12.2797 29.4324C12.2254 29.3788 12.1611 29.3363 12.0905 29.3076C12.0198 29.2788 11.9442 29.2642 11.8679 29.2647C11.7917 29.2642 11.7162 29.2788 11.6456 29.3076C11.5751 29.3364 11.5109 29.3788 11.4567 29.4325C11.4026 29.4861 11.3596 29.5499 11.3302 29.6202C11.3008 29.6905 11.2855 29.7659 11.2853 29.8422C11.2855 29.9184 11.3008 29.9939 11.3302 30.0643C11.3596 30.1347 11.4025 30.1986 11.4566 30.2524C11.5107 30.3062 11.5749 30.3488 11.6455 30.3778C11.716 30.4068 11.7916 30.4216 11.8679 30.4214Z" fill="#2D2F67"/>
<path d="M14.4863 27.8506H15.6859L16.8854 40.247H15.0655L14.4863 27.8506Z" fill="#02867D"/>
<path d="M34.7072 40.2387H38.5405L38.1978 34.498H35.0533L34.7072 40.2387Z" fill="#00ACA4"/>
<path d="M37.8414 37.1683C37.872 37.168 37.9022 37.1618 37.9304 37.1499C37.9586 37.1379 37.9842 37.1206 38.0057 37.0988C38.0271 37.077 38.0441 37.0512 38.0556 37.0228C38.0671 36.9944 38.0729 36.9641 38.0727 36.9335C38.0725 36.9029 38.0662 36.8726 38.0543 36.8444C38.0424 36.8163 38.025 36.7907 38.0032 36.7692C37.9814 36.7477 37.9556 36.7307 37.9273 36.7192C37.8989 36.7077 37.8685 36.7019 37.8379 36.7022C37.8074 36.7019 37.7771 36.7077 37.7489 36.7193C37.7206 36.7308 37.6949 36.7478 37.6732 36.7693C37.6516 36.7908 37.6344 36.8164 37.6227 36.8446C37.6109 36.8727 37.6049 36.903 37.6049 36.9335C37.6044 36.9646 37.6102 36.9955 37.622 37.0243C37.6337 37.0531 37.6511 37.0792 37.6732 37.1012C37.6953 37.1231 37.7216 37.1403 37.7504 37.1518C37.7793 37.1634 37.8103 37.169 37.8414 37.1683Z" fill="#464673"/>
<path d="M35.4218 37.1687C35.4523 37.169 35.4826 37.1631 35.5108 37.1516C35.5391 37.1401 35.5648 37.1231 35.5865 37.1016C35.6081 37.0801 35.6253 37.0545 35.6371 37.0263C35.6488 36.9981 35.6548 36.9679 35.6548 36.9374C35.6548 36.9069 35.6488 36.8767 35.6371 36.8485C35.6253 36.8203 35.6081 36.7947 35.5865 36.7732C35.5648 36.7517 35.5391 36.7347 35.5108 36.7232C35.4826 36.7116 35.4523 36.7058 35.4218 36.7061C35.3912 36.7058 35.3608 36.7116 35.3325 36.7231C35.3041 36.7346 35.2783 36.7516 35.2565 36.7731C35.2347 36.7946 35.2173 36.8202 35.2054 36.8483C35.1935 36.8765 35.1872 36.9068 35.187 36.9374C35.1872 36.968 35.1935 36.9983 35.2054 37.0265C35.2173 37.0546 35.2347 37.0802 35.2565 37.1017C35.2783 37.1232 35.3041 37.1402 35.3325 37.1517C35.3608 37.1632 35.3912 37.169 35.4218 37.1687Z" fill="#464673"/>
<path d="M36.6299 39.6374C36.95 39.6387 37.2577 39.5134 37.4857 39.2886C37.7137 39.0638 37.8434 38.758 37.8466 38.4378C37.8434 38.1177 37.7137 37.8118 37.4857 37.5871C37.2577 37.3623 36.95 37.2369 36.6299 37.2383C36.3097 37.2369 36.0021 37.3623 35.7741 37.5871C35.5461 37.8118 35.4164 38.1177 35.4132 38.4378C35.4164 38.758 35.5461 39.0638 35.7741 39.2886C36.0021 39.5134 36.3097 39.6387 36.6299 39.6374Z" fill="#464673"/>
<path d="M36.6297 39.0016C36.7817 39.0021 36.9276 38.9423 37.0356 38.8353C37.1435 38.7284 37.2046 38.583 37.2055 38.431C37.2046 38.279 37.1435 38.1337 37.0356 38.0267C36.9276 37.9197 36.7817 37.8599 36.6297 37.8604C36.5544 37.8599 36.4798 37.8743 36.4101 37.9028C36.3403 37.9312 36.2769 37.9732 36.2234 38.0262C36.1699 38.0792 36.1274 38.1422 36.0983 38.2117C36.0693 38.2812 36.0542 38.3557 36.054 38.431C36.0542 38.5063 36.0693 38.5808 36.0983 38.6503C36.1274 38.7198 36.1699 38.7828 36.2234 38.8358C36.2769 38.8888 36.3403 38.9308 36.4101 38.9592C36.4798 38.9877 36.5544 39.0021 36.6297 39.0016Z" fill="#2D2F67"/>
<path d="M36.6299 36.6666C36.7342 36.6673 36.8376 36.6474 36.9343 36.6081C37.0309 36.5687 37.1188 36.5107 37.193 36.4373C37.2672 36.3639 37.3261 36.2766 37.3665 36.1804C37.4069 36.0842 37.428 35.981 37.4284 35.8767C37.428 35.7722 37.4069 35.6689 37.3666 35.5726C37.3262 35.4764 37.2672 35.3889 37.1931 35.3154C37.1189 35.2419 37.031 35.1837 36.9344 35.1442C36.8378 35.1046 36.7343 35.0845 36.6299 35.085C36.5254 35.0845 36.4219 35.1046 36.3253 35.1442C36.2287 35.1837 36.1408 35.2419 36.0666 35.3154C35.9925 35.3889 35.9335 35.4764 35.8931 35.5726C35.8528 35.6689 35.8317 35.7722 35.8313 35.8767C35.8317 35.981 35.8528 36.0842 35.8932 36.1804C35.9336 36.2766 35.9925 36.3639 36.0667 36.4373C36.1409 36.5107 36.2288 36.5687 36.3254 36.6081C36.4221 36.6474 36.5255 36.6673 36.6299 36.6666Z" fill="#464673"/>
<path d="M36.6897 36.2481C36.7384 36.2406 36.7851 36.2235 36.8271 36.1979C36.8692 36.1723 36.9058 36.1386 36.9348 36.0988C36.9637 36.059 36.9846 36.0138 36.996 35.9659C37.0075 35.918 37.0094 35.8683 37.0016 35.8197C36.9848 35.7219 36.93 35.6346 36.849 35.5771C36.7681 35.5197 36.6677 35.4966 36.5698 35.513C36.5213 35.5205 36.4747 35.5375 36.4328 35.563C36.3909 35.5885 36.3544 35.6221 36.3254 35.6617C36.2964 35.7013 36.2756 35.7463 36.264 35.794C36.2524 35.8416 36.2503 35.8912 36.2579 35.9397C36.2747 36.0376 36.3295 36.125 36.4103 36.1827C36.4912 36.2405 36.5916 36.264 36.6897 36.2481Z" fill="#2D2F67"/>
<path d="M38.1943 34.498H38.5371L39.166 40.2387H38.5371L38.1943 34.498Z" fill="#02867D"/>
<path d="M49.3073 40.2384H42.8915L43.4707 27.8506H48.7281L49.3073 40.2384Z" fill="#00ACA4"/>
<path d="M44.2161 35.4917C44.3121 35.4917 44.4043 35.4537 44.4724 35.3859C44.5405 35.3182 44.5789 35.2262 44.5794 35.1301C44.5794 35.0825 44.57 35.0354 44.5517 34.9914C44.5334 34.9474 44.5066 34.9075 44.4729 34.8739C44.4391 34.8403 44.399 34.8137 44.355 34.7956C44.3109 34.7775 44.2637 34.7683 44.2161 34.7686C44.1683 34.7681 44.1209 34.7771 44.0767 34.7951C44.0324 34.8131 43.9921 34.8396 43.9582 34.8733C43.9243 34.9069 43.8973 34.9469 43.8789 34.991C43.8605 35.0351 43.8511 35.0824 43.8511 35.1301C43.8513 35.1779 43.8609 35.2251 43.8794 35.269C43.8979 35.313 43.9248 35.353 43.9587 35.3865C43.9926 35.4201 44.0328 35.4467 44.0769 35.4647C44.1211 35.4828 44.1684 35.4919 44.2161 35.4917Z" fill="#464673"/>
<path d="M47.9638 35.4917C48.0115 35.4919 48.0588 35.4828 48.1029 35.4647C48.1471 35.4467 48.1873 35.4201 48.2212 35.3865C48.255 35.353 48.282 35.313 48.3005 35.269C48.3189 35.2251 48.3285 35.1779 48.3288 35.1301C48.3288 35.0824 48.3193 35.0351 48.3009 34.991C48.2825 34.9469 48.2556 34.9069 48.2217 34.8733C48.1877 34.8396 48.1474 34.8131 48.1032 34.7951C48.0589 34.7771 48.0115 34.7681 47.9638 34.7686C47.9161 34.7683 47.8689 34.7775 47.8249 34.7956C47.7808 34.8137 47.7407 34.8403 47.707 34.8739C47.6732 34.9075 47.6464 34.9474 47.6282 34.9914C47.6099 35.0354 47.6005 35.0825 47.6005 35.1301C47.6009 35.2262 47.6394 35.3182 47.7075 35.3859C47.7756 35.4537 47.8677 35.4917 47.9638 35.4917Z" fill="#464673"/>
<path d="M46.0891 39.307C46.3356 39.3084 46.5799 39.2611 46.8081 39.1679C47.0363 39.0748 47.2438 38.9375 47.4189 38.764C47.594 38.5905 47.7332 38.3842 47.8284 38.1569C47.9237 37.9295 47.9732 37.6857 47.9741 37.4392C47.9732 37.1927 47.9237 36.9488 47.8284 36.7215C47.7332 36.4941 47.594 36.2878 47.4189 36.1143C47.2438 35.9408 47.0363 35.8036 46.8081 35.7104C46.5799 35.6172 46.3356 35.57 46.0891 35.5713C45.5921 35.5713 45.1152 35.7675 44.7622 36.1173C44.4092 36.4672 44.2086 36.9422 44.2041 37.4392C44.2086 37.9361 44.4092 38.4112 44.7622 38.761C45.1152 39.1108 45.5921 39.3071 46.0891 39.307Z" fill="#464673"/>
<path d="M46.0891 38.3209C46.3235 38.3232 46.5492 38.2325 46.7169 38.0687C46.8845 37.9049 46.9804 37.6814 46.9836 37.447C46.9822 37.2122 46.8879 36.9874 46.7212 36.822C46.5545 36.6566 46.3291 36.564 46.0942 36.5645C45.8591 36.5635 45.6332 36.656 45.4662 36.8214C45.2991 36.9869 45.2045 37.2119 45.2031 37.447C45.2063 37.6799 45.301 37.9021 45.4668 38.0657C45.6326 38.2293 45.8562 38.321 46.0891 38.3209Z" fill="#2D2F67"/>
<path d="M46.0873 34.7056C46.2489 34.7065 46.4091 34.6756 46.5587 34.6146C46.7083 34.5536 46.8445 34.4637 46.9593 34.3501C47.0742 34.2365 47.1656 34.1014 47.2283 33.9524C47.291 33.8035 47.3237 33.6437 47.3246 33.4821C47.3239 33.3204 47.2913 33.1604 47.2288 33.0112C47.1662 32.8621 47.0749 32.7268 46.96 32.613C46.845 32.4992 46.7088 32.4092 46.5591 32.348C46.4094 32.2869 46.249 32.256 46.0873 32.2569C45.9257 32.2562 45.7656 32.2873 45.6161 32.3485C45.4665 32.4098 45.3305 32.4998 45.2158 32.6136C45.1011 32.7274 45.0099 32.8626 44.9474 33.0116C44.885 33.1607 44.8525 33.3205 44.8518 33.4821C44.8536 33.8081 44.9848 34.1201 45.2164 34.3495C45.4481 34.5789 45.7613 34.707 46.0873 34.7056Z" fill="#464673"/>
<path d="M46.0874 34.061C46.1637 34.0615 46.2393 34.0469 46.31 34.0181C46.3806 33.9893 46.4449 33.9469 46.4992 33.8933C46.5534 33.8397 46.5966 33.7759 46.6262 33.7056C46.6558 33.6352 46.6713 33.5598 46.6718 33.4835C46.6708 33.3293 46.6088 33.1817 46.4993 33.0731C46.3897 32.9646 46.2416 32.9038 46.0874 32.9043C46.0111 32.9041 45.9355 32.9189 45.865 32.9479C45.7944 32.9769 45.7302 33.0195 45.6761 33.0732C45.622 33.127 45.579 33.1909 45.5496 33.2613C45.5202 33.3317 45.505 33.4072 45.5048 33.4835C45.5057 33.6373 45.5675 33.7844 45.6767 33.8927C45.7859 34.0009 45.9336 34.0615 46.0874 34.061Z" fill="#2D2F67"/>
<path d="M44.5845 31.543C44.5921 31.496 44.5903 31.448 44.5792 31.4018C44.5681 31.3555 44.5479 31.312 44.5199 31.2736C44.4918 31.2352 44.4564 31.2027 44.4158 31.1781C44.3751 31.1534 44.33 31.1371 44.2829 31.13C44.188 31.1141 44.0906 31.1366 44.0121 31.1925C43.9337 31.2484 43.8808 31.3332 43.8648 31.4281C43.8573 31.4752 43.8591 31.5233 43.8701 31.5696C43.8812 31.616 43.9013 31.6597 43.9294 31.6982C43.9574 31.7367 43.9928 31.7694 44.0335 31.7942C44.0741 31.819 44.1193 31.8355 44.1664 31.8428C44.2616 31.8582 44.359 31.8353 44.4373 31.7791C44.5156 31.7229 44.5686 31.638 44.5845 31.543Z" fill="#464673"/>
<path d="M47.9638 31.8474C48.0115 31.8479 48.0589 31.8389 48.1032 31.8209C48.1474 31.8029 48.1877 31.7764 48.2217 31.7427C48.2556 31.7091 48.2825 31.6691 48.3009 31.625C48.3193 31.5809 48.3288 31.5336 48.3288 31.4859C48.3285 31.4382 48.3189 31.3911 48.3004 31.3472C48.2819 31.3033 48.255 31.2635 48.221 31.2301C48.1871 31.1966 48.1469 31.1702 48.1028 31.1524C48.0586 31.1345 48.0114 31.1255 47.9638 31.126C47.9163 31.1258 47.8692 31.1349 47.8253 31.1529C47.7813 31.1708 47.7413 31.1973 47.7076 31.2307C47.6739 31.2641 47.647 31.3038 47.6286 31.3476C47.6103 31.3914 47.6007 31.4384 47.6005 31.4859C47.6005 31.5335 47.6099 31.5806 47.6282 31.6246C47.6464 31.6686 47.6732 31.7085 47.707 31.7421C47.7407 31.7757 47.7808 31.8023 47.8249 31.8204C47.8689 31.8385 47.9161 31.8477 47.9638 31.8474Z" fill="#464673"/>
<path d="M46.0873 31.064C46.249 31.0649 46.4094 31.0339 46.5591 30.9728C46.7088 30.9117 46.845 30.8217 46.96 30.7079C47.0749 30.5941 47.1662 30.4588 47.2288 30.3096C47.2913 30.1605 47.3239 30.0005 47.3246 29.8388C47.3237 29.6772 47.291 29.5174 47.2283 29.3685C47.1656 29.2195 47.0742 29.0844 46.9593 28.9708C46.8445 28.8572 46.7083 28.7673 46.5587 28.7063C46.4091 28.6453 46.2489 28.6144 46.0873 28.6153C45.7613 28.6139 45.4481 28.742 45.2164 28.9714C44.9848 29.2008 44.8536 29.5128 44.8518 29.8388C44.8525 30.0004 44.885 30.1602 44.9474 30.3092C45.0099 30.4583 45.1011 30.5935 45.2158 30.7073C45.3305 30.8211 45.4665 30.9111 45.6161 30.9723C45.7656 31.0336 45.9257 31.0647 46.0873 31.064Z" fill="#464673"/>
<path d="M46.0874 30.4214C46.2416 30.4218 46.3897 30.3611 46.4993 30.2525C46.6088 30.144 46.6708 29.9964 46.6718 29.8422C46.6713 29.7659 46.6558 29.6904 46.6262 29.6201C46.5966 29.5498 46.5534 29.486 46.4992 29.4324C46.4449 29.3788 46.3806 29.3363 46.31 29.3076C46.2393 29.2788 46.1637 29.2642 46.0874 29.2647C45.9336 29.2642 45.7859 29.3247 45.6767 29.433C45.5675 29.5412 45.5057 29.6884 45.5048 29.8422C45.505 29.9184 45.5202 29.9939 45.5496 30.0643C45.579 30.1347 45.622 30.1986 45.6761 30.2524C45.7302 30.3062 45.7944 30.3488 45.865 30.3778C45.9355 30.4068 46.0111 30.4216 46.0874 30.4214Z" fill="#2D2F67"/>
<path d="M43.4706 27.8506H42.2711L41.0715 40.247H42.8863L43.4706 27.8506Z" fill="#02867D"/>
<path d="M38.7393 3.51786L38.2252 3.33108L38.3674 3.05347C38.394 3.00158 38.4387 2.96123 38.493 2.94007C38.5473 2.91891 38.6075 2.91841 38.6622 2.93865C38.7169 2.95851 38.7625 2.99772 38.7902 3.04886C38.818 3.10001 38.8261 3.15956 38.813 3.21626L38.7427 3.52129L38.7393 3.51786Z" fill="#1E194B"/>
<path d="M39.0889 4.43399C39.1832 4.1718 38.8867 3.82565 38.4257 3.65943C37.9648 3.4932 37.5107 3.5686 37.4147 3.83079C37.3187 4.09297 37.6169 4.43742 38.0779 4.60535C38.5388 4.77329 38.9929 4.69446 39.0889 4.43399Z" fill="#1E194B"/>
<path d="M38.9296 4.00982C38.968 3.87007 38.9493 3.72081 38.8776 3.59485C38.806 3.46888 38.6872 3.37653 38.5475 3.33808C38.4148 3.27898 38.2642 3.27422 38.1281 3.32484C37.9919 3.37545 37.8811 3.47741 37.8192 3.60884C37.7813 3.7488 37.8001 3.89807 37.8717 4.02419C37.9433 4.15031 38.0617 4.24307 38.2013 4.28229C38.3342 4.34128 38.485 4.34579 38.6211 4.29484C38.7573 4.24389 38.8681 4.14156 38.9296 4.00982Z" fill="#1E194B"/>
<path d="M38.9826 4.56598C39.0734 4.31922 38.7941 3.99363 38.3606 3.83598C37.927 3.67832 37.5037 3.75201 37.4095 3.99877C37.3152 4.24553 37.598 4.57284 38.0315 4.73049C38.4651 4.88814 38.8918 4.81275 38.9826 4.56598Z" fill="#C4C1D4"/>
<path d="M29.0248 3.40962H28.4764L28.5159 3.09773C28.5234 3.03989 28.5517 2.98675 28.5955 2.94827C28.6394 2.90979 28.6957 2.8886 28.754 2.88867C28.8122 2.88865 28.8683 2.90991 28.9119 2.94841C28.9554 2.98692 28.9834 3.04003 28.9905 3.09773L29.0248 3.40962Z" fill="#1E194B"/>
<path d="M28.7779 4.65262C29.2697 4.65262 29.669 4.42814 29.669 4.15053C29.669 3.87292 29.2697 3.64844 28.7779 3.64844C28.2861 3.64844 27.8885 3.87464 27.8885 4.15053C27.8885 4.42642 28.2878 4.65262 28.7779 4.65262Z" fill="#1E194B"/>
<path d="M28.7797 4.3097C28.924 4.32063 29.0668 4.27423 29.1772 4.18056C29.2875 4.0869 29.3565 3.95351 29.3692 3.80933C29.3569 3.66483 29.2881 3.53101 29.1777 3.43699C29.0673 3.34296 28.9243 3.29632 28.7797 3.30723C28.6349 3.2963 28.4916 3.34289 28.381 3.43688C28.2703 3.53086 28.2011 3.66469 28.1885 3.80933C28.2016 3.95366 28.2709 4.08705 28.3815 4.18067C28.4922 4.2743 28.6352 4.32065 28.7797 4.3097Z" fill="#1E194B"/>
<path d="M28.7797 4.78602C29.2407 4.78602 29.616 4.57353 29.616 4.31135C29.616 4.04916 29.2407 3.83496 28.7797 3.83496C28.3188 3.83496 27.9418 4.04916 27.9418 4.31135C27.9418 4.57353 28.3171 4.78602 28.7797 4.78602Z" fill="#C4C1D4"/>
<path d="M19.293 3.34665L18.7789 3.53343L18.7104 3.22841C18.6971 3.17192 18.705 3.11254 18.7324 3.06143C18.7599 3.01031 18.8051 2.97098 18.8595 2.9508C18.9141 2.93017 18.9744 2.93048 19.0289 2.95167C19.0833 2.97287 19.1279 3.01346 19.1542 3.06561L19.2964 3.34322L19.293 3.34665Z" fill="#1E194B"/>
<path d="M19.4901 4.59744C19.9528 4.42607 20.2493 4.08335 20.1533 3.82288C20.0573 3.56241 19.6067 3.48015 19.144 3.65151C18.6813 3.82288 18.3848 4.1656 18.4808 4.42436C18.5768 4.68312 19.0292 4.76366 19.4901 4.59744Z" fill="#1E194B"/>
<path d="M19.3719 4.27643C19.5115 4.23721 19.63 4.14445 19.7016 4.01833C19.7731 3.89221 19.792 3.74294 19.754 3.60298C19.6922 3.47155 19.5813 3.36959 19.4452 3.31898C19.309 3.26836 19.1584 3.27312 19.0258 3.33223C18.8863 3.37107 18.7678 3.46349 18.6962 3.58933C18.6246 3.71518 18.6057 3.86423 18.6436 4.00396C18.7055 4.13539 18.8163 4.23744 18.9523 4.28834C19.0884 4.33925 19.239 4.33497 19.3719 4.27643Z" fill="#1E194B"/>
<path d="M19.5382 4.71704C19.9717 4.55938 20.251 4.23208 20.1602 3.98532C20.0694 3.73856 19.6461 3.66658 19.2091 3.82252C18.7722 3.97846 18.498 4.30577 18.5871 4.55253C18.6762 4.79929 19.1046 4.87812 19.5382 4.71704Z" fill="#C4C1D4"/>
<path d="M8.54518 3.36751L8.08422 3.66568L7.95055 3.38293C7.92501 3.33107 7.91982 3.27152 7.936 3.21602C7.95218 3.16051 7.98854 3.11307 8.03795 3.08305C8.08745 3.05121 8.14692 3.03868 8.20506 3.04785C8.2632 3.05701 8.31595 3.08723 8.35326 3.13274L8.55718 3.37265L8.54518 3.36751Z" fill="#1E194B"/>
<path d="M9.01646 4.54626C9.43116 4.28236 9.64364 3.87966 9.49285 3.64661C9.34205 3.41355 8.88451 3.43754 8.46467 3.69973C8.04483 3.96191 7.83749 4.36462 7.98829 4.59938C8.13908 4.83415 8.59834 4.81187 9.01646 4.54626Z" fill="#1E194B"/>
<path d="M8.83297 4.26162C8.96052 4.19329 9.05577 4.07718 9.09785 3.93873C9.13993 3.80028 9.1254 3.6508 9.05745 3.52304C8.96825 3.40814 8.83763 3.33269 8.69352 3.31283C8.54942 3.29298 8.40327 3.33029 8.28632 3.4168C8.15877 3.48513 8.06351 3.60124 8.02143 3.73969C7.97935 3.87814 7.99388 4.02762 8.06183 4.15537C8.15103 4.27028 8.28165 4.34573 8.42576 4.36559C8.56986 4.38544 8.71602 4.34812 8.83297 4.26162Z" fill="#1E194B"/>
<path d="M9.09186 4.66083C9.48085 4.41407 9.68134 4.03364 9.53911 3.81259C9.39688 3.59153 8.96505 3.61381 8.57434 3.86057C8.18363 4.10733 7.98657 4.48604 8.1288 4.7071C8.27103 4.92816 8.70286 4.9076 9.09186 4.66083Z" fill="#C4C1D4"/>
<path d="M48.6818 3.36751L49.1462 3.66568L49.2798 3.38293C49.3058 3.33114 49.3112 3.27146 49.295 3.21584C49.2788 3.16023 49.2422 3.11279 49.1924 3.08305C49.1429 3.05121 49.0835 3.03868 49.0253 3.04785C48.9672 3.05701 48.9145 3.08723 48.8771 3.13274L48.6749 3.37265L48.6818 3.36751Z" fill="#1E194B"/>
<path d="M49.2387 4.6029C49.3895 4.36985 49.1753 3.96715 48.7623 3.70325C48.3493 3.43935 47.8901 3.41707 47.7342 3.65013C47.5782 3.88318 47.7958 4.28588 48.2105 4.54978C48.6252 4.81368 49.0879 4.83596 49.2387 4.6029Z" fill="#1E194B"/>
<path d="M49.1735 4.15639C49.2415 4.02864 49.256 3.87915 49.2139 3.74071C49.1718 3.60226 49.0766 3.48615 48.949 3.41782C48.832 3.33106 48.6856 3.29376 48.5414 3.31396C48.3971 3.33415 48.2666 3.41022 48.1779 3.52577C48.144 3.58898 48.123 3.65826 48.1159 3.72963C48.1089 3.80099 48.116 3.87305 48.1368 3.94166C48.1577 4.01028 48.1919 4.0741 48.2375 4.12947C48.283 4.18485 48.3391 4.23068 48.4024 4.26435C48.5194 4.3511 48.6658 4.3884 48.8101 4.3682C48.9543 4.34801 49.0849 4.27194 49.1735 4.15639Z" fill="#1E194B"/>
<path d="M49.105 4.71763C49.2473 4.49657 49.0468 4.11614 48.6578 3.86938C48.2688 3.62262 47.8387 3.60206 47.6947 3.82312C47.5508 4.04417 47.7513 4.42289 48.1403 4.66965C48.5293 4.91641 48.9611 4.93183 49.105 4.71763Z" fill="#C4C1D4"/>
<g opacity="0.4">
<path d="M28.2108 4.5201L23.6782 22.7103C23.6573 22.7949 23.656 22.8831 23.6745 22.9683C23.6929 23.0535 23.7307 23.1333 23.7848 23.2016C23.8389 23.2699 23.9079 23.325 23.9865 23.3625C24.0652 23.4 24.1514 23.419 24.2386 23.418H34.0885C34.1775 23.4183 34.2653 23.3979 34.345 23.3584C34.4246 23.3188 34.494 23.2613 34.5476 23.1903C34.6011 23.1192 34.6374 23.0367 34.6535 22.9492C34.6696 22.8617 34.6651 22.7717 34.6403 22.6863L29.3229 4.49611C29.2864 4.37544 29.2114 4.27004 29.1093 4.196C29.0073 4.12196 28.8838 4.08335 28.7577 4.08607C28.6317 4.08879 28.51 4.13269 28.4112 4.21106C28.3125 4.28943 28.2421 4.39797 28.2108 4.5201Z" fill="#FBE496"/>
</g>
<g opacity="0.4">
<path d="M8.44223 4.69811L14.5239 22.4342C14.5523 22.5168 14.5991 22.5918 14.6609 22.6537C14.7226 22.7155 14.7975 22.7625 14.8801 22.791C14.9627 22.8196 15.0506 22.829 15.1374 22.8185C15.2241 22.8081 15.3073 22.778 15.3807 22.7306L23.6781 17.4663C23.753 17.4192 23.8159 17.3552 23.8617 17.2794C23.9075 17.2036 23.9349 17.1182 23.9417 17.0299C23.9485 16.9416 23.9346 16.853 23.901 16.7711C23.8675 16.6891 23.8152 16.6162 23.7483 16.5581L9.3693 4.08634C9.27483 4.00154 9.15492 3.95043 9.02832 3.94103C8.90172 3.93163 8.77558 3.96446 8.66962 4.03438C8.56366 4.1043 8.48388 4.20737 8.44273 4.32746C8.40159 4.44755 8.40141 4.5779 8.44223 4.69811Z" fill="#FBE496"/>
</g>
<g opacity="0.4">
<path d="M48.7897 4.69787L42.7081 22.4339C42.6794 22.5163 42.6324 22.5912 42.5706 22.6528C42.5089 22.7144 42.4339 22.7613 42.3515 22.7898C42.269 22.8183 42.1812 22.8278 42.0946 22.8175C42.0079 22.8072 41.9247 22.7774 41.8512 22.7304L33.5556 17.4661C33.4807 17.4188 33.418 17.3547 33.3724 17.2788C33.3268 17.203 33.2995 17.1175 33.2929 17.0292C33.2862 16.941 33.3003 16.8524 33.334 16.7705C33.3677 16.6887 33.4201 16.6159 33.487 16.5579L47.8644 4.0861C47.959 4.00216 48.0786 3.9518 48.2048 3.94285C48.3309 3.93389 48.4565 3.96685 48.562 4.0366C48.6675 4.10634 48.747 4.20897 48.7882 4.32855C48.8294 4.44812 48.8299 4.57795 48.7897 4.69787Z" fill="#FBE496"/>
</g>
<g opacity="0.4">
<path d="M18.88 4.62322L20.9021 23.2486C20.912 23.3353 20.9415 23.4185 20.9883 23.4921C21.0351 23.5657 21.098 23.6277 21.1723 23.6734C21.2465 23.7191 21.3302 23.7474 21.417 23.756C21.5038 23.7647 21.5914 23.7535 21.6732 23.7233L30.9268 20.3835C31.0105 20.3537 31.0861 20.3048 31.1475 20.2406C31.2089 20.1764 31.2544 20.0987 31.2804 20.0138C31.3064 19.9288 31.3121 19.839 31.2971 19.7514C31.2822 19.6638 31.2469 19.581 31.1941 19.5095L19.9133 4.22394C19.8386 4.1225 19.7326 4.04844 19.6117 4.01318C19.4908 3.97792 19.3616 3.98342 19.2441 4.02882C19.1266 4.07422 19.0273 4.15701 18.9615 4.26443C18.8957 4.37184 18.8671 4.49792 18.88 4.62322Z" fill="#FBE496"/>
</g>
<g opacity="0.4">
<path d="M38.6331 4.62316L36.611 23.2486C36.6008 23.3351 36.5711 23.4181 36.5242 23.4915C36.4773 23.5649 36.4144 23.6268 36.3402 23.6724C36.2661 23.7181 36.1825 23.7464 36.0959 23.7552C36.0092 23.764 35.9217 23.7531 35.8399 23.7233L26.5863 20.3834C26.5024 20.3539 26.4267 20.3051 26.3651 20.2409C26.3035 20.1768 26.2578 20.0992 26.2316 20.0142C26.2054 19.9292 26.1996 19.8393 26.2144 19.7516C26.2293 19.664 26.2645 19.581 26.3172 19.5094L37.5946 4.22388C37.6701 4.12494 37.7757 4.05322 37.8955 4.01951C38.0153 3.9858 38.1428 3.99193 38.2588 4.03698C38.3748 4.08203 38.4731 4.16356 38.5387 4.26928C38.6044 4.37501 38.6339 4.4992 38.6228 4.62316H38.6331Z" fill="#FBE496"/>
</g>
</svg>
