<svg width="46" height="48" viewBox="0 0 46 48" fill="none" xmlns="http://www.w3.org/2000/svg">
<path opacity="0.47" d="M22.496 46.2824C34.0647 46.2824 43.4434 36.9294 43.4434 25.3933C43.4434 13.8571 34.0647 4.50586 22.496 4.50586C10.9273 4.50586 1.54688 13.8588 1.54688 25.3933C1.54688 36.9277 10.9256 46.2824 22.496 46.2824Z" fill="#808081"/>
<path d="M22.496 47.2746C10.3995 47.2746 0.561523 37.4606 0.561523 25.395C0.561523 13.3293 10.4029 3.52051 22.496 3.52051C34.589 3.52051 44.4304 13.3345 44.4304 25.395C44.4304 37.4555 34.5908 47.2746 22.496 47.2746ZM22.496 5.49803C11.4893 5.49803 2.53562 14.4209 2.53562 25.395C2.53562 36.3691 11.4893 45.2971 22.496 45.2971C33.5026 45.2971 42.4546 36.3708 42.4546 25.395C42.4546 14.4192 33.5009 5.49118 22.496 5.49118V5.49803Z" fill="#F4F5F5"/>
<g opacity="0.5">
<path d="M43.4621 20.8543V19.8364L40.7443 19.9204V14.9714L38.8593 13.885L40.7443 12.7934V1.56055H14.5566V2.37795H12.6185V5.17801H14.5566V6.19419L17.2727 6.11537V8.93943L19.9409 10.4817L17.2727 12.0154V16.2669L18.899 17.2008L17.2727 18.1382V24.4786H43.4621V23.6544H45.4002V20.8509L43.4621 20.8543Z" fill="#808081"/>
</g>
<path d="M39.9972 11.9174V4.54883H16.5205V8.06348L19.1886 9.60574L16.5205 11.1394V15.4012L18.1467 16.3352L16.5205 17.2725V20.028H39.9972V14.0989L38.1122 13.0124L39.9972 11.9174Z" fill="white"/>
<path d="M13.8079 1.50684H11.8715V4.31205H13.8079V1.50684Z" fill="#FCB535"/>
<path d="M44.6532 19.9766H42.7151V22.7818H44.6532V19.9766Z" fill="#FCB535"/>
<path d="M36.7277 7.35938H19.7045V8.37556H36.7277V7.35938Z" fill="#1F5463"/>
<path d="M36.7277 10.2598H19.7045V11.2759H36.7277V10.2598Z" fill="#1F5463"/>
<path d="M36.7277 13.1611H19.7045V14.1773H36.7277V13.1611Z" fill="#1F5463"/>
<path d="M36.7277 16.0596H19.7045V17.0758H36.7277V16.0596Z" fill="#1F5463"/>
<path d="M39.9972 0.682617H13.8079V3.0063H39.9955L39.9972 0.682617Z" fill="#FBE496"/>
<path d="M39.9972 4.55398V3.01172H13.8079V5.33026L39.9972 4.55398Z" fill="#FCB535"/>
<path d="M16.5256 19.7348V21.277H42.7133V18.9551L16.5256 19.7348Z" fill="#FBE496"/>
<path d="M42.7133 21.2822H16.5256V23.6059H42.7133V21.2822Z" fill="#FCB535"/>
<g opacity="0.5">
<path d="M42.2268 26.8184C42.0633 26.743 41.8839 26.7083 41.7041 26.7173C41.6762 26.7147 41.6481 26.7147 41.6201 26.7173C38.5376 27.0441 35.4246 26.5165 32.6219 25.1922C29.82 23.8789 27.435 21.8177 25.7297 19.2356C25.7121 19.2128 25.6932 19.1911 25.6731 19.1705C25.5669 19.0243 25.4262 18.9065 25.2636 18.8278C25.243 18.8175 25.2156 18.8089 25.1933 18.8004V17.6282C25.191 17.3369 25.0738 17.0582 24.8672 16.8528C24.6605 16.6474 24.3811 16.532 24.0897 16.5315C23.9105 16.5352 23.7345 16.5803 23.5756 16.6635C23.55 16.6709 23.5253 16.6812 23.502 16.6943C20.8528 18.3011 17.8128 19.1483 14.7145 19.1431C11.6154 19.15 8.5743 18.3027 5.92526 16.6943C5.90016 16.6799 5.87377 16.6678 5.84644 16.6583C5.68894 16.5717 5.5121 16.5263 5.33235 16.5264C5.03905 16.5264 4.75774 16.6428 4.55018 16.85C4.34263 17.0572 4.2258 17.3384 4.22534 17.6317V26.025C4.22534 31.8017 10.1716 39.3708 14.7128 39.3708C16.3835 39.3708 18.1589 38.454 19.7628 37.0214C20.5494 40.0151 22.0437 42.5701 23.9732 43.4817C28.3172 45.5278 36.6986 41.1015 39.1697 35.8767L42.7203 28.383L42.7597 28.2939C42.8217 28.1629 42.8572 28.0211 42.8642 27.8764C42.8711 27.7317 42.8495 27.5871 42.8005 27.4508C42.7514 27.3145 42.676 27.1893 42.5784 27.0822C42.4808 26.9752 42.3631 26.8884 42.2319 26.827L42.2268 26.8184Z" fill="#808081"/>
</g>
<path d="M41.4795 25.9409C41.3186 25.8669 41.1424 25.8322 40.9654 25.8398C40.9375 25.8381 40.9094 25.8381 40.8815 25.8398C37.7989 26.1676 34.6856 25.6399 31.8832 24.3147C29.0809 23.0021 26.6957 20.9407 24.991 18.3581C24.9739 18.3324 24.9516 18.3153 24.9344 18.293C24.8283 18.1468 24.6876 18.029 24.5249 17.9503C24.3927 17.8874 24.2494 17.8513 24.1031 17.8441C23.9569 17.8369 23.8107 17.8589 23.673 17.9086C23.5353 17.9583 23.4088 18.0349 23.3009 18.1338C23.193 18.2327 23.1058 18.3521 23.0443 18.4849L23.0015 18.5723L22.7719 19.059C24.4645 22.4629 27.259 25.1939 30.7008 26.808L23.2208 42.6043C27.5632 44.6503 35.9445 40.224 38.4156 34.9992L41.9662 27.5055L42.0073 27.4181C42.0693 27.287 42.1048 27.145 42.1119 27.0002C42.1189 26.8554 42.0972 26.7107 42.0482 26.5743C41.9992 26.4378 41.9237 26.3124 41.8261 26.2052C41.7285 26.098 41.6108 26.0111 41.4795 25.9495V25.9409Z" fill="#00ACA4"/>
<path d="M22.7719 19.0513L19.4629 26.06C16.9884 31.2797 19.1201 40.6601 23.2328 42.5914L30.7128 26.7969C27.2721 25.1812 24.4781 22.4506 22.7839 19.0479L22.7719 19.0513Z" fill="#73C4B7"/>
<path d="M26.9514 34.7121C24.0554 33.3412 21.2433 34.6898 20.3848 36.4994C22.2139 36.0747 24.1328 36.28 25.8307 37.0821C27.5289 37.879 28.9081 39.2262 29.7446 40.9052C30.574 39.1521 29.6641 35.9871 26.9514 34.7121Z" fill="#1F5463"/>
<path d="M33.2901 32.5936C34.8204 33.3133 36.3009 32.6073 36.7533 31.6511C35.7886 31.8733 34.777 31.7628 33.883 31.3375C32.9898 30.917 32.2651 30.2068 31.8266 29.3223C31.388 30.2476 31.8712 31.9167 33.3004 32.5867L33.2901 32.5936Z" fill="#1F5463"/>
<path d="M24.5609 28.4839C26.086 29.202 27.5717 28.4959 28.0241 27.5415C27.06 27.764 26.0491 27.656 25.1538 27.2347C24.2587 26.8131 23.5314 26.1027 23.0889 25.2178C22.6485 26.1431 23.1334 27.8122 24.5609 28.4839Z" fill="#1F5463"/>
<path d="M23.3391 15.6548C23.1598 15.6585 22.9839 15.7036 22.825 15.7867C22.7994 15.7942 22.7746 15.8045 22.7513 15.8176C20.1027 17.4257 17.0624 18.2735 13.9638 18.2681C10.8668 18.274 7.82808 17.4261 5.18149 15.8176C5.15635 15.8037 5.12996 15.7922 5.10266 15.7833C4.94517 15.6967 4.76832 15.6513 4.58858 15.6514C4.29557 15.6514 4.01452 15.7675 3.80701 15.9744C3.59951 16.1813 3.48247 16.4619 3.48157 16.7549V17.3907C6.46902 19.7468 10.1642 21.0256 13.969 21.0202V38.4855C18.7671 38.4855 24.4564 30.9164 24.4564 25.1397V16.7549C24.4555 16.4619 24.3384 16.1813 24.1309 15.9744C23.9234 15.7675 23.6424 15.6514 23.3494 15.6514L23.3391 15.6548Z" fill="#FCB535"/>
<path d="M3.47131 17.3906V25.1448C3.47131 30.9214 9.41932 38.4888 13.9587 38.4888V21.0201C10.1541 21.0248 6.45916 19.746 3.47131 17.3906Z" fill="#FBE496"/>
<path d="M13.9587 34.6504C17.1632 34.6504 19.1322 32.2393 19.1322 30.2412C17.6593 31.4053 15.836 32.037 13.9587 32.0337C12.0814 32.0367 10.2583 31.405 8.78528 30.2412C8.78528 32.1828 10.9616 34.6504 13.9587 34.6504Z" fill="#1F5463"/>
<path d="M9.13313 22.8262C7.44521 22.8262 6.40332 24.096 6.40332 25.1533C7.18067 24.5398 8.14285 24.2076 9.13313 24.2108C10.123 24.21 11.0844 24.5419 11.8629 25.1533C11.8629 24.1405 10.7234 22.8262 9.13313 22.8262Z" fill="#1F5463"/>
<path d="M18.786 22.8262C17.098 22.8262 16.0562 24.096 16.0562 25.1533C16.8334 24.5395 17.7956 24.2073 18.786 24.2108C19.7758 24.2103 20.7371 24.5422 21.5158 25.1533C21.5192 24.1405 20.3676 22.8262 18.786 22.8262Z" fill="#1F5463"/>
</svg>
