<svg width="47" height="40" viewBox="0 0 47 40" fill="none" xmlns="http://www.w3.org/2000/svg">
<path d="M45.981 0.0458984H0.980957V39.0459H45.981V0.0458984Z" fill="#F7F7F7"/>
<path d="M32.981 0.0458984C31.1757 1.1912 29.1958 2.03171 27.1201 2.53404C24.8426 3.0829 22.2738 3.31812 20.6763 5.03787C18.2029 7.70199 19.1656 12.8177 16.0227 14.6367C13.3428 16.1875 9.25806 14.168 7.17665 16.4663C5.77516 18.0152 6.33887 20.5016 5.55834 22.4427C4.8125 24.2983 2.87678 25.1068 0.980957 25.0423V0.0458984H32.981Z" fill="url(#paint0_linear_514_5291)"/>
<path d="M46.981 14.0459V39.0459H15.981C18.248 37.2777 20.8857 36.0174 23.7072 35.3545C26.0128 34.8147 28.6135 34.5833 30.2307 32.8919C32.7347 30.2716 31.7602 25.24 34.942 23.4509C37.655 21.9257 41.7903 23.9102 43.8975 21.6515C45.3163 20.1279 44.7456 17.6807 45.5375 15.7716C45.829 15.0673 46.3322 14.4656 46.981 14.0459Z" fill="url(#paint1_linear_514_5291)"/>
<path d="M34.8811 0.0524691C24.9018 5.82143 13.0963 8.13066 0.991472 6.46242L0.980957 6.52653C3.49585 6.87193 6.03414 7.04551 8.57581 7.0459C10.2338 7.0459 11.8883 6.97193 13.5287 6.82237C17.6126 6.44952 21.6325 5.60889 25.4988 4.3192C28.8101 3.21027 31.9883 1.77799 34.981 0.0458984L34.8811 0.0524691Z" fill="#474747"/>
<path fill-rule="evenodd" clip-rule="evenodd" d="M28.9532 7.0459C27.9329 5.90645 26.9458 4.74216 25.981 3.53646C26.9874 3.09481 27.9772 2.59796 28.9504 2.0459C28.9907 3.72361 28.9907 5.37978 28.9532 7.0459Z" fill="#FFBB00"/>
<path d="M27.7999 4.46586C27.3904 4.5312 27.1864 4.56169 26.7784 4.61105C26.6606 4.69526 26.6016 4.73592 26.4824 4.81867L26.8459 5.19472L26.9709 5.10761C27.3833 5.05243 27.5902 5.02049 28.004 4.9537C28.3416 4.70397 28.5083 4.57621 28.8373 4.31922L28.981 4.29309C28.981 4.08256 28.981 3.97657 28.9709 3.7675L28.6261 3.83138C28.3014 4.08401 28.1333 4.21033 27.7999 4.46586ZM28.3215 3.15915C28.0025 3.41178 27.8416 3.53519 27.5154 3.78056C27.1131 3.84299 26.912 3.87203 26.5097 3.92575C26.2999 4.07094 26.1936 4.1508 25.981 4.29744C26.1246 4.44989 26.1936 4.52539 26.3387 4.67784C26.4824 4.57621 26.5571 4.52539 26.7008 4.42231C27.1074 4.36859 27.31 4.33955 27.718 4.27712C28.0485 4.03029 28.2123 3.90543 28.5356 3.64989L28.9666 3.57003C28.9666 3.36096 28.958 3.25497 28.9494 3.0459C28.6965 3.08074 28.5715 3.10397 28.3215 3.14898V3.15915ZM28.2568 6.59871C28.445 6.77875 28.5442 6.86731 28.7295 7.0459L28.8574 7.02412L28.9508 6.95588C28.9594 6.69309 28.9637 6.56242 28.9695 6.30107L28.6534 6.53193L28.2568 6.59871ZM27.6045 5.96568C27.7899 6.14717 27.8833 6.23864 28.07 6.41868C28.2712 6.38674 28.3718 6.37076 28.5729 6.33592C28.7338 6.21977 28.8143 6.16024 28.9738 6.04554C28.9738 5.78419 28.9738 5.65352 28.9738 5.39218C28.731 5.57657 28.6088 5.66804 28.3617 5.84808C28.0629 5.88583 27.9106 5.90906 27.6045 5.95552V5.96568ZM28.0844 5.15697C27.6692 5.22521 27.4608 5.2557 27.0471 5.31232L26.9925 5.35153L27.4235 5.7871C27.7698 5.73628 27.9436 5.71015 28.2856 5.65207C28.5657 5.4459 28.7037 5.34136 28.9781 5.13083C28.9781 4.88401 28.9781 4.75915 28.9781 4.51232L28.9235 4.52249C28.5887 4.76786 28.4249 4.90143 28.0844 5.14681V5.15697Z" fill="#FF5B07"/>
<path fill-rule="evenodd" clip-rule="evenodd" d="M4.55897 11.0459C3.9873 9.72229 3.46299 8.39451 2.98096 7.0459C4.30809 7.19312 5.64142 7.29312 6.98096 7.3459C6.2114 8.60423 5.40464 9.82923 4.55897 11.0459Z" fill="#00ADA6"/>
<path d="M3.44012 8.9556C4.1376 9.29005 4.49038 9.44222 5.20268 9.73486C5.29693 9.52081 5.33732 9.41379 5.43292 9.19807C4.55097 8.84021 4.11605 8.64456 3.25833 8.22483C3.32969 8.51747 3.36606 8.66296 3.44012 8.9556ZM4.5604 7.2683C3.92889 7.1964 3.61785 7.15125 2.98096 7.0459C2.99173 7.09105 2.99711 7.11446 3.00653 7.15961C3.9208 7.60777 4.8297 8.02249 5.76148 8.41379C5.85035 8.1964 5.89613 8.08938 5.98096 7.87199C5.40735 7.64456 5.12323 7.52248 4.5604 7.2683ZM3.91677 10.7449C4.19549 10.8686 4.33554 10.9288 4.61695 11.0459C4.71525 10.8335 4.76371 10.7265 4.85931 10.5141C4.39881 10.3235 4.17126 10.2248 3.71749 10.0125C3.79558 10.3084 3.83598 10.4539 3.91677 10.7449Z" fill="#01877D"/>
<path fill-rule="evenodd" clip-rule="evenodd" d="M34.981 0.0458984C35.9647 1.08756 36.9647 2.08757 37.981 3.0459C37.8713 2.04069 37.7526 1.04069 37.6249 0.0458984H34.981Z" fill="#FFBB00"/>
<path d="M37.945 0.0458984H36.5987C36.1044 0.227717 35.6352 0.37499 34.981 0.580444C35.2506 0.762263 35.3854 0.862262 35.6568 1.0459C36.5879 0.74408 37.0535 0.580444 37.981 0.227717C37.9666 0.160444 37.9558 0.100444 37.945 0.0458984Z" fill="#FF5B07"/>
<path d="M36.981 1.59102C37.1515 1.77518 37.2385 1.86542 37.4113 2.0459C37.6342 1.9133 37.7524 1.847 37.981 1.70704C37.9531 1.44369 37.9397 1.31109 37.9107 1.0459C37.5395 1.27978 37.3533 1.38291 36.981 1.59102Z" fill="#FF5B07"/>
<path fill-rule="evenodd" clip-rule="evenodd" d="M33.981 5.0459C32.6134 4.02423 31.2852 2.97257 29.981 1.87923C31.1741 1.3159 32.3422 0.704787 33.4852 0.0458984C33.6989 1.70923 33.863 3.3709 33.981 5.0459Z" fill="#00ADA6"/>
<path d="M29.981 2.45216C31.2629 2.81291 32.5337 3.13525 33.8342 3.43421C33.8082 3.17367 33.7933 3.0434 33.7636 2.78285C32.5727 2.52398 31.9875 2.38035 30.8393 2.06302C30.4974 2.22169 30.3265 2.30018 29.981 2.45216ZM32.517 4.71187C33.0985 4.85383 33.3902 4.92064 33.981 5.0459C33.9605 4.78369 33.9494 4.65175 33.9271 4.38953C32.7993 4.14736 32.255 4.01208 31.157 3.72147C31.6958 4.11897 31.967 4.31604 32.517 4.71187ZM32.9182 1.04924C32.5838 1.21626 32.4166 1.30644 32.0785 1.47346C32.699 1.62878 33.0074 1.70227 33.6465 1.83922C33.6112 1.58034 33.5945 1.45174 33.5574 1.19287C33.301 1.13442 33.1728 1.10435 32.9182 1.0459V1.04924Z" fill="#01877D"/>
<path fill-rule="evenodd" clip-rule="evenodd" d="M9.02177 11.0459C8.30238 9.73571 7.62551 8.42244 6.98096 7.07368C8.31429 7.11483 9.64762 7.10557 10.981 7.0459C10.3721 8.39929 9.71905 9.72645 9.02177 11.0459Z" fill="#FFBB00"/>
<path d="M8.89888 9.8939C9.41324 10.0388 9.67042 10.1066 10.1903 10.2271L10.2546 10.0388C9.67727 9.90331 9.38999 9.8299 8.81817 9.66237C8.8469 9.75272 8.86331 9.79978 8.89888 9.8939ZM8.64443 9.14096C9.34074 9.34425 9.69094 9.43649 10.3968 9.59837L10.5241 9.20496C9.70326 9.01672 9.29286 8.91131 8.48848 8.6666C8.54593 8.8586 8.57739 8.95272 8.64032 9.14284L8.64443 9.14096ZM9.24498 10.8784C9.51037 10.948 9.64307 10.9819 9.91119 11.0459L10.048 10.6544C9.65948 10.5621 9.46659 10.5132 9.08081 10.4078C9.13964 10.6035 9.17247 10.692 9.24087 10.8803L9.24498 10.8784ZM8.32022 8.14895C9.24772 8.43695 9.71557 8.56119 10.6609 8.7739L10.7224 8.57625C9.8934 8.38802 9.06166 8.17154 8.24497 7.9099L8.32022 8.14895ZM8.39136 7.06095C8.22446 7.06095 8.14101 7.06096 7.98096 7.0459C8.02336 7.18331 8.04387 7.25295 8.08765 7.39037C9.0001 7.69154 9.93307 7.94566 10.8606 8.14331C10.9098 7.98519 10.9331 7.90613 10.981 7.74801C10.1068 7.56731 9.23951 7.33578 8.38725 7.06284L8.39136 7.06095Z" fill="#FF5B07"/>
<path fill-rule="evenodd" clip-rule="evenodd" d="M24.4598 9.0459C23.2605 7.78757 22.1045 6.5059 20.981 5.18757C22.3299 4.85423 23.6663 4.47757 24.981 4.0459C24.8583 5.7209 24.6852 7.3809 24.4598 9.0459Z" fill="#00ADA6"/>
<path d="M23.658 8.87427C24.041 8.94653 24.2334 8.98086 24.6182 9.0459L24.6731 8.60868C24.0739 8.50751 23.7789 8.45331 23.1889 8.33768C23.3758 8.55268 23.4693 8.66108 23.658 8.87427ZM22.685 7.74509C23.4931 7.91492 23.9017 7.9926 24.7281 8.13172C24.7281 8.04499 24.7428 7.99983 24.7519 7.91311C23.8229 7.75773 23.363 7.66921 22.456 7.47408L22.685 7.74509ZM21.9631 6.87607C23.0808 7.13082 23.6489 7.23741 24.8014 7.43615C24.8197 7.25548 24.8289 7.17418 24.8454 7.00073C23.7313 6.82007 22.6136 6.59242 21.5178 6.32684C21.6937 6.54725 21.7835 6.65746 21.9631 6.87607ZM20.981 5.64933L21.0378 5.7216C22.3204 6.02512 23.592 6.2889 24.8857 6.52377L24.904 6.30697C23.6965 6.11004 22.4835 5.86071 21.2979 5.56442L20.981 5.64933ZM23.112 5.0459C22.7675 5.15069 22.5953 5.20308 22.2489 5.30244C23.3117 5.54093 23.8522 5.64752 24.948 5.83C24.9626 5.64933 24.9681 5.56984 24.981 5.39459C24.226 5.26993 23.8522 5.19947 23.112 5.0459Z" fill="#01877D"/>
<path fill-rule="evenodd" clip-rule="evenodd" d="M14.487 11.0459C13.6075 9.54019 12.7761 8.02063 11.981 6.46992C13.32 6.38569 14.6534 6.24435 15.981 6.0459C15.5283 7.7316 15.0326 9.38962 14.487 11.0459Z" fill="#00ADA6"/>
<path d="M14.1918 10.0266C14.1705 10.0368 14.1513 10.0515 14.1354 10.0699C14.1194 10.0883 14.107 10.1099 14.0988 10.1336C14.0907 10.1572 14.087 10.1824 14.088 10.2076C14.0889 10.2329 14.0945 10.2576 14.1044 10.2805C14.1308 10.3255 14.1716 10.3586 14.2189 10.3732C14.2663 10.3879 14.317 10.3832 14.3613 10.36C14.3826 10.3498 14.4018 10.3351 14.4178 10.3167C14.4338 10.2983 14.4462 10.2767 14.4543 10.253C14.4625 10.2294 14.4662 10.2042 14.4652 10.179C14.4642 10.1538 14.4586 10.129 14.4487 10.1062C14.4223 10.0611 14.3816 10.028 14.3342 10.0134C14.2869 9.99871 14.2362 10.0034 14.1918 10.0266ZM14.3316 9.29334C14.3103 9.30356 14.2911 9.31829 14.2752 9.33667C14.2592 9.35504 14.2468 9.37669 14.2386 9.40034C14.2305 9.424 14.2268 9.44918 14.2278 9.4744C14.2287 9.49962 14.2343 9.52438 14.2443 9.54722C14.2706 9.59231 14.3114 9.62532 14.3587 9.63999C14.4061 9.65466 14.4568 9.64997 14.5012 9.6268C14.5222 9.61623 14.541 9.60124 14.5566 9.58271C14.5722 9.56419 14.5842 9.54248 14.592 9.51886C14.5999 9.49525 14.6033 9.47019 14.6021 9.44513C14.6008 9.42008 14.5951 9.39553 14.585 9.37291C14.5596 9.32779 14.5195 9.29461 14.4726 9.27989C14.4257 9.26517 14.3754 9.26997 14.3316 9.29334ZM14.5186 8.562C14.4767 8.58336 14.4443 8.62191 14.4286 8.66917C14.4128 8.71642 14.4151 8.76852 14.4347 8.81399C14.4596 8.85934 14.4995 8.89265 14.5463 8.90709C14.5931 8.92153 14.6432 8.91602 14.6864 8.89168C14.7284 8.87031 14.7608 8.83177 14.7765 8.78451C14.7922 8.73726 14.79 8.68516 14.7703 8.63968C14.7455 8.59434 14.7055 8.56103 14.6587 8.54659C14.6119 8.53214 14.5618 8.53766 14.5186 8.562ZM14.9643 9.84279C14.9709 9.85312 14.9785 9.86264 14.987 9.87121C15.022 9.75564 15.0377 9.6988 15.0709 9.58133H15.0482C15.0263 9.59184 15.0066 9.60711 14.9904 9.62621C14.9742 9.6453 14.9618 9.6678 14.9539 9.69232C14.946 9.71684 14.9429 9.74284 14.9447 9.76873C14.9465 9.79461 14.9532 9.81982 14.9643 9.84279ZM13.8161 8.25886C13.7742 8.27989 13.7418 8.31796 13.7257 8.3648C13.7097 8.41164 13.7114 8.46345 13.7304 8.50895C13.7547 8.55445 13.7939 8.58833 13.8403 8.60379C13.8866 8.61925 13.9367 8.61515 13.9803 8.59232C14.0013 8.58191 14.0201 8.56713 14.0357 8.54882C14.0513 8.53051 14.0635 8.50902 14.0714 8.48561C14.0794 8.46219 14.083 8.43731 14.0821 8.41238C14.0812 8.38745 14.0757 8.36296 14.066 8.34033C14.0417 8.29482 14.0023 8.26105 13.9559 8.24591C13.9095 8.23077 13.8595 8.23541 13.8161 8.25886ZM14.1656 7.86098C14.2072 7.83928 14.2393 7.80058 14.2546 7.75336C14.27 7.70614 14.2675 7.65423 14.2477 7.60899C14.2241 7.56375 14.1854 7.53008 14.1395 7.51492C14.0937 7.49975 14.0442 7.50427 14.0013 7.52752C13.9597 7.54923 13.9277 7.58792 13.9123 7.63514C13.8969 7.68236 13.8994 7.73427 13.9192 7.77951C13.9428 7.82524 13.9818 7.85926 14.0281 7.87445C14.0744 7.88964 14.1243 7.88481 14.1673 7.86098H14.1656ZM14.2949 7.12775C14.3359 7.10537 14.3672 7.06639 14.3819 7.01923C14.3966 6.97208 14.3936 6.92054 14.3736 6.87576C14.3506 6.83079 14.3125 6.7972 14.2672 6.78201C14.2219 6.76683 14.173 6.77123 14.1306 6.79429C14.0893 6.81633 14.0577 6.85517 14.0426 6.90236C14.0276 6.94954 14.0303 7.00126 14.0502 7.04628C14.072 7.09352 14.1101 7.12956 14.1562 7.14658C14.2024 7.1636 14.2528 7.16024 14.2967 7.13722L14.2949 7.12775ZM14.6445 7.82688C14.6236 7.83762 14.605 7.85273 14.5896 7.87133C14.5741 7.88994 14.5622 7.91167 14.5546 7.93527C14.547 7.95887 14.5437 7.98388 14.545 8.00885C14.5464 8.03382 14.5522 8.05826 14.5623 8.08076C14.5874 8.12528 14.6271 8.15796 14.6733 8.17234C14.7196 8.18673 14.7692 8.18177 14.8123 8.15844C14.8329 8.14753 14.8514 8.13229 14.8667 8.11362C14.8819 8.09494 14.8936 8.07318 14.9011 8.0496C14.9085 8.02601 14.9117 8.00106 14.9102 7.97617C14.9088 7.95128 14.9028 7.92694 14.8926 7.90456C14.8679 7.86065 14.8289 7.82835 14.7833 7.81399C14.7377 7.79962 14.6888 7.80422 14.6462 7.82688H14.6445ZM15.4607 7.38163C15.4195 7.40435 15.3883 7.4438 15.3739 7.49138C15.3595 7.53895 15.363 7.59077 15.3837 7.63552C15.4026 7.67194 15.432 7.7006 15.4674 7.71704C15.5028 7.73349 15.5422 7.7368 15.5795 7.72646C15.6144 7.59573 15.6319 7.537 15.6651 7.40058C15.6364 7.37718 15.6021 7.36299 15.5663 7.35965C15.5304 7.3563 15.4944 7.36391 15.4624 7.38163H15.4607ZM15.3453 8.11676C15.3245 8.12784 15.306 8.14327 15.2908 8.16216C15.2756 8.18106 15.264 8.20304 15.2567 8.22683C15.2494 8.25063 15.2465 8.27576 15.2482 8.30077C15.2499 8.32578 15.2562 8.35017 15.2667 8.37254C15.2791 8.39584 15.296 8.41602 15.3162 8.4317C15.3363 8.44738 15.3594 8.45821 15.3837 8.46348C15.4222 8.31759 15.4432 8.2456 15.4816 8.1016C15.4365 8.0901 15.3891 8.09545 15.347 8.11676H15.3453ZM15.6214 6.64461C15.601 6.65602 15.5828 6.6717 15.5679 6.69074C15.5531 6.70978 15.5419 6.73182 15.5349 6.75558C15.5279 6.77935 15.5253 6.80437 15.5273 6.82922C15.5292 6.85407 15.5357 6.87826 15.5463 6.90039C15.568 6.94162 15.6033 6.97248 15.645 6.98687C15.6868 7.00125 15.732 6.99812 15.7718 6.97807L15.8451 6.69009C15.8178 6.65731 15.7813 6.63512 15.7412 6.62691C15.7012 6.6187 15.6597 6.62492 15.6232 6.64461H15.6214ZM13.5102 9.71016C13.5749 9.8371 13.6081 9.89963 13.6745 10.0266C13.7069 10.0026 13.7302 9.96684 13.7401 9.92576C13.7501 9.88468 13.746 9.84109 13.7287 9.803C13.7069 9.76394 13.6739 9.7337 13.6348 9.71693C13.5956 9.70016 13.5525 9.69778 13.512 9.71016H13.5102ZM15.1006 6.68819C15.1418 6.66548 15.173 6.62602 15.1874 6.57845C15.2018 6.53087 15.1983 6.47905 15.1775 6.43431C15.1537 6.38983 15.1149 6.3571 15.0693 6.34297C15.0237 6.32884 14.9748 6.33441 14.9328 6.35852C14.892 6.38157 14.8612 6.42116 14.8471 6.4687C14.833 6.51625 14.8368 6.56789 14.8577 6.6124C14.8686 6.63536 14.8838 6.65564 14.9022 6.67201C14.9207 6.68837 14.942 6.70048 14.9649 6.70758C14.9878 6.71468 15.0119 6.71662 15.0355 6.71328C15.0591 6.70995 15.0819 6.70141 15.1024 6.68819H15.1006ZM14.9853 7.42332C15.0268 7.40094 15.0583 7.36162 15.0731 7.31402C15.0878 7.26641 15.0845 7.21441 15.0639 7.16943C15.0395 7.12518 15.0003 7.0927 14.9546 7.07862C14.9088 7.06453 14.8597 7.06991 14.8175 7.09364C14.776 7.11602 14.7444 7.15534 14.7297 7.20294C14.7149 7.25055 14.7182 7.30255 14.7388 7.34753C14.7633 7.39227 14.8028 7.42509 14.849 7.4392C14.8952 7.45331 14.9446 7.44762 14.987 7.42332H14.9853ZM14.461 6.39641C14.4855 6.38265 14.5067 6.36277 14.5228 6.33839C14.5389 6.31402 14.5495 6.28586 14.5536 6.25621L14.2145 6.29789C14.2145 6.29789 14.2145 6.31115 14.2145 6.31684C14.225 6.34172 14.2403 6.36384 14.2594 6.3817C14.2785 6.39956 14.301 6.41272 14.3252 6.42028C14.3495 6.42785 14.3749 6.42963 14.3999 6.42551C14.4248 6.42139 14.4486 6.41146 14.4697 6.39641H14.461ZM15.6284 6.10653C15.631 6.12646 15.637 6.14572 15.6459 6.16337C15.6572 6.18574 15.6725 6.20543 15.6909 6.22124C15.7094 6.23706 15.7306 6.24867 15.7533 6.25539C15.7759 6.26212 15.7996 6.26381 15.8229 6.26037C15.8462 6.25692 15.8686 6.24842 15.8888 6.23536C15.9198 6.21735 15.945 6.18964 15.9612 6.15584C15.9775 6.12204 15.9839 6.08372 15.9797 6.0459L15.6284 6.10653ZM13.9297 9.07166C13.9048 9.02635 13.8651 8.99282 13.8185 8.97774C13.7719 8.96265 13.7217 8.96709 13.678 8.9902C13.6568 9.00025 13.6376 9.01478 13.6216 9.03294C13.6056 9.0511 13.5931 9.07252 13.5848 9.09597C13.5765 9.11942 13.5726 9.14442 13.5733 9.16952C13.574 9.19462 13.5793 9.21932 13.5889 9.24218C13.6141 9.28764 13.654 9.32122 13.701 9.3363C13.7479 9.35138 13.7983 9.34687 13.8423 9.32366C13.8633 9.31343 13.8823 9.29876 13.8981 9.28053C13.914 9.26229 13.9263 9.24084 13.9344 9.21741C13.9426 9.19398 13.9463 9.16904 13.9455 9.14402C13.9447 9.119 13.9393 9.09441 13.9297 9.07166ZM14.059 10.7409L14.2338 11.0459C14.2589 11.0198 14.2754 10.9854 14.2808 10.9481C14.2861 10.9108 14.2801 10.8726 14.2635 10.8394C14.243 10.8014 14.2122 10.7712 14.1753 10.7529C14.1384 10.7346 14.0971 10.7291 14.0572 10.7371L14.059 10.7409ZM14.7773 10.5779L14.8507 10.3316C14.8304 10.3419 14.8122 10.3565 14.7973 10.3747C14.7824 10.3928 14.7711 10.4141 14.764 10.4372C14.757 10.4602 14.7544 10.4846 14.7564 10.5088C14.7583 10.533 14.7649 10.5565 14.7755 10.5779H14.7773ZM12.0194 6.56883C12.0057 6.57674 11.9928 6.58627 11.981 6.59724L12.1295 6.91934C12.1425 6.91729 12.1554 6.91412 12.168 6.90986C12.189 6.8998 12.208 6.88534 12.2238 6.86732C12.2397 6.8493 12.2521 6.82808 12.2604 6.80485C12.2686 6.78162 12.2726 6.75685 12.272 6.73195C12.2715 6.70706 12.2664 6.68253 12.2571 6.65977C12.2474 6.63653 12.2334 6.61566 12.2161 6.59842C12.1987 6.58117 12.1783 6.56791 12.1561 6.55941C12.1339 6.55092 12.1104 6.54738 12.0869 6.54899C12.0634 6.55061 12.0404 6.55736 12.0194 6.56883ZM12.9876 6.50819C13.022 6.4896 13.0501 6.45978 13.068 6.42294L12.7692 6.44946C12.7934 6.48558 12.8286 6.51129 12.8685 6.52203C12.9085 6.53278 12.9507 6.52787 12.9876 6.50819ZM15.174 8.85378C15.1532 8.86452 15.1345 8.87963 15.1191 8.89824C15.1037 8.91684 15.0918 8.93857 15.0842 8.96217C15.0765 8.98577 15.0733 9.01078 15.0746 9.03575C15.0759 9.06072 15.0818 9.08516 15.0919 9.10766C15.1133 9.14504 15.1461 9.17318 15.1845 9.18724C15.2247 9.04704 15.2439 8.97693 15.2824 8.83483C15.2453 8.82982 15.2077 8.83639 15.174 8.85378ZM12.4878 7.62415L12.4721 7.63741L12.6328 7.96519H12.6433C12.6644 7.95512 12.6833 7.94067 12.6992 7.92265C12.715 7.90463 12.7274 7.88339 12.7357 7.86017C12.744 7.83694 12.748 7.81217 12.7474 7.78728C12.7469 7.76239 12.7418 7.73785 12.7325 7.71509C12.71 7.66901 12.6722 7.63394 12.6268 7.61704C12.5813 7.60014 12.5316 7.60269 12.4878 7.62415ZM13.664 6.82271C13.6856 6.81284 13.7051 6.79837 13.7215 6.78015C13.7378 6.76193 13.7506 6.74034 13.7591 6.71665C13.7676 6.69296 13.7716 6.66767 13.7708 6.64227C13.7701 6.61688 13.7647 6.5919 13.7549 6.56883C13.7445 6.54574 13.73 6.52518 13.7121 6.50838C13.6942 6.49158 13.6733 6.4789 13.6508 6.4711C13.6282 6.46331 13.6044 6.46056 13.5809 6.46303C13.5573 6.4655 13.5345 6.47313 13.5137 6.48546C13.4722 6.50683 13.4401 6.54505 13.4244 6.59186C13.4087 6.63866 13.4107 6.69028 13.4298 6.73556C13.4399 6.75798 13.4539 6.77803 13.4712 6.79455C13.4884 6.81107 13.5085 6.82375 13.5302 6.83185C13.552 6.83995 13.575 6.84331 13.598 6.84174C13.6209 6.84017 13.6434 6.8337 13.664 6.82271ZM13.4211 8.0315C13.3974 7.98628 13.3589 7.95238 13.3133 7.93658C13.2676 7.92077 13.2181 7.92422 13.1747 7.94624C13.1536 7.95647 13.1346 7.97113 13.1188 7.98937C13.1029 8.0076 13.0906 8.02905 13.0825 8.05248C13.0744 8.07591 13.0706 8.10086 13.0714 8.12587C13.0722 8.15089 13.0776 8.17548 13.0873 8.19823C13.1106 8.24379 13.1491 8.27797 13.1949 8.29381C13.2407 8.30966 13.2903 8.30596 13.3337 8.28349C13.3548 8.27326 13.3738 8.2586 13.3896 8.24036C13.4054 8.22213 13.4177 8.20068 13.4258 8.17725C13.434 8.15382 13.4377 8.12887 13.4369 8.10386C13.4361 8.07884 13.4307 8.05425 13.4211 8.0315ZM13.4753 7.55215C13.5171 7.53113 13.5495 7.49305 13.5656 7.44621C13.5816 7.39937 13.5799 7.34756 13.5609 7.30206C13.5379 7.25664 13.4997 7.2225 13.4542 7.20664C13.4087 7.19079 13.3593 7.19442 13.3162 7.2168C13.2744 7.23782 13.2419 7.2759 13.2259 7.32274C13.2099 7.36958 13.2115 7.42138 13.2306 7.46689C13.2533 7.51265 13.2914 7.5471 13.3371 7.563C13.3827 7.5789 13.4322 7.57501 13.4753 7.55215ZM12.9317 6.98376C12.9093 6.93861 12.872 6.90434 12.8273 6.88781C12.7825 6.87129 12.7337 6.87375 12.6905 6.89471C12.6695 6.90477 12.6506 6.91923 12.6347 6.93724C12.6189 6.95526 12.6064 6.9765 12.5981 6.99973C12.5899 7.02295 12.5859 7.04772 12.5864 7.07261C12.587 7.09751 12.5921 7.12204 12.6014 7.1448C12.6241 7.19008 12.6617 7.22441 12.7068 7.24092C12.7518 7.25743 12.8009 7.2549 12.8443 7.23385C12.8856 7.21317 12.9178 7.17588 12.9341 7.1299C12.9504 7.08392 12.9496 7.03286 12.9317 6.98754V6.98376ZM12.9824 8.6681C13.0471 8.80073 13.0803 8.85757 13.1467 8.99778C13.1848 8.97519 13.2138 8.93804 13.228 8.89356C13.2422 8.84908 13.2406 8.80045 13.2236 8.75715C13.1998 8.71362 13.1622 8.68096 13.1178 8.66527C13.0734 8.64959 13.0253 8.65194 12.9824 8.67189V8.6681Z" fill="#01877D"/>
<path fill-rule="evenodd" clip-rule="evenodd" d="M19.2188 11.0459C18.4408 9.39129 17.6984 7.71437 16.981 5.99487C17.9893 5.74343 18.9893 5.42711 19.981 5.0459C19.7624 7.06144 19.5097 9.05266 19.2188 11.0459Z" fill="#FFBB00"/>
<path d="M17.9734 7.96702L18.0332 8.08866C18.3361 7.86197 18.4863 7.7477 18.7826 7.5118C19.1253 7.57631 19.298 7.6058 19.6435 7.66108C19.6528 7.60211 19.6568 7.57446 19.6647 7.51549C19.302 7.4602 19.1213 7.42887 18.7613 7.36068C18.4504 7.60764 18.2923 7.72928 17.9734 7.96702ZM18.364 8.75397L18.4251 8.87561C18.6284 8.72264 18.7307 8.64524 18.9314 8.48674C19.1612 8.52913 19.2768 8.5494 19.5093 8.58626C19.5173 8.52728 19.5226 8.49964 19.5306 8.44067C19.2821 8.40196 19.1572 8.37985 18.9101 8.33561C18.6935 8.50517 18.5846 8.58994 18.364 8.75397ZM19.3658 5.58036C19.0204 5.51954 18.849 5.48821 18.5075 5.41818L18.4265 5.4403C18.1302 5.68173 17.9801 5.79967 17.6758 6.03373C17.3968 5.96738 17.2573 5.93237 16.981 5.85865L17.058 6.0282C17.3118 6.09455 17.4393 6.12588 17.6944 6.1867C18.0146 5.93974 18.174 5.81811 18.4916 5.56009C18.8503 5.63565 19.023 5.66883 19.3924 5.73149C19.6209 5.53613 19.7338 5.43845 19.9584 5.23941C19.9677 5.162 19.9717 5.1233 19.981 5.0459C19.7338 5.26153 19.6116 5.36842 19.3658 5.58036ZM18.9672 9.92611L19.0297 10.0459L19.1546 9.95006L19.2874 9.97402C19.2967 9.91504 19.302 9.88556 19.3113 9.82843L19.1293 9.79894L18.9672 9.92611ZM18.1701 8.36141L18.2312 8.48305C18.4849 8.29875 18.6098 8.19555 18.8596 8.00019C19.1466 8.0518 19.2914 8.0776 19.581 8.12367L19.601 7.97808C19.2954 7.93016 19.1426 7.90436 18.8383 7.84723C18.5713 8.05733 18.4371 8.15869 18.1674 8.36141H18.1701ZM18.6909 6.87229C18.368 7.13031 18.2059 7.25563 17.8764 7.50259L17.7356 7.47126C17.7688 7.53761 17.7848 7.57078 17.8167 7.63897L17.895 7.65556C18.2245 7.4086 18.388 7.28696 18.7121 7.02342C19.0802 7.09529 19.2648 7.12846 19.6422 7.18744L19.7272 7.11556L19.7538 6.92205L19.6209 7.03631C19.2396 6.98102 19.0549 6.94417 18.6882 6.87229H18.6909ZM18.6165 6.3839C18.2976 6.64008 18.1368 6.76724 17.8113 7.0142L17.4818 6.9368C17.5137 7.00314 17.5297 7.03632 17.5602 7.10451L17.8259 7.16532C18.1528 6.91836 18.3136 6.79673 18.6337 6.53687C18.9991 6.60874 19.1825 6.64192 19.5518 6.70089L19.8003 6.49079C19.8109 6.41339 19.8149 6.37468 19.8255 6.30649C19.7073 6.40786 19.6475 6.45946 19.5279 6.55898C19.1612 6.49079 18.9779 6.45762 18.6138 6.3839H18.6165ZM18.5421 5.89735C18.2272 6.15168 18.0678 6.27701 17.7449 6.52396C17.539 6.47605 17.4353 6.45025 17.2307 6.39864C17.2613 6.46499 17.2772 6.50001 17.3091 6.56636C17.4898 6.61243 17.5748 6.63454 17.7635 6.67509C18.0877 6.42997 18.2471 6.3065 18.5607 6.04848C18.9234 6.1222 19.1054 6.15537 19.4708 6.21619C19.6355 6.07612 19.7179 6.00609 19.88 5.86418C19.8893 5.78678 19.8946 5.74808 19.9039 5.67067C19.7219 5.83101 19.6382 5.90841 19.4469 6.06506C19.0828 6.00425 18.9008 5.96923 18.5394 5.89735H18.5421ZM18.7653 9.53723L18.8277 9.65703L19.0815 9.47273L19.3685 9.52065L19.391 9.37505C19.2582 9.35478 19.1931 9.34372 19.0616 9.31976L18.7653 9.53723ZM18.5647 9.14652L18.6271 9.26816L19.0071 8.97513C19.1811 9.00646 19.2728 9.0212 19.4415 9.04885C19.4495 8.98987 19.4548 8.96222 19.4641 8.90325C19.2728 8.87376 19.1771 8.85718 18.9871 8.824C18.8158 8.95301 18.7294 9.01936 18.562 9.14652H18.5647Z" fill="#FF5B07"/>
<path d="M46.981 21.0459C45.5329 21.4469 44.1075 21.9052 42.7046 22.4207C38.8054 23.8611 35.1038 25.7564 31.6822 28.0644C28.2648 30.377 25.1533 33.0837 22.4167 36.1244C21.5686 37.0661 20.7566 38.04 19.981 39.0459H20.0558C26.7286 30.361 36.1971 24.0535 46.981 21.1095V21.0459Z" fill="#474747"/>
<path fill-rule="evenodd" clip-rule="evenodd" d="M26.981 26.0459C28.3376 26.8511 29.6654 27.6925 30.981 28.5803C30.0248 29.358 29.0981 30.1799 28.2007 31.0459C27.7521 29.389 27.3475 27.7286 26.981 26.0459Z" fill="#FFBB00"/>
<path d="M28.9624 28.9012C29.3852 28.681 29.5981 28.5737 30.0241 28.3683C30.1258 28.2258 30.1855 28.1536 30.2823 28.0111C30.0806 27.876 29.9806 27.8076 29.7773 27.6743L29.6691 27.8224C29.2383 28.0333 29.0237 28.1425 28.5961 28.3664C28.3041 28.7883 28.1605 29.003 27.8797 29.4323L27.7377 29.51C27.8039 29.7691 27.8361 29.8968 27.8991 30.154L28.2524 29.956C28.5332 29.5304 28.6752 29.3194 28.9624 28.9012ZM28.7849 30.6888C29.0544 30.2705 29.1915 30.0614 29.4723 29.6488C29.8902 29.4341 30.1 29.3305 30.5179 29.1288C30.7018 28.8734 30.7938 28.7457 30.981 28.4904L30.4824 28.1462C30.3533 28.322 30.2904 28.409 30.1597 28.5848C29.7353 28.7902 29.5239 28.8956 29.1028 29.114C28.8172 29.5304 28.6768 29.7413 28.4025 30.1651L27.9652 30.4075C28.0346 30.6647 28.0685 30.7924 28.1379 31.0459C28.3993 30.9016 28.5267 30.8294 28.7849 30.6888ZM27.8394 26.4326C27.5828 26.2772 27.4537 26.1995 27.194 26.0459L27.0616 26.1162L26.981 26.2309C27.0487 26.5566 27.0842 26.7195 27.1552 27.0433C27.2633 26.886 27.3166 26.8064 27.4279 26.651L27.8394 26.4326ZM28.7317 26.9878C28.4767 26.8268 28.3492 26.7472 28.0862 26.5899C27.8765 26.6973 27.7732 26.7528 27.5651 26.8638L27.2198 27.3634C27.2924 27.6873 27.3279 27.8483 27.4037 28.1684C27.6119 27.8594 27.7167 27.7058 27.9313 27.3986C28.2557 27.2376 28.4138 27.1562 28.7317 26.9952V26.9878ZM28.4509 28.1462C28.8801 27.9204 29.0963 27.8113 29.5288 27.5911L29.5756 27.5263C29.34 27.3708 29.2206 27.2931 28.9834 27.1414C28.6236 27.3264 28.4428 27.4134 28.0846 27.604C27.8426 27.9519 27.7232 28.1277 27.4876 28.4811C27.5602 28.7846 27.5973 28.9364 27.6732 29.2398L27.7296 29.2084C28.0136 28.792 28.1572 28.5774 28.4509 28.1536V28.1462Z" fill="#FF5B07"/>
<path fill-rule="evenodd" clip-rule="evenodd" d="M19.981 33.0459C21.3292 33.5729 22.6578 34.1554 23.981 34.773C23.2374 35.8233 22.5277 36.9142 21.852 38.0459C21.1925 36.3983 20.5721 34.7378 19.981 33.0459Z" fill="#FFBB00"/>
<path d="M22.2801 33.6636C21.5892 34.2008 21.246 34.4765 20.5687 35.0566C20.6674 35.2894 20.7205 35.4147 20.8162 35.6368C21.6529 34.9206 22.0766 34.575 22.9422 33.9268C22.6734 33.8194 22.5428 33.7675 22.2801 33.6636ZM22.804 35.9107C23.2596 35.2822 23.5011 34.9725 23.981 34.3691L23.8807 34.3261C22.9696 35.019 22.0706 35.7299 21.1822 36.4747C21.2839 36.7039 21.334 36.8185 21.4388 37.0459C21.981 36.5786 22.2543 36.3494 22.804 35.9107ZM20.6552 33.0459C20.3834 33.2661 20.2482 33.3771 19.981 33.6045C20.0736 33.8427 20.1222 33.9626 20.2163 34.1954C20.6552 33.823 20.8754 33.6421 21.3188 33.2876C21.0546 33.1963 20.9286 33.148 20.6552 33.0531V33.0459Z" fill="#FF5B07"/>
<path fill-rule="evenodd" clip-rule="evenodd" d="M22.981 29.0459C24.6724 29.7186 26.333 30.4321 27.981 31.1954C26.9258 32.1041 25.9092 33.0543 24.9313 34.0459C24.2323 32.3952 23.5858 30.7339 22.981 29.0459Z" fill="#00ADA6"/>
<path d="M27.981 31.7707C26.5294 31.7248 25.1 31.7156 23.6484 31.7395C23.759 32.0092 23.8173 32.1431 23.9299 32.411C25.2568 32.3725 25.9122 32.3725 27.2109 32.411C27.5246 32.1505 27.6713 32.0312 27.981 31.7707ZM24.6134 30.0459C23.9641 30.0459 23.6364 30.0459 22.981 30.0734C23.0855 30.3468 23.1398 30.4826 23.2463 30.7542C24.5008 30.7156 25.1221 30.7138 26.3505 30.7395C25.6609 30.4551 25.3131 30.3156 24.6134 30.0459ZM25.3694 34.0294C25.6609 33.7597 25.8097 33.6257 26.1072 33.3597C25.4116 33.3597 25.0598 33.3597 24.3561 33.3835C24.4747 33.6496 24.533 33.7817 24.6557 34.0459C24.9411 34.0367 25.0839 34.0349 25.3694 34.0294Z" fill="#01877D"/>
<path fill-rule="evenodd" clip-rule="evenodd" d="M46.981 18.5106C46.5676 18.0188 46.1478 17.5306 45.7216 17.0459C45.4281 18.7084 45.1818 20.3691 44.981 22.0459C45.6424 21.8238 46.309 21.6153 46.981 21.4205V18.5106Z" fill="#FFBB00"/>
<path d="M46.981 19.0459C46.338 19.1169 45.8436 19.1878 45.0501 19.3169C45.0216 19.6104 45.0074 19.7556 44.981 20.0459C45.7948 19.9104 46.3462 19.8298 46.981 19.762V19.0459Z" fill="#FF5B07"/>
<path fill-rule="evenodd" clip-rule="evenodd" d="M30.981 23.0459C32.3418 23.9755 33.6702 24.9371 34.981 25.9425C33.9035 26.597 32.8492 27.2982 31.8181 28.0459C31.4933 26.3837 31.2153 24.7232 30.981 23.0459Z" fill="#00ADA6"/>
<path d="M31.8597 24.0459C31.5089 24.0708 31.3335 24.084 30.981 24.1162C31.0041 24.2627 31.0174 24.3272 31.0405 24.4692C31.5867 24.4209 31.8581 24.4004 32.3992 24.3667C32.1841 24.2363 32.0765 24.1733 31.8597 24.0459ZM32.9818 24.7212C32.2371 24.7607 31.863 24.7871 31.11 24.853C31.1216 24.9233 31.1282 24.9585 31.1415 25.0288C31.9888 24.9541 32.4092 24.9248 33.2466 24.8823L32.9818 24.7212ZM33.8225 25.2471C32.7865 25.2866 32.2652 25.3188 31.2143 25.4126C31.2408 25.5591 31.254 25.6235 31.2821 25.7627C32.2966 25.6689 33.3243 25.6074 34.3438 25.5825C34.1369 25.4478 34.0327 25.3804 33.8225 25.2471ZM34.981 25.9985L34.9131 25.9531C33.7215 25.9897 32.5515 26.0527 31.3649 26.145C31.3798 26.2139 31.3864 26.249 31.4013 26.3193C32.5002 26.2168 33.6173 26.1538 34.7228 26.1318L34.981 25.9985ZM33.273 26.9229C33.5461 26.7676 33.6835 26.6899 33.9615 26.5391C32.9785 26.5772 32.482 26.6094 31.4791 26.6987C31.5089 26.8379 31.5254 26.9082 31.5569 27.0459C32.242 26.9844 32.5862 26.9595 33.2681 26.9229H33.273Z" fill="#01877D"/>
<path fill-rule="evenodd" clip-rule="evenodd" d="M40.1172 18.0459C41.4474 19.4385 42.7335 20.8708 43.981 22.347C42.6317 22.8523 41.2984 23.4186 39.981 24.0459C39.9792 22.0406 40.0215 20.0492 40.1172 18.0459Z" fill="#00ADA6"/>
<path d="M40.8093 19.9551C40.8281 19.9402 40.8437 19.9219 40.8551 19.9012C40.8665 19.8805 40.8736 19.8578 40.8758 19.8345C40.8781 19.8112 40.8755 19.7877 40.8682 19.7653C40.8609 19.743 40.8491 19.7222 40.8335 19.7043C40.7946 19.6701 40.7438 19.6512 40.6911 19.6512C40.6383 19.6512 40.5875 19.6701 40.5487 19.7043C40.5296 19.7192 40.5137 19.7377 40.5022 19.7585C40.4906 19.7794 40.4834 19.8022 40.4812 19.8257C40.4789 19.8493 40.4816 19.873 40.489 19.8955C40.4965 19.918 40.5085 19.9389 40.5245 19.9569C40.5639 19.9901 40.6147 20.0082 40.6672 20.0079C40.7197 20.0076 40.7703 19.9888 40.8093 19.9551ZM40.8577 20.658C40.8766 20.6429 40.8923 20.6244 40.9037 20.6035C40.9151 20.5825 40.9221 20.5596 40.9242 20.5361C40.9262 20.5126 40.9234 20.4889 40.9158 20.4665C40.9082 20.444 40.8961 20.4232 40.88 20.4053C40.8413 20.3717 40.7908 20.3531 40.7385 20.3531C40.6862 20.3531 40.6358 20.3717 40.5971 20.4053C40.5782 20.4205 40.5627 20.4392 40.5515 20.4602C40.5402 20.4811 40.5334 20.5041 40.5315 20.5276C40.5296 20.5511 40.5326 20.5747 40.5404 20.5971C40.5481 20.6195 40.5604 20.6402 40.5766 20.658C40.615 20.6915 40.6651 20.7101 40.7171 20.7101C40.7691 20.7101 40.8193 20.6915 40.8577 20.658ZM40.8577 21.3697C40.8762 21.3546 40.8915 21.336 40.9026 21.3152C40.9137 21.2944 40.9204 21.2716 40.9223 21.2484C40.9242 21.2251 40.9212 21.2016 40.9137 21.1794C40.9061 21.1572 40.894 21.1366 40.8781 21.1189C40.8399 21.085 40.7897 21.0661 40.7376 21.0661C40.6855 21.0661 40.6353 21.085 40.5971 21.1189C40.5784 21.1342 40.563 21.1529 40.5519 21.174C40.5408 21.195 40.5342 21.218 40.5325 21.2415C40.5308 21.265 40.5339 21.2886 40.5418 21.3109C40.5497 21.3332 40.5622 21.3538 40.5785 21.3715C40.6166 21.4049 40.6664 21.4234 40.7181 21.4234C40.7697 21.4234 40.8196 21.4049 40.8577 21.3715V21.3697ZM40.0647 20.3288C40.0548 20.3219 40.0442 20.3159 40.0331 20.311C40.0331 20.4249 40.0331 20.489 40.0219 20.5957C40.0219 20.5957 40.0387 20.5957 40.0443 20.5815C40.0628 20.5663 40.0781 20.5478 40.0892 20.5269C40.1003 20.5061 40.107 20.4834 40.1089 20.4601C40.1108 20.4368 40.1078 20.4134 40.1003 20.3911C40.0927 20.3689 40.0806 20.3484 40.0647 20.3306V20.3288ZM41.6562 21.4551C41.6753 21.4402 41.6911 21.4217 41.7027 21.4009C41.7143 21.38 41.7214 21.3572 41.7236 21.3337C41.7259 21.3101 41.7232 21.2864 41.7158 21.2639C41.7084 21.2414 41.6963 21.2205 41.6804 21.2025C41.6425 21.1687 41.5926 21.1499 41.5408 21.1499C41.4889 21.1499 41.4391 21.1687 41.4012 21.2025C41.3826 21.2177 41.3673 21.2362 41.3562 21.257C41.3452 21.2779 41.3385 21.3006 41.3366 21.3239C41.3347 21.3472 41.3376 21.3706 41.3451 21.3928C41.3527 21.415 41.3648 21.4356 41.3807 21.4534C41.4177 21.487 41.4666 21.506 41.5177 21.5067C41.5688 21.5074 41.6182 21.4896 41.6562 21.4569V21.4551ZM41.4012 21.9089C41.3826 21.9241 41.3673 21.9426 41.3562 21.9634C41.3452 21.9843 41.3385 22.007 41.3366 22.0303C41.3347 22.0536 41.3376 22.077 41.3451 22.0992C41.3527 22.1214 41.3648 22.142 41.3807 22.1598C41.418 22.1933 41.4672 22.212 41.5184 22.212C41.5696 22.212 41.6189 22.1933 41.6562 22.1598C41.6934 22.1289 41.7163 22.0851 41.7198 22.038C41.7233 21.991 41.7071 21.9445 41.6748 21.9089C41.6376 21.8757 41.5885 21.8574 41.5376 21.8577C41.4867 21.8581 41.4379 21.877 41.4012 21.9107V21.9089ZM41.4589 22.6082C41.4227 22.6395 41.4009 22.6832 41.3981 22.7298C41.3953 22.7764 41.4118 22.8222 41.444 22.8573C41.4613 22.8748 41.4823 22.8887 41.5055 22.8982C41.5287 22.9078 41.5537 22.9127 41.5789 22.9127C41.6042 22.9127 41.6291 22.9078 41.6523 22.8982C41.6755 22.8887 41.6965 22.8748 41.7139 22.8573C41.7509 22.8261 41.7734 22.7822 41.7765 22.7352C41.7797 22.6881 41.7632 22.6418 41.7306 22.6064C41.6933 22.5725 41.6436 22.5539 41.5921 22.5546C41.5407 22.5553 41.4915 22.5751 41.4551 22.61L41.4589 22.6082ZM40.9191 22.0744C40.9561 22.0432 40.9786 21.9993 40.9817 21.9522C40.9849 21.9052 40.9684 21.8589 40.9358 21.8235C40.8984 21.7894 40.8488 21.7704 40.7972 21.7704C40.7455 21.7704 40.6959 21.7894 40.6585 21.8235C40.6218 21.8549 40.5996 21.899 40.5968 21.946C40.594 21.993 40.6108 22.0392 40.6436 22.0744C40.6814 22.1074 40.7309 22.1255 40.7821 22.1248C40.8333 22.1241 40.8823 22.1048 40.9191 22.0708V22.0744ZM40.1969 22.6989C40.2331 22.667 40.2546 22.6227 40.2567 22.5757C40.2588 22.5287 40.2413 22.4828 40.2081 22.448C40.1791 22.4202 40.1413 22.4023 40.1005 22.3971C40.0598 22.392 40.0184 22.3999 39.9828 22.4196C39.9828 22.5459 39.9828 22.61 39.9828 22.7363C40.0189 22.7493 40.0581 22.7523 40.096 22.7451C40.1338 22.7378 40.1688 22.7206 40.1969 22.6954V22.6989ZM40.1224 22.0014C40.1407 21.9857 40.1556 21.9667 40.1662 21.9455C40.1768 21.9242 40.1829 21.9012 40.1841 21.8777C40.1853 21.8542 40.1816 21.8307 40.1733 21.8086C40.1649 21.7864 40.1521 21.7661 40.1355 21.7487C40.1166 21.7312 40.0941 21.7177 40.0694 21.7092C40.0447 21.7006 40.0184 21.6971 39.9921 21.6989C39.9921 21.8413 39.9921 21.9107 39.9921 22.0548C40.0409 22.05 40.0867 22.03 40.1224 21.9979V22.0014ZM40.2229 23.4089C40.2591 23.377 40.2806 23.3327 40.2827 23.2856C40.2848 23.2386 40.2673 23.1927 40.2341 23.158C40.2011 23.126 40.1567 23.1071 40.1097 23.1051C40.0628 23.1031 40.0168 23.1182 39.981 23.1473C39.981 23.2594 39.981 23.3164 39.981 23.4285C40.0175 23.453 40.062 23.4641 40.1064 23.4599C40.1509 23.4556 40.1922 23.4363 40.2229 23.4053V23.4089ZM41.591 20.0637L41.3379 19.8199C41.3104 19.8503 41.2952 19.8892 41.2952 19.9294C41.2952 19.9695 41.3104 20.0084 41.3379 20.0388C41.3717 20.0685 41.4149 20.0867 41.4606 20.0906C41.5064 20.0945 41.5523 20.0837 41.591 20.0601V20.0637ZM40.746 23.2292C40.7098 23.2611 40.6883 23.3054 40.6862 23.3524C40.6841 23.3994 40.7016 23.4453 40.7348 23.4801C40.7522 23.4973 40.773 23.511 40.796 23.5203C40.819 23.5297 40.8438 23.5345 40.8688 23.5345C40.8938 23.5345 40.9186 23.5297 40.9416 23.5203C40.9647 23.511 40.9855 23.4973 41.0028 23.4801C41.0393 23.4484 41.0611 23.4042 41.0636 23.3572C41.066 23.3102 41.0489 23.2641 41.0159 23.2292C40.9987 23.2114 40.978 23.1972 40.9549 23.1874C40.9319 23.1776 40.907 23.1723 40.8817 23.172C40.8565 23.1717 40.8314 23.1763 40.8081 23.1855C40.7847 23.1947 40.7636 23.2083 40.746 23.2256V23.2292ZM40.6715 22.5317C40.6351 22.5633 40.6132 22.6075 40.6108 22.6545C40.6084 22.7016 40.6255 22.7476 40.6585 22.7826C40.6954 22.8155 40.7439 22.8337 40.7944 22.8337C40.8448 22.8337 40.8934 22.8155 40.9303 22.7826C40.967 22.7511 40.9892 22.7071 40.9919 22.6601C40.9947 22.613 40.9779 22.5669 40.9451 22.5317C40.9086 22.4978 40.8599 22.4785 40.8091 22.4779C40.7582 22.4772 40.709 22.4952 40.6715 22.5281V22.5317ZM41.4719 23.3235C41.4505 23.3426 41.4342 23.3662 41.4241 23.3925C41.4141 23.4188 41.4107 23.447 41.4142 23.4747L41.7492 23.3448C41.7492 23.3448 41.7492 23.3342 41.7492 23.3288C41.7324 23.3096 41.7116 23.294 41.6881 23.283C41.6645 23.272 41.6388 23.2659 41.6126 23.2651C41.5865 23.2642 41.5604 23.2687 41.5361 23.2781C41.5119 23.2876 41.49 23.3018 41.4719 23.3199V23.3235ZM40.3551 23.9C40.347 23.8832 40.3363 23.8676 40.3235 23.8537C40.3061 23.8362 40.2851 23.8223 40.2619 23.8128C40.2387 23.8033 40.2137 23.7983 40.1885 23.7983C40.1632 23.7983 40.1383 23.8033 40.1151 23.8128C40.0919 23.8223 40.0709 23.8362 40.0536 23.8537C40.0268 23.8778 40.0082 23.9089 39.9999 23.9431C39.9916 23.9773 39.9941 24.0131 40.007 24.0459L40.3551 23.9ZM41.336 20.7523C41.3741 20.7857 41.4239 20.8042 41.4756 20.8042C41.5273 20.8042 41.5771 20.7857 41.6152 20.7523C41.6345 20.7375 41.6504 20.7191 41.6622 20.6983C41.674 20.6775 41.6812 20.6547 41.6837 20.6312C41.6861 20.6077 41.6836 20.5839 41.6763 20.5613C41.6691 20.5387 41.6571 20.5178 41.6413 20.4996C41.6029 20.4661 41.5527 20.4475 41.5007 20.4475C41.4487 20.4475 41.3986 20.4661 41.3602 20.4996C41.3219 20.529 41.2972 20.5717 41.2916 20.6183C41.2861 20.665 41.3 20.7119 41.3304 20.7487L41.336 20.7523ZM40.7665 19.2772L40.517 19.0459C40.4978 19.0762 40.4897 19.1117 40.4941 19.1469C40.4985 19.182 40.5151 19.2148 40.5412 19.2398C40.5706 19.2649 40.607 19.2814 40.6459 19.2874C40.6848 19.2934 40.7247 19.2886 40.7609 19.2737L40.7665 19.2772ZM40.0722 19.6188C40.0722 19.7167 40.0722 19.7648 40.061 19.8626C40.0794 19.8473 40.0942 19.8285 40.1045 19.8074C40.1148 19.7863 40.1204 19.7634 40.121 19.7401C40.1215 19.7169 40.1169 19.6937 40.1076 19.6722C40.0982 19.6507 40.0843 19.6313 40.0666 19.6153L40.0722 19.6188ZM43.9493 22.5032C43.9614 22.492 43.972 22.4795 43.981 22.4658L43.7427 22.2167L43.7073 22.2345C43.6693 22.2641 43.645 22.3069 43.6398 22.3536C43.6345 22.4002 43.6488 22.447 43.6794 22.4836C43.7136 22.5172 43.7595 22.5374 43.8084 22.5403C43.8572 22.5433 43.9055 22.5288 43.9437 22.4996L43.9493 22.5032ZM42.9703 22.8199C42.9394 22.8459 42.9185 22.881 42.9107 22.9196L43.2104 22.8146C43.1762 22.7863 43.1324 22.7709 43.0872 22.7712C43.042 22.7715 42.9984 22.7876 42.9647 22.8164L42.9703 22.8199ZM40.1131 21.2879C40.1317 21.2724 40.1469 21.2536 40.1578 21.2325C40.1687 21.2114 40.1751 21.1884 40.1767 21.1649C40.1783 21.1414 40.1749 21.1178 40.1669 21.0956C40.1588 21.0733 40.1463 21.0528 40.1299 21.0352C40.0989 21.0073 40.0588 20.9903 40.0163 20.9872C40.0163 21.126 40.0163 21.1954 40.0163 21.343C40.0515 21.3312 40.0828 21.311 40.1075 21.2843L40.1131 21.2879ZM43.1918 21.674C43.1918 21.674 43.1918 21.6633 43.2048 21.6598L42.9554 21.4036H42.9442C42.9064 21.4334 42.8825 21.4763 42.8776 21.523C42.8727 21.5696 42.8873 21.6162 42.9181 21.6527C42.9524 21.6871 42.9989 21.708 43.0485 21.7113C43.0981 21.7146 43.1472 21.7 43.1862 21.6705L43.1918 21.674ZM42.1941 22.7167C42.1568 22.7476 42.134 22.7914 42.1305 22.8385C42.127 22.8855 42.1432 22.932 42.1755 22.9676C42.1921 22.9855 42.2123 23.0001 42.2349 23.0104C42.2575 23.0207 42.2821 23.0265 42.3071 23.0275C42.3321 23.0285 42.3571 23.0246 42.3806 23.0162C42.404 23.0077 42.4254 22.9948 42.4435 22.9783C42.4621 22.9631 42.4774 22.9446 42.4884 22.9237C42.4995 22.9029 42.5062 22.8802 42.5081 22.8569C42.51 22.8336 42.5071 22.8102 42.4995 22.7879C42.492 22.7657 42.4799 22.7451 42.464 22.7274C42.4294 22.6907 42.381 22.6685 42.3293 22.6659C42.2777 22.6632 42.227 22.6802 42.1885 22.7132L42.1941 22.7167ZM42.1271 21.5566C42.1629 21.5916 42.2114 21.6122 42.2626 21.6142C42.3138 21.6162 42.3639 21.5994 42.4026 21.5672C42.4214 21.5523 42.437 21.534 42.4484 21.5133C42.4598 21.4926 42.4669 21.4699 42.4691 21.4466C42.4713 21.4233 42.4688 21.3998 42.4615 21.3774C42.4542 21.3551 42.4424 21.3343 42.4267 21.3164C42.3907 21.2817 42.3423 21.2614 42.2912 21.2594C42.2401 21.2574 42.1902 21.274 42.1513 21.3057C42.1135 21.335 42.0892 21.3773 42.0836 21.4235C42.078 21.4698 42.0916 21.5163 42.1215 21.553L42.1271 21.5566ZM42.1959 22.0068C42.1774 22.0219 42.1621 22.0405 42.151 22.0613C42.1399 22.0821 42.1333 22.1048 42.1313 22.1281C42.1294 22.1514 42.1324 22.1749 42.1399 22.1971C42.1475 22.2193 42.1596 22.2399 42.1755 22.2576C42.2109 22.2922 42.2589 22.3123 42.3095 22.314C42.3601 22.3156 42.4094 22.2987 42.4472 22.2665C42.4845 22.2362 42.5077 22.193 42.5119 22.1464C42.5161 22.0997 42.5008 22.0534 42.4696 22.0174C42.4349 21.9827 42.3877 21.9618 42.3376 21.9592C42.2874 21.9565 42.2381 21.9723 42.1997 22.0032L42.1959 22.0068ZM42.9033 22.3715C42.9379 22.4063 42.9851 22.4271 43.0352 22.4298C43.0854 22.4324 43.1347 22.4167 43.1731 22.3858C43.1921 22.3709 43.2079 22.3527 43.2195 22.3321C43.231 22.3114 43.2383 22.2888 43.2407 22.2655C43.2431 22.2422 43.2407 22.2186 43.2336 22.1962C43.2264 22.1738 43.2148 22.153 43.1992 22.1349C43.1643 22.1 43.1167 22.0791 43.0663 22.0765C43.0158 22.0738 42.9662 22.0896 42.9275 22.1206C42.8896 22.1499 42.8653 22.1923 42.8598 22.2385C42.8542 22.2847 42.8678 22.3312 42.8977 22.368L42.9033 22.3715ZM42.4119 20.8591L42.155 20.6064C42.122 20.6373 42.1022 20.6788 42.0995 20.7229C42.0967 20.7669 42.1112 20.8104 42.1401 20.8448C42.176 20.8763 42.2224 20.8947 42.2712 20.8967C42.3199 20.8986 42.3677 20.884 42.4063 20.8555L42.4119 20.8591Z" fill="#01877D"/>
<path fill-rule="evenodd" clip-rule="evenodd" d="M21.5416 39.0459C21.6868 38.7927 21.8339 38.5348 21.981 38.2839C20.3203 37.8149 18.6596 37.3976 16.981 37.0459C17.2625 37.7165 17.5513 38.3824 17.8418 39.0459H21.5416Z" fill="#00ADA6"/>
<path d="M21.071 39.0459L21.3819 38.8155L21.981 38.1651L21.3459 38.0459C20.8877 38.3747 20.4327 38.708 19.981 39.0459H21.071Z" fill="#01877D"/>
<path d="M18.1725 39.0459C18.4622 38.6878 18.6476 38.4677 18.981 38.0838L18.8161 38.0459C18.4779 38.4374 18.3094 38.6392 17.981 39.0459H18.1725Z" fill="#01877D"/>
<path d="M18.6986 39.0459C19.0811 38.7674 19.4635 38.4975 19.981 38.1393L19.3713 38.0459C18.7976 38.4473 18.4174 38.7206 17.981 39.0459H18.6986Z" fill="#01877D"/>
<path fill-rule="evenodd" clip-rule="evenodd" d="M35.981 20.0459C37.0062 21.3034 38.0027 22.5948 38.981 23.9381C38.0618 24.5835 37.1605 25.2861 36.277 26.0459C36.1414 24.0459 36.0436 22.0539 35.981 20.0459Z" fill="#FFBB00"/>
<path d="M37.6292 22.6074L37.5485 22.5165C37.3022 22.8356 37.1791 22.996 36.9395 23.3222C36.5979 23.3828 36.4271 23.4167 36.0842 23.4898C36.0842 23.5468 36.0842 23.5753 36.0922 23.6324C36.4509 23.5557 36.631 23.5201 36.9885 23.4541C37.2413 23.1136 37.3697 22.9479 37.6292 22.6074ZM37.0997 22.0138L37.0176 21.9229C36.8508 22.1386 36.7687 22.2473 36.6058 22.4577C36.3755 22.5004 36.2616 22.5236 36.0313 22.5717L36.0379 22.7143C36.2855 22.6627 36.4086 22.6377 36.6548 22.5914C36.8362 22.3632 36.9249 22.2455 37.105 22.0138H37.0997ZM36.7435 25.3311C37.0864 25.2634 37.2572 25.2331 37.5975 25.176L37.6716 25.1261C37.9112 24.7946 38.033 24.6306 38.2793 24.3061C38.56 24.2669 38.7003 24.2509 38.981 24.2206L38.8751 24.0905C38.6182 24.119 38.4898 24.135 38.2329 24.1707C37.9682 24.5129 37.8437 24.6858 37.5908 25.0352C37.2321 25.094 37.052 25.1261 36.6919 25.1974C36.5092 25.4612 36.4271 25.5931 36.2418 25.8587C36.2418 25.9336 36.251 25.971 36.2577 26.0459C36.4549 25.7589 36.5529 25.6217 36.7488 25.3311H36.7435ZM36.2987 21.135L36.214 21.0459L36.1133 21.1796L35.981 21.2081C35.981 21.2652 35.981 21.2937 35.981 21.3507L36.161 21.3133L36.2987 21.135ZM37.3578 22.3097L37.2757 22.2188C37.0692 22.4862 36.9673 22.6217 36.7647 22.8926C36.4787 22.9461 36.3358 22.9746 36.0485 23.0352C36.0485 23.0922 36.0485 23.1208 36.0564 23.1778C36.3596 23.1136 36.5105 23.0833 36.8137 23.0281C37.0388 22.7375 37.1473 22.5914 37.3684 22.3097H37.3578ZM37.142 23.8837C37.4068 23.5272 37.5392 23.3489 37.804 23.0049L37.9443 22.9853L37.8358 22.8587L37.7563 22.8694C37.4915 23.2259 37.3592 23.3953 37.0944 23.75C36.7263 23.8142 36.5423 23.8498 36.1676 23.9283L36.1001 24.0245C36.1001 24.0994 36.1001 24.1386 36.112 24.2135L36.2193 24.0602C36.6019 23.9835 36.7859 23.9479 37.1526 23.8837H37.142ZM37.3062 24.3133C37.571 23.9568 37.6941 23.7785 37.9602 23.4381L38.2912 23.3935L38.184 23.2652L37.9192 23.3026C37.6544 23.6502 37.522 23.8249 37.2572 24.1778C36.8918 24.242 36.7091 24.2758 36.3437 24.3561L36.1451 24.6413L36.1584 24.8302C36.2524 24.693 36.3 24.6234 36.3953 24.488C36.7713 24.4095 36.9501 24.3739 37.3168 24.3133H37.3062ZM37.4704 24.7411C37.7246 24.3846 37.8543 24.217 38.1178 23.873C38.3243 23.8427 38.4289 23.8302 38.6354 23.8053L38.5282 23.6769C38.3455 23.6983 38.2541 23.7108 38.0701 23.7375C37.8053 24.0815 37.6729 24.2562 37.4214 24.6074C37.06 24.668 36.8786 24.7019 36.5158 24.775C36.3834 24.9639 36.3186 25.0584 36.1888 25.2491C36.1954 25.324 36.1981 25.3614 36.2034 25.4381C36.3477 25.2242 36.4205 25.119 36.5674 24.9033C36.9395 24.8338 37.1208 24.8017 37.4796 24.7411H37.4704ZM36.5608 21.4256L36.4787 21.3365C36.3953 21.4452 36.3543 21.4987 36.2722 21.6092C36.1584 21.6306 36.1014 21.6413 35.9876 21.6662C35.9876 21.7233 35.9876 21.7518 35.9876 21.8088L36.3159 21.7429L36.5608 21.4256ZM36.8256 21.7179L36.7435 21.6288L36.4337 22.037C36.2616 22.0691 36.1689 22.0869 36.0035 22.1225C36.0035 22.1796 36.0035 22.2081 36.0035 22.2652C36.1941 22.2259 36.2881 22.2063 36.4774 22.1707L36.8256 21.7179Z" fill="#FF5B07"/>
<path d="M32.1936 6.0459L32.1138 6.15909C32.3509 6.34293 32.5413 6.58223 32.6687 6.85678C32.7961 7.13133 32.8569 7.43309 32.8459 7.73661C32.8401 8.21058 32.7306 8.67724 32.5253 9.10254C32.32 9.52784 32.0241 9.90103 31.6593 10.1949C30.5022 11.0791 28.9842 11.2348 27.5166 11.3833L27.1557 11.4205C25.6586 11.5796 24.0036 11.898 22.9662 13.0457C22.7233 12.9945 22.4926 12.9591 22.2861 12.9343C20.548 12.7181 18.7852 12.8478 17.0956 13.3163C16.6202 13.446 16.156 13.6152 15.7077 13.8221C15.2743 13.5012 14.8092 13.2274 14.3199 13.0051C10.3298 11.1782 5.22083 12.1845 2.17624 15.3979C1.72858 15.8766 1.32822 16.3991 0.980957 16.9577V17.2177C1.3521 16.5992 1.78775 16.0235 2.28033 15.5005C5.28154 12.3277 10.3229 11.3356 14.2661 13.1395C14.7257 13.3468 15.1639 13.6004 15.5741 13.8964C14.6582 14.3492 13.7751 15.023 13.2911 16.0186C13.0976 16.4472 12.9994 16.9141 13.0036 17.3858C13.0078 17.8576 13.1143 18.3226 13.3154 18.7475C13.4516 19.0615 13.6579 19.3387 13.9179 19.557C14.1778 19.7753 14.4842 19.9287 14.8126 20.0049C15.4961 20.1482 16.1848 19.913 16.7521 19.3453C17.1005 18.9984 17.3627 18.5718 17.5169 18.1009C17.6711 17.6299 17.7128 17.1283 17.6386 16.6376C17.4529 15.626 16.818 14.6816 15.8396 13.9176C16.257 13.7293 16.6879 13.5738 17.1285 13.4525C18.8016 12.9874 20.5474 12.8583 22.2688 13.0723C22.4561 13.097 22.6574 13.1253 22.8621 13.166L22.8152 13.2226C22.1456 14.0697 21.9929 15.2246 22.444 16.0346C22.5842 16.274 22.7759 16.478 23.0045 16.6312C23.2332 16.7843 23.4929 16.8827 23.7642 16.9188C23.9834 16.9572 24.2084 16.9433 24.4214 16.8782C24.6345 16.8132 24.8299 16.6988 24.9924 16.5439C25.1298 16.4006 25.2376 16.2307 25.3094 16.0442C25.3812 15.8576 25.4156 15.6583 25.4105 15.458C25.4066 14.8983 25.1888 14.3622 24.8033 13.9636C24.3304 13.5204 23.7471 13.2182 23.1171 13.09C24.1285 12.0288 25.7193 11.7193 27.1696 11.5673L27.5287 11.5301C29.0137 11.378 30.5507 11.2224 31.7391 10.3134C32.1207 10.0068 32.4301 9.61704 32.6447 9.17271C32.8593 8.72837 32.9737 8.24071 32.9795 7.74546C32.9919 7.41867 32.927 7.09363 32.7902 6.79781C32.6534 6.50199 32.4488 6.24409 32.1936 6.0459ZM17.5067 16.6571C17.5775 17.1255 17.5374 17.6044 17.3898 18.0538C17.2423 18.5033 16.9915 18.9103 16.6584 19.2409C16.1241 19.7715 15.4787 19.9978 14.8403 19.8634C14.5325 19.7916 14.2454 19.6474 14.002 19.4422C13.7586 19.2371 13.5657 18.9768 13.4386 18.6821C13.2464 18.2762 13.1445 17.8321 13.1403 17.3814C13.1361 16.9308 13.2297 16.4847 13.4143 16.0752C13.8949 15.0831 14.7831 14.4181 15.7008 13.9778C16.6862 14.7329 17.3228 15.6632 17.5067 16.6606V16.6571ZM24.7096 14.0485C25.067 14.4223 25.2695 14.922 25.2752 15.4439C25.2812 15.626 25.2509 15.8075 25.1862 15.9775C25.1215 16.1474 25.0237 16.3022 24.8987 16.4325C24.7513 16.5726 24.574 16.6759 24.3807 16.7342C24.1874 16.7925 23.9835 16.8043 23.785 16.7685C23.5361 16.735 23.2979 16.645 23.0877 16.5051C22.8775 16.3652 22.7008 16.179 22.5706 15.9603C22.1456 15.1998 22.2931 14.1069 22.9297 13.3075C22.9592 13.2703 22.9905 13.2332 23.0217 13.1978C23.6523 13.3138 24.2377 13.6101 24.7096 14.052V14.0485Z" fill="#E98000"/>
<path d="M46.9619 29.0828C44.4874 30.4362 41.409 30.7543 38.7506 29.7155C39.0344 29.4882 39.2905 29.2299 39.5141 28.9458C40.3713 27.8462 40.5552 26.3963 39.9583 25.3373C39.7803 25.0334 39.5402 24.7684 39.2527 24.5589C38.9652 24.3493 38.6366 24.1997 38.2872 24.1192C37.9979 24.0422 37.6952 24.0256 37.3989 24.0705C37.1025 24.1154 36.8193 24.2208 36.5676 24.3798C35.5264 25.0751 35.3997 26.579 35.8908 27.5738C36.3316 28.467 37.2287 29.2182 38.4937 29.7511C37.812 30.233 37.0483 30.5938 36.2379 30.8169C33.5204 31.612 30.6416 31.3007 27.8565 30.9996C26.4145 30.8439 24.9256 30.6832 23.4489 30.9116C21.7934 31.1688 20.4503 31.9047 19.666 32.9857C18.7463 34.2545 18.7532 36.0021 19.6833 37.0459L19.7857 36.9596C18.8955 35.9564 18.8921 34.2782 19.7857 33.0567C20.5475 32.0062 21.8681 31.2889 23.4784 31.0368C24.9378 30.8118 26.4179 30.9708 27.8495 31.1265C30.6485 31.4276 33.543 31.7406 36.2847 30.9387C37.138 30.7062 37.9399 30.3219 38.6499 29.8052C39.7464 30.2417 40.9205 30.4631 42.1048 30.4565C43.81 30.4508 45.4864 30.0286 46.981 29.2283L46.9619 29.0828ZM38.6083 29.658C37.345 29.1353 36.4478 28.396 36.014 27.5163C35.5455 26.5706 35.6548 25.1478 36.6439 24.4897C36.9586 24.285 37.3294 24.1777 37.7077 24.1818C37.8919 24.1825 38.0754 24.2046 38.2543 24.2478C38.5856 24.3235 38.8973 24.4648 39.1702 24.663C39.4431 24.8612 39.6712 25.112 39.8403 25.3999C40.406 26.4149 40.2325 27.8072 39.4065 28.8646C39.1754 29.1585 38.9079 29.4233 38.61 29.6529L38.6083 29.658Z" fill="#E98000"/>
<path d="M44.981 13.0459C44.2972 13.2201 44.1552 13.3603 43.981 14.0459C43.8067 13.3603 43.6647 13.2201 42.981 13.0459C43.6647 12.8717 43.8067 12.7296 43.981 12.0459C44.159 12.7296 44.2972 12.8717 44.981 13.0459Z" fill="#FDB737"/>
<path d="M16.6677 24.0295C16.7933 23.4428 16.4196 22.8653 15.8329 22.7396C15.2462 22.6139 14.6687 22.9876 14.543 23.5744C14.4173 24.1611 14.7911 24.7386 15.3778 24.8643C15.9645 24.9899 16.542 24.6162 16.6677 24.0295Z" fill="#FDB737"/>
<path d="M22.6726 29.6748C23.1168 29.2714 23.1498 28.5843 22.7464 28.1401C22.3429 27.696 21.6558 27.663 21.2117 28.0664C20.7675 28.4698 20.7345 29.1569 21.138 29.6011C21.5414 30.0452 22.2285 30.0782 22.6726 29.6748Z" fill="#FDB737"/>
<path d="M13.71 29.3032C13.9489 29.0863 13.9667 28.7167 13.7497 28.4778C13.5327 28.2389 13.1631 28.2212 12.9242 28.4382C12.6854 28.6551 12.6676 29.0247 12.8846 29.2636C13.1016 29.5025 13.4712 29.5202 13.71 29.3032Z" fill="#FDB737"/>
<path d="M14.981 32.5459C14.6382 32.6336 14.5672 32.7047 14.4798 33.0459C14.3923 32.7047 14.3237 32.6336 13.981 32.5459C14.3237 32.4582 14.3923 32.3871 14.4798 32.0459C14.5672 32.3871 14.6334 32.4582 14.981 32.5459Z" fill="#FDB737"/>
<path d="M34.5961 30.7957C35.1805 30.5521 35.4569 29.8809 35.2134 29.2965C34.9699 28.712 34.2987 28.4357 33.7142 28.6792C33.1298 28.9227 32.8534 29.5939 33.0969 30.1783C33.3405 30.7628 34.0116 31.0392 34.5961 30.7957Z" fill="#FDB737"/>
<path d="M39.8231 7.09373C40.0221 6.25092 39.5001 5.40644 38.6573 5.20752C37.8145 5.0086 36.97 5.53056 36.7711 6.37337C36.5721 7.21618 37.0941 8.06067 37.9369 8.25959C38.7797 8.45851 39.6242 7.93653 39.8231 7.09373Z" fill="#FDB737"/>
<path d="M10.981 19.5453C10.6389 19.6329 10.5679 19.7039 10.4804 20.0459C10.3928 19.7039 10.323 19.6329 9.98096 19.5453C10.323 19.4589 10.3928 19.3879 10.4804 19.0459C10.5679 19.3879 10.6389 19.4554 10.981 19.5453Z" fill="#FDB737"/>
<path d="M10.8265 25.1309C10.9621 24.5464 10.5982 23.9626 10.0137 23.8271C9.4292 23.6915 8.84545 24.0554 8.70986 24.6399C8.57427 25.2244 8.93819 25.8082 9.52269 25.9437C10.1072 26.0793 10.691 25.7154 10.8265 25.1309Z" fill="#FDB737"/>
<path d="M6.98097 34.0459C8.08553 34.0459 8.98096 33.3743 8.98096 32.5459C8.98096 31.7175 8.08553 31.0459 6.98097 31.0459C5.87641 31.0459 4.98096 31.7175 4.98096 32.5459C4.98096 33.3743 5.87641 34.0459 6.98097 34.0459Z" fill="#FDB737"/>
<path d="M24.981 34.0459C25.5332 34.0459 25.981 33.822 25.981 33.5459C25.981 33.2698 25.5332 33.0459 24.981 33.0459C24.4287 33.0459 23.981 33.2698 23.981 33.5459C23.981 33.822 24.4287 34.0459 24.981 34.0459Z" fill="#FDB737"/>
<path style="mix-blend-mode:multiply" d="M38.5544 18.3745C41.0505 16.5723 41.6129 13.0879 39.8107 10.5918C38.0085 8.09574 34.5241 7.53325 32.0281 9.33545C29.532 11.1377 28.9695 14.6221 30.7717 17.1181C32.5739 19.6142 36.0584 20.1767 38.5544 18.3745Z" fill="url(#paint2_radial_514_5291)"/>
<path d="M40.1952 14.1952C39.6205 15.1707 38.7974 15.9746 37.8106 16.5239C37.5054 16.7033 37.1878 16.8606 36.8603 16.9945C35.7764 17.4407 34.7324 17.5732 34.1289 17.3431C34.2278 17.5453 34.4185 17.974 34.3214 18.0403C34.2572 18.0821 34.115 17.8799 33.8722 17.7788C33.6294 17.6777 33.3104 17.6847 33.3208 17.5923C33.3364 17.4477 33.7508 17.3222 33.9589 17.2699C32.7277 16.5727 31.375 13.2609 32.2716 10.6464C32.5218 9.88786 32.927 9.19026 33.4612 8.59836C34.826 7.11505 36.7753 6.78039 38.1939 7.23358C38.2927 7.26495 38.3916 7.30155 38.4852 7.34164C40.5767 8.29159 41.912 11.0891 40.1952 14.1952Z" fill="#FDB737"/>
<path d="M38.1615 7.33301C38.0556 7.2946 37.9438 7.25953 37.832 7.22946C37.2338 7.07116 36.6049 7.01442 35.981 7.06245C37.1144 8.59727 38.8145 11.7972 37.5497 16.0459C38.5978 15.5257 39.4714 14.785 40.0871 13.8948C42.0362 10.9254 40.5263 8.24488 38.1615 7.33301Z" fill="#F9D570"/>
<path d="M39.2572 9.0459C39.2572 9.0459 39.7362 12.1326 36.981 15.0459C37.6487 14.8082 38.2469 14.434 38.729 13.9524C39.2111 13.4708 39.564 12.8948 39.7603 12.2694C40.4647 10.0675 39.2572 9.0459 39.2572 9.0459Z" fill="white"/>
<path style="mix-blend-mode:multiply" d="M13.9702 32.2141C16.6218 31.6427 18.3081 29.0301 17.7368 26.3785C17.1654 23.727 14.5527 22.0406 11.9012 22.612C9.24961 23.1833 7.56327 25.796 8.13462 28.4476C8.70597 31.0991 11.3187 32.7854 13.9702 32.2141Z" fill="url(#paint3_radial_514_5291)"/>
<path d="M14.8201 23.8585C15.4495 24.5985 15.8338 25.4673 15.9333 26.3751C15.9724 26.6586 15.9874 26.9441 15.9784 27.2293C15.9502 28.1758 15.6644 28.9919 15.2376 29.3657C15.4519 29.3657 15.8976 29.3546 15.9145 29.4469C15.9145 29.5073 15.6945 29.5471 15.5121 29.695C15.3297 29.843 15.215 30.08 15.136 30.0418C15.0157 29.9845 15.0664 29.6377 15.1003 29.4659C14.0228 30.1531 10.623 30.0863 8.68616 28.5767C8.12503 28.1462 7.67665 27.6212 7.36986 27.0353C6.60077 25.5463 7.05773 23.9953 7.99606 23.0918C8.06187 23.0282 8.13144 22.9661 8.20102 22.9104C9.8257 21.6681 12.7742 21.5854 14.8201 23.8585Z" fill="#FF5B07"/>
<path d="M8.76932 22.8695C8.71333 22.9226 8.65735 22.9817 8.60439 23.0423C8.32673 23.3652 8.11493 23.7395 7.98096 24.144C9.21558 23.9653 10.4737 24.0419 11.6776 24.369C12.8815 24.6961 14.0058 25.2668 14.981 26.0459C14.8855 25.2254 14.5823 24.443 14.1003 23.7727C12.4539 21.6072 10.0813 21.686 8.76932 22.8695Z" fill="#FF7133"/>
<path d="M10.981 22.1511C10.981 22.1511 12.9092 22.9143 13.9791 26.0459C13.9946 25.4576 13.9136 24.8721 13.7424 24.3351C13.5711 23.7982 13.3142 23.3241 12.9917 22.9499C11.8646 21.6185 10.981 22.1511 10.981 22.1511Z" fill="white"/>
<path style="mix-blend-mode:multiply" d="M28.547 22.6021C29.783 19.7824 28.5315 16.5088 25.7517 15.2903C22.9718 14.0718 19.7164 15.3698 18.4804 18.1894C17.2444 21.0091 18.4959 24.2827 21.2757 25.5012C24.0556 26.7198 27.311 25.4218 28.547 22.6021Z" fill="url(#paint4_radial_514_5291)"/>
<path d="M26.9808 17.8516C26.9876 18.9353 26.7183 20.0012 26.2007 20.9387C26.046 21.2367 25.8706 21.5224 25.6758 21.7933C25.0416 22.6946 24.2773 23.3194 23.6985 23.4327C23.8714 23.5493 24.2218 23.8075 24.1742 23.9041C24.1441 23.9691 23.9364 23.8741 23.6985 23.9041C23.4607 23.9341 23.2149 24.1057 23.18 24.0241C23.1229 23.8991 23.3909 23.5909 23.5288 23.4443C22.2397 23.4843 19.6297 21.4451 19.108 18.8495C18.9482 18.1046 18.939 17.3327 19.0811 16.5838C19.4569 14.6929 20.8253 13.455 22.1541 13.1268C22.2461 13.1035 22.3412 13.0835 22.4332 13.0702C24.5183 12.8236 26.8746 14.4579 26.9808 17.8516Z" fill="#009E92"/>
<path d="M22.5731 13.0726C22.484 13.0863 22.3918 13.107 22.3026 13.1311C21.8261 13.2615 21.377 13.4953 20.981 13.8193C22.4702 14.6641 25.1304 16.7237 26.2938 21.0459C26.7518 20.1133 26.9883 19.0647 26.9808 18.0004C26.8778 14.4972 24.5941 12.8093 22.5731 13.0726Z" fill="#00ADA6"/>
<path d="M23.981 15.0459C23.981 15.0459 26.6625 16.9988 25.7803 20.0459C26.3239 19.6305 26.697 19.1468 26.8704 18.6325C27.0438 18.1182 27.0129 17.5873 26.7799 17.0812C25.9827 15.2988 23.981 15.0459 23.981 15.0459Z" fill="white"/>
<defs>
<linearGradient id="paint0_linear_514_5291" x1="17.5941" y1="13.0965" x2="5.5499" y2="2.37751" gradientUnits="userSpaceOnUse">
<stop stop-color="#02867D"/>
<stop offset="0.62" stop-color="#009E92"/>
</linearGradient>
<linearGradient id="paint1_linear_514_5291" x1="31.5319" y1="26.6007" x2="42.4659" y2="38.0902" gradientUnits="userSpaceOnUse">
<stop offset="0.09" stop-color="#02867D"/>
<stop offset="1" stop-color="#009E92"/>
</linearGradient>
<radialGradient id="paint2_radial_514_5291" cx="0" cy="0" r="1" gradientUnits="userSpaceOnUse" gradientTransform="translate(35.2912 13.0536) rotate(-28.4235) scale(5.70596 5.70596)">
<stop offset="0.31" stop-color="#FF7300"/>
<stop offset="0.38" stop-color="#FF8826"/>
<stop offset="0.51" stop-color="#FFAC67"/>
<stop offset="0.63" stop-color="#FFC99D"/>
<stop offset="0.75" stop-color="#FFE1C8"/>
<stop offset="0.85" stop-color="#FFF1E6"/>
<stop offset="0.94" stop-color="#FFFBF8"/>
<stop offset="1" stop-color="white"/>
</radialGradient>
<radialGradient id="paint3_radial_514_5291" cx="0" cy="0" r="1" gradientUnits="userSpaceOnUse" gradientTransform="translate(11.9021 26.9268) rotate(63.4349) scale(5.25237 5.25236)">
<stop offset="0.31" stop-color="#FF7300"/>
<stop offset="0.51" stop-color="#FFAC67"/>
<stop offset="0.63" stop-color="#FFC99D"/>
<stop offset="0.75" stop-color="#FFE1C8"/>
<stop offset="0.85" stop-color="#FFF1E6"/>
<stop offset="0.94" stop-color="#FFFBF8"/>
<stop offset="1" stop-color="white"/>
<stop offset="1" stop-color="#FF8826"/>
</radialGradient>
<radialGradient id="paint4_radial_514_5291" cx="0" cy="0" r="1" gradientUnits="userSpaceOnUse" gradientTransform="translate(23.5137 18.6325) rotate(-10.6986) scale(5.14026 7.31302)">
<stop stop-color="#00B1B1"/>
<stop offset="0.0910665" stop-color="#26BDBD"/>
<stop offset="0.51" stop-color="#67D1D1"/>
<stop offset="0.63" stop-color="#9DE1E1"/>
<stop offset="0.85" stop-color="#E6F7F7"/>
<stop offset="0.94" stop-color="#F8FDFD"/>
<stop offset="1" stop-color="white"/>
<stop offset="1" stop-color="#C8EEEE"/>
</radialGradient>
</defs>
</svg>
