<svg width="50" height="32" viewBox="0 0 50 32" fill="none" xmlns="http://www.w3.org/2000/svg">
<path d="M2.23641 5.80734C2.22251 5.84052 2.21789 5.87685 2.22302 5.91247C2.22815 5.94808 2.24283 5.98163 2.26553 6.00954L2.40606 6.18091C2.42865 6.20847 2.45818 6.22951 2.49161 6.24186C2.52504 6.25421 2.56116 6.25742 2.59624 6.25116C4.03912 8.6194 3.13775 11.3115 3.79578 12.1032C4.12137 12.4939 4.74 12.0432 4.87366 10.9671C4.9782 11.2824 5.09816 11.5103 5.26781 11.6131C5.98753 12.0552 6.25144 10.9139 5.62082 9.39396C6.24973 10.1462 6.87346 10.6415 7.30701 10.3827L7.36014 10.3399C7.70287 9.96974 7.34817 9.25687 6.74326 8.48574C8.09874 9.41795 9.26912 9.39739 8.98637 8.60055C8.91954 8.41376 8.72248 8.24925 8.4363 8.08646C9.51589 8.179 10.0865 7.66834 9.77123 7.26906C9.13376 6.46194 6.31313 6.78239 4.28762 4.88026C4.30118 4.8473 4.30563 4.8113 4.3005 4.77603C4.29538 4.74075 4.28088 4.7075 4.2585 4.67976L4.11797 4.5084C4.09558 4.48011 4.06579 4.45858 4.03191 4.44618C3.99803 4.43377 3.96138 4.431 3.92602 4.43815L3.633 4.07657C3.54284 3.96398 3.43122 3.87041 3.30462 3.80128C3.17803 3.73216 3.03896 3.68885 2.8955 3.67387C2.75204 3.65888 2.60704 3.67252 2.46889 3.714C2.33075 3.75547 2.20221 3.82396 2.09073 3.91549C1.97834 4.00579 1.88495 4.11746 1.81595 4.24405C1.74695 4.37065 1.70374 4.50965 1.68877 4.65305C1.67379 4.79644 1.68737 4.94139 1.72872 5.0795C1.77007 5.21762 1.83835 5.34618 1.92966 5.45775L2.23641 5.80734Z" fill="url(#paint0_linear_514_5293)"/>
<path d="M9.83981 22.6391C11.0849 23.1435 12.4674 23.1957 13.7469 22.7864C13.8299 22.8729 13.9386 22.9303 14.0569 22.9501C14.1751 22.9698 14.2966 22.9509 14.4032 22.8961L14.6414 22.7727L17.2324 27.8108L16.7698 29.0292C16.6419 29.0208 16.5147 29.0527 16.4059 29.1203C16.2971 29.1879 16.2122 29.2879 16.1631 29.4062L15.4777 31.0667H17.3935L17.7551 30.0094C17.7551 29.9991 17.7551 29.9888 17.7636 29.9802L17.7739 30.0351C17.7825 30.0745 17.7894 30.1156 17.7996 30.1533C17.8702 30.4698 17.9789 30.7765 18.1235 31.0667H44.4071C44.5392 30.5206 44.6269 29.9647 44.6693 29.4045C44.6779 29.2931 44.6847 29.1783 44.6899 29.0617C44.6899 28.9075 44.7002 28.7533 44.7002 28.5973C44.7041 26.2853 43.9458 24.0363 42.5427 22.1986C42.18 21.7259 41.7788 21.284 41.3432 20.8774C41.446 20.7952 41.5471 20.7095 41.6465 20.6204C42.6098 19.7672 43.3956 18.7326 43.9591 17.5757C44.5225 16.4188 44.8526 15.1622 44.9304 13.8778C45.0082 12.5933 44.8323 11.3061 44.4126 10.0896C43.9929 8.87312 43.3377 7.75124 42.4844 6.78799C40.821 4.91028 38.5009 3.74193 36.0018 3.52355C33.5028 3.30518 31.0152 4.05341 29.0513 5.61415L28.9673 5.256L27.0721 3.76686L27.4148 5.13776L25.7509 5.34169L28.0334 6.36986L28.2408 6.32188C27.3002 7.25182 26.5591 8.36376 26.0628 9.58977L24.7604 9.55207L25.78 10.3866C25.7594 10.4506 25.7406 10.514 25.7235 10.5768L24.6387 11.605L25.5247 11.4165C25.4698 11.6993 25.427 11.9837 25.3978 12.2733C24.9539 11.8932 24.4471 11.5934 23.9001 11.3874C23.1885 11.1154 22.4243 11.0089 21.6655 11.076C20.9066 11.1431 20.173 11.382 19.5201 11.7746C18.7023 12.2648 18.0007 12.9267 17.4637 13.7145C17.4146 13.6002 17.3615 13.4906 17.3044 13.3855C16.4476 11.725 15.1418 10.4723 13.6218 9.86738C11.9973 9.21791 10.2631 9.32587 8.60772 10.1775C6.95235 11.0292 5.85563 12.3778 5.43922 14.0778C5.05023 15.668 5.30555 17.457 6.16065 19.1175C7.01575 20.778 8.31982 22.0324 9.83981 22.6391ZM6.1881 17.1554L6.9061 16.787L7.26422 17.4827L6.42456 17.9146C6.33203 17.6666 6.25311 17.4137 6.1881 17.1572V17.1554ZM17.1382 17.4365L17.2118 17.2463L17.2735 17.3662L17.1382 17.4365ZM17.325 17.4673L17.3661 17.5461L17.253 17.5033L17.325 17.4673ZM17.4209 17.6712C17.3888 17.9078 17.3407 18.142 17.277 18.3721L17.2256 18.3978L16.852 18.2573L16.8383 18.2316C16.8383 18.2145 16.8383 18.1956 16.8383 18.1785C16.8383 18.1956 16.8383 18.211 16.8383 18.2282L17.0799 17.5941L17.1382 17.5633L17.4209 17.6712ZM16.9394 18.6737L17.0816 18.9496C17.045 19.0364 17.0074 19.1221 16.9685 19.2067L16.912 19.1844C16.8982 19.1038 16.8863 19.013 16.8777 18.9393C16.8691 18.8656 16.8623 18.7902 16.8554 18.7148L16.9394 18.6737ZM16.8486 18.5932C16.8486 18.5572 16.8486 18.5229 16.8486 18.4869L16.8914 18.5726L16.8486 18.5932ZM16.9171 18.3858L17.109 18.4578L16.9873 18.5212L16.9171 18.3858ZM16.8486 17.93C16.8486 17.8546 16.8485 17.7809 16.8623 17.7055L16.9496 17.661L16.8486 17.93ZM16.876 17.5719C16.876 17.5376 16.8846 17.5033 16.8897 17.469L16.9959 17.5102L16.876 17.5719ZM16.5332 15.4744L16.487 15.6029L16.1922 15.0271L16.8897 14.669C16.7582 14.9318 16.6404 15.2012 16.5367 15.4761L16.5332 15.4744ZM16.4356 15.7486L16.4202 15.7897L15.7535 16.1324L15.3954 15.4367L16.0911 15.0785L16.4356 15.7486ZM16.0226 17.9351C16.0226 17.9626 16.0226 17.9883 16.0226 18.014L15.7844 18.1356L15.4263 17.4399L16.1117 17.0886C16.0662 17.3689 16.0364 17.6515 16.0226 17.9351ZM16.0226 18.6103L15.829 18.2367L16.0123 18.1425C16.0123 18.3001 16.0157 18.4561 16.0226 18.6103ZM10.5973 15.8942L11.293 15.5361L11.6511 16.2318L10.9554 16.5899L10.5973 15.8942ZM10.8543 16.6414L10.1586 16.9995L9.80211 16.3038L10.4979 15.9456L10.8543 16.6414ZM11.7025 16.3329L12.0607 17.0286L11.365 17.3868L11.0068 16.691L11.7025 16.3329ZM12.1121 17.128L12.4702 17.8238L11.7745 18.1819L11.4164 17.4862L12.1121 17.128ZM12.2132 17.0766L12.9089 16.7185L13.2671 17.4142L12.5714 17.7723L12.2132 17.0766ZM13.0083 16.6671L13.704 16.3089L14.0622 17.0046L13.3665 17.3628L13.0083 16.6671ZM12.9569 16.5677L12.5988 15.8719L13.2945 15.5138L13.6526 16.2095L12.9569 16.5677ZM12.8575 16.6191L12.1618 16.9772L11.807 16.2763L12.5028 15.9182L12.8575 16.6191ZM11.7522 16.1804L11.3941 15.4847L12.0898 15.1265L12.4479 15.8222L11.7522 16.1804ZM11.3427 15.3853L10.9845 14.6878L11.6802 14.3314L12.0384 15.0271L11.3427 15.3853ZM11.2416 15.4367L10.5458 15.7948L10.1877 15.0974L10.8817 14.7341L11.2416 15.4367ZM10.4447 15.8462L9.74898 16.2044L9.39086 15.5086L10.0883 15.1505L10.4447 15.8462ZM9.64962 16.2558L8.95387 16.6139L8.59571 15.9182L9.29145 15.5601L9.64962 16.2558ZM9.70104 16.3552L10.0592 17.0509L9.36341 17.4091L9.00529 16.7133L9.70104 16.3552ZM10.1106 17.152L10.4687 17.8477L9.77299 18.2059L9.41483 17.5102L10.1106 17.152ZM10.2117 17.1006L10.9074 16.7425L11.2638 17.4382L10.5681 17.7963L10.2117 17.1006ZM11.317 17.5376L11.6751 18.2333L10.9777 18.5915L10.6212 17.8957L11.317 17.5376ZM11.7385 18.3327L12.0967 19.0284L11.3992 19.3866L11.0428 18.6909L11.7385 18.3327ZM11.8379 18.2813L12.5336 17.9231L12.8918 18.6189L12.196 18.977L11.8379 18.2813ZM12.6347 17.8717L13.3305 17.5136L13.6886 18.2093L12.9929 18.5675L12.6347 17.8717ZM13.4299 17.4622L14.1256 17.104L14.4838 17.7998L13.788 18.1579L13.4299 17.4622ZM14.2267 17.0526L14.9225 16.6945L15.2806 17.3902L14.5849 17.7484L14.2267 17.0526ZM14.1753 16.9515L13.8171 16.2558L14.5129 15.8976L14.871 16.5934L14.1753 16.9515ZM13.7658 16.1564L13.4076 15.4607L14.1033 15.1025L14.4615 15.7982L13.7658 16.1564ZM13.3562 15.3596L12.9981 14.6638L13.6938 14.3057L14.0519 15.0014L13.3562 15.3596ZM13.2551 15.411L12.5594 15.7691L12.2012 15.0734L12.8969 14.7152L13.2551 15.411ZM12.1498 14.974L11.7917 14.2765L12.4874 13.9201L12.8455 14.6158L12.1498 14.974ZM11.7402 14.1772L11.3821 13.4814L12.0778 13.1233L12.436 13.819L11.7402 14.1772ZM11.6408 14.2286L10.9451 14.5867L10.587 13.891L11.2827 13.5328L11.6408 14.2286ZM10.844 14.6381L10.1483 14.9963L9.79011 14.3005L10.4858 13.9424L10.844 14.6381ZM10.0471 15.0477L9.35145 15.4058L8.99328 14.7101L9.69074 14.3519L10.0471 15.0477ZM9.25204 15.4572L8.5563 15.8154L8.19818 15.1196L8.89388 14.7615L9.25204 15.4572ZM8.86476 16.6568L8.16902 17.0149L7.79718 16.3278L8.49292 15.9696L8.86476 16.6568ZM8.91618 16.7562L9.27434 17.4519L8.5786 17.81L8.22044 17.1143L8.91618 16.7562ZM9.32572 17.553L9.68388 18.2487L8.98814 18.6069L8.63002 17.9112L9.32572 17.553ZM9.7353 18.3481L10.0934 19.0439L9.39772 19.402L9.03956 18.7063L9.7353 18.3481ZM9.83638 18.2967L10.5321 17.9386L10.8903 18.6343L10.1945 18.9925L9.83638 18.2967ZM10.9417 18.7354L11.2998 19.4311L10.6041 19.7893L10.246 19.0936L10.9417 18.7354ZM11.3512 19.5322L11.7094 20.228L11.0137 20.5844L10.6555 19.8887L11.3512 19.5322ZM11.4524 19.4791L12.1481 19.1227L12.5062 19.8184L11.8088 20.1749L11.4524 19.4791ZM12.2475 19.0696L12.9432 18.7114L13.3014 19.4089L12.6056 19.7653L12.2475 19.0696ZM13.0443 18.66L13.74 18.3019L14.0982 18.9993L13.4024 19.3557L13.0443 18.66ZM13.8394 18.2504L14.5352 17.8923L14.8933 18.5897L14.1976 18.9462L13.8394 18.2504ZM14.6363 17.8409L15.332 17.4827L15.6902 18.1802L14.9944 18.5366L14.6363 17.8409ZM15.38 17.3268L15.0218 16.6311L15.7193 16.2729L16.0757 16.9687L15.38 17.3268ZM14.9704 16.53L14.6123 15.8342L15.308 15.4761L15.6661 16.1718L14.9704 16.53ZM14.5609 15.7348L14.2027 15.0391L14.8984 14.681L15.2566 15.3767L14.5609 15.7348ZM14.1513 14.938L13.7932 14.2423L14.4889 13.8841L14.847 14.5799L14.1513 14.938ZM13.7417 14.1412L13.3836 13.4454L14.0793 13.089L14.4375 13.7847L13.7417 14.1412ZM13.6424 14.1943L12.9381 14.5627L12.5799 13.867L13.2756 13.5106L13.6424 14.1943ZM12.5371 13.7556L12.1789 13.0599L12.8746 12.7017L13.2328 13.3975L12.5371 13.7556ZM12.1275 12.9588L11.7694 12.263L12.4651 11.9049L12.8233 12.6006L12.1275 12.9588ZM12.0264 13.0102L11.3307 13.3683L10.9725 12.6726L11.6683 12.3144L12.0264 13.0102ZM11.2313 13.4197L10.5356 13.7779L10.1774 13.0821L10.8731 12.724L11.2313 13.4197ZM10.4344 13.8293L9.73873 14.1874L9.38057 13.4917L10.0763 13.1336L10.4344 13.8293ZM9.63761 14.2388L8.94187 14.597L8.58375 13.9013L9.28116 13.5431L9.63761 14.2388ZM8.84251 14.6501L8.14676 15.0065L7.7886 14.3108L8.48434 13.9527L8.84251 14.6501ZM8.03707 15.0768L7.34137 15.435L6.9832 14.7392L7.67894 14.3794L8.03707 15.0768ZM8.08848 15.1762L8.44665 15.8719L7.7509 16.2301L7.39274 15.5343L8.08848 15.1762ZM8.05937 17.0783L7.36362 17.4365L7.00546 16.7407L7.7012 16.3826L8.05937 17.0783ZM8.1125 17.1777L8.4689 17.8735L7.7732 18.2316L7.41504 17.5359L8.1125 17.1777ZM8.52204 17.9746L8.87848 18.6703L8.18274 19.0284L7.82458 18.3327L8.52204 17.9746ZM8.93162 18.7714L9.28802 19.4671L8.59228 19.8236L8.23587 19.1278L8.93162 18.7714ZM9.34116 19.5665L9.6976 20.2623L9.00186 20.6204L8.64541 19.9247L9.34116 19.5665ZM9.44056 19.5151L10.1363 19.157L10.4944 19.8527L9.79868 20.2108L9.44056 19.5151ZM10.5458 19.9538L10.904 20.6495L10.2083 21.0077L9.8501 20.3119L10.5458 19.9538ZM10.9554 20.7489L11.3135 21.4447L10.6178 21.8028L10.2597 21.1071L10.9554 20.7489ZM11.0565 20.6975L11.7522 20.3394L12.1104 21.0351L11.4147 21.3932L11.0565 20.6975ZM11.8533 20.288L12.5491 19.9298L12.9072 20.6255L12.2098 20.9837L11.8533 20.288ZM12.6485 19.8784L13.3442 19.5202L13.7023 20.216L13.0066 20.5741L12.6485 19.8784ZM13.4453 19.4688L14.141 19.1107L14.4992 19.8064L13.8035 20.1646L13.4453 19.4688ZM14.2404 19.0593L14.9361 18.7011L15.2943 19.3969L14.5986 19.755L14.2404 19.0593ZM15.0373 18.6497L15.733 18.2916L16.0483 18.9033L16.0586 19.0044L15.3954 19.3472L15.0373 18.6497ZM16.074 19.1227C16.0911 19.2546 16.1117 19.3849 16.1374 19.5134C16.1366 19.5168 16.1366 19.5203 16.1374 19.5237C16.1751 19.7722 16.2111 20.0086 16.2471 20.2365C16.2471 20.2622 16.2471 20.288 16.2591 20.3137C16.1837 20.4028 16.1066 20.485 16.0243 20.5724L15.4451 19.4466L16.074 19.1227ZM16.1443 16.895L15.8101 16.2472L16.379 15.9542C16.282 16.2587 16.2036 16.5689 16.1443 16.883V16.895ZM15.3491 15.3527L14.991 14.657L15.6867 14.2988L16.0448 14.9946L15.3491 15.3527ZM14.9396 14.5559L14.5814 13.8601L15.2771 13.502L15.6353 14.1977L14.9396 14.5559ZM14.53 13.759L14.1719 13.0633L14.8676 12.7051L15.2258 13.4026L14.53 13.759ZM14.1204 12.9639L13.7623 12.2682L14.4581 11.91L14.8162 12.6058L14.1204 12.9639ZM14.0194 13.0153L13.3236 13.3735L12.9655 12.6777L13.6612 12.3196L14.0194 13.0153ZM12.9141 12.5766L12.5559 11.8809L13.2517 11.5227L13.6098 12.2185L12.9141 12.5766ZM12.5045 11.7815L12.1463 11.0841L12.8421 10.7276L13.2003 11.4234L12.5045 11.7815ZM12.4051 11.8329L11.7094 12.1911L11.3512 11.4936L12.047 11.1372L12.4051 11.8329ZM11.6083 12.2425L10.9125 12.6006L10.5544 11.9032L11.2501 11.5467L11.6083 12.2425ZM10.8132 12.652L10.1174 13.0102L9.75756 12.3127L10.455 11.9563L10.8132 12.652ZM10.0163 13.0616L9.32057 13.4197L8.96245 12.7223L9.65819 12.3658L10.0163 13.0616ZM9.2195 13.4711L8.52375 13.8293L8.16559 13.1318L8.86133 12.7754L9.2195 13.4711ZM8.42435 13.8807L7.72865 14.22L7.37048 13.5243L8.06623 13.1661L8.42435 13.8807ZM7.62753 14.2903L6.93178 14.6484L6.57366 13.9527L7.26936 13.5945L7.62753 14.2903ZM7.24025 15.4898L6.5445 15.8479L6.18638 15.1522L6.88208 14.7941L7.24025 15.4898ZM7.29166 15.5892L7.64978 16.2849L6.95408 16.6431L6.59764 15.9336L7.29166 15.5892ZM6.46568 18.0294L7.3225 17.5907L7.68066 18.2864L6.79297 18.744C6.67156 18.5093 6.56233 18.2685 6.46568 18.0225V18.0294ZM6.83753 18.8451L7.72522 18.3875L8.08334 19.0833L7.22652 19.5202C7.09058 19.2998 6.96091 19.0753 6.83753 18.8468V18.8451ZM7.29509 19.6145L8.13476 19.1844L8.49292 19.8801L7.77492 20.2485C7.60339 20.0438 7.44321 19.8299 7.29509 19.6076V19.6145ZM7.85031 20.3359L8.54434 19.9795L8.90246 20.6752L8.42949 20.9186C8.22438 20.7343 8.03096 20.5374 7.85031 20.3291V20.3359ZM9.22121 21.5166C8.97389 21.3623 8.73793 21.1905 8.51518 21.0025L8.94873 20.7798L9.30689 21.4755L9.22121 21.5166ZM9.04985 20.7249L9.74559 20.3668L10.1037 21.0625L9.40625 21.4207L9.04985 20.7249ZM9.55536 21.7086L9.45939 21.5201L10.1551 21.1619L10.5133 21.8576L10.2219 22.0067C9.99449 21.9209 9.77347 21.819 9.56051 21.7017L9.55536 21.7086ZM10.3693 22.0513L10.5647 21.9519L10.6606 22.1404C10.5681 22.113 10.4704 22.0838 10.3676 22.0513H10.3693ZM10.8063 22.1764L10.6641 21.9005L11.3615 21.5423L11.7557 22.31C11.4374 22.2961 11.1211 22.2513 10.8115 22.1764H10.8063ZM11.8842 22.3152L11.4609 21.4909L12.1566 21.1328L12.7376 22.2603C12.4567 22.3012 12.1731 22.3196 11.8893 22.3152H11.8842ZM13.5036 22.0873C13.2904 22.1516 13.0735 22.2031 12.8541 22.2415L12.2578 21.0814L12.9535 20.7232L13.5704 21.9228C13.5423 21.9745 13.5216 22.0299 13.5087 22.0873H13.5036ZM13.7932 21.7171C13.7389 21.7447 13.6897 21.7812 13.6475 21.8251L13.0529 20.6718L13.7486 20.3137L14.3295 21.4412L13.7932 21.7171ZM14.967 21.1139L14.4289 21.3898L13.8497 20.2623L14.5454 19.9041L15.1401 21.0574C15.0815 21.0674 15.0248 21.0864 14.9722 21.1139H14.967ZM14.6448 19.8527L15.3406 19.4945L15.9386 20.6547C15.7799 20.8116 15.6116 20.9587 15.4348 21.0951C15.3804 21.0719 15.3225 21.0581 15.2635 21.0539L14.6448 19.8527ZM15.3303 22.4146L15.5668 22.2912C15.6735 22.2362 15.7597 22.1484 15.8128 22.0408C15.8658 21.9331 15.8829 21.8112 15.8615 21.6931C16.0465 21.5525 16.2232 21.4014 16.391 21.2407C16.8177 24.0271 16.9668 25.0107 17.0867 25.8281L15.3303 22.4146ZM17.1262 18.8159L17.0285 18.6257L17.2238 18.5263C17.205 18.6206 17.1707 18.7166 17.1364 18.8125L17.1262 18.8159ZM17.2273 20.3222L17.6779 20.4936L17.5237 20.8997C17.4792 20.826 17.4346 20.7523 17.3952 20.6752C17.3438 20.5604 17.289 20.4405 17.2376 20.3188L17.2273 20.3222ZM24.673 21.179L24.6422 21.2167C24.6267 21.2356 24.6096 21.2527 24.5942 21.2699L24.6353 21.2236L23.9498 20.9597L24.2155 20.2588L24.9163 20.5244L24.6575 21.2099L24.673 21.179ZM19.3848 21.042L19.6503 20.3411L20.3512 20.6067L20.0856 21.3076L19.3848 21.042ZM20.0513 21.3984L19.7857 22.0993L19.0849 21.8319L19.3504 21.1328L20.0513 21.3984ZM21.0795 18.9667L21.3451 18.2659L22.046 18.5332L21.7804 19.2324L21.0795 18.9667ZM21.7461 19.3232L21.4788 20.0241L20.7796 19.7584L21.0452 19.0576L21.7461 19.3232ZM21.3794 18.1768L21.645 17.4759L22.3459 17.7415L22.0803 18.4424L21.3794 18.1768ZM22.1368 18.5675L22.8377 18.8331L22.5721 19.534L21.8712 19.2683L22.1368 18.5675ZM22.1711 18.4766L22.4367 17.7758L23.1376 18.0414L22.872 18.7423L22.1711 18.4766ZM22.471 17.685L22.7366 16.9841L23.4375 17.2497L23.1718 17.9506L22.471 17.685ZM23.5283 17.284L24.2291 17.5496L23.9636 18.2504L23.2627 17.9848L23.5283 17.284ZM23.4717 17.1589L22.7708 16.8933L23.0365 16.1924L23.7374 16.458L23.4717 17.1589ZM22.6801 16.859L21.9792 16.5934L22.2465 15.8925L22.9473 16.1581L22.6801 16.859ZM22.6457 16.9498L22.3802 17.6507L21.6793 17.3851L21.9449 16.6842L22.6457 16.9498ZM21.5885 17.3508L20.8876 17.0835L21.1549 16.3843L21.8541 16.6499L21.5885 17.3508ZM21.5542 17.4416L21.2886 18.1408L20.5877 17.8752L20.8533 17.1743L21.5542 17.4416ZM21.2543 18.2316L20.9887 18.9325L20.2878 18.6669L20.5534 17.966L21.2543 18.2316ZM20.197 18.6326L19.4961 18.367L19.7617 17.6661L20.4626 17.9317L20.197 18.6326ZM20.2535 18.7577L20.9544 19.0233L20.6888 19.7242L19.9879 19.4586L20.2535 18.7577ZM20.7454 19.8493L21.4445 20.1149L21.1789 20.8158L20.478 20.5501L20.7454 19.8493ZM21.5353 20.1492L22.2362 20.4148L21.9706 21.1156L21.2697 20.85L21.5353 20.1492ZM21.5696 20.0583L21.8489 19.3609L22.5481 19.6265L22.2825 20.3274L21.5696 20.0583ZM22.6269 19.659L23.3278 19.9247L23.0622 20.6255L22.3613 20.3599L22.6269 19.659ZM22.6612 19.5682L22.9285 18.8674L23.6277 19.133L23.3621 19.8338L22.6612 19.5682ZM22.9628 18.7765L23.2284 18.0757L23.9293 18.3413L23.6637 19.0421L22.9628 18.7765ZM24.0201 18.3755L24.721 18.6412L24.4536 19.342L23.7545 19.0764L24.0201 18.3755ZM24.0544 18.2847L24.32 17.5856L25.0209 17.8512L24.7552 18.552L24.0544 18.2847ZM24.2634 17.4588L23.5626 17.1931L23.8282 16.4923L24.529 16.7596L24.2634 17.4588ZM23.7716 16.3672L23.0724 16.1016L23.3381 15.4007L24.0389 15.668L23.7716 16.3672ZM22.9817 16.0673L22.2808 15.8017L22.5464 15.1008L23.2472 15.3664L22.9817 16.0673ZM22.1917 15.7623L21.4908 15.4966L21.7564 14.7958L22.4573 15.0614L22.1917 15.7623ZM22.1574 15.8531L21.8918 16.554L21.1909 16.2883L21.4565 15.5875L22.1574 15.8531ZM21.1001 16.2541L20.3992 15.9867L20.6648 15.2876L21.3657 15.5532L21.1001 16.2541ZM21.0658 16.3449L20.8002 17.0441L20.0993 16.7784L20.3649 16.0776L21.0658 16.3449ZM20.7642 17.1349L20.4986 17.8358L19.7977 17.5701L20.0651 16.8693L20.7642 17.1349ZM19.7069 17.5359L19.0077 17.2703L19.2733 16.5694L19.9742 16.835L19.7069 17.5359ZM19.6726 17.6267L19.407 18.3276L18.7061 18.062L18.9735 17.3611L19.6726 17.6267ZM19.4636 18.4527L20.1644 18.7183L19.8988 19.4191L19.198 19.1535L19.4636 18.4527ZM19.9554 19.5442L20.6562 19.8099L20.3889 20.5107L19.6897 20.2451L19.9554 19.5442ZM20.4455 20.6358L21.1463 20.9014L20.8807 21.6023L20.1799 21.3367L20.4455 20.6358ZM21.2372 20.9357L21.938 21.2013L21.6724 21.9022L20.9715 21.6366L21.2372 20.9357ZM22.0289 21.2356L22.7297 21.5029L22.4641 22.2021L21.7632 21.9365L22.0289 21.2356ZM22.0631 21.1448L22.3288 20.4456L23.0296 20.7112L22.764 21.4121L22.0631 21.1448ZM23.1204 20.7455L23.8213 21.0111L23.5557 21.712L22.8548 21.4464L23.1204 20.7455ZM23.1547 20.6547L23.4203 19.9538L24.1212 20.2194L23.8556 20.9203L23.1547 20.6547ZM23.4546 19.863L23.7202 19.1621L24.4211 19.4277L24.1555 20.1286L23.4546 19.863ZM24.5119 19.462L25.2128 19.7293L24.9472 20.4285L24.2463 20.1629L24.5119 19.462ZM24.5462 19.3712L24.8118 18.672L25.5126 18.9376L25.2471 19.6385L24.5462 19.3712ZM24.8478 18.5812L25.1134 17.8803L25.8142 18.1459L25.547 18.8468L24.8478 18.5812ZM25.0568 17.7552L24.3559 17.4896L24.6216 16.7887L25.3225 17.0543L25.0568 17.7552ZM24.565 16.6636L23.8642 16.398L24.1298 15.6971L24.8306 15.9628L24.565 16.6636ZM24.0749 15.5721L23.374 15.3047L23.6397 14.6056L24.3406 14.8712L24.0749 15.5721ZM23.5831 14.4805L22.8823 14.2131L23.1479 13.514L23.8487 13.7796L23.5831 14.4805ZM23.5488 14.5713L23.2833 15.2704L22.5824 15.0048L22.848 14.304L23.5488 14.5713ZM22.4915 14.9706L21.7906 14.7049L22.0563 14.0041L22.7572 14.2697L22.4915 14.9706ZM21.6998 14.6707L20.999 14.4051L21.2646 13.7042L21.9654 13.9698L21.6998 14.6707ZM21.6656 14.7615L21.3999 15.4624L20.6991 15.1968L20.9647 14.4959L21.6656 14.7615ZM20.6083 15.1625L19.9074 14.8952L20.173 14.196L20.8739 14.4616L20.6083 15.1625ZM20.574 15.2516L20.3084 15.9525L19.6075 15.6869L19.8731 14.986L20.574 15.2516ZM20.2741 16.0433L20.0085 16.7442L19.3076 16.4786L19.5732 15.7777L20.2741 16.0433ZM19.2168 16.4443L18.5159 16.1787L18.7816 15.4778L19.4824 15.7434L19.2168 16.4443ZM19.1825 16.5351L18.9169 17.236L18.216 16.9704L18.4817 16.2695L19.1825 16.5351ZM18.192 16.7596C18.192 16.5557 18.1715 16.35 18.1475 16.1427L18.3908 16.2352L18.192 16.7596ZM18.192 17.0646L18.8775 17.3268L18.6102 18.0277L18.1252 17.8426C18.1654 17.5844 18.19 17.324 18.1989 17.0629L18.192 17.0646ZM18.6719 18.1528L19.3727 18.4184L19.1071 19.1193L18.4217 18.8468L18.6719 18.1528ZM19.1637 19.2444L19.8645 19.51L19.599 20.2108L18.8981 19.9452L19.1637 19.2444ZM19.5646 20.3017L19.2974 21.0008L18.5982 20.7352L18.8638 20.0361L19.5646 20.3017ZM19.263 21.0916L18.9975 21.7925L18.2966 21.5269L18.5622 20.826L19.263 21.0916ZM18.9632 21.8833L18.8295 22.2363C18.6083 22.0955 18.4017 21.933 18.2126 21.7514L18.2623 21.6177L18.9632 21.8833ZM19.054 21.9176L19.7549 22.1832L19.5835 22.6236C19.3491 22.5324 19.1231 22.4205 18.9084 22.2895L19.054 21.9176ZM19.8457 22.2192L20.5466 22.4848L20.4044 22.8567C20.1574 22.8115 19.9149 22.745 19.6795 22.6579L19.8457 22.2192ZM19.88 22.1284L20.1456 21.4275L20.8464 21.6931L20.5809 22.394L19.88 22.1284ZM20.9373 21.7274L21.6382 21.993L21.3725 22.6939L20.6716 22.4283L20.9373 21.7274ZM21.4274 22.819L21.621 22.8927C21.5456 22.8927 21.4685 22.9081 21.3931 22.9132L21.4274 22.819ZM21.4634 22.7282L21.729 22.0273L22.4298 22.2929L22.2585 22.7676C22.1169 22.8071 21.9733 22.8391 21.8283 22.8635L21.4634 22.7282ZM22.5207 22.3272L22.9696 22.4985C22.8514 22.5551 22.7314 22.6065 22.6115 22.651C22.5292 22.6819 22.4487 22.7093 22.3664 22.7333L22.5207 22.3272ZM22.555 22.2363L22.8205 21.5372L23.5214 21.8028L23.3295 22.3066C23.2495 22.3523 23.169 22.3969 23.0879 22.4403L22.555 22.2363ZM23.6123 21.8371L23.8762 21.9365L23.8024 21.9947V21.9844L23.6671 22.0958C23.6037 22.1404 23.5368 22.1832 23.4717 22.2261L23.6123 21.8371ZM23.6465 21.7463L23.9121 21.0454L24.5702 21.2956C24.4365 21.4412 24.2977 21.5783 24.1555 21.7068L23.9653 21.8679L23.6465 21.7463ZM25.0037 20.5467L25.1203 20.5913C25.0329 20.7198 24.9403 20.8432 24.8461 20.9614L25.0037 20.5467ZM25.038 20.4559L25.3036 19.7567L25.5606 19.8544C25.445 20.0796 25.3169 20.2982 25.1768 20.509L25.038 20.4559ZM25.3379 19.6659L25.6035 18.965L25.9102 19.0798C25.8177 19.3198 25.7149 19.5477 25.6052 19.7653L25.3379 19.6659ZM25.6378 18.8742L25.9051 18.1733L26.1724 18.2744C26.109 18.5109 26.0336 18.7508 25.9445 18.989L25.6378 18.8742ZM25.8486 18.0482L25.1477 17.7826L25.4133 17.0818L26.1141 17.3474L25.8486 18.0482ZM25.3567 16.9567L24.6558 16.691L24.9215 15.9902L25.6223 16.2558L25.3567 16.9567ZM24.8649 15.8651L24.1658 15.5995L24.4314 14.8986L25.1322 15.1642L24.8649 15.8651ZM24.3748 14.7735L23.6739 14.5079L23.9395 13.807L24.6404 14.0726L24.3748 14.7735ZM23.9738 13.7162L24.248 13.0205L24.9489 13.2861L24.6833 13.9869L23.9738 13.7162ZM23.883 13.6819L23.1821 13.4163L23.4495 12.7154L24.1486 12.981L23.883 13.6819ZM23.0913 13.382L22.3921 13.1147L22.6578 12.4155L23.3586 12.6812L23.0913 13.382ZM23.057 13.4711L22.7914 14.172L22.0905 13.9064L22.3562 13.2055L23.057 13.4711ZM21.9997 13.8721L21.3006 13.6065L21.5662 12.9056L22.267 13.1713L21.9997 13.8721ZM21.2097 13.5722L20.5089 13.3066L20.7745 12.6058L21.4754 12.8714L21.2097 13.5722ZM21.1738 13.6631L20.9081 14.3639L20.2073 14.0983L20.4746 13.3975L21.1738 13.6631ZM20.1181 14.0641L19.4173 13.7967L19.6829 13.0976L20.3838 13.3632L20.1181 14.0641ZM20.0822 14.1532L19.8165 14.854L19.1157 14.5884L19.383 13.8876L20.0822 14.1532ZM19.7823 14.9449L19.5167 15.6457L18.8158 15.3801L19.0814 14.6792L19.7823 14.9449ZM18.725 15.3458L18.0241 15.0802L18.2914 14.3794L18.9906 14.645L18.725 15.3458ZM18.6907 15.4367L18.4251 16.1375L18.1355 16.0262C18.0991 15.7481 18.047 15.4724 17.9795 15.2002L17.9898 15.1711L18.6907 15.4367ZM18.0155 18.4252C18.0549 18.2624 18.0875 18.0997 18.1149 17.9334L18.581 18.1048L18.3154 18.804L17.9487 18.6651C17.9796 18.5966 18.0018 18.5126 18.0224 18.4304L18.0155 18.4252ZM18.372 18.9393L19.0729 19.2067L18.8072 19.9058L18.1063 19.6402L18.372 18.9393ZM18.773 19.9966L18.5074 20.6975L17.8065 20.4319L18.0721 19.731L18.773 19.9966ZM18.4714 20.7883L18.2058 21.4892L17.8493 21.3538C17.7571 21.2398 17.6713 21.1208 17.5923 20.9974L17.7722 20.5227L18.4714 20.7883ZM18.1715 21.58L18.1355 21.6743C18.0824 21.6194 18.0292 21.5646 17.9795 21.5029L18.1715 21.58ZM17.6985 29.5021C17.6585 29.4327 17.6056 29.3716 17.5426 29.3222L17.714 28.8904C17.6948 29.0943 17.6919 29.2995 17.7054 29.5038L17.6985 29.5021ZM20.9544 24.3407C19.4807 25.5676 19.0951 25.8915 18.2126 26.6352C18.1977 26.6459 18.1802 26.6526 18.162 26.6548C18.1437 26.657 18.1252 26.6546 18.1082 26.6478C18.0911 26.6409 18.0761 26.6299 18.0644 26.6158C18.0527 26.6016 18.0447 26.5847 18.0413 26.5667V26.553C17.9024 25.6053 17.8287 25.0981 17.5134 23.0315C17.5031 22.9641 17.5131 22.8952 17.5422 22.8336C17.5712 22.772 17.618 22.7204 17.6764 22.6855C17.7349 22.6505 17.8025 22.6338 17.8705 22.6374C17.9385 22.6411 18.0039 22.6649 18.0584 22.7059C18.4488 23.004 18.8806 23.2436 19.3402 23.417C19.799 23.5926 20.2811 23.7 20.771 23.7358C20.8396 23.7403 20.9052 23.7653 20.9594 23.8075C21.0136 23.8498 21.0538 23.9073 21.0749 23.9727C21.0959 24.0381 21.0968 24.1083 21.0775 24.1742C21.0582 24.2402 21.0195 24.2987 20.9664 24.3424L20.9544 24.3407ZM20.4969 22.8687L20.6322 22.5157L21.3331 22.7813L21.2817 22.9149C21.0233 22.9249 20.7645 22.9099 20.5089 22.8704L20.4969 22.8687ZM26.9298 18.6394C27.1927 19.0424 27.4848 19.4256 27.8038 19.7859C27.8672 19.8561 27.9289 19.9247 27.9923 19.9915C27.4429 20.3835 26.9322 20.827 26.4671 21.3161C26.3969 21.3898 26.3284 21.4635 26.2615 21.5389C25.4516 22.4371 24.8029 23.4685 24.344 24.5874C24.2994 24.6954 24.2566 24.8034 24.2172 24.9113C24.1332 25.1341 24.0578 25.3586 23.991 25.5865C23.9704 25.6568 23.9498 25.7287 23.931 25.799C23.8264 25.7339 23.7185 25.6722 23.6054 25.6156C22.8659 25.2387 22.0282 25.0987 21.2063 25.2146L23.763 23.0863L24.3148 22.6271L24.3251 22.6185C24.5644 22.4377 24.7901 22.2395 25.0003 22.0256C25.1608 21.862 25.3129 21.6904 25.4561 21.5115C25.9852 20.8549 26.4058 20.1179 26.7019 19.3283C26.8013 19.1055 26.8767 18.8742 26.9418 18.6412L26.9298 18.6394ZM26.2444 17.4022C26.2684 17.4553 26.2941 17.5084 26.3198 17.5616C26.2872 17.7672 26.2427 17.9746 26.1913 18.1836L25.9342 18.0859L26.1998 17.3851L26.2444 17.4022ZM26.1604 17.2154L26.1433 17.26L25.4475 16.9961L25.7132 16.2952L25.8297 16.3398C25.9325 16.6402 26.0467 16.9327 26.1724 17.2171L26.1604 17.2154ZM25.7646 16.1461L25.7868 16.2198L25.7423 16.2027L25.7646 16.1461ZM25.7183 15.9919L25.6515 16.1632L24.9506 15.8976L25.2179 15.1968L25.5606 15.3253C25.6189 15.5532 25.6686 15.7743 25.7303 15.9936L25.7183 15.9919ZM25.5315 15.2173L25.2522 15.1111L25.4321 14.6347C25.4715 14.8318 25.5041 15.0254 25.5435 15.219L25.5315 15.2173ZM25.3996 14.3605C25.3996 14.3811 25.3996 14.4034 25.3996 14.4239L25.1734 15.0768L24.4725 14.8112L24.7381 14.1103L25.3996 14.3605ZM25.0962 13.1301C25.1494 13.1833 25.2008 13.2398 25.2522 13.3015L25.0603 13.2278L25.0962 13.1301ZM25.3413 13.4334C25.3413 13.7076 25.3619 13.9801 25.3876 14.2526L24.7604 14.0144L25.026 13.3135L25.3413 13.4334ZM25.0209 13.053L24.9694 13.1884L24.2686 12.9228L24.4039 12.5698C24.6287 12.7127 24.8394 12.8768 25.0329 13.0599L25.0209 13.053ZM24.32 12.5166L24.1778 12.8885L23.4786 12.6229L23.65 12.1825L23.6054 12.1654C23.8581 12.262 24.1014 12.3819 24.332 12.5235L24.32 12.5166ZM23.5626 12.1636L23.3912 12.604L22.7057 12.335L22.8463 11.9614C23.0904 12.0083 23.33 12.076 23.5626 12.1636ZM21.9552 11.9032C22.2172 11.8936 22.4794 11.9097 22.7383 11.9512L22.6046 12.3024L21.9038 12.0368L21.9552 11.9032ZM22.5704 12.3933L22.3047 13.0941L21.6039 12.8285L21.8695 12.1277L22.5704 12.3933ZM21.8489 11.9083L21.8129 12.0026L21.6176 11.9289C21.6964 11.9152 21.7735 11.9055 21.8489 11.8997V11.9083ZM21.4205 11.958L21.7787 12.0934L21.5131 12.7943L20.8122 12.5286L20.9921 12.054C21.1341 12.0115 21.2782 11.9766 21.424 11.9494L21.4205 11.958ZM20.8756 12.0865L20.7213 12.4944L20.2724 12.323C20.4686 12.2271 20.6713 12.1452 20.879 12.078L20.8756 12.0865ZM20.1525 12.3813L20.6871 12.5852L20.4215 13.2861L19.724 13.0205L19.9159 12.5149C19.9948 12.4601 20.0736 12.4138 20.1559 12.3727L20.1525 12.3813ZM19.7771 12.5955L19.6298 12.9845L19.3642 12.8851C19.4978 12.7786 19.6368 12.6791 19.7806 12.5869L19.7771 12.5955ZM19.2785 12.9553L19.5955 13.0753L19.3299 13.7762L18.6719 13.5277C18.8596 13.3195 19.0624 13.1254 19.2785 12.9468V12.9553ZM18.6016 13.6048L19.2871 13.867L19.0214 14.5679L18.3206 14.3023L18.5776 13.6168L18.6016 13.6048ZM18.396 13.8481L18.2383 14.268L18.1218 14.2234C18.2143 14.0863 18.3052 13.9595 18.3994 13.8396L18.396 13.8481ZM18.0652 14.3057L18.204 14.3588L17.9401 15.0442C17.9076 14.9226 17.8716 14.7992 17.8322 14.6758C17.9076 14.5439 17.9881 14.4188 18.0687 14.2971L18.0652 14.3057ZM17.9247 18.78L18.2846 18.9153L18.019 19.6162L17.6591 19.4808C17.7644 19.2506 17.8543 19.0136 17.9282 18.7714L17.9247 18.78ZM17.9847 19.707L17.7191 20.4079L17.2478 20.2365C17.3868 20.0252 17.5105 19.8041 17.618 19.5751L17.9847 19.707ZM17.4569 17.2805L17.3712 17.3251L17.2615 17.1143L17.3935 16.7716L17.4672 16.8007C17.474 16.9498 17.4706 17.1126 17.4603 17.272L17.4569 17.2805ZM17.3369 16.6414L17.1364 16.566L17.4209 16.4203L17.3369 16.6414ZM17.4637 16.6893L17.4278 16.6756L17.4586 16.5934L17.4637 16.6893ZM17.2924 15.8325L17.3695 15.8616C17.3935 16.0056 17.4141 16.1495 17.4295 16.2935L17.0867 16.4648C17.1519 16.2438 17.2221 16.0313 17.301 15.8171L17.2924 15.8325ZM17.0508 16.6019V16.6259L17.3078 16.7236L17.2067 16.9892L17.0353 16.6653L17.0508 16.6019ZM17.1485 17.1314L17.037 17.4245L16.8983 17.3714C16.9223 17.2 16.9548 17.0149 16.9959 16.835L17.1485 17.1314ZM16.9891 14.4839V14.4959L16.1477 14.9294L15.7912 14.2337L16.6789 13.7762C16.7955 14.0109 16.9 14.2474 16.9925 14.4839H16.9891ZM16.6206 13.6751L15.7313 14.1326L15.3748 13.4369L16.2316 12.9999C16.3699 13.2147 16.5007 13.4397 16.6241 13.6751H16.6206ZM16.1614 12.9039L15.3217 13.3358L14.9653 12.64L15.6833 12.2716C15.8554 12.4733 16.0161 12.6844 16.1648 12.9039H16.1614ZM15.6062 12.1842L14.9122 12.5406L14.5557 11.8449L15.0287 11.6016C15.2346 11.7831 15.4287 11.9777 15.6096 12.1842H15.6062ZM14.2353 11.0035C14.4821 11.1578 14.7174 11.3296 14.9396 11.5176L14.506 11.7404L14.1496 11.0446L14.2353 11.0035ZM14.4067 11.7952L13.7109 12.1534L13.3527 11.4576L14.0485 11.0995L14.4067 11.7952ZM13.8926 10.8099L13.9902 11.0001L13.2945 11.3582L12.9363 10.6608L13.2259 10.5117C13.4567 10.5963 13.6817 10.6959 13.8994 10.8099H13.8926ZM13.0786 10.4671L12.8849 10.5683L12.7873 10.3798C12.8918 10.3986 12.9895 10.4294 13.0855 10.4603L13.0786 10.4671ZM12.6416 10.3421L12.7839 10.6197L12.0881 10.9778L11.694 10.2101C12.0154 10.2212 12.335 10.2631 12.6485 10.3352L12.6416 10.3421ZM11.5637 10.205L11.9887 11.0292L11.2912 11.3874L10.7121 10.2598C10.995 10.2162 11.2809 10.1956 11.5672 10.1981L11.5637 10.205ZM10.5955 10.2786L11.1919 11.4388L10.4961 11.7969L9.81069 10.4723C10.0696 10.3888 10.3342 10.3241 10.6024 10.2786H10.5955ZM9.70614 10.51L10.3916 11.8483L9.69589 12.2065L8.99672 10.8099C9.22833 10.6917 9.46763 10.5892 9.713 10.5031L9.70614 10.51ZM8.88363 10.8681L9.59992 12.2579L8.90417 12.616L8.21872 11.2777C8.43307 11.124 8.65747 10.9849 8.89045 10.8613L8.88363 10.8681ZM8.12275 11.3428L8.8082 12.6674L8.1125 13.0256L7.51616 11.8655C7.70738 11.6742 7.9124 11.4972 8.12961 11.336L8.12275 11.3428ZM7.42705 11.9494L8.00795 13.077L7.31221 13.4352L6.88723 12.6109C7.05095 12.3736 7.23377 12.1501 7.43387 11.9426L7.42705 11.9494ZM6.81527 12.7189L7.21113 13.4866L6.51538 13.8447L6.37314 13.5688C6.49477 13.2694 6.64514 12.9824 6.82213 12.712L6.81527 12.7189ZM6.31833 13.7093L6.41427 13.8961L6.22065 13.9972C6.25492 13.8944 6.28974 13.7973 6.32515 13.7059L6.31833 13.7093ZM6.17609 14.1463L6.46568 13.9972L6.82385 14.693L6.1281 15.0511L6.03213 14.8626C6.06517 14.6183 6.11559 14.3766 6.18295 14.1395L6.17609 14.1463ZM5.99443 15.2465L6.08012 15.2036L6.43828 15.8993L6.00473 16.1221C5.98145 15.8313 5.9803 15.5392 6.0013 15.2482L5.99443 15.2465ZM6.4897 15.9987L6.84782 16.6945L6.15379 17.0509C6.09093 16.7845 6.04518 16.5143 6.01673 16.2421L6.4897 15.9987Z" fill="url(#paint1_linear_514_5293)"/>
<path d="M23.4214 22.2539L23.4029 22.2657H23.3928L23.4214 22.2539Z" fill="url(#paint2_linear_514_5293)"/>
<path d="M25.3533 13.4037L25.295 13.3369L25.3533 13.4037Z" fill="url(#paint3_linear_514_5293)"/>
<path d="M17.426 17.4168L17.4496 17.4033V17.4555L17.426 17.4168Z" fill="url(#paint4_linear_514_5293)"/>
<path d="M17.3486 15.6914C17.3486 15.7049 17.3486 15.7183 17.357 15.7335H17.3351L17.3486 15.6914Z" fill="url(#paint5_linear_514_5293)"/>
<path d="M14.1212 10.9344L14.096 10.9479L14.0775 10.9092L14.1212 10.9344Z" fill="url(#paint6_linear_514_5293)"/>
<path d="M6.01494 15.0576L6.0351 15.0946L6.00989 15.1081L6.01494 15.0576Z" fill="url(#paint7_linear_514_5293)"/>
<path d="M9.33948 21.5779L9.36301 21.5645L9.38152 21.6031L9.33948 21.5779Z" fill="url(#paint8_linear_514_5293)"/>
<path d="M15.7088 7.68243C15.7097 7.69784 15.7097 7.71329 15.7088 7.7287V7.78525C15.7366 8.15547 15.8725 8.50939 16.0995 8.80315C16.1132 8.822 16.1304 8.83913 16.1441 8.85798C16.2515 8.98771 16.3754 9.10291 16.5125 9.20071C16.6584 9.30391 16.8182 9.38584 16.9872 9.44404H16.9992H17.0163C17.3793 9.56345 17.7697 9.57121 18.1371 9.46632H18.1559H18.185L18.2313 9.4509L18.3187 9.41834L18.3598 9.39949L18.4061 9.38064C18.7146 9.24097 18.9798 9.02077 19.1738 8.74317C19.2399 8.64685 19.2973 8.54476 19.3451 8.43814C19.4227 8.26795 19.4747 8.0872 19.4994 7.90178C19.5002 7.89323 19.5002 7.88462 19.4994 7.87607C19.4994 7.87607 19.4994 7.86065 19.4994 7.8538C19.5003 7.83782 19.5003 7.8218 19.4994 7.80581C19.4994 7.78696 19.4994 7.7664 19.4994 7.74584C19.4994 7.72527 19.4994 7.72527 19.4994 7.71499V7.61731C19.4973 7.43054 19.4672 7.24514 19.4103 7.06724C19.3257 6.79764 19.1817 6.5505 18.9887 6.34409C18.8985 6.24663 18.798 6.15929 18.6888 6.08361C18.4447 5.91143 18.1634 5.79908 17.8678 5.75562C17.5723 5.71216 17.2706 5.73881 16.9872 5.83343L16.8913 5.8677H16.8758L16.8467 5.87969L16.8056 5.89855L16.7816 5.90883L16.761 5.91911L16.7353 5.9311L16.7165 5.93967C16.4426 6.08007 16.2072 6.28541 16.031 6.53773C15.9438 6.66109 15.8718 6.79459 15.8168 6.93529C15.7482 7.11087 15.706 7.29568 15.6917 7.48365C15.69 7.51676 15.69 7.54993 15.6917 7.58304V7.59675C15.6909 7.60873 15.6909 7.62076 15.6917 7.63274V7.679L15.7088 7.68243Z" fill="url(#paint9_linear_514_5293)"/>
<path d="M2.97163 4.13672C2.97163 4.13672 8.29586 8.49276 7.19228 9.68373L7.13233 9.73172C5.73743 10.5628 2.58435 4.45203 2.58435 4.45203" fill="url(#paint10_linear_514_5293)"/>
<path d="M1.78406 4.99144C3.49769 7.67499 2.44384 10.7629 3.19098 11.6626C3.93812 12.5623 6.0733 9.48972 2.06855 4.5459" fill="url(#paint11_linear_514_5293)"/>
<path d="M2.17114 4.69593C4.25663 7.26637 3.9876 10.5891 4.8427 11.1135C5.69781 11.6378 5.98056 10.1744 5.10661 8.32025C4.23266 6.46611 2.56014 4.37891 2.56014 4.37891" fill="url(#paint12_linear_514_5293)"/>
<path d="M3.66562 3.4668C5.93618 5.69451 9.17496 5.31237 9.89983 6.22917C10.6247 7.14596 7.17687 8.5974 3.17212 3.65872" fill="url(#paint13_linear_514_5293)"/>
<path d="M3.29549 3.78418C5.38269 6.35462 8.68312 6.78474 9.01899 7.72553C9.35487 8.66631 7.86405 8.64403 6.23267 7.40336C4.6013 6.1627 2.90649 4.09435 2.90649 4.09435" fill="url(#paint14_linear_514_5293)"/>
<path d="M3.54905 3.29851L1.64352 4.84077L1.11227 4.18446C1.01095 4.05936 0.935249 3.91553 0.889536 3.76117C0.843824 3.60681 0.82899 3.44496 0.845859 3.28486C0.862728 3.12476 0.910972 2.96956 0.987853 2.82812C1.06473 2.68668 1.16875 2.56177 1.29393 2.46055C1.54595 2.25911 1.86723 2.1652 2.18806 2.19921C2.50889 2.23322 2.80337 2.3924 3.00756 2.64219L3.54905 3.29851Z" fill="url(#paint15_linear_514_5293)"/>
<path d="M3.27246 3.11731L1.53323 4.52571C1.43688 4.60374 1.42201 4.7451 1.50004 4.84145L1.65749 5.03588C1.73551 5.13223 1.87687 5.14708 1.97322 5.06906L3.71245 3.66066C3.8088 3.58264 3.82367 3.44128 3.74564 3.34493L3.5882 3.15049C3.51017 3.05414 3.36881 3.03929 3.27246 3.11731Z" fill="url(#paint16_linear_514_5293)"/>
<path d="M20.8378 6.93547C20.7933 7.27621 20.6662 7.60092 20.4677 7.8814C20.2508 8.1916 19.955 8.43829 19.6109 8.59598L19.5115 8.63882L19.4138 8.67481L19.3607 8.69194L19.3075 8.70908C18.9999 8.797 18.6765 8.81493 18.3609 8.76156C18.0454 8.70819 17.7459 8.58486 17.4843 8.40063C17.3082 8.27665 17.1517 8.12706 17.0199 7.9568C16.7653 7.62612 16.6128 7.22825 16.5812 6.81209V6.74869C16.5812 6.73155 16.5812 6.71442 16.5812 6.69728V6.58932C16.5812 6.55162 16.5812 6.51564 16.5812 6.47794C16.5975 6.26653 16.6449 6.05867 16.7217 5.86103C16.7834 5.70253 16.8646 5.55229 16.9633 5.41377C17.1617 5.13032 17.4265 4.89971 17.7344 4.74203L17.7841 4.71633L17.8338 4.69405L17.8801 4.67349L17.9315 4.65293L18.0378 4.61351C18.3559 4.50693 18.6947 4.47683 19.0267 4.52566C19.3587 4.57449 19.6744 4.70086 19.9484 4.89454C20.0731 4.97936 20.188 5.07763 20.2912 5.18758C20.5085 5.41885 20.6703 5.69664 20.7641 5.99983C20.8277 6.19945 20.8617 6.40728 20.8652 6.61674C20.8652 6.65273 20.8652 6.68871 20.8652 6.72641C20.8652 6.76411 20.8652 6.79496 20.8652 6.82923C20.8669 6.8469 20.8669 6.86469 20.8652 6.88235C20.843 6.89949 20.8413 6.91834 20.8378 6.93547Z" fill="#FCB535"/>
<path d="M20.8498 6.829C20.5871 6.6726 20.2824 6.60136 19.9776 6.62508C19.6314 6.65554 19.2862 6.55596 19.0094 6.34576C18.8446 6.23613 18.7036 6.09453 18.5947 5.92935C18.5212 5.8033 18.4636 5.66861 18.4233 5.52836C18.3295 5.19117 18.1226 4.89652 17.8373 4.69382L17.8836 4.67326L17.9332 4.6527L18.0412 4.61328C18.3141 4.83287 18.5113 5.13254 18.605 5.4701C18.6422 5.60926 18.7 5.74209 18.7763 5.86423C18.8702 5.9929 18.9862 6.10374 19.1191 6.19153C19.3624 6.38082 19.6692 6.46919 19.9759 6.43829C20.2817 6.41612 20.5878 6.47898 20.8601 6.61994C20.8601 6.65593 20.8601 6.69363 20.8601 6.72961C20.8601 6.7656 20.8532 6.79473 20.8498 6.829Z" fill="white"/>
<path d="M19.6073 8.59558L19.508 8.63842L19.4103 8.67441C19.1849 8.46689 19.0222 8.20032 18.9408 7.90499C18.8663 7.60838 18.6827 7.35076 18.4267 7.18355C18.1831 6.99487 17.8763 6.90713 17.5699 6.93851H17.3985C17.1065 6.93343 16.8212 6.84998 16.5725 6.69688V6.58892C16.5725 6.55122 16.5725 6.51524 16.5725 6.47754C16.851 6.67152 17.1864 6.76682 17.5253 6.74829H17.5561C17.9026 6.71765 18.2481 6.81792 18.5244 7.02933C18.8165 7.21772 19.0274 7.50875 19.1155 7.84501C19.1986 8.13973 19.3703 8.40176 19.6073 8.59558Z" fill="white"/>
<path style="mix-blend-mode:multiply" d="M20.4678 7.87929C20.2509 8.1895 19.9551 8.43618 19.611 8.59388L19.5116 8.63672L19.414 8.67271L19.3608 8.68984L19.3077 8.70698C19 8.7949 18.6766 8.81283 18.3611 8.75945C18.0456 8.70608 17.746 8.58276 17.4844 8.39852C17.3084 8.27454 17.1518 8.12495 17.02 7.95469C17.0397 7.82294 17.0695 7.6929 17.1091 7.5657C17.1681 7.37417 17.2492 7.19015 17.3507 7.01734C17.3662 6.98992 17.3833 6.9625 17.4004 6.9368C17.4176 6.91109 17.4484 6.86311 17.4741 6.82712C17.4998 6.79114 17.5135 6.77229 17.5341 6.74659C17.7924 6.40954 18.1296 6.14119 18.516 5.96517L18.5983 5.92747C18.6308 5.91547 18.6617 5.90177 18.6942 5.89148L18.7816 5.85893C19.2986 5.68657 19.8567 5.68117 20.377 5.8435C20.5091 5.88389 20.6375 5.93549 20.7608 5.99773C20.8244 6.19735 20.8585 6.40518 20.862 6.61464C20.862 6.65062 20.862 6.68832 20.862 6.72431C20.862 6.7603 20.862 6.79285 20.862 6.82712C20.8636 6.84479 20.8636 6.86258 20.862 6.88025V6.93337C20.8089 7.27589 20.6737 7.60045 20.4678 7.87929Z" fill="url(#paint17_linear_514_5293)"/>
<g style="mix-blend-mode:overlay" opacity="0.28">
<path d="M20.2844 5.18758C19.1963 4.51241 17.5238 4.55182 16.7201 5.86103C16.7818 5.70253 16.863 5.55229 16.9617 5.41377C17.1601 5.13032 17.4249 4.89971 17.7328 4.74203L17.7825 4.71633L17.8322 4.69405L17.8785 4.67349L17.9299 4.65293L18.0361 4.61351C18.3543 4.50693 18.6931 4.47683 19.0251 4.52566C19.3571 4.57449 19.6728 4.70086 19.9468 4.89454C20.0697 4.97966 20.1829 5.07792 20.2844 5.18758Z" fill="white"/>
</g>
<g opacity="0.62">
<path d="M18.9648 9.9043L31.512 14.6648" stroke="#92A4BE" stroke-width="0.64" stroke-linecap="round" stroke-linejoin="round"/>
<path d="M18.6274 10.7939L31.1746 15.5544" stroke="#92A4BE" stroke-width="0.64" stroke-linecap="round" stroke-linejoin="round"/>
<path d="M18.2897 11.6826L30.8369 16.4431" stroke="#92A4BE" stroke-width="0.64" stroke-linecap="round" stroke-linejoin="round"/>
<path d="M17.9523 12.5703L30.4995 17.3308" stroke="#92A4BE" stroke-width="0.64" stroke-linecap="round" stroke-linejoin="round"/>
<path d="M17.6163 13.46L30.1635 18.2204" stroke="#92A4BE" stroke-width="0.64" stroke-linecap="round" stroke-linejoin="round"/>
<path d="M17.2786 14.3477L29.8258 19.1081" stroke="#92A4BE" stroke-width="0.64" stroke-linecap="round" stroke-linejoin="round"/>
<path d="M16.9412 15.2363L29.4883 19.9968" stroke="#92A4BE" stroke-width="0.64" stroke-linecap="round" stroke-linejoin="round"/>
<path d="M16.6036 16.126L29.1508 20.8864" stroke="#92A4BE" stroke-width="0.64" stroke-linecap="round" stroke-linejoin="round"/>
<path d="M16.266 17.0137L28.8149 21.7741" stroke="#92A4BE" stroke-width="0.64" stroke-linecap="round" stroke-linejoin="round"/>
<path d="M15.9302 17.9033L28.4774 22.6638" stroke="#92A4BE" stroke-width="0.64" stroke-linecap="round" stroke-linejoin="round"/>
<path d="M15.5925 18.791L28.1397 23.5515" stroke="#92A4BE" stroke-width="0.64" stroke-linecap="round" stroke-linejoin="round"/>
<path d="M15.2549 19.6807L27.8021 24.4411" stroke="#92A4BE" stroke-width="0.64" stroke-linecap="round" stroke-linejoin="round"/>
<path d="M14.9174 20.5674L27.4645 25.3296" stroke="#92A4BE" stroke-width="0.64" stroke-linecap="round" stroke-linejoin="round"/>
<path d="M30.0385 13.0293L25.2781 25.5765" stroke="#92A4BE" stroke-width="0.64" stroke-linecap="round" stroke-linejoin="round"/>
<path d="M29.149 12.6924L24.3885 25.2396" stroke="#92A4BE" stroke-width="0.64" stroke-linecap="round" stroke-linejoin="round"/>
<path d="M28.2614 12.3545L23.501 24.9017" stroke="#92A4BE" stroke-width="0.64" stroke-linecap="round" stroke-linejoin="round"/>
<path d="M27.3719 12.0166L22.6115 24.5655" stroke="#92A4BE" stroke-width="0.64" stroke-linecap="round" stroke-linejoin="round"/>
<path d="M26.4842 11.6807L21.7238 24.2279" stroke="#92A4BE" stroke-width="0.64" stroke-linecap="round" stroke-linejoin="round"/>
<path d="M25.5949 11.3438L20.8345 23.8909" stroke="#92A4BE" stroke-width="0.64" stroke-linecap="round" stroke-linejoin="round"/>
<path d="M24.7074 11.0059L19.9452 23.553" stroke="#92A4BE" stroke-width="0.64" stroke-linecap="round" stroke-linejoin="round"/>
<path d="M23.8178 10.6689L19.0574 23.2161" stroke="#92A4BE" stroke-width="0.64" stroke-linecap="round" stroke-linejoin="round"/>
<path d="M22.9286 10.333L18.1681 22.8802" stroke="#92A4BE" stroke-width="0.64" stroke-linecap="round" stroke-linejoin="round"/>
<path d="M22.0409 9.99512L17.2804 22.5423" stroke="#92A4BE" stroke-width="0.64" stroke-linecap="round" stroke-linejoin="round"/>
<path d="M21.1516 9.65723L16.3911 22.2044" stroke="#92A4BE" stroke-width="0.64" stroke-linecap="round" stroke-linejoin="round"/>
</g>
<path d="M17.0508 19.978C17.0508 19.978 17.0508 19.978 17.0508 19.9917L17.1742 20.7902C17.9779 26.0477 18.055 26.5806 18.2658 28.0252C18.3052 28.2959 18.3497 28.5993 18.4045 28.9694L17.6094 31.0669H18.6085L19.2785 29.3001L19.9982 28.6952C21.3691 27.5419 21.6673 27.2883 25.6258 23.9964L26.2461 23.4824L26.2581 23.4738C26.5265 23.2703 26.7796 23.0475 27.0155 22.8072C27.1869 22.6358 27.3582 22.437 27.5296 22.2383C28.1231 21.5004 28.5951 20.6726 28.928 19.7861C29.6134 17.9679 29.7025 16.0743 29.1696 14.4532C28.9122 13.6375 28.4732 12.8907 27.8855 12.2691C27.2978 11.6476 26.5767 11.1675 25.7766 10.8649C24.9774 10.56 24.1194 10.4407 23.2674 10.5161C22.4154 10.5915 21.5916 10.8596 20.8585 11.3002C19.383 12.157 18.192 13.6324 17.5015 15.4506C17.162 16.3346 16.9659 17.2671 16.9206 18.2129C16.9103 18.47 16.9103 18.7253 16.9206 18.9789C16.9404 19.3146 16.9839 19.6485 17.0508 19.978ZM22.4744 25.405C20.819 26.7759 20.3872 27.1478 19.3899 27.9755C19.373 27.9894 19.3528 27.9986 19.3312 28.0021C19.3097 28.0056 19.2876 28.0033 19.2672 27.9954C19.2468 27.9876 19.2288 27.9745 19.2152 27.9574C19.2015 27.9404 19.1926 27.92 19.1894 27.8984V27.883C19.0335 26.8188 18.9512 26.2482 18.5982 23.9279C18.5863 23.8522 18.5973 23.7747 18.6298 23.7053C18.6624 23.6359 18.7149 23.5779 18.7807 23.5386C18.8465 23.4994 18.9225 23.4807 18.999 23.485C19.0755 23.4894 19.149 23.5165 19.21 23.5629C19.6481 23.8982 20.1331 24.1672 20.6494 24.3614C21.1643 24.5585 21.7053 24.6791 22.2551 24.7196C22.3334 24.7232 22.4086 24.7506 22.4709 24.7983C22.5331 24.8459 22.5792 24.9114 22.6031 24.9861C22.627 25.0607 22.6274 25.1408 22.6044 25.2157C22.5814 25.2906 22.5361 25.3567 22.4744 25.405ZM18.3754 15.7796C19.6675 12.3746 22.6406 10.6747 25.4441 11.7389C28.2476 12.803 29.3444 16.0469 28.0523 19.4502C27.7229 20.3424 27.2353 21.1679 26.6128 21.887C26.4398 22.0826 26.2556 22.2679 26.0611 22.4422C25.9325 22.5553 25.8006 22.6632 25.6669 22.7643L25.6583 22.7541L25.5076 22.8792C25.4099 22.9477 25.3105 23.0128 25.2094 23.0728C24.9299 23.2435 24.635 23.3875 24.3286 23.5029C23.2504 23.9117 22.0592 23.908 20.9836 23.4926C19.9035 23.09 19.0102 22.3028 18.4748 21.2821C18.321 20.9928 18.1958 20.6892 18.1012 20.3756C18.0652 20.2625 18.0344 20.1476 18.0053 20.0328C17.9967 19.9677 17.9864 19.906 17.9761 19.8392H17.9625C17.9299 19.6678 17.9025 19.505 17.8819 19.3337C17.8514 19.0749 17.8365 18.8145 17.8374 18.554C17.8496 17.6045 18.0318 16.6648 18.3754 15.7796Z" fill="#00ACA4"/>
<path d="M18.7077 31.0667C18.6382 30.9916 18.5527 30.9331 18.4575 30.8954L17.9623 30.7086C17.7996 30.6461 17.6191 30.648 17.4577 30.7139C17.2963 30.7798 17.1661 30.9048 17.0935 31.0633L18.7077 31.0667Z" fill="url(#paint18_linear_514_5293)"/>
<path d="M18.4746 21.2843L17.1756 20.7908L17.0522 19.9922C17.0522 19.9922 17.0522 19.9837 17.0522 19.9785L18.1027 20.3778C18.1968 20.6914 18.3213 20.995 18.4746 21.2843Z" fill="url(#paint19_linear_514_5293)"/>
<path d="M26.2596 23.4742L26.2476 23.4828L25.6273 23.9969L24.3284 23.5034C24.6348 23.3879 24.9297 23.2439 25.2092 23.0732L26.2596 23.4742Z" fill="url(#paint20_linear_514_5293)"/>
<path d="M17.8372 18.5588C17.8363 18.8194 17.8512 19.0797 17.8818 19.3385L16.9256 18.9769C16.9119 18.7233 16.9119 18.468 16.9256 18.2109L17.8372 18.5588Z" fill="white"/>
<path d="M27.5295 22.2365C27.3581 22.4353 27.1867 22.6272 27.0154 22.8055L26.0592 22.4439C26.2537 22.2696 26.4379 22.0843 26.611 21.8887L27.5295 22.2365Z" fill="white"/>
<path d="M20.1831 31.0671L15.8716 22.6875L15.0868 23.0919L19.1909 31.0671H20.1831Z" fill="#FCB535"/>
<path d="M5.33301 14.1553L5.37928 14.2461L5.79229 15.0498L6.25325 15.9443L6.71249 16.8388L7.17344 17.7316L7.63273 18.6261L8.09197 19.5206L8.55292 20.4134L9.01216 21.308L9.47316 22.2025L9.88613 23.0062L9.9324 23.0953" stroke="#92A4BE" stroke-width="0.74" stroke-linecap="round" stroke-linejoin="round"/>
<path d="M5.81433 12.8936L6.2273 13.6955L6.68658 14.59L7.14754 15.4828L7.60678 16.3774L8.06602 17.2719L8.52702 18.1664L8.98626 19.0592L9.44722 19.9537L9.90646 20.8482L10.3657 21.741L10.8267 22.6355L11.2397 23.4375" stroke="#92A4BE" stroke-width="0.74" stroke-linecap="round" stroke-linejoin="round"/>
<path d="M6.41602 11.8623L7.12201 13.2349L7.58129 14.1294L8.04053 15.024L8.50149 15.9185L8.96077 16.8113L9.42173 17.7058L9.88097 18.6003L10.3402 19.4931L10.8012 20.3876L11.2604 21.2821L11.7214 22.1766L12.4274 23.5493" stroke="#92A4BE" stroke-width="0.74" stroke-linecap="round" stroke-linejoin="round"/>
<path d="M7.12537 11.0469L8.01477 12.7759L8.47573 13.6704L8.93497 14.5632L9.39592 15.4578L9.85521 16.3523L10.3144 17.2468L10.7754 18.1396L11.2346 19.0341L11.6956 19.9286L12.1549 20.8214L12.6141 21.7159L13.5052 23.4467" stroke="#92A4BE" stroke-width="0.74" stroke-linecap="round" stroke-linejoin="round"/>
<path d="M7.91882 10.3916L8.90931 12.3143L9.36855 13.2088L9.8295 14.1033L10.2888 14.9978L10.7497 15.8906L11.209 16.7852L11.6682 17.6797L12.1292 18.5742L12.5885 19.467L13.0494 20.3615L13.5087 21.256L14.4991 23.1787" stroke="#92A4BE" stroke-width="0.74" stroke-linecap="round" stroke-linejoin="round"/>
<path d="M8.78235 9.87109L9.80366 11.8555L10.2629 12.75L10.7239 13.6445L11.1831 14.5373L11.6424 15.4318L12.1033 16.3263L12.5626 17.2191L13.0236 18.1136L13.4828 19.0082L13.9421 19.9027L14.4031 20.7955L15.4244 22.7799" stroke="#92A4BE" stroke-width="0.74" stroke-linecap="round" stroke-linejoin="round"/>
<path d="M9.70776 9.47168L10.6965 11.3961L11.1575 12.2906L11.6168 13.1834L12.0777 14.0779L12.537 14.9724L12.9962 15.8652L13.4572 16.7597L13.9164 17.6543L14.3774 18.5471L14.8366 19.4416L15.2976 20.3361L16.2864 22.2588" stroke="#92A4BE" stroke-width="0.74" stroke-linecap="round" stroke-linejoin="round"/>
<path d="M10.7018 9.20605L11.5911 10.9351L12.0504 11.8296L12.5114 12.7241L12.9706 13.6186L13.4316 14.5114L13.8908 15.406L14.3518 16.3005L14.8111 17.1933L15.2703 18.0878L15.7313 18.9823L16.1905 19.8751L17.0799 21.6059" stroke="#92A4BE" stroke-width="0.74" stroke-linecap="round" stroke-linejoin="round"/>
<path d="M11.7795 9.10352L12.4855 10.4761L12.9448 11.3706L13.4058 12.2652L13.865 13.158L14.3243 14.0525L14.7853 14.947L15.2445 15.8398L15.7054 16.7343L16.1647 17.6288L16.624 18.5216L17.0849 19.4161L17.7909 20.7887" stroke="#92A4BE" stroke-width="0.74" stroke-linecap="round" stroke-linejoin="round"/>
<path d="M12.967 9.21484L13.3783 10.0151L13.8393 10.9096L14.2985 11.8041L14.7595 12.6986L15.2187 13.5932L15.6797 14.486L16.139 15.3805L16.5982 16.275L17.0592 17.1678L17.5184 18.0623L17.9794 18.9568L18.3907 19.7588" stroke="#92A4BE" stroke-width="0.74" stroke-linecap="round" stroke-linejoin="round"/>
<path d="M14.2729 9.55566L14.3192 9.64649L14.7339 10.4502L15.1931 11.3447L15.6524 12.2375L16.1134 13.132L16.5726 14.0265L17.0336 14.921L17.4928 15.8138L17.9521 16.7084L18.4131 17.6029L18.826 18.4066L18.8723 18.4957" stroke="#92A4BE" stroke-width="0.74" stroke-linecap="round" stroke-linejoin="round"/>
<path d="M14.273 9.55566L14.201 9.59336L13.3785 10.0149L12.4857 10.4759L11.5912 10.9351L10.6967 11.3961L9.80388 11.8554L8.90937 12.3146L8.01486 12.7756L7.12203 13.2348L6.22752 13.6958L5.40501 14.1173L5.33301 14.155" stroke="#92A4BE" stroke-width="0.74" stroke-linecap="round" stroke-linejoin="round"/>
<path d="M15.2736 10.1729L14.7338 10.4505L13.8393 10.9097L12.9448 11.3707L12.0503 11.8299L11.1575 12.2909L10.263 12.7501L9.36845 13.2094L8.47566 13.6704L7.58115 14.1296L6.68664 14.5906L5.79213 15.0498L5.25403 15.3274" stroke="#92A4BE" stroke-width="0.74" stroke-linecap="round" stroke-linejoin="round"/>
<path d="M16.1457 10.8545L15.1929 11.3446L14.2984 11.8038L13.4056 12.2648L12.5111 12.7241L11.6166 13.1833L10.7238 13.6443L9.82928 14.1035L8.93477 14.5628L8.04026 15.0238L7.14747 15.483L6.25296 15.944L5.30017 16.4341" stroke="#92A4BE" stroke-width="0.74" stroke-linecap="round" stroke-linejoin="round"/>
<path d="M16.8741 11.6104L15.6523 12.2375L14.7595 12.6985L13.865 13.1578L12.9705 13.6187L12.0777 14.078L11.1831 14.5372L10.2886 14.9982L9.3958 15.4574L8.50129 15.9184L7.60678 16.3777L6.71228 16.8386L5.49048 17.4658" stroke="#92A4BE" stroke-width="0.74" stroke-linecap="round" stroke-linejoin="round"/>
<path d="M17.4859 12.4258L16.1133 13.1318L15.2188 13.5928L14.3242 14.052L13.4315 14.5113L12.5369 14.9722L11.6424 15.4315L10.7496 15.8907L9.85513 16.3517L8.96062 16.811L8.06607 17.2719L7.17328 17.7312L5.80066 18.4372" stroke="#92A4BE" stroke-width="0.74" stroke-linecap="round" stroke-linejoin="round"/>
<path d="M17.9931 13.2949L16.5725 14.0266L15.6797 14.4859L14.7852 14.9469L13.8907 15.4061L12.9961 15.8654L12.1033 16.3263L11.2088 16.7856L10.3143 17.2466L9.42154 17.7058L8.52703 18.1668L7.63252 18.626L6.21191 19.356" stroke="#92A4BE" stroke-width="0.74" stroke-linecap="round" stroke-linejoin="round"/>
<path d="M18.4043 14.2148L17.0334 14.9209L16.1389 15.3801L15.2444 15.8394L14.3516 16.3003L13.4571 16.7596L12.5626 17.2188L11.668 17.6798L10.7753 18.1391L9.88075 18.6L8.98624 19.0593L8.09173 19.5202L6.72083 20.2263" stroke="#92A4BE" stroke-width="0.74" stroke-linecap="round" stroke-linejoin="round"/>
<path d="M18.7147 15.1846L17.4928 15.8135L16.5983 16.2744L15.7055 16.7337L14.811 17.1929L13.9165 17.6539L13.0237 18.1132L12.1292 18.5741L11.2347 19.0334L10.3402 19.4926L9.44736 19.9536L8.55285 20.4128L7.33105 21.0418" stroke="#92A4BE" stroke-width="0.74" stroke-linecap="round" stroke-linejoin="round"/>
<path d="M18.9064 16.2178L17.952 16.7079L17.0592 17.1671L16.1646 17.6281L15.2701 18.0873L14.3773 18.5466L13.4828 19.0076L12.5883 19.4668L11.6955 19.9278L10.801 20.387L9.90646 20.848L9.01195 21.3072L8.0592 21.7973" stroke="#92A4BE" stroke-width="0.74" stroke-linecap="round" stroke-linejoin="round"/>
<path d="M18.9528 17.3252L18.413 17.6028L17.5185 18.0621L16.624 18.5213L15.7312 18.9823L14.8367 19.4415L13.9422 19.9025L13.0494 20.3617L12.1549 20.821L11.2603 21.282L10.3658 21.7412L9.47305 22.2022L8.93323 22.4798" stroke="#92A4BE" stroke-width="0.74" stroke-linecap="round" stroke-linejoin="round"/>
<path d="M18.8724 18.4961L18.8004 18.5338L17.9796 18.9571L17.0851 19.4163L16.1905 19.8756L15.2978 20.3365L14.4032 20.7958L13.5087 21.2567L12.6142 21.716L11.7214 22.177L10.8269 22.6362L10.0043 23.0595L9.93237 23.0955" stroke="#92A4BE" stroke-width="0.74" stroke-linecap="round" stroke-linejoin="round"/>
<path d="M15.6112 23.1464C13.7519 24.1026 11.8052 24.2226 9.98017 23.4892C8.26654 22.8037 6.80484 21.4037 5.8452 19.5392C4.88557 17.6748 4.59936 15.6647 5.03634 13.8843C5.50416 11.9753 6.73454 10.457 8.59383 9.50424C10.4531 8.55146 12.3998 8.42808 14.2248 9.16151C15.9385 9.84696 17.4002 11.2453 18.3598 13.1029C19.3194 14.9604 19.6056 16.9774 19.1687 18.7578C18.7008 20.6754 17.4705 22.1902 15.6112 23.1464ZM8.96915 10.2377C5.71325 11.9102 4.73306 15.5825 6.57007 19.1674C8.40708 22.7523 11.9731 24.0872 15.2256 22.4147C18.4781 20.7422 19.4617 17.0682 17.6247 13.4833C15.7877 9.89837 12.2233 8.56517 8.96915 10.2377Z" fill="#FCB535"/>
<path d="M15.7632 21.8115L14.445 22.4895C14.137 22.6479 14.0158 23.0261 14.1742 23.3341L14.2808 23.5413C14.4393 23.8494 14.8174 23.9706 15.1254 23.8122L16.4436 23.1342C16.7516 22.9757 16.8728 22.5976 16.7144 22.2896L16.6078 22.0823C16.4494 21.7743 16.0712 21.653 15.7632 21.8115Z" fill="url(#paint21_linear_514_5293)"/>
<path d="M27.9596 31.0666C27.9596 31.0031 27.9596 30.9415 27.9596 30.8781C27.9596 30.8404 27.9596 30.8009 27.9596 30.7632C27.9596 30.7255 27.9596 30.6878 27.9596 30.6501C27.9596 30.5765 27.9494 30.5028 27.9425 30.4308C27.9356 30.3588 27.9219 30.2749 27.91 30.1977C27.8396 29.7559 27.7044 29.3269 27.5089 28.9245C27.214 28.3132 26.786 27.7757 26.2563 27.3514C26.0073 27.153 25.7385 26.9808 25.4543 26.8373C24.8143 26.5141 24.1073 26.3457 23.3903 26.3457C22.6732 26.3457 21.9662 26.5141 21.3262 26.8373C21.2542 26.875 21.1822 26.9127 21.112 26.9521L21.0126 27.0121L20.9201 27.0704L20.8207 27.1338C20.7881 27.1561 20.7555 27.1783 20.7247 27.2023C20.1219 27.6314 19.6326 28.2007 19.299 28.8611C19.1347 29.1849 19.0098 29.5272 18.9271 29.8807C18.8371 30.2704 18.7985 30.6703 18.8123 31.07L27.9596 31.0666Z" fill="#FF5B07"/>
<path d="M27.9648 30.8788C27.3366 30.5967 26.6343 30.524 25.9616 30.6715C25.2388 30.8437 24.4777 30.7391 23.8281 30.3784C23.4122 30.1839 23.0455 29.8981 22.7554 29.5422C22.5885 29.3217 22.4449 29.0846 22.327 28.8345C22.0596 28.3101 21.7855 27.772 20.7299 27.1911L20.8258 27.1243L20.9235 27.0609L21.0177 27.0009L21.1171 26.9443C21.816 27.3267 22.3689 27.9291 22.6902 28.658C22.803 28.9016 22.9434 29.1316 23.1084 29.3434C23.3579 29.6336 23.6663 29.8672 24.0132 30.0289C24.858 30.4556 25.3395 30.3716 25.8981 30.2859C26.5839 30.133 27.2996 30.1873 27.9545 30.4419C27.9545 30.5138 27.9682 30.5875 27.9717 30.6595C27.9717 30.6989 27.9717 30.7366 27.9717 30.7743C27.9717 30.812 27.9648 30.8428 27.9648 30.8788Z" fill="#FF5B07"/>
<path d="M27.9562 30.6483C27.352 30.4005 26.6862 30.3442 26.0489 30.4872C25.3262 30.6596 24.565 30.555 23.9155 30.1942C23.534 30.0136 23.1925 29.7583 22.9113 29.4436C22.7128 29.2012 22.5458 28.9346 22.4143 28.6502C22.1556 28.1447 21.8883 27.622 20.9149 27.0651L21.0092 27.0051L21.1085 26.9486C21.1788 26.9074 21.2508 26.8697 21.3227 26.832C21.9658 27.2117 22.4744 27.7826 22.7776 28.4651C22.9053 28.7472 23.0733 29.0092 23.2763 29.2431C23.5135 29.4857 23.792 29.6842 24.0988 29.8292C24.9436 30.2576 25.4252 30.1719 25.9838 30.0862C26.6232 29.9446 27.2894 29.9832 27.9082 30.1976C27.9202 30.2747 27.9305 30.3518 27.9408 30.4307C27.9511 30.5095 27.9528 30.5763 27.9562 30.6483Z" fill="white"/>
<path opacity="0.74" d="M27.9598 31.0669C27.9598 31.0035 27.9598 30.9419 27.9598 30.8785C27.9598 30.8408 27.9598 30.8013 27.9598 30.7636C27.9598 30.7259 27.9598 30.6882 27.9598 30.6488C27.9598 30.5769 27.9495 30.5032 27.9426 30.4312C27.9358 30.3592 27.9221 30.2753 27.9101 30.1981C27.8397 29.7563 27.7046 29.3273 27.5091 28.9249C27.2295 28.8335 26.9429 28.7647 26.6523 28.7193C25.5021 28.5364 24.3235 28.7198 23.2833 29.2437C23.225 29.2728 23.1651 29.3036 23.1119 29.3362C23.0588 29.3687 22.9851 29.4064 22.9234 29.4441L22.7521 29.547C22.1368 29.9466 21.6058 30.463 21.1892 31.0669H27.9598Z" fill="url(#paint22_linear_514_5293)"/>
<g style="mix-blend-mode:overlay" opacity="0.28">
<path d="M26.253 27.3517C23.7443 26.2601 20.221 26.8581 18.9238 29.8758C19.0066 29.5223 19.1314 29.18 19.2957 28.8562C19.6293 28.1958 20.1186 27.6265 20.7214 27.1974C20.7523 27.1735 20.7848 27.1512 20.8174 27.1289L20.9168 27.0655L21.0093 27.0072L21.1087 26.9472C21.179 26.9078 21.2509 26.8701 21.3229 26.8324C21.9629 26.5092 22.67 26.3408 23.387 26.3408C24.104 26.3408 24.811 26.5092 25.4511 26.8324C25.7355 26.9775 26.0042 27.1515 26.253 27.3517Z" fill="white"/>
</g>
<path d="M38.4334 23.6776C44.3268 23.6776 49.1042 18.9001 49.1042 13.0068C49.1042 7.11343 44.3268 2.33594 38.4334 2.33594C32.5401 2.33594 27.7626 7.11343 27.7626 13.0068C27.7626 18.9001 32.5401 23.6776 38.4334 23.6776Z" fill="url(#paint23_linear_514_5293)"/>
<path d="M46.8764 13.742C47.2043 9.05717 43.6724 4.99352 38.9875 4.66558C34.3027 4.33764 30.239 7.8696 29.911 12.5545C29.5831 17.2393 33.1151 21.303 37.7999 21.6309C42.4848 21.9588 46.5484 18.4269 46.8764 13.742Z" fill="url(#paint24_linear_514_5293)"/>
<path d="M44.9983 18.2163C45.3029 17.833 45.573 17.4236 45.8054 16.9927L38.4368 13.0068L43.9958 19.2804C44.3604 18.9557 44.6959 18.5997 44.9983 18.2163Z" fill="#00ACA4"/>
<path d="M46.7599 12.0473C46.7028 11.5611 46.6042 11.0807 46.4651 10.6113L38.4316 13.0104L46.7993 13.5159C46.8284 13.0262 46.8152 12.5348 46.7599 12.0473Z" fill="#00ACA4"/>
<path d="M43.6428 6.43993C43.2588 6.13628 42.8495 5.86624 42.4193 5.63281L38.4316 13.0014L44.7069 7.44411C44.3814 7.07971 44.0254 6.74377 43.6428 6.43993Z" fill="#00ACA4"/>
<path d="M37.4738 4.67996C36.9875 4.73604 36.507 4.83466 36.0378 4.9747L38.4369 13.0065L38.951 4.64055C38.4584 4.60925 37.964 4.62243 37.4738 4.67996Z" fill="#00ACA4"/>
<path d="M31.8668 7.79756C31.5622 8.18079 31.2921 8.59023 31.0597 9.02109L38.4283 13.007L32.871 6.7334C32.5053 7.05758 32.1693 7.41371 31.8668 7.79756Z" fill="#00ACA4"/>
<path d="M30.1052 13.9659C30.1614 14.4522 30.26 14.9327 30.3999 15.4019L38.4317 13.0028L30.0743 12.5059C30.043 12.9925 30.0533 13.481 30.1052 13.9659Z" fill="#00ACA4"/>
<path d="M33.2222 19.5732C33.6061 19.8769 34.0154 20.1469 34.4457 20.3803L38.4316 13.0117L32.158 18.569C32.483 18.9338 32.8391 19.2698 33.2222 19.5732Z" fill="#00ACA4"/>
<path d="M39.3912 21.3334C39.8776 21.2773 40.3581 21.1786 40.8272 21.0386L38.4281 13.0068L37.9226 21.3728C38.4123 21.4036 38.9038 21.3904 39.3912 21.3334Z" fill="#00ACA4"/>
<path opacity="0.74" d="M34.5006 8.37098C34.8044 8.37098 35.0507 7.85618 35.0507 7.22113C35.0507 6.58609 34.8044 6.07129 34.5006 6.07129C34.1968 6.07129 33.9506 6.58609 33.9506 7.22113C33.9506 7.85618 34.1968 8.37098 34.5006 8.37098Z" fill="url(#paint25_linear_514_5293)"/>
<path d="M34.5007 6.35904L30.0504 4.1416" stroke="url(#paint26_linear_514_5293)" stroke-width="2.37" stroke-linecap="round" stroke-linejoin="round"/>
<path d="M31.745 4.98464L30.4803 5.28452L27.9287 4.13125L29.7897 3.90162L29.3973 2.36621L31.5205 4.02672L31.745 4.98464Z" fill="url(#paint27_linear_514_5293)"/>
<path d="M31.745 4.98536L30.4803 5.28524L27.9287 4.13197L29.7897 3.90234L31.745 4.98536Z" fill="url(#paint28_linear_514_5293)"/>
<path opacity="0.74" d="M33.236 11.0204C33.5398 11.0204 33.786 10.5056 33.786 9.87055C33.786 9.23551 33.5398 8.7207 33.236 8.7207C32.9322 8.7207 32.6859 9.23551 32.6859 9.87055C32.6859 10.5056 32.9322 11.0204 33.236 11.0204Z" fill="url(#paint29_linear_514_5293)"/>
<path d="M33.2975 9.03613L28.4 9.88438" stroke="url(#paint30_linear_514_5293)" stroke-width="2.37" stroke-linecap="round" stroke-linejoin="round"/>
<path d="M30.2646 9.5625L29.4232 10.553L26.6831 11.1339L28.0471 9.84867L26.8219 8.84277L29.5157 8.92331L30.2646 9.5625Z" fill="url(#paint31_linear_514_5293)"/>
<path d="M30.2646 9.56152L29.4232 10.552L26.6831 11.1329L28.0471 9.8477L30.2646 9.56152Z" fill="url(#paint32_linear_514_5293)"/>
<path d="M25.516 31.0663H49.0698C49.069 31.0532 49.069 31.04 49.0698 31.0269C49.0784 30.9018 49.0869 30.775 49.0921 30.6482C49.0921 30.4768 49.1041 30.3055 49.1041 30.1341C49.1105 27.5473 48.2643 25.0304 46.6964 22.9728C46.0498 22.1245 45.2918 21.3672 44.443 20.7211C44.2545 20.5755 44.0592 20.4367 43.8604 20.3047C43.5459 20.0933 43.2211 19.8977 42.887 19.7187C41.1681 18.7934 39.2459 18.3105 37.2937 18.3135H37.1789C36.8465 18.3135 36.5169 18.3306 36.1902 18.3649C33.349 18.6285 30.7002 19.9146 28.7359 21.9841C28.6571 22.0663 28.58 22.1554 28.5063 22.2326C27.6007 23.2377 26.8749 24.3912 26.3608 25.6427C26.3128 25.7626 26.2648 25.8826 26.2186 26.0043C26.1278 26.2527 26.0472 26.5046 25.9667 26.76C25.9238 26.9073 25.8827 27.0547 25.845 27.2038C25.624 28.0714 25.5027 28.9614 25.4834 29.8565C25.4834 29.9473 25.4834 30.0381 25.4834 30.129V30.278C25.4817 30.5437 25.4954 30.8058 25.516 31.0663Z" fill="#FEE798"/>
<path d="M29.3889 29.1282C29.5208 29.1282 29.6596 29.1385 29.8001 29.1488C29.7813 29.3047 29.7642 29.459 29.747 29.6166C29.6973 30.093 29.6631 30.5762 29.6442 31.0595H29.9869C30.0006 30.7356 30.0178 30.4134 30.0452 30.093C30.0726 29.7725 30.1034 29.4795 30.1411 29.1762C30.3125 29.1933 30.4976 29.2156 30.6844 29.2396C30.9243 29.2722 31.1573 29.3099 31.3818 29.3544C33.0732 29.68 34.3653 30.3089 35.683 31.0595H36.3685C34.8656 30.1804 33.4673 29.4281 31.5703 29.0443C31.3047 28.9894 31.0305 28.9432 30.7461 28.9055C30.5576 28.8797 30.3776 28.8575 30.2029 28.842C30.3364 27.8819 30.5403 26.9328 30.8129 26.0026C30.8352 25.9306 30.8575 25.8552 30.8814 25.7815C31.7999 25.8158 32.7527 25.8912 33.7278 26.0077C35.5329 26.2257 37.3222 26.5594 39.0846 27.0068C42.8871 27.9647 46.347 29.363 49.1008 31.0201C49.1093 30.895 49.1179 30.7682 49.123 30.6414C46.3641 29.0066 42.93 27.6271 39.1669 26.6777C37.4687 26.2467 35.7455 25.9211 34.0071 25.7027C32.9789 25.5724 31.9645 25.4868 30.9894 25.4473C31.2254 24.7422 31.5117 24.055 31.8462 23.391H32.0176C33.5342 23.391 35.1261 22.7775 36.8072 22.1315C39.1206 21.2404 41.655 20.2653 44.4705 20.7075C44.282 20.5618 44.0867 20.423 43.8879 20.291C41.2523 20.058 38.8721 20.9765 36.6907 21.8145C35.0404 22.4502 33.4742 23.0534 32.0193 23.0517C33.0475 21.141 34.6703 19.2046 37.2116 18.2998C36.8791 18.2998 36.5495 18.3169 36.2228 18.3512C35.2744 18.8086 34.4118 19.426 33.673 20.1762C32.8423 21.0252 32.1444 21.9946 31.6029 23.0517C29.903 22.942 29.2398 22.4811 28.7343 21.9841C28.6554 22.0664 28.5783 22.1555 28.5047 22.2326C29.0188 22.7467 29.7333 23.2453 31.4384 23.3807C31.114 24.0458 30.8369 24.733 30.609 25.4371C29.1893 25.3843 27.7676 25.4514 26.3592 25.6376C26.3112 25.7575 26.2632 25.8775 26.217 25.9991C27.6355 25.7977 29.0691 25.7214 30.501 25.7712L30.4599 25.9083C30.1798 26.8626 29.9708 27.8363 29.8344 28.8215C29.5705 28.8021 29.3203 28.7918 29.0838 28.7906C27.2914 28.7906 26.2992 29.2773 25.4852 29.8582C25.4852 29.9491 25.4852 30.0399 25.4852 30.1307V30.2798C26.3369 29.6423 27.3445 29.0682 29.3889 29.1282Z" fill="#6F1700"/>
<path opacity="0.28" d="M42.8853 19.7187C35.8594 17.64 27.7934 21.009 25.8433 27.2038C25.881 27.0547 25.9221 26.9073 25.9649 26.76C26.0403 26.5046 26.126 26.2459 26.2168 26.0043C26.2631 25.8826 26.3111 25.7626 26.3591 25.6427C26.8732 24.3912 27.5989 23.2377 28.5045 22.2326C28.5782 22.1486 28.6553 22.0612 28.7341 21.9841C30.6985 19.9146 33.3473 18.6285 36.1884 18.3649C36.5163 18.3341 36.8459 18.3169 37.1772 18.3135H37.292C39.2442 18.3105 41.1664 18.7934 42.8853 19.7187Z" fill="white"/>
<g style="mix-blend-mode:multiply" opacity="0.87">
<path d="M25.516 31.0665H49.0698C49.069 31.0534 49.069 31.0402 49.0698 31.0271C49.0784 30.902 49.0869 30.7752 49.0921 30.6484C49.0921 30.477 49.1041 30.3056 49.1041 30.1343C49.1105 27.5474 48.2643 25.0306 46.6964 22.973C40.7399 20.5739 36.586 22.9216 33.9813 25.7148C33.8871 25.8159 33.7945 25.917 33.702 26.0199C32.8815 26.9561 32.1586 27.9735 31.5445 29.0564C31.4829 29.1627 31.4263 29.2655 31.3732 29.3666C31.2258 29.6339 31.0984 29.8784 30.991 30.1C30.9481 30.1874 30.8821 30.2613 30.8002 30.3138C30.7182 30.3663 30.6235 30.3954 30.5262 30.3979C30.4289 30.4003 30.3328 30.3761 30.2483 30.3278C30.1638 30.2796 30.0941 30.2091 30.0468 30.124L30.0365 30.1051C29.9526 29.9561 29.8532 29.795 29.7418 29.6288C29.6304 29.4625 29.5122 29.2997 29.3888 29.1284C29.298 29.0136 29.2003 28.8988 29.094 28.7857C28.2421 27.8516 27.163 27.1538 25.9615 26.7601C25.663 27.7661 25.5005 28.8076 25.4783 29.8567C25.4783 29.9475 25.4783 30.0383 25.4783 30.1291V30.2782C25.4817 30.5438 25.4954 30.806 25.516 31.0665Z" fill="#FDB737"/>
</g>
<path d="M6.3268 30.9667L7.08597 29.6524L5.88643 27.5703H3.79406C3.73687 27.9147 3.70821 28.2631 3.70838 28.6122C3.70789 29.4185 3.86086 30.2176 4.15908 30.9667H6.3268Z" fill="url(#paint33_linear_514_5293)"/>
<path d="M10.2476 30.9667L9.48842 29.6523H7.08591L6.32678 30.9667H10.2476Z" fill="#2A2A43"/>
<path d="M13.5361 30.967L14.2953 29.6526L13.094 27.5723H10.6915L9.48853 29.6526L10.2477 30.967H13.5361Z" fill="url(#paint34_linear_514_5293)"/>
<path d="M7.08598 25.49L5.88644 27.5704H3.79407C4.04603 26.0432 4.84521 24.6599 6.04237 23.6787L7.08598 25.49Z" fill="#2A2A43"/>
<path d="M10.6898 23.4085L9.49027 25.4905H7.09119L6.0459 23.6792C7.16478 22.7575 8.56511 22.246 10.0146 22.2295L10.6898 23.4085Z" fill="url(#paint35_linear_514_5293)"/>
<path d="M9.48853 25.4902H7.08602L5.88477 27.5723L7.08602 29.6526H9.48853L10.6915 27.5723L9.48853 25.4902Z" fill="url(#paint36_linear_514_5293)"/>
<path d="M13.2809 23.0846L13.0941 23.4085H10.695L10.0095 22.2295H10.0901C11.2105 22.2276 12.3115 22.5226 13.2809 23.0846Z" fill="url(#paint37_linear_514_5293)"/>
<path d="M13.094 23.4102H10.6915L9.48853 25.4905L10.6915 27.5726H13.094L14.2953 25.4905L13.094 23.4102Z" fill="#2A2A43"/>
<path d="M16.0226 30.9667C16.1909 30.5429 16.3133 30.1023 16.3876 29.6523H14.297L13.5378 30.9667H16.0226Z" fill="#2A2A43"/>
<path d="M15.6559 25.4899H14.2952L13.0957 23.4079L13.2825 23.084C14.2752 23.6584 15.095 24.4895 15.6559 25.4899Z" fill="url(#paint38_linear_514_5293)"/>
<path d="M16.4716 28.6144C16.4719 28.9629 16.4432 29.3108 16.3859 29.6546H14.2952L13.0957 27.5725L14.2952 25.4922H15.6559C16.1925 26.4452 16.4735 27.5207 16.4716 28.6144Z" fill="url(#paint39_linear_514_5293)"/>
<path opacity="0.16" d="M16.1169 31.046C15.8842 29.2164 14.9924 27.5344 13.6085 26.3151C12.2246 25.0959 10.4436 24.4231 8.59919 24.4229C4.73667 24.4229 2.78657 26.8973 4.11463 31.046H16.1169Z" fill="#00ACA4"/>
<defs>
<linearGradient id="paint0_linear_514_5293" x1="5.72021" y1="-10.6486" x2="5.87787" y2="35.5799" gradientUnits="userSpaceOnUse">
<stop stop-color="white"/>
<stop offset="1" stop-color="#BEC0C2"/>
</linearGradient>
<linearGradient id="paint1_linear_514_5293" x1="25.0191" y1="-10.7133" x2="25.1785" y2="35.5153" gradientUnits="userSpaceOnUse">
<stop stop-color="white"/>
<stop offset="1" stop-color="#BEC0C2"/>
</linearGradient>
<linearGradient id="paint2_linear_514_5293" x1="23.297" y1="-10.1002" x2="23.4518" y2="35.2763" gradientUnits="userSpaceOnUse">
<stop stop-color="white"/>
<stop offset="1" stop-color="#BEC0C2"/>
</linearGradient>
<linearGradient id="paint3_linear_514_5293" x1="25.2419" y1="-10.7146" x2="25.3997" y2="35.5121" gradientUnits="userSpaceOnUse">
<stop stop-color="white"/>
<stop offset="1" stop-color="#BEC0C2"/>
</linearGradient>
<linearGradient id="paint4_linear_514_5293" x1="17.3435" y1="-10.17" x2="17.4981" y2="35.2058" gradientUnits="userSpaceOnUse">
<stop stop-color="white"/>
<stop offset="1" stop-color="#BEC0C2"/>
</linearGradient>
<linearGradient id="paint5_linear_514_5293" x1="17.2576" y1="-10.1992" x2="17.4122" y2="35.1725" gradientUnits="userSpaceOnUse">
<stop stop-color="white"/>
<stop offset="1" stop-color="#BEC0C2"/>
</linearGradient>
<linearGradient id="paint6_linear_514_5293" x1="14.0271" y1="-10.2766" x2="14.1818" y2="35.0972" gradientUnits="userSpaceOnUse">
<stop stop-color="white"/>
<stop offset="1" stop-color="#BEC0C2"/>
</linearGradient>
<linearGradient id="paint7_linear_514_5293" x1="5.93593" y1="-10.171" x2="6.09075" y2="35.1988" gradientUnits="userSpaceOnUse">
<stop stop-color="white"/>
<stop offset="1" stop-color="#BEC0C2"/>
</linearGradient>
<linearGradient id="paint8_linear_514_5293" x1="9.25202" y1="-10.0645" x2="9.40677" y2="35.3093" gradientUnits="userSpaceOnUse">
<stop stop-color="white"/>
<stop offset="1" stop-color="#BEC0C2"/>
</linearGradient>
<linearGradient id="paint9_linear_514_5293" x1="17.5561" y1="-10.6877" x2="17.7138" y2="35.5409" gradientUnits="userSpaceOnUse">
<stop stop-color="white"/>
<stop offset="1" stop-color="#BEC0C2"/>
</linearGradient>
<linearGradient id="paint10_linear_514_5293" x1="8.19417" y1="10.8998" x2="0.0299084" y2="-7.16279" gradientUnits="userSpaceOnUse">
<stop stop-color="white"/>
<stop offset="1" stop-color="#001C7D"/>
</linearGradient>
<linearGradient id="paint11_linear_514_5293" x1="6.62414" y1="13.4155" x2="-6.33182" y2="-14.8458" gradientUnits="userSpaceOnUse">
<stop stop-color="white"/>
<stop offset="1" stop-color="#001C7D"/>
</linearGradient>
<linearGradient id="paint12_linear_514_5293" x1="4.81642" y1="10.2051" x2="9.22655" y2="-9.1308" gradientUnits="userSpaceOnUse">
<stop stop-color="white"/>
<stop offset="1" stop-color="#001C7D"/>
</linearGradient>
<linearGradient id="paint13_linear_514_5293" x1="10.8882" y1="11.4627" x2="-2.06892" y2="-16.7998" gradientUnits="userSpaceOnUse">
<stop stop-color="white"/>
<stop offset="1" stop-color="#001C7D"/>
</linearGradient>
<linearGradient id="paint14_linear_514_5293" x1="9.01773" y1="6.42133" x2="-10.8132" y2="6.66481" gradientUnits="userSpaceOnUse">
<stop stop-color="white"/>
<stop offset="1" stop-color="#001C7D"/>
</linearGradient>
<linearGradient id="paint15_linear_514_5293" x1="2.78575" y1="2.72965" x2="10.6494" y2="12.4657" gradientUnits="userSpaceOnUse">
<stop stop-color="white"/>
<stop offset="1" stop-color="#001C7D"/>
</linearGradient>
<linearGradient id="paint16_linear_514_5293" x1="3.27517" y1="5.37527" x2="1.60604" y2="2.14046" gradientUnits="userSpaceOnUse">
<stop stop-color="#FF142E"/>
<stop offset="1" stop-color="#FFA9A2"/>
</linearGradient>
<linearGradient id="paint17_linear_514_5293" x1="17.5848" y1="2.40319" x2="21.9033" y2="14.0937" gradientUnits="userSpaceOnUse">
<stop stop-color="white"/>
<stop offset="1" stop-color="#BEC0C2"/>
</linearGradient>
<linearGradient id="paint18_linear_514_5293" x1="18.7855" y1="29.1328" x2="14.3149" y2="38.6297" gradientUnits="userSpaceOnUse">
<stop stop-color="#824C9C"/>
<stop offset="1" stop-color="#291C4F"/>
</linearGradient>
<linearGradient id="paint19_linear_514_5293" x1="16.6027" y1="22.648" x2="17.7526" y2="20.5971" gradientUnits="userSpaceOnUse">
<stop stop-color="#0051CF"/>
<stop offset="1" stop-color="#00C8FF"/>
</linearGradient>
<linearGradient id="paint20_linear_514_5293" x1="23.921" y1="25.8853" x2="25.296" y2="23.4341" gradientUnits="userSpaceOnUse">
<stop stop-color="#0051CF"/>
<stop offset="1" stop-color="#00C8FF"/>
</linearGradient>
<linearGradient id="paint21_linear_514_5293" x1="18.098" y1="27.2467" x2="15.5076" y2="22.9412" gradientUnits="userSpaceOnUse">
<stop stop-color="#FF6B00"/>
<stop offset="1" stop-color="#FFCA22"/>
</linearGradient>
<linearGradient id="paint22_linear_514_5293" x1="21.9603" y1="25.5713" x2="34.5966" y2="49.0189" gradientUnits="userSpaceOnUse">
<stop stop-color="#00003A" stop-opacity="0"/>
<stop offset="1" stop-color="#000038"/>
</linearGradient>
<linearGradient id="paint23_linear_514_5293" x1="38.4334" y1="24.8957" x2="38.4334" y2="-0.125276" gradientUnits="userSpaceOnUse">
<stop offset="0.1" stop-color="#02867D"/>
<stop offset="0.93" stop-color="#00ACA4"/>
</linearGradient>
<linearGradient id="paint24_linear_514_5293" x1="41.5154" y1="5.29689" x2="22.1252" y2="54.324" gradientUnits="userSpaceOnUse">
<stop stop-color="white"/>
<stop offset="1" stop-color="#001C7D"/>
</linearGradient>
<linearGradient id="paint25_linear_514_5293" x1="33.4005" y1="11.3458" x2="35.4328" y2="3.73045" gradientUnits="userSpaceOnUse">
<stop stop-color="#00003A" stop-opacity="0"/>
<stop offset="1" stop-color="#000038"/>
</linearGradient>
<linearGradient id="paint26_linear_514_5293" x1="29.8482" y1="5.25032" x2="34.7046" y2="5.25032" gradientUnits="userSpaceOnUse">
<stop stop-color="#FF6B00"/>
<stop offset="1" stop-color="#FFCA22"/>
</linearGradient>
<linearGradient id="paint27_linear_514_5293" x1="31.5188" y1="7.81898" x2="28.1104" y2="0.714271" gradientUnits="userSpaceOnUse">
<stop stop-color="#FF6B00"/>
<stop offset="1" stop-color="#FFCA22"/>
</linearGradient>
<linearGradient id="paint28_linear_514_5293" x1="29.9868" y1="5.15158" x2="31.2189" y2="9.99429" gradientUnits="userSpaceOnUse">
<stop stop-color="#FF6B00"/>
<stop offset="1" stop-color="#FFCA22"/>
</linearGradient>
<linearGradient id="paint29_linear_514_5293" x1="32.1358" y1="13.9935" x2="34.1665" y2="6.37818" gradientUnits="userSpaceOnUse">
<stop stop-color="#00003A" stop-opacity="0"/>
<stop offset="1" stop-color="#000038"/>
</linearGradient>
<linearGradient id="paint30_linear_514_5293" x1="28.9074" y1="10.8856" x2="32.8184" y2="8.00955" gradientUnits="userSpaceOnUse">
<stop stop-color="#FF6B00"/>
<stop offset="1" stop-color="#FFCA22"/>
</linearGradient>
<linearGradient id="paint31_linear_514_5293" x1="31.7753" y1="11.9655" x2="24.8204" y2="8.2611" gradientUnits="userSpaceOnUse">
<stop stop-color="#FF6B00"/>
<stop offset="1" stop-color="#FFCA22"/>
</linearGradient>
<linearGradient id="paint32_linear_514_5293" x1="28.9605" y1="10.7226" x2="32.8221" y2="13.8941" gradientUnits="userSpaceOnUse">
<stop stop-color="#FF6B00"/>
<stop offset="1" stop-color="#FFCA22"/>
</linearGradient>
<linearGradient id="paint33_linear_514_5293" x1="6.45021" y1="26.621" x2="0.788418" y2="37.7733" gradientUnits="userSpaceOnUse">
<stop stop-color="white"/>
<stop offset="1" stop-color="#001C7D"/>
</linearGradient>
<linearGradient id="paint34_linear_514_5293" x1="12.2149" y1="26.3487" x2="10.174" y2="47.2841" gradientUnits="userSpaceOnUse">
<stop stop-color="white"/>
<stop offset="1" stop-color="#001C7D"/>
</linearGradient>
<linearGradient id="paint35_linear_514_5293" x1="8.36614" y1="23.5884" x2="8.60776" y2="35.9762" gradientUnits="userSpaceOnUse">
<stop stop-color="white"/>
<stop offset="1" stop-color="#001C7D"/>
</linearGradient>
<linearGradient id="paint36_linear_514_5293" x1="9.26405" y1="23.3653" x2="6.59593" y2="34.8535" gradientUnits="userSpaceOnUse">
<stop stop-color="white"/>
<stop offset="1" stop-color="#001C7D"/>
</linearGradient>
<linearGradient id="paint37_linear_514_5293" x1="11.5175" y1="22.9955" x2="10.3471" y2="26.0732" gradientUnits="userSpaceOnUse">
<stop stop-color="white"/>
<stop offset="1" stop-color="#001C7D"/>
</linearGradient>
<linearGradient id="paint38_linear_514_5293" x1="14.141" y1="24.9347" x2="13.0649" y2="27.1727" gradientUnits="userSpaceOnUse">
<stop stop-color="white"/>
<stop offset="1" stop-color="#001C7D"/>
</linearGradient>
<linearGradient id="paint39_linear_514_5293" x1="15.9027" y1="25.6961" x2="12.9809" y2="33.0202" gradientUnits="userSpaceOnUse">
<stop stop-color="white"/>
<stop offset="1" stop-color="#001C7D"/>
</linearGradient>
</defs>
</svg>
