<svg width="58" height="33" viewBox="0 0 58 33" fill="none" xmlns="http://www.w3.org/2000/svg">
<path d="M8.53935 5.97754C8.53935 5.97754 8.09639 7.45972 5.61231 7.3445C3.12823 7.22927 3.50079 10.2931 3.50079 10.2931C3.50079 10.2931 4.08273 11.0875 4.63551 11.2411C4.63551 11.2411 5.02004 10.7593 5.30845 10.6615C5.30845 10.6615 4.87586 11.0648 4.89989 11.4366C4.89989 11.4366 5.70165 12.1768 6.71451 11.9254C7.72737 11.6741 9.96594 8.29595 9.96594 8.29595L10.481 6.31448L8.53935 5.97754Z" fill="#262F36"/>
<path d="M11.464 4.97754C11.464 4.97754 11.6581 4.09319 10.7341 3.98429C9.87912 3.88194 11.464 4.97754 11.464 4.97754Z" fill="#262F36"/>
<path d="M3.53499 10.9428C3.53048 10.4413 3.67139 9.94791 3.94282 9.51518C4.21425 9.08245 4.60602 8.7265 5.07654 8.48513C5.6003 8.22304 6.19094 8.10676 6.74814 7.96443C7.22176 7.83946 7.71581 7.69714 8.04827 7.33612C8.20917 7.15023 8.32925 6.93649 8.4016 6.70715C8.47394 6.47782 8.49715 6.2374 8.46989 5.99967C8.46989 5.97016 8.41788 5.97016 8.41973 5.99967C8.452 6.25 8.4255 6.5039 8.3421 6.74369C8.25871 6.98349 8.1204 7.20342 7.93681 7.3882C7.51891 7.78566 6.86889 7.895 6.31355 8.03386C5.78417 8.14104 5.27718 8.32867 4.81281 8.58927C4.43079 8.82921 4.11302 9.14813 3.88414 9.52132C3.61474 9.95681 3.47555 10.452 3.48112 10.955C3.48112 10.961 3.48366 10.9667 3.48819 10.9709C3.49272 10.9752 3.49884 10.9775 3.50524 10.9775C3.51164 10.9775 3.51776 10.9752 3.52229 10.9709C3.52682 10.9667 3.52936 10.961 3.52936 10.955L3.53499 10.9428Z" fill="#45515A"/>
<path d="M6.62408 8.97754C6.62408 8.97754 6.27754 11.8887 6.66293 12.5625C7.04831 13.2363 8.25575 12.97 8.44999 12.6032C8.64424 12.2365 7.86103 9.12289 7.86103 9.12289L6.62408 8.97754Z" fill="#00ACA4"/>
<path d="M9.48096 7.97754C9.48096 7.97754 13.5109 9.08913 13.9606 8.82921C14.4103 8.5693 16.0161 9.51415 15.2994 10.392C14.5826 11.2698 12.1343 10.9004 12.1343 10.9004L9.48096 7.97754Z" fill="#FDB737"/>
<path d="M7.82191 23.9513C8.17107 23.8364 7.39335 20.2952 7.30467 19.6841C6.93519 17.1754 6.83175 16.0124 6.9001 15.4744C7.04235 14.3515 10.1312 15.262 11.0235 16.9055C11.7255 18.1939 11.6756 22.9746 10.4803 24.7852C9.85962 25.7271 6.5454 28.1993 4.63333 30.8682C4.63333 30.8682 4.03477 31.206 3.60986 30.6941C3.31982 30.3459 3.60986 29.8898 3.60986 29.8898C4.35991 28.114 6.86495 24.2682 7.82191 23.9513Z" fill="#FBC7B1"/>
<path d="M7.55661 17.0982C7.90624 16.052 12.1408 15.248 12.351 17.0208C12.6671 19.7003 12.3714 23.4008 11.8432 25.2763C11.5308 26.3932 10.6958 27.6514 9.98352 30.3864C9.93703 30.5663 9.86824 30.748 9.82361 30.9414C9.77898 31.1349 8.64824 30.494 8.54223 30.3695C8.33208 26.0904 9.37539 24.4084 9.37539 24.4084C9.47023 24.0837 8.49017 22.4841 8.32094 21.9038C7.74628 19.9291 7.29625 17.877 7.55661 17.0982Z" fill="#FBC7B1"/>
<path d="M12.4718 11.3281C12.3863 12.4146 11.8782 14.4607 11.8782 14.4607C11.8782 14.4607 8.15172 15.6829 8.07752 14.3683C8.07752 14.3683 8.18875 11.4712 7.5596 9.73285C7.04338 8.29513 9.20512 7.88952 10.065 7.99273C11.8782 8.2064 12.5703 10.0606 12.4718 11.3281Z" fill="#FDB737"/>
<path d="M6.495 18.933C6.94055 18.8122 7.35172 18.5714 7.69154 18.2321C8.03137 17.8929 8.28913 17.4659 8.44154 16.9898C8.44154 16.9608 8.48811 16.9898 8.48001 17.0098C8.32542 17.4918 8.06444 17.9239 7.72042 18.2674C7.3764 18.6109 6.96013 18.8549 6.50914 18.9775C6.48281 18.9775 6.46866 18.9397 6.495 18.933Z" fill="white"/>
<path d="M10.4821 7.98818C10.4309 8.0003 12.0603 9.9927 12.0759 10.9775L12.481 10.4382C12.481 10.4382 11.7264 8.72756 11.1232 8.10484C11.1298 8.09726 10.6802 7.93515 10.4821 7.98818Z" fill="#00ACA4"/>
<path d="M9.49449 7.91919C9.62423 7.28997 9.72659 6.64045 9.80053 5.97754L10.023 6.2537L10.0686 6.31106L10.4647 6.80391C10.4647 6.80391 10.4647 6.86127 10.4539 6.95474C10.4452 7.08857 10.4322 7.29676 10.4224 7.51344C10.4083 7.75341 10.4083 7.99574 10.4224 8.23571C10.4463 8.4609 10.6492 9.07483 10.1261 8.96436C9.57262 8.8454 9.43263 8.23997 9.49449 7.91919Z" fill="#FBC7B1"/>
<path d="M9.50017 5.97754L9.60152 6.10114C9.87534 6.45032 10.169 6.77966 10.481 7.08709C10.4556 7.30058 10.4151 7.63484 10.3822 7.97754C10.1287 7.78091 9.36836 7.07866 9.49509 6.01125C9.49763 6.00282 9.49763 5.99158 9.50017 5.97754Z" fill="#FC9171"/>
<path d="M8.78384 5.96491C7.66242 3.62605 9.96603 3.76237 10.65 4.3209C11.334 4.87943 12.0113 6.70298 10.8611 6.94568C9.711 7.18837 8.78384 5.96491 8.78384 5.96491Z" fill="#FBC7B1"/>
<path d="M10.4618 6.97705C10.1014 6.82646 9.76609 6.50054 9.48682 6.02931C9.47231 6.00404 9.4868 5.95981 9.50775 5.98509C9.78423 6.45545 10.1168 6.78142 10.4746 6.93283C10.4875 6.92651 10.4795 6.98337 10.4618 6.97705Z" fill="#FC9171"/>
<path d="M11.3833 5.76895C11.5696 5.89197 11.4741 5.90427 11.2257 5.97398C11.1779 5.98834 11.135 5.95553 11.1828 5.94118C11.2305 5.92683 11.3833 5.86532 11.3833 5.83047C11.3833 5.79561 11.221 5.7341 11.1732 5.7054C11.1254 5.67669 10.9582 5.59468 10.8579 5.53932C10.6859 5.4593 10.5599 5.3631 10.4901 5.25843C10.4755 5.22448 10.4785 5.18957 10.4985 5.15613C10.5185 5.1227 10.5551 5.09153 10.606 5.0648C10.6569 5.03807 10.7207 5.01642 10.793 5.00135C10.8654 4.98628 10.9447 4.97816 11.0251 4.97754C11.0824 4.97754 11.0776 5.01445 11.0251 5.0165C10.3325 5.03905 10.6143 5.33019 10.8579 5.47166C11.0203 5.57828 11.2305 5.66644 11.3833 5.76895Z" fill="#C56146"/>
<path d="M7.35026 9.34248C6.07708 8.38005 4.83167 7.22083 4.01331 6.12244C3.63837 5.61618 2.48096 3.02226 2.48096 3.02226L3.57966 1.97754C3.57966 1.97754 4.86261 4.15107 5.6989 5.06162C6.40314 5.8237 7.89153 7.05983 9.07994 7.14391L9.48096 9.97754C9.48096 9.97754 7.7953 9.67879 7.35026 9.34248Z" fill="#FDB737"/>
<path d="M3.47679 2.04842C3.46351 1.97213 3.41778 1.95941 3.35284 2.00073C3.33223 2.01393 3.312 2.02986 3.29231 2.04842C3.15404 2.19499 3.02588 2.3822 2.91152 2.60469C2.80327 2.80944 2.70442 3.03617 2.61635 3.28175C2.58684 3.36276 2.55976 3.44769 2.53521 3.53604C2.52298 3.57779 2.5121 3.62134 2.50271 3.66637C2.49327 3.71326 2.48639 3.76231 2.4821 3.81258C2.48061 3.83152 2.48061 3.85086 2.4821 3.8698C2.48058 3.88122 2.48058 3.89334 2.4821 3.90477C2.4939 3.97788 2.53375 3.99377 2.59278 3.96198C2.64423 3.93003 2.69376 3.88522 2.74037 3.82847C2.85005 3.69151 2.95285 3.53068 3.04729 3.3485C3.10632 3.23724 3.16242 3.12281 3.2126 3.01156C3.27676 2.86965 3.33598 2.71771 3.38974 2.557C3.41813 2.47088 3.44283 2.37939 3.46353 2.28364C3.48065 2.21103 3.48533 2.12775 3.47679 2.04842Z" fill="#262F36"/>
<path d="M3.48096 3.10169C3.40057 3.00813 3.35385 2.88911 3.34866 2.7645C3.33225 2.66114 3.2987 2.56144 3.24946 2.46972C3.12959 2.23432 2.67292 1.42845 2.53651 1.19729C2.53065 1.18719 2.52226 1.17882 2.51229 1.173C2.50233 1.16719 2.49106 1.16413 2.4796 1.16413C2.46814 1.16413 2.45687 1.16719 2.4469 1.173C2.43694 1.17882 2.42865 1.18719 2.42278 1.19729C2.38292 1.2838 2.36109 1.37789 2.3586 1.47355C2.35611 1.56921 2.37304 1.66435 2.40835 1.75292C2.42695 1.81654 2.42482 1.94378 2.39382 1.93954C2.02595 1.55993 1.33989 0.879192 1.23655 0.989469C1.13322 1.09975 1.56926 1.60447 1.87513 1.94166L1.85858 1.95439C1.44524 1.58114 0.907877 0.97038 0.800409 1.09338C0.692941 1.21638 1.08774 1.83987 1.48248 2.21311L1.46381 2.22584C1.08354 1.87592 0.614455 1.46874 0.488386 1.58963C0.426386 1.649 0.763196 2.09435 1.098 2.49092C1.19927 2.63301 1.1538 2.64785 1.098 2.63513L1.01949 2.60756C0.761154 2.52061 0.653657 2.5397 0.628857 2.62665C0.604057 2.71359 1.0298 2.83872 1.45554 3.26286C1.71269 3.46514 1.98976 3.63928 2.28221 3.78243C2.38202 3.84095 2.47802 3.90613 2.56951 3.97754C2.72299 3.88417 2.86767 3.77625 3.00152 3.65519C3.08419 3.58096 3.16265 3.50462 3.23291 3.43039C3.32375 3.32758 3.40671 3.21768 3.48096 3.10169Z" fill="#E29171"/>
<path d="M7.6623 13.9775C7.11463 14.6403 6.75339 15.433 6.61477 16.2765C6.39688 17.6611 6.48068 19.5013 6.61477 19.5772C6.74885 19.6531 9.22104 20.4387 10.4345 19.5772C10.4345 19.5772 12.0033 19.8165 12.481 19.5772C12.481 19.5772 12.481 16.4844 12.2279 15.6444C12.0597 15.1007 11.8536 14.5692 11.6111 14.0535C11.6111 14.0535 9.41545 14.6311 7.6623 13.9775Z" fill="#ED5450"/>
<path d="M2.90845 29.9841C2.77625 30.1262 2.64764 30.263 2.53131 30.3964C2.49879 30.4352 2.48096 30.4839 2.48096 30.5342C2.48096 30.5844 2.49879 30.6331 2.53131 30.6719C2.70288 30.8757 2.8961 31.061 3.10769 31.2245L5.11355 32.8842C5.18229 32.9414 5.26163 33.002 5.35858 32.9674C5.38866 32.9561 5.41528 32.9375 5.43595 32.9132C5.45662 32.8889 5.47065 32.8599 5.47666 32.8288C5.49319 32.7065 5.46167 32.5826 5.38853 32.4823C5.09946 31.9626 4.77513 31.4047 4.72048 30.8278C4.72048 30.8105 4.72048 30.7914 4.72048 30.7741C4.71286 30.6473 4.71934 30.5201 4.73985 30.3947C4.75528 30.2956 4.78562 30.1992 4.82979 30.1088C4.8443 30.0771 4.86199 30.047 4.88263 30.0187L4.90553 29.9876C4.67475 29.9029 4.45756 29.7863 4.26046 29.6411C4.05813 29.463 3.90986 29.2333 3.83211 28.9775C3.69639 29.2547 3.39677 29.454 3.16234 29.7173C3.07245 29.8091 2.99482 29.8975 2.90845 29.9841Z" fill="#2A2C4B"/>
<path d="M16.4803 5.53508C16.4803 5.53508 16.5253 4.65695 15.8471 4.23172C15.1688 3.80648 14.1082 3.95341 13.6947 4.38729C13.5137 4.44164 13.3499 4.54208 13.2195 4.67876C13.0891 4.81544 12.9965 4.98365 12.9508 5.16689C12.7916 5.80128 12.3642 7.682 12.5113 7.75978C13.2034 8.12279 14.5321 7.96722 15.0044 7.75978C16.4163 7.10119 16.4803 5.53508 16.4803 5.53508Z" fill="#262F36"/>
<path d="M15.475 21.2926C15.3347 22.7082 15.1188 24.1132 14.8285 25.5002C14.1496 28.609 14.2761 31.9775 14.2761 31.9775H12.8875C12.8875 31.9775 12.1917 26.8191 12.6206 24.7935C12.869 23.6208 12.7749 22.1902 12.9538 20.6358C13.0819 19.5043 15.62 19.9015 15.475 21.2926Z" fill="#E29171"/>
<path d="M14.5586 30.6583C14.9758 31.0544 15.5922 31.2738 16.1593 31.4916C16.2832 31.5233 16.3896 31.5971 16.4573 31.6983C16.4728 31.725 16.481 31.7548 16.481 31.7851C16.481 31.8154 16.4728 31.8453 16.4573 31.8719C16.4282 31.9052 16.3898 31.9304 16.3463 31.9448C16.3027 31.9593 16.2558 31.9625 16.2105 31.954C15.3232 31.9398 14.5382 32.0408 13.5505 31.9082C13.2797 31.8735 12.9987 31.8988 12.7347 31.8404C12.6847 31.8288 12.6404 31.8016 12.6094 31.7634C12.5784 31.7252 12.5625 31.6783 12.5644 31.6305C12.5644 31.4727 12.5832 31.2848 12.5951 31.1018C12.5951 30.9882 12.6087 30.8745 12.6138 30.7593C12.6076 30.2955 12.5631 29.8328 12.481 29.3752L13.7582 29.8945L13.8485 29.9024L14.1312 28.9775C14.1312 28.9902 14.1618 29.9513 14.1635 29.9639C14.1661 29.9963 14.1712 30.0285 14.1788 30.0602C14.2034 30.1533 14.2425 30.2426 14.2947 30.3253C14.3597 30.4309 14.4374 30.5294 14.5262 30.6189L14.5586 30.6583Z" fill="#E29171"/>
<path d="M16.4058 31.986C16.4737 31.9155 16.5144 32.3065 16.4448 32.3707C15.8164 32.9157 15.1696 33.0952 14.5268 32.9028C13.8637 32.7681 13.204 32.5502 12.5392 32.5053C12.4696 32.5053 12.4577 32.0886 12.529 32.0886C13.1616 32.1335 13.7907 32.3194 14.4233 32.4604C15.0867 32.6912 15.7555 32.5311 16.4058 31.986Z" fill="#ED5450"/>
<path d="M12.5485 30.9775C13.3721 31.4353 13.481 31.9775 13.481 31.9775L12.5957 31.9361C12.3688 31.6457 12.5485 30.9775 12.5485 30.9775Z" fill="#ED5450"/>
<path d="M15.4447 30.9897C15.6555 31.0707 15.8451 31.2202 16.2224 31.3802C16.5165 31.5069 16.6989 31.7956 15.9761 31.9161C15.4798 31.9827 14.9793 31.9952 14.481 31.9535C14.481 31.9535 15.0815 30.8505 15.4447 30.9897Z" fill="#ED5450"/>
<path d="M16.9468 29.1208C17.7232 27.4709 17.4228 24.7239 18.5943 23.2235C19.7658 21.7232 22.2827 21.3317 21.2288 23.4386C20.9812 23.9426 20.7107 24.4467 20.4244 24.9507C19.6374 26.3664 19.0059 27.8562 18.5398 29.3963C18.5027 29.6274 18.5027 29.8625 18.5398 30.0936C18.5963 30.7357 18.7514 31.3664 19 31.9653C19.0492 32.0728 17.753 31.4612 17.068 30.6447C16.9029 30.4481 16.7167 29.897 16.4902 29.776C16.4059 29.7324 16.9275 29.2014 16.9468 29.1208Z" fill="#E29171"/>
<path d="M18.4491 31.8963C18.5121 31.9205 18.4725 31.9971 18.4094 31.9729C17.8495 31.7394 17.3402 31.4442 16.8985 31.0973C16.4321 30.7495 15.9837 30.3896 15.4992 30.0539C15.4488 30.0176 15.5136 29.9518 15.564 29.9881C16.025 30.3077 16.4645 30.6475 16.8985 30.9818C17.349 31.3445 17.872 31.653 18.4491 31.8963Z" fill="#ED5450"/>
<path d="M16.2268 28.9775C16.7033 30.3234 16.3636 30.9775 16.3636 30.9775L15.481 30.0007C15.4907 29.4681 16.2268 28.9775 16.2268 28.9775Z" fill="#ED5450"/>
<path d="M18.2289 31.097C18.2947 31.2426 18.327 31.4173 18.4385 31.6897C18.5243 31.9023 18.5042 32.1411 18.1498 31.8237C17.9096 31.6006 17.6857 31.349 17.481 31.0722C17.481 31.0722 18.1174 30.8436 18.2289 31.097Z" fill="#ED5450"/>
<path d="M17.8033 14.9775C17.9169 15.7286 18.1845 16.4506 18.5907 17.1015C19.2379 18.0876 21.046 21.1352 21.481 22.5444C21.481 22.5444 21.2179 23.8508 19.1239 23.4614C17.0299 23.072 14.7219 26.2697 11.481 24.37C11.481 24.37 12.3579 21.9477 11.9563 20.23C11.5547 18.5123 13.7697 15.0433 13.7697 15.0433L17.8033 14.9775Z" fill="#02867D"/>
<path d="M14.485 12.1693C14.7466 13.5219 15.1969 12.949 15.4752 12.1043C15.489 12.063 15.4752 11.9448 15.4634 11.9862C15.1959 12.8013 14.7534 13.3801 14.5007 12.0748C14.4899 12.0157 14.4732 12.1102 14.485 12.1693Z" fill="white"/>
<path d="M13.481 10.8935C13.481 10.8935 14.4423 13.1655 14.2984 13.6097C14.1545 14.0539 14.8311 14.0123 15.4854 13.9117C16.1397 13.811 17.2317 13.6033 17.3815 13.5698C17.5314 13.5362 17.8518 13.1959 17.9201 12.8284C17.9883 12.4609 18.3563 11.4064 18.0566 10.8583C17.7569 10.3103 18.481 9.62964 18.481 9.62964L16.9973 7.97754L13.7673 8.95698L13.481 10.8935Z" fill="#00ACA4"/>
<path d="M16.481 8.1315C16.481 8.1315 18.6803 7.37778 19.0596 6.72638C19.3708 6.18923 19.9564 3.97754 19.9564 3.97754L21.481 4.23673C21.481 4.23673 21.2887 7.11347 20.654 7.94222C20.0544 8.72492 19.0124 9.54344 18.4949 9.9885C17.8796 10.5154 18.0107 10.9775 18.0107 10.9775L16.481 8.1315Z" fill="#00ACA4"/>
<path d="M13.263 8.66581C11.5862 9.35243 11.2417 12.3939 11.6201 13.8933C11.9128 15.0519 16.9233 14.9765 16.9233 14.9765L17.481 13.4689C17.481 13.4689 13.3705 13.4787 13.6672 12.3218C14.0038 11.0108 15.2385 7.97754 15.2385 7.97754C15.2385 7.97754 13.8445 8.42491 13.263 8.66581Z" fill="#00ACA4"/>
<path d="M21.481 3.29848C21.4173 3.35527 21.3598 3.42982 21.3107 3.51905C21.3074 3.5274 21.3049 3.53661 21.3034 3.54631C21.2759 3.68538 21.2612 3.83083 21.2597 3.97754C21.1396 3.97766 21.0198 3.95941 20.9016 3.92302C20.8259 3.90071 20.7561 3.87097 20.6862 3.84123C20.6165 3.81029 20.548 3.77222 20.481 3.72723C20.4897 3.58844 20.5013 3.42488 20.5144 3.26626C20.526 3.08179 20.547 2.89937 20.577 2.72103C20.6482 2.46468 20.7289 2.21634 20.8187 1.97754L21.481 3.29848Z" fill="#E29171"/>
<path d="M16.024 7.17513C15.9901 7.00689 15.9619 6.84087 15.9393 6.70583C15.9299 6.65271 15.9224 6.604 15.9167 6.56416C15.8998 6.46233 15.8904 6.39813 15.8904 6.39813L15.0493 6.14356L15.0097 6.13249H14.9947L14.9514 6.11921L14.481 5.97754C14.5472 6.72836 14.5597 7.48439 14.5185 8.23768C14.5054 8.61843 14.9307 9.16299 15.9243 8.91506C16.8783 8.6782 16.3402 8.16684 16.2329 7.94548C16.1688 7.78981 16.1189 7.62656 16.0842 7.45848C16.0635 7.3655 16.0428 7.27032 16.024 7.17513Z" fill="#E29171"/>
<path d="M13.9148 6.16253C13.9148 6.16253 14.9463 7.30071 15.9975 6.88699C17.0486 6.47326 16.1612 4.68164 15.4555 4.1969C14.7498 3.71215 12.5591 3.89326 13.9148 6.16253Z" fill="#E29171"/>
<path d="M14.9519 5.4541C14.9493 5.39967 14.9413 5.34596 14.928 5.29442C14.9272 5.22213 14.942 5.15107 14.9707 5.08976C14.9994 5.02845 15.0407 4.9795 15.0897 4.94878C15.1882 4.88853 15.2824 4.81621 15.3709 4.73276C15.4083 4.68239 15.4374 4.62211 15.4562 4.55582C15.4751 4.48953 15.4833 4.41869 15.4804 4.34789C15.4775 4.27708 15.4635 4.20788 15.4393 4.14474C15.4151 4.08161 15.3813 4.02596 15.34 3.98137H14.8844C14.5489 3.95413 14.2159 4.07276 13.9352 4.31949C13.7967 4.44408 13.6831 4.61178 13.6039 4.80813C13.5248 5.00448 13.4826 5.22359 13.481 5.44658C13.4882 5.62603 13.5148 5.80317 13.5597 5.97256C13.6089 6.21056 13.6909 6.43418 13.8016 6.6319C13.857 6.73076 13.9276 6.81271 14.0086 6.87231C14.0896 6.93191 14.1791 6.96778 14.2713 6.97754C14.4499 6.97754 14.6931 6.9287 14.6706 6.69201C14.6355 6.32947 14.8113 6.17543 14.7255 5.96692C14.7076 5.93381 14.6952 5.89605 14.689 5.85609C14.6693 5.67012 14.9392 5.64382 14.9519 5.4541Z" fill="#262F36"/>
<path d="M14.4899 6.28685C14.4659 6.42769 14.4905 6.57379 14.5583 6.69404C14.6261 6.81428 14.7318 6.89919 14.8529 6.93066C14.9653 6.98816 15.0926 6.99295 15.208 6.94402C15.3234 6.89509 15.4179 6.79626 15.4715 6.66837C15.4961 6.52781 15.4721 6.3817 15.4047 6.26135C15.3372 6.14101 15.2317 6.05601 15.1107 6.02456C14.998 5.96695 14.8703 5.96209 14.7545 6.011C14.6388 6.05991 14.544 6.15879 14.4899 6.28685Z" fill="#E29171"/>
<path d="M13.481 8.54246C13.5238 8.56364 15.1031 10.2556 16.1055 9.93781C16.7926 9.72031 16.3549 8.20774 16.208 7.97754C15.8384 8.04833 15.4622 8.08476 15.0847 8.08629C14.465 8.10182 13.9416 8.3405 13.481 8.54246Z" fill="#E29171"/>
<path d="M15.3792 8.8045C15.2787 8.94351 15.1596 8.98999 15.0453 8.93494C14.839 8.89193 14.6439 8.6954 14.4887 8.37407C14.4887 8.37407 14.4776 8.37407 14.482 8.39755C14.6593 8.76023 14.8857 8.96361 15.121 8.97146C15.1718 8.9855 15.2232 8.97516 15.2722 8.94108C15.3212 8.90699 15.3667 8.84987 15.406 8.7732C15.4413 8.66268 15.465 8.53428 15.4752 8.39835C15.4855 8.26242 15.4819 8.12275 15.465 7.99059C15.465 7.98713 15.4644 7.98381 15.4633 7.98136C15.4623 7.97891 15.4609 7.97754 15.4594 7.97754C15.4579 7.97754 15.4565 7.97891 15.4554 7.98136C15.4544 7.98381 15.4538 7.98713 15.4538 7.99059C15.4738 8.12942 15.4774 8.27833 15.4643 8.42158C15.4512 8.56484 15.4218 8.69713 15.3792 8.8045Z" fill="white"/>
<path d="M18.1919 9.99015C17.244 10.3055 17.244 10.6502 18.1919 10.9655C18.1919 10.9871 18.54 10.9771 18.4703 10.9556C17.5575 10.6458 17.5575 10.3082 18.4703 9.99845C18.54 9.97688 18.2476 9.96858 18.1919 9.99015Z" fill="white"/>
<path d="M20.8176 2.97484C20.7105 2.93963 20.5625 2.97484 20.4911 2.81479C20.4197 2.65474 20.7462 2.45788 20.8278 2.39866C21.1875 2.12658 21.2514 1.97133 21.3049 1.97773C21.6647 2.02254 21.3814 2.40986 21.259 2.56511C21.1365 2.72036 20.9248 3.00845 20.8176 2.97484Z" fill="#E29171"/>
<path d="M21.387 3.61199L20.9932 3.93405C20.8186 4.12996 20.57 3.61468 20.5369 3.36778C20.5038 3.12087 20.4094 2.76392 20.5802 2.42577C20.6366 2.32513 20.6992 2.24116 20.7664 2.17618L21.1972 2.00978C21.2335 1.97267 21.2753 1.96738 21.3135 1.99503C21.3517 2.02269 21.3833 2.08106 21.4011 2.15739L21.4686 2.98667C21.4844 3.0965 21.485 3.21346 21.4706 3.32409C21.4562 3.43471 21.4272 3.53451 21.387 3.61199Z" fill="#E29171"/>
<path d="M21.4798 3.0026C21.3046 3.36587 20.9807 3.70006 20.535 3.97754C20.5002 3.97754 20.4594 3.96096 20.4942 3.94438C20.9276 3.67209 21.2416 3.34473 21.4102 2.98933C21.4102 2.9628 21.4914 2.98933 21.4798 2.98933V3.0026Z" fill="#9B5846"/>
<path d="M13.593 10.991C13.5611 11.5025 13.5303 12.0146 13.5007 12.5275C13.4919 12.6856 13.444 12.9132 13.5398 13.0481C13.6356 13.183 13.8113 13.1977 13.9336 13.2378C14.7733 13.5188 15.6176 13.7654 16.4668 13.9775C16.4705 13.9775 16.4741 13.9758 16.4768 13.9726C16.4795 13.9694 16.481 13.9651 16.481 13.9607C16.481 13.9562 16.4795 13.9519 16.4768 13.9487C16.4741 13.9456 16.4705 13.9438 16.4668 13.9438C15.7075 13.7499 14.9536 13.5349 14.2032 13.2926C14.0189 13.2463 13.8377 13.185 13.6605 13.1092C13.4281 12.9891 13.5185 12.6118 13.5327 12.3694C13.5611 11.9114 13.5883 11.454 13.6143 10.9974C13.6143 10.9742 13.5877 10.9679 13.5877 10.9974L13.593 10.991Z" fill="white"/>
<path d="M20.5942 1.54532L19.5366 1.95087C19.4589 1.98069 19.4199 2.06792 19.4497 2.14569L20.3241 4.42572C20.3539 4.50348 20.4411 4.54233 20.5189 4.51251L21.5765 4.10696C21.6543 4.07714 21.6931 3.98993 21.6633 3.91217L20.789 1.63214C20.7592 1.55437 20.672 1.5155 20.5942 1.54532Z" fill="#47496E"/>
<path d="M20.8192 1.45648L19.7616 1.86203C19.6839 1.89185 19.645 1.97906 19.6748 2.05682L20.5492 4.33685C20.579 4.41462 20.6662 4.45349 20.7439 4.42367L21.8015 4.01812C21.8793 3.9883 21.9182 3.90107 21.8884 3.8233L21.0141 1.54327C20.9843 1.46551 20.897 1.42666 20.8192 1.45648Z" fill="#353659"/>
<path d="M22.2307 3.65287C22.5256 3.42129 22.5017 3.28299 22.4475 3.13504C22.3933 2.98709 22.3303 2.88095 22.0354 3.11253C21.7405 3.3441 21.413 3.6593 21.4933 3.88444C21.5735 4.10959 21.9336 3.88444 22.2307 3.65287Z" fill="#E29171"/>
<path opacity="0.7" d="M15.981 5.97754C16.2571 5.97754 16.481 5.75368 16.481 5.47754C16.481 5.2014 16.2571 4.97754 15.981 4.97754C15.7048 4.97754 15.481 5.2014 15.481 5.47754C15.481 5.75368 15.7048 5.97754 15.981 5.97754Z" fill="#FFBF61"/>
<path d="M19.0448 11.9775C18.1914 13.1347 17.6507 14.5177 17.481 15.9775C17.481 15.9775 18.5202 15.7298 19.1864 15.791C19.1864 15.791 19.3084 14.3193 20.481 12.5402C20.481 12.5402 19.6282 12.0492 19.0448 11.9775Z" fill="#E0DCFF"/>
<path d="M17.2428 14.1844C17.1961 14.2927 17.1444 14.3963 17.0881 14.4946C16.9871 14.6904 16.8552 14.8478 16.7035 14.9536C16.6651 14.9775 16.6226 14.9837 16.5818 14.9714C16.5728 14.9675 16.5643 14.9621 16.5562 14.9554C16.529 14.9264 16.5078 14.8871 16.4949 14.8418C16.482 14.7965 16.478 14.7469 16.4831 14.6984C16.4878 14.5737 16.505 14.4507 16.5343 14.3333C16.561 14.2234 16.5927 14.1162 16.6292 14.0124C16.6572 13.9345 16.6889 13.8529 16.7242 13.7732C16.7718 13.6616 16.8247 13.555 16.8824 13.4541C16.9055 13.4133 16.9287 13.3761 16.9518 13.3407C16.975 13.3052 17.0236 13.2343 17.0577 13.19C17.1053 13.1289 17.1576 13.0759 17.2136 13.0323C17.2415 13.0041 17.2737 12.9861 17.3074 12.9799C17.3411 12.9738 17.3753 12.9796 17.4071 12.9968C17.5508 13.1103 17.4789 13.6438 17.2428 14.1844Z" fill="#262F36"/>
<path d="M17.481 14.0638L17.0418 14.8386H17.0202H16.8908H16.8122L16.8769 14.9775C16.7598 14.9552 16.6135 14.9073 16.481 14.8721C16.5149 14.7731 16.555 14.6765 16.6011 14.583C16.6365 14.5127 16.6766 14.4392 16.7213 14.3673C16.7816 14.2668 16.8485 14.1707 16.9216 14.0798C16.9509 14.043 16.9802 14.0095 17.0095 13.9775L17.481 14.0638Z" fill="#E29171"/>
<path d="M19.4794 13.4025C19.4747 13.4157 19.4659 13.4269 19.4543 13.4341C19.4027 13.4714 19.3439 13.4965 19.2821 13.5077C19.2202 13.519 19.1567 13.5161 19.096 13.4994C18.9742 13.4789 18.8596 13.4323 18.7378 13.4174C18.6937 13.4137 18.6493 13.4137 18.6052 13.4174H18.5838L18.6035 13.4267C18.8473 13.5358 19.0738 13.6829 19.2752 13.8627C19.3002 13.8832 19.3289 13.9168 19.3164 13.9485C19.3091 13.9616 19.2986 13.9726 19.2859 13.9801C19.2261 14.0108 19.1609 14.0283 19.0943 14.0315C19.0277 14.0347 18.9612 14.0236 18.899 13.9988C18.8471 13.982 18.7969 13.9615 18.745 13.941C18.8517 14.0278 18.9528 14.1218 19.0477 14.2224C19.071 14.2466 19.0942 14.282 19.0781 14.3118C19.0709 14.3248 19.0594 14.3347 19.0458 14.3398C18.9838 14.3646 18.9176 14.3756 18.8512 14.372C18.7849 14.3685 18.72 14.3505 18.6608 14.3193C18.5408 14.2671 18.4315 14.1907 18.3025 14.1423H18.2829L18.3097 14.1628C18.4534 14.2693 18.5877 14.3891 18.711 14.5205C18.7343 14.5448 18.7593 14.582 18.7432 14.6118C18.735 14.624 18.7239 14.6337 18.711 14.6398C18.6486 14.6641 18.582 14.6748 18.5154 14.6713C18.4489 14.6678 18.3838 14.6501 18.3241 14.6193C18.2237 14.5746 18.1306 14.5131 18.0303 14.4665H18.0214C17.8861 14.5038 17.7602 14.5712 17.6524 14.664C17.5843 14.7237 17.5252 14.7945 17.4536 14.8504C17.366 14.9168 17.2637 14.9591 17.1562 14.9734C17.1098 14.9789 17.063 14.9789 17.0166 14.9734C16.9427 14.9682 16.87 14.9506 16.8016 14.9212L16.7407 14.8914C16.6825 14.8559 16.6309 14.8098 16.5884 14.7553C16.535 14.6658 16.4985 14.5665 16.481 14.4628C16.5222 14.3808 16.5688 14.2951 16.6207 14.2112C16.6908 14.0939 16.7685 13.9818 16.8535 13.8758C16.8876 13.8329 16.9216 13.7938 16.9556 13.7565C16.9896 13.7193 17.0613 13.6447 17.1114 13.5981C17.2513 13.4841 17.3986 13.3801 17.5521 13.2869C17.719 13.1656 17.9035 13.0725 18.0984 13.0111C18.1613 12.9944 18.2254 12.9832 18.29 12.9776C18.6963 12.9744 19.0931 13.1048 19.4238 13.3503C19.4579 13.3447 19.4883 13.3726 19.4794 13.4025Z" fill="#E29171"/>
<path d="M14.4968 12.3234C14.7973 12.7805 15.133 13.0049 15.4718 12.9749C15.812 12.7944 16.1446 12.5075 16.4638 12.1192C16.4941 12.0916 16.4809 11.9536 16.4506 11.9812C16.1531 12.3259 15.8467 12.601 15.5343 12.8037C15.1745 12.9804 14.8356 12.5829 14.51 12.1854C14.4816 12.1468 14.4684 12.2903 14.4968 12.3234Z" fill="white"/>
<path d="M8.80454 7.97754C8.80454 7.97754 9.12736 8.77814 8.96669 10.0151C8.76623 11.566 8.13682 12.3078 7.6961 12.4086C7.25538 12.5093 7.6283 12.9775 7.6283 12.9775C7.6283 12.9775 9.2497 12.4925 9.44574 10.2921C9.58577 8.758 9.263 8.06481 9.263 8.06481L8.80454 7.97754Z" fill="#00ACA4"/>
<path d="M10.4657 4.24636C10.4657 4.24636 10.7305 5.48231 9.05456 5.43022C9.05456 5.43022 9.27232 5.74925 9.09811 5.93914C8.9239 6.12904 7.92397 5.55284 7.92397 5.55284C7.92397 5.55284 7.20798 5.13398 7.59647 4.56538C7.98496 3.99678 9.5894 3.74612 10.4657 4.24636Z" fill="#262F36"/>
<path d="M9.79783 6.15351C9.88328 5.98038 9.77575 5.75276 9.55764 5.64511C9.33953 5.53745 9.09345 5.59054 9.008 5.76367C8.92255 5.93679 9.03008 6.16442 9.24818 6.27207C9.46629 6.37972 9.71238 6.32664 9.79783 6.15351Z" fill="#FBC7B1"/>
<path d="M10.4412 4.00162C10.3585 4.33588 10.1887 4.61937 9.96263 4.80038C9.7439 4.95699 9.5029 5.05021 9.25535 5.07396C8.90097 5.14185 8.42252 5.35951 8.48682 5.95859C8.48682 5.99253 8.52719 5.97656 8.5242 5.94461C8.47485 5.47533 8.81573 5.2377 9.10582 5.15982C9.33285 5.12488 9.55741 5.06545 9.77725 4.9821C9.94114 4.8999 10.0892 4.76997 10.2108 4.60174C10.3324 4.43352 10.4243 4.23124 10.48 4.0096C10.4875 3.97765 10.4486 3.96368 10.4412 3.99563V4.00162Z" fill="#45515A"/>
<path d="M10.4389 3.98436C10.1834 4.23053 9.83231 4.2448 9.49037 4.2448C9.20259 4.24355 8.91505 4.26203 8.62996 4.30009C8.19426 4.36253 7.60045 4.45707 7.48096 4.94761C7.48096 4.97794 7.5214 4.99043 7.52692 4.9601C7.60781 4.62653 7.9314 4.48917 8.24576 4.41604C8.54474 4.34954 8.84928 4.30954 9.15572 4.29653C9.60797 4.2769 10.121 4.35539 10.4739 4.01825C10.496 3.99685 10.461 3.96296 10.4389 3.98436Z" fill="#45515A"/>
<path d="M9.43862 6.53305C9.42217 6.63919 9.385 6.73271 9.33317 6.79828C9.28133 6.86385 9.21792 6.8976 9.15332 6.89398C9.0931 6.89851 9.0333 6.8755 8.9801 6.82735C8.9269 6.7792 8.88225 6.70768 8.8509 6.62025C8.75326 6.38764 8.64033 6.17471 8.51427 5.98559C8.49572 5.95894 8.46863 6.00497 8.48717 6.02919C8.59873 6.19156 8.69837 6.37619 8.78389 6.57908C8.83937 6.73896 8.92255 6.86586 9.0221 6.94243C9.06727 6.96988 9.11526 6.98143 9.16314 6.97639C9.21103 6.97135 9.25781 6.94982 9.30064 6.91311C9.34347 6.8764 9.38146 6.82528 9.41229 6.76286C9.44312 6.70044 9.46616 6.62802 9.47999 6.55001C9.4808 6.54596 9.4811 6.54166 9.4809 6.5374C9.4807 6.53313 9.47998 6.52898 9.47881 6.52519C9.47763 6.52141 9.47603 6.51806 9.47407 6.51537C9.47211 6.51269 9.46988 6.5107 9.46745 6.50955C9.46503 6.5084 9.46243 6.5081 9.45993 6.50867C9.45743 6.50924 9.45506 6.51066 9.4529 6.51286C9.45073 6.51506 9.44887 6.51799 9.44739 6.52146C9.44592 6.52493 9.44488 6.52887 9.44433 6.53305H9.43862Z" fill="#45515A"/>
<path d="M15.4362 3.99615C15.3337 4.42157 14.8545 4.32087 14.6477 4.62709C14.5166 4.82027 14.6242 5.0895 14.4914 5.28063C14.3585 5.47176 14.1231 5.50464 13.9567 5.64439C13.3968 6.11092 13.3734 7.28852 13.6676 7.96466C13.681 7.99549 13.7197 7.96466 13.7062 7.93795C13.5153 7.44859 13.4781 6.89049 13.602 6.36987C13.6555 6.12745 13.766 5.90952 13.9198 5.74304C14.0711 5.59096 14.2661 5.55191 14.4241 5.42038C14.4697 5.38767 14.5092 5.34375 14.5402 5.29139C14.5712 5.23903 14.5929 5.17938 14.604 5.11622C14.6225 5.00935 14.604 4.89631 14.6242 4.7915C14.6454 4.72522 14.6781 4.66526 14.7198 4.61564C14.7616 4.56601 14.8115 4.52787 14.8663 4.50378C15.0915 4.37636 15.3975 4.34759 15.4799 4.01054C15.4883 3.97766 15.4446 3.96327 15.4362 3.99615Z" fill="#45515A"/>
<path d="M15.4507 3.98485C15.2272 4.30745 14.89 4.1985 14.6543 4.4741C14.5663 4.59781 14.5087 4.76651 14.4918 4.95053C14.4335 5.25604 14.2547 5.35432 14.1003 5.51669C13.5938 6.05293 13.4231 7.04211 13.4976 7.95651C13.4976 7.99283 13.5342 7.97788 13.5315 7.94369C13.4754 7.39403 13.5304 6.83048 13.6886 6.33281C13.7601 6.11745 13.854 5.92247 13.9663 5.75597C14.0821 5.60905 14.2048 5.47621 14.3333 5.35859C14.4067 5.28894 14.4663 5.1883 14.5053 5.06803C14.5272 4.93473 14.5539 4.80348 14.5852 4.67493C14.626 4.57213 14.6855 4.49102 14.7559 4.44205C14.9889 4.25405 15.2732 4.31814 15.475 4.02544C15.4926 3.99981 15.4669 3.96135 15.4507 3.98485Z" fill="#45515A"/>
<path d="M8.49025 32.206C8.49025 32.3878 8.47934 32.5647 8.48116 32.7301C8.48094 32.7774 8.49894 32.8234 8.5322 32.8601C8.56546 32.8968 8.61192 32.9221 8.66358 32.9315C8.93837 32.9723 9.2173 32.986 9.49541 32.9725L12.2079 32.9299C12.3009 32.9299 12.4049 32.9299 12.4578 32.8398C12.473 32.8132 12.481 32.7837 12.481 32.7538C12.481 32.7239 12.473 32.6945 12.4578 32.6678C12.3849 32.5702 12.2734 32.5012 12.1459 32.4746C11.5603 32.278 10.9218 32.0815 10.4822 31.7031L10.4403 31.6671C10.3464 31.582 10.2637 31.4875 10.194 31.3854C10.1373 31.3051 10.0936 31.218 10.0645 31.1266C10.055 31.0955 10.0483 31.0637 10.0444 31.0316C10.0435 31.019 10.0435 31.0065 10.0444 30.9939C9.82712 31.0507 9.60291 31.0837 9.37677 31.0922C9.12242 31.0945 8.86973 31.0556 8.63071 30.9775C8.71097 31.2576 8.4939 32.0946 8.49025 32.206Z" fill="#2A2C4B"/>
<path d="M9.51633 25.9681L10.2095 24.854C10.3024 24.7243 10.3793 24.579 10.4379 24.4224C10.478 24.226 10.4902 24.0227 10.474 23.8214L10.466 20.9987C10.466 20.9931 10.4641 20.9877 10.4609 20.9837C10.4576 20.9798 10.4532 20.9775 10.4486 20.9775C10.444 20.9775 10.4396 20.9798 10.4363 20.9837C10.4331 20.9877 10.4313 20.9931 10.4313 20.9987C10.4313 21.8945 10.4313 22.7903 10.4313 23.6862C10.4501 23.911 10.4433 24.1379 10.4112 24.3605C10.3488 24.5535 10.2583 24.7311 10.1441 24.8849L9.48424 25.9469C9.47089 25.9681 9.50167 25.9909 9.51503 25.9681H9.51633Z" fill="#F39B8D"/>
<path d="M7.49123 14.0424C8.10733 14.6045 8.7787 14.9205 9.46297 14.9705C10.1472 15.0205 10.8295 14.8033 11.467 14.3328C11.4917 14.3125 11.4809 14.2399 11.4562 14.2573C10.8243 14.7272 10.1474 14.9452 9.46832 14.8978C8.78928 14.8503 8.12289 14.5383 7.51129 13.9815C7.48813 13.9612 7.46807 14.025 7.49123 14.0482V14.0424Z" fill="white"/>
<path d="M9.49108 11.1149C9.79582 11.6952 10.1234 12.2755 10.4678 11.8054C10.4907 11.7764 10.4815 11.6255 10.4572 11.6604C10.122 12.1014 9.80655 11.5675 9.51095 10.9872C9.48809 10.9408 9.46823 11.0743 9.49108 11.1149Z" fill="white"/>
<path d="M10.6033 9.00191C10.5862 9.2013 10.5999 9.4012 10.6441 9.5991C10.7003 9.81238 10.8993 9.99214 10.9708 10.1993C11.0423 10.4065 10.9708 10.6381 11.004 10.8559C11.0727 11.0211 11.1856 11.1785 11.3384 11.3221C11.5273 11.5719 11.2643 11.7883 11.1801 12.029C11.1382 12.2317 11.1469 12.4371 11.2056 12.6384C11.1958 12.8579 11.1015 13.0732 10.9299 13.2675L10.4832 13.9531C10.4679 13.9775 10.5344 13.9881 10.5497 13.9637L10.9938 13.2782C11.1409 13.1043 11.2376 12.9168 11.2797 12.7237C11.2797 12.4875 11.1623 12.2743 11.2465 12.0351C11.3129 11.8385 11.5222 11.6496 11.4737 11.444C11.4354 11.2779 11.2184 11.15 11.1316 10.9961C10.9938 10.7691 11.1036 10.5314 11.0653 10.2984C11.0321 10.0927 10.8432 9.91902 10.7564 9.72098C10.6714 9.48333 10.6421 9.23979 10.6696 8.99734C10.6696 8.99209 10.6662 8.98706 10.66 8.98334C10.6537 8.97963 10.6452 8.97754 10.6364 8.97754C10.6276 8.97754 10.6192 8.97963 10.613 8.98334C10.6068 8.98706 10.6033 8.99209 10.6033 8.99734V9.00191Z" fill="white"/>
<path d="M15.4829 19.0042C15.9796 20.0521 16.6332 21.0473 17.4292 21.9679C17.4498 21.9911 17.4951 21.9679 17.4766 21.9463C16.6832 21.0285 16.0311 20.0367 15.5344 18.9926C15.522 18.966 15.4705 18.9776 15.4829 19.0042Z" fill="#2A2C4B"/>
<path d="M15.481 20.0132C16.0212 20.6957 16.6644 21.3496 17.4033 21.9673C17.4338 21.992 17.5039 21.9673 17.4734 21.9427C16.7365 21.3253 16.0962 20.6713 15.5602 19.9885C15.5389 19.9622 15.4687 19.9885 15.49 20.0114L15.481 20.0132Z" fill="#2A2C4B"/>
<path d="M7.51341 23.9678C7.80529 23.4341 8.12922 23.147 8.45898 23.1299C8.46479 23.1299 8.47043 23.1219 8.47454 23.1076C8.47865 23.0933 8.48096 23.0739 8.48096 23.0537C8.48096 23.0335 8.47865 23.0141 8.47454 22.9999C8.47043 22.9856 8.46479 22.9775 8.45898 22.9775C8.12175 22.9978 7.79055 23.2907 7.49152 23.833C7.46624 23.8799 7.4915 24.0147 7.51341 23.9678Z" fill="#F39B8D"/>
<path d="M28.5676 7.97754C28.5676 7.97754 29.6102 10.6319 29.8375 10.7698C30.0647 10.9076 33.481 11.5394 33.481 11.5394L33.3205 12.5551C33.3205 12.5551 29.8031 13.0332 29.0621 12.9721C28.3212 12.9111 27.481 10.6406 27.481 10.6406L28.5676 7.97754Z" fill="#00ACA4"/>
<path d="M25.1615 6.08137C24.7447 5.90355 24.2572 5.98179 23.8228 6.10983C23.3884 6.23786 22.9657 6.42102 22.5097 6.46548C22.0124 6.51349 21.5131 6.39079 21.0119 6.39257C20.5106 6.39435 19.9445 6.5704 19.7676 6.99896C19.5258 7.57156 20.1195 8.18329 20.033 8.78968C19.9858 9.12755 19.7342 9.41029 19.6044 9.7286C19.3764 10.287 19.5317 10.9129 19.7774 11.4642C19.9386 11.8198 20.1411 12.1879 20.1529 12.5792C20.1725 13.2905 19.5632 13.9058 19.4885 14.6171C19.4138 15.3284 19.9051 15.9614 20.544 16.3366C21.1828 16.7119 21.9534 16.8506 22.7063 16.927C23.2944 17.0083 23.894 16.9914 24.4754 16.8772C25.5388 16.6247 26.3723 15.837 26.8342 14.9336C27.2962 14.0302 27.424 13.022 27.481 12.0297L25.1615 6.08137Z" fill="#2A2C4B"/>
<path d="M23.4577 24.8727C22.9806 26.2359 22.5735 27.5505 22.2689 28.5855C22.0093 29.4713 21.8259 30.1561 21.7389 30.4844L21.6814 30.7058L20.8391 30.9775C20.8391 30.9775 20.4475 30.8849 20.4833 30.3399C20.5081 29.9692 20.533 29.509 20.5485 29.0143C20.5563 28.7819 20.5641 28.5431 20.5734 28.295C20.62 27.0259 20.7288 25.614 21.2355 24.5161C21.7079 23.489 23.7188 24.1141 23.4577 24.8727Z" fill="#FBC7B1"/>
<path d="M22.481 28.3757C22.1903 29.5894 21.9849 30.5278 21.8874 30.9775L20.481 30.7795C20.5088 30.2717 20.5366 29.6411 20.5541 28.9632C20.5628 28.6447 20.5715 28.3176 20.5819 27.9775C20.9527 28.1411 21.8404 28.4897 22.481 28.3757Z" fill="white"/>
<path d="M20.4858 31.7446C20.4866 31.7898 20.5057 31.8333 20.54 31.8679C20.5743 31.9025 20.6217 31.926 20.6741 31.9344C20.9484 31.9728 21.2269 31.9856 21.5046 31.9727L24.2106 31.9328C24.3029 31.9328 24.3989 31.9328 24.4573 31.8483C24.4728 31.8237 24.481 31.7963 24.481 31.7685C24.481 31.7407 24.4728 31.7133 24.4573 31.6888C24.3843 31.5971 24.2735 31.5317 24.1466 31.5054C23.561 31.322 22.2748 31.0046 22.2315 30.1657C21.9476 30.192 21.6618 30.2 21.3765 30.1897C20.789 30.1689 20.5837 29.9775 20.5837 29.9775C20.5005 30.5638 20.4677 31.1544 20.4858 31.7446Z" fill="#2A2C4B"/>
<path d="M28.4728 24.7287C28.1684 26.2506 27.9376 27.7071 27.7769 28.8531C27.6408 29.8331 27.5539 30.5831 27.5142 30.9473C27.4971 31.105 27.4896 31.1906 27.4896 31.1906L26.0733 31.9775C26.0733 31.9775 26.0431 31.5966 25.9788 31.0161C25.9353 30.6217 25.8748 30.1318 25.7897 29.6082C25.7538 29.3616 25.714 29.1048 25.6762 28.8447C25.4871 27.5024 25.3321 25.9922 25.7273 24.7454C26.1054 23.5776 28.643 23.8813 28.4728 24.7287Z" fill="#FBC7B1"/>
<path d="M22.4453 7.03912C21.242 7.83151 19.8183 10.4326 19.4997 12.1027C19.1811 13.7728 23.0266 14.9775 23.0266 14.9775L23.474 13.1383C23.474 13.1383 23.6317 6.25961 22.4453 7.03912Z" fill="#00ACA4"/>
<path d="M33.481 10.244L31.5337 9.97754L30.481 15.929C30.481 15.929 32.3871 16.0383 32.4389 15.929C32.4906 15.8196 33.481 10.244 33.481 10.244Z" fill="#E0DCFF"/>
<path d="M21.4834 24.3986C21.9409 22.2817 22.9412 14.9775 22.9412 14.9775L28.481 15.7488C28.481 15.7488 28.2784 22.6032 28.1502 24.6383C28.1502 24.6383 25.8203 25.2962 25.7934 24.7796C25.7221 23.4786 25.5053 20.1034 25.5053 20.1034C25.5053 20.1034 24.5177 23.421 24.2391 24.7498C24.152 25.142 21.3869 24.8836 21.4834 24.3986Z" fill="#ED5450"/>
<path d="M25.5072 19.9717C25.5801 19.7972 25.6904 19.6255 25.8369 19.4587C25.9107 19.3736 25.9986 19.2895 26.1006 19.2064C26.1637 19.1213 26.2933 19.0466 26.4699 18.9936C26.4963 18.9883 26.4699 18.9733 26.4488 18.9787C26.2969 19.0192 26.182 19.0786 26.1217 19.1479C26.0215 19.2309 25.9318 19.3161 25.858 19.4023C25.6878 19.585 25.5616 19.7739 25.481 19.9664C25.481 19.9771 25.5178 19.9824 25.5231 19.9717H25.5072Z" fill="white"/>
<path d="M22.013 6.74715C20.5296 8.81701 22.6999 12.6809 21.9425 16.3409C21.9425 16.3409 22.1128 16.8083 24.0384 16.9049C29.4221 17.1773 29.2617 16.5957 29.2617 16.5957C29.2617 16.5957 29.7117 10.7973 29.3223 8.51303C29.0679 7.01071 27.6178 5.97578 25.2225 5.97754C23.968 5.98984 22.3868 6.22705 22.013 6.74715Z" fill="#00ACA4"/>
<path d="M22.4907 17.962C23.3209 18.0678 24.293 17.6227 24.481 16.9907C24.481 16.9762 24.4541 16.9704 24.4502 16.9907C24.2585 17.6082 23.3133 18.0489 22.4983 17.9446C22.4792 17.9446 22.4715 17.9648 22.4983 17.9677L22.4907 17.962Z" fill="white"/>
<path d="M25.0485 1.97754C24.8836 2.13142 24.7464 2.34001 24.6483 2.586C24.5502 2.83199 24.494 3.10828 24.4844 3.39199C24.4303 4.30664 25.0192 5.06287 25.3677 4.96977C25.7163 4.87667 25.159 2.03634 25.0485 1.97754Z" fill="#262F36"/>
<path d="M25.7355 6.96566C26.7951 7.07167 26.4297 6.43949 26.3807 6.21568C26.3807 6.2039 26.3807 6.19213 26.3807 6.17838C26.3687 6.0741 26.3646 5.96911 26.3684 5.86426C26.3684 5.74842 26.3786 5.62277 26.3889 5.49908V5.47749C26.3889 5.37933 26.4073 5.28116 26.4175 5.19674C26.4277 5.11232 26.4399 5.01023 26.4481 4.94151C26.4562 4.8728 26.4705 4.79427 26.4705 4.79427L25.6538 4.30541L25.5599 4.25044L25.1107 3.97754C24.968 4.63887 24.7666 5.28718 24.5084 5.9153C24.39 6.23531 24.6288 6.85571 25.7355 6.96566Z" fill="#FBC7B1"/>
<path d="M26.4723 5.97754C26.4597 5.9076 26.4554 5.83719 26.4594 5.76686C26.4594 5.68917 26.4702 5.6049 26.481 5.52195V5.50747C26.2552 5.40213 25.8767 5.18092 25.6982 5.07426L25.5993 5.01501C25.5993 5.02159 25.4811 4.97155 25.4811 4.97814C25.4771 5.18483 25.5678 5.38806 25.743 5.56473C25.9183 5.7414 26.171 5.88443 26.4723 5.97754Z" fill="#FC9171"/>
<path d="M25.4836 4.50058C25.4836 4.50058 25.5012 5.97905 26.6105 5.97754C27.7197 5.97602 27.5069 5.06771 27.3645 3.78333C27.279 3.00695 25.4009 2.17294 25.4836 4.50058Z" fill="#FBC7B1"/>
<path d="M24.9199 3.90926C24.9627 3.92351 25.0025 3.95201 25.0468 3.9627C25.1792 3.99715 25.3175 3.97113 25.435 3.88966C25.5081 3.83879 25.5684 3.76478 25.6093 3.67561C25.6501 3.58644 25.67 3.4855 25.6668 3.38369C25.657 3.28244 25.6351 3.18343 25.6018 3.08973C25.5905 3.05463 25.5868 3.01658 25.5912 2.97927C25.5956 2.94196 25.6079 2.90664 25.6269 2.87673C25.6459 2.84682 25.6709 2.82332 25.6997 2.80852C25.7284 2.79371 25.7597 2.7881 25.7908 2.79221C25.8492 2.79908 25.9067 2.81464 25.962 2.83853C26.1472 2.91893 26.3285 3.01171 26.5052 3.11646C26.6215 3.18645 26.7452 3.23738 26.8727 3.26789C27.506 3.41042 27.5797 2.87416 27.3878 2.47331C27.2916 2.32384 27.1689 2.20227 27.0287 2.11749C26.8885 2.03271 26.7343 1.98689 26.5775 1.98338C26.5775 1.98338 24.6084 1.89964 24.511 2.36641C24.4136 2.83319 24.5538 3.7988 24.9199 3.90926Z" fill="#262F36"/>
<path d="M24.5477 4.13251C24.6387 4.03603 24.7621 3.98047 24.8916 3.97765C25.0212 3.97483 25.1467 4.02496 25.2415 4.1174C25.3525 4.18785 25.4328 4.3009 25.4652 4.43241C25.4976 4.56392 25.4796 4.70346 25.4149 4.82124C25.3238 4.91816 25.2003 4.97417 25.0704 4.97739C24.9405 4.98062 24.8144 4.9308 24.719 4.83851C24.6082 4.76731 24.5283 4.65372 24.4963 4.52188C24.4643 4.39005 24.4828 4.25037 24.5477 4.13251Z" fill="#FBC7B1"/>
<path d="M24.481 4.00233C24.4826 4.13405 24.5074 4.26376 24.5537 4.38248C24.6 4.5012 24.6666 4.60609 24.7491 4.6899C24.9541 4.87866 25.2036 4.97966 25.4595 4.97751C25.4652 4.97751 25.4707 4.97472 25.4747 4.96976C25.4787 4.9648 25.481 4.95807 25.481 4.95105C25.481 4.94404 25.4787 4.93732 25.4747 4.93236C25.4707 4.9274 25.4652 4.92461 25.4595 4.92461C25.2352 4.92529 25.0159 4.84357 24.8294 4.6899C24.738 4.61411 24.663 4.51177 24.6111 4.39188C24.5592 4.27199 24.532 4.13822 24.5319 4.00233C24.5319 3.96927 24.4836 3.96927 24.4863 4.00233H24.481Z" fill="#FC9171"/>
<path d="M33.1422 12.9731C33.4503 13.0117 33.4748 12.7939 33.4802 12.5233C33.4857 12.2527 33.468 12.0278 33.1598 11.9892C32.8517 11.9505 32.4906 11.9892 32.4811 12.4003C32.4716 12.8114 32.8327 12.9344 33.1422 12.9731Z" fill="#FBC7B1"/>
<path d="M33.1399 11.9738C33.4497 12.009 33.4744 11.7907 33.4801 11.5196C33.4859 11.2485 33.4685 11.0231 33.1587 10.9879C32.8488 10.9527 32.4883 10.9879 32.4811 11.4034C32.4738 11.8189 32.83 11.9386 33.1399 11.9738Z" fill="#FBC7B1"/>
<path d="M25.5383 9.97754L23.481 15.9775H26.7788L28.481 10.9744L25.5383 9.97754Z" fill="#D5CDFF"/>
<path d="M30.481 11.5328L28.8962 10.9775L27.481 16.2369L29.3865 17.9775L30.481 11.5328Z" fill="#E0DCFF"/>
<path d="M30.4688 11.4993L31.481 9.97754L30.5446 16.2279L29.481 17.9775L30.4688 11.4993Z" fill="#D5CDFF"/>
<path d="M23.481 14.9775C23.6476 14.9142 23.9235 14.9775 24.1167 14.9459L24.0193 14.7243L24.096 14.684L24.2214 14.6121H24.2421L24.481 12.9775L23.9574 13.0696C23.8287 13.2894 23.7277 13.5641 23.6624 13.8725C23.6204 14.049 23.5845 14.2307 23.5547 14.4164C23.5235 14.5999 23.4989 14.7874 23.481 14.9775Z" fill="#FBC7B1"/>
<path d="M23.7696 14.9489C23.8395 14.9817 23.9127 14.9864 23.9838 14.9625C24.0981 14.9249 24.2014 14.8175 24.2758 14.659C24.3179 14.5661 24.3485 14.4596 24.388 14.3622C24.4483 14.2104 24.5272 14.0849 24.6189 13.9952H24.6265C24.7069 14.0202 24.7846 14.0655 24.8662 14.0859C24.9148 14.1044 24.9651 14.1049 25.0138 14.0874C25.0625 14.0699 25.1087 14.0346 25.1494 13.9839C25.1575 13.9714 25.164 13.956 25.1685 13.9386C25.1749 13.8956 25.1494 13.8593 25.129 13.8367C25.0075 13.7068 24.8794 13.5976 24.7464 13.5105H24.7617C24.8599 13.5286 24.9542 13.5875 25.0524 13.6147C25.101 13.6327 25.1513 13.6329 25.1999 13.6154C25.2486 13.5979 25.2947 13.563 25.3356 13.5127C25.3444 13.5015 25.3511 13.4857 25.3547 13.4674C25.3611 13.4244 25.3368 13.3881 25.3151 13.3655C25.2284 13.2726 25.1386 13.1894 25.0461 13.1163C25.0883 13.1287 25.1309 13.1363 25.1736 13.139C25.2229 13.1491 25.2729 13.1408 25.3204 13.1147C25.3678 13.0885 25.4116 13.0451 25.4491 12.9872C25.4574 12.9749 25.4632 12.9582 25.4656 12.9396C25.4656 12.8943 25.4439 12.8626 25.421 12.8445C25.2384 12.6859 25.0431 12.5782 24.842 12.5251C24.8782 12.5041 24.9153 12.4889 24.953 12.4797C25.0435 12.4594 25.1366 12.4797 25.2272 12.4639C25.273 12.4626 25.3183 12.4444 25.36 12.4105C25.4017 12.3766 25.4389 12.3276 25.4694 12.2668C25.4758 12.2533 25.4798 12.2367 25.481 12.2192C25.481 12.1785 25.4554 12.1558 25.4338 12.1422C25.1501 11.952 24.8399 11.9259 24.5474 12.0675C24.5035 12.0965 24.4609 12.1313 24.4199 12.1717C24.2901 12.3123 24.1735 12.4881 24.0743 12.6927C23.9689 12.8966 23.8669 13.105 23.7683 13.3179C23.7224 13.4221 23.6764 13.5241 23.6331 13.626L23.6216 13.6554C23.475 14.0156 23.3895 14.3871 23.6407 14.8266C23.6785 14.8825 23.7224 14.9241 23.7696 14.9489Z" fill="#FBC7B1"/>
<path d="M23.8661 3.70592C23.8661 3.70592 23.481 4.7517 23.481 4.93392C23.481 5.11614 24.7295 4.70733 25.4433 4.08303C26.157 3.45873 28.3055 3.47458 28.4679 3.36208C28.6304 3.24958 27.2194 2.80909 27.2194 2.80909C27.2194 2.80909 26.8543 2.03426 26.0602 1.98197C25.2662 1.92968 23.9026 2.35116 23.773 2.65064C23.6434 2.95011 23.8661 3.70592 23.8661 3.70592Z" fill="#FDB737"/>
<path d="M23.5014 3.95788C24.1404 4.09438 24.6986 3.49314 25.2194 2.98289C25.9124 2.31665 26.6219 1.90716 27.4477 2.11841C27.4809 2.11841 27.4953 2.04691 27.4622 2.03716C26.8093 1.86997 26.1396 2.05685 25.5637 2.5669C24.9413 3.10639 24.2836 4.02938 23.5138 3.86689C23.4806 3.86689 23.4661 3.94163 23.5014 3.94813V3.95788Z" fill="white"/>
<path d="M21.6334 23.0439C21.6242 23.3454 21.5866 23.6432 21.5219 23.9281C21.4247 24.2847 21.498 24.5192 21.7703 24.6462C22.0426 24.7732 23.9156 25.2446 24.2899 24.7708C24.3538 24.6362 24.3828 24.4698 24.371 24.3043C24.371 23.9525 24.516 23.8793 24.473 23.7547C24.43 23.6301 23.304 23.9013 22.5189 23.4665C21.7337 23.0317 21.6429 22.8754 21.6334 23.0439Z" fill="#F25242"/>
<path d="M25.483 24.0678C25.5232 24.2397 25.5349 24.4149 25.518 24.5892C25.4811 24.81 25.5917 24.9311 25.8866 24.9567C26.1816 24.9823 28.1448 25.0407 28.4378 24.7074C28.4378 24.7074 28.5522 24.6077 28.4084 24.3142C28.3162 24.1233 28.484 24.0478 28.4213 23.9852C28.3586 23.9225 27.284 24.2701 26.4342 24.1561C25.5844 24.0421 25.4627 23.9695 25.483 24.0678Z" fill="#F25242"/>
<path d="M27.481 28.9853C27.3513 29.8879 27.2685 30.5788 27.2307 30.9142L25.769 30.9775C25.7276 30.6143 25.67 30.163 25.589 29.6808C25.5548 29.4536 25.517 29.2171 25.481 28.9775C25.8896 29.0425 26.8437 29.1584 27.481 28.9853Z" fill="white"/>
<path d="M26.5091 31.2358C26.5091 31.4102 26.5006 31.5814 26.5006 31.7395C26.5012 31.7856 26.5155 31.8301 26.5411 31.8655C26.5667 31.9008 26.602 31.9248 26.6411 31.9334C26.8458 31.9727 27.0535 31.9858 27.2607 31.9726L29.2794 31.9318C29.3482 31.9318 29.4198 31.9318 29.4633 31.8454C29.4749 31.8204 29.481 31.7924 29.481 31.7639C29.481 31.7355 29.4749 31.7075 29.4633 31.6824C29.4088 31.5887 29.3262 31.5219 29.2316 31.495C28.7947 31.3076 27.7692 30.9066 27.7383 30.0493C27.5557 30.1304 27.3602 30.1649 27.1651 30.1503C26.9293 30.1476 26.6964 30.0888 26.481 29.9775C26.512 30.288 26.5237 30.6007 26.5161 30.9131C26.5133 31.0207 26.5105 31.1283 26.5091 31.2358Z" fill="#2A2C4B"/>
<path d="M23.6688 6.0906C23.6688 6.0906 25.2299 9.81984 22.6032 11.555L22.481 11.9775C22.481 11.9775 24.1313 11.5676 24.4152 9.36132C24.6924 7.2198 24.0039 6.01508 24.0039 6.01508C23.9489 5.98077 23.8876 5.96964 23.8279 5.98309C23.7683 5.99653 23.7129 6.03396 23.6688 6.0906Z" fill="#2A2C4B"/>
<path d="M23.4799 12.9525C23.2277 12.7763 22.9734 12.6021 22.7115 12.4379L22.5929 12.3643C22.5639 12.3503 22.536 12.3343 22.5096 12.3165C22.5096 12.2966 22.5555 12.2319 22.5651 12.217L22.6859 11.9951C22.6934 11.9821 22.672 11.9702 22.6645 11.9831L22.4839 12.3135C22.482 12.3158 22.481 12.3186 22.481 12.3215C22.481 12.3244 22.482 12.3272 22.4839 12.3295C22.8173 12.5365 23.1422 12.7514 23.4628 12.9754C23.4756 12.9843 23.4885 12.9634 23.4756 12.9545L23.4799 12.9525Z" fill="white"/>
<path d="M27.481 9.00569C28.2738 9.64383 27.9329 10.3065 28.2738 10.9552C28.2738 10.985 28.496 10.985 28.4801 10.9552C28.1709 10.3013 28.4801 9.63507 27.6873 8.99342C27.6873 8.96537 27.4574 8.97764 27.4891 9.00569H27.481Z" fill="white"/>
<path d="M22.4245 17.9998C22.3551 19.6742 22.0386 21.3359 21.4816 22.9499C21.4801 22.9556 21.4813 22.9615 21.485 22.9665C21.4887 22.9715 21.4946 22.9751 21.5015 22.9767C21.5085 22.9783 21.5159 22.9776 21.5223 22.9749C21.5286 22.9722 21.5335 22.9676 21.5358 22.9621C22.0947 21.3443 22.412 19.6784 22.481 17.9998C22.481 17.9701 22.4267 17.9701 22.4245 17.9998Z" fill="white"/>
<path d="M27.4832 17.0196C27.5696 17.2669 27.7032 17.4837 27.8723 17.6508C28.0413 17.8179 28.2406 17.9301 28.4525 17.9775C28.4814 17.9775 28.4932 17.9306 28.4643 17.9242C28.2581 17.878 28.0641 17.7688 27.8995 17.6062C27.7349 17.4435 27.6048 17.2326 27.5206 16.9918C27.5104 16.9577 27.4713 16.9918 27.4832 17.0196Z" fill="white"/>
<path d="M50.9068 4.45614C50.8647 4.585 50.8265 4.71244 50.7902 4.84129C50.635 5.39168 50.5329 5.94958 50.4847 6.51074C50.474 6.554 50.4863 6.59867 50.5191 6.63534C50.5502 6.65837 50.5903 6.6737 50.6336 6.67924C51.9203 6.95405 53.2669 7.04014 54.598 6.9327H54.6323L54.8232 6.9157H54.8577C54.9321 6.90721 55.0065 6.90013 55.0791 6.89022C55.1131 6.88884 55.1464 6.88208 55.1765 6.8704C55.2112 6.85206 55.2394 6.82777 55.2587 6.7996C55.4355 6.5619 55.5096 6.28966 55.471 6.0197C55.4324 5.74974 55.2829 5.49509 55.0428 5.29016C54.7908 5.08201 54.4528 4.94041 54.1988 4.73651C53.9973 4.58596 53.8846 4.38223 53.8856 4.17012C53.8913 4.10249 53.9175 4.03667 53.9621 3.97754L53.2173 4.05259L52.8812 4.08657L52.2549 4.15029L50.8685 4.29189C50.9392 4.32021 50.9278 4.39667 50.9068 4.45614Z" fill="#ED5450"/>
<path d="M53.8368 5.04778C54.0076 5.18669 54.1557 5.35485 54.2751 5.54543C54.387 5.74747 54.4484 5.97687 54.4533 6.21156C54.4577 6.46917 54.4326 6.72639 54.3788 6.97754H54.4051C54.4825 6.56725 54.5351 6.12108 54.3861 5.72952C54.3086 5.53685 54.1936 5.36402 54.0487 5.22251C53.9026 5.0665 53.6937 4.94482 53.5929 4.74514C53.4984 4.51625 53.4885 4.25765 53.5652 4.02128C53.5645 4.01298 53.5645 4.00463 53.5652 3.99632V3.98696C53.5643 3.98421 53.5626 3.98182 53.5604 3.98013C53.5582 3.97844 53.5555 3.97754 53.5528 3.97754C53.55 3.97754 53.5474 3.97844 53.5451 3.98013C53.5429 3.98182 53.5413 3.98421 53.5404 3.98696C53.5386 3.99651 53.5361 4.0059 53.533 4.01504L53.5199 4.06964C53.4769 4.23685 53.4694 4.4122 53.498 4.58289C53.5568 4.77528 53.6766 4.9397 53.8368 5.04778Z" fill="#E04B3E"/>
<path d="M53.9969 5.60412C54.1638 5.78734 54.2928 6.00179 54.3767 6.23515C54.4538 6.47463 54.4739 6.72888 54.4354 6.97754H54.4631C54.524 6.57024 54.428 6.155 54.1946 5.81601C53.9491 5.46337 53.5416 5.16332 53.5076 4.70241C53.499 4.58627 53.5135 4.46955 53.5503 4.35908C53.5871 4.24861 53.6456 4.1466 53.7222 4.05901L53.7608 4.0188C53.7666 4.01223 53.7728 4.00603 53.7793 4.00023C53.7804 3.99835 53.7809 3.99622 53.7809 3.99405C53.7809 3.99188 53.7804 3.98974 53.7793 3.98786C53.7784 3.98526 53.7767 3.983 53.7745 3.98134C53.7723 3.97969 53.7697 3.97873 53.767 3.97858C53.7655 3.97789 53.7639 3.97754 53.7623 3.97754C53.7607 3.97754 53.7592 3.97789 53.7577 3.97858L53.7346 4.00178C53.5968 4.14624 53.5098 4.33183 53.487 4.53033C53.4641 4.72882 53.5066 4.92936 53.608 5.10145C53.7221 5.28054 53.8523 5.44879 53.9969 5.60412Z" fill="#E04B3E"/>
<path d="M54.481 8.69678C54.481 8.69678 48.7702 6.96881 48.5326 8.86957C48.2342 11.2438 49.3266 14.6704 49.3266 14.6704C49.3266 14.6704 49.1792 17.4472 52.7309 16.9081C54.5086 16.6385 54.3704 15.7192 54.3704 15.7192C52.3661 10.4282 54.481 8.69678 54.481 8.69678Z" fill="#FDB737"/>
<path d="M51.2075 29.9018H51.1178L50.8358 28.9775C50.8358 28.9896 50.8048 29.9517 50.8032 29.9638C50.8011 29.9965 50.7956 30.0289 50.7869 30.0606C50.7624 30.1541 50.7234 30.2438 50.6711 30.3268C50.6063 30.4322 50.5292 30.5306 50.4412 30.6203L50.4021 30.6581C49.9847 31.0544 49.3683 31.2753 48.8009 31.4916C48.6778 31.5243 48.5721 31.5981 48.5042 31.6988C48.4889 31.7253 48.481 31.7549 48.481 31.785C48.481 31.8151 48.4889 31.8447 48.5042 31.8712C48.5564 31.9544 48.6672 31.956 48.7504 31.9544C49.6357 31.9393 50.4217 32.0407 51.4081 31.9091C51.6788 31.8743 51.9576 31.9 52.2233 31.841C52.274 31.8299 52.319 31.8029 52.3508 31.7646C52.3826 31.7263 52.3992 31.679 52.3978 31.6307C52.3978 31.4643 52.3782 31.2858 52.3668 31.1013C52.3668 30.9894 52.3538 30.8744 52.3489 30.761C52.355 30.2967 52.3992 29.8335 52.481 29.3754L51.2075 29.9018Z" fill="#FBC7B1"/>
<path d="M51.481 31.9775L52.3688 31.936C52.5984 31.6495 52.4043 30.9775 52.4043 30.9775C51.5786 31.4403 51.481 31.9775 51.481 31.9775Z" fill="#FF6A51"/>
<path d="M49.5169 30.9896C49.3064 31.0707 49.1163 31.2191 48.7395 31.3854C48.4442 31.51 48.2643 31.8049 48.9857 31.9157C49.482 31.9827 49.9826 31.9953 50.481 31.9533C50.481 31.9533 49.8801 30.8511 49.5169 30.9896Z" fill="#DD3E3E"/>
<path d="M49.481 17.7475C49.481 17.7475 49.6304 21.2679 50.2713 24.416C50.9122 27.564 50.7921 30.9775 50.7921 30.9775H52.0977C52.0977 30.9775 52.7539 25.7513 52.349 23.6999C51.9441 21.6484 52.4887 18.8225 51.077 15.9198C49.6653 13.0171 49.481 17.7475 49.481 17.7475Z" fill="#FBC7B1"/>
<path d="M50.481 17.7475C50.481 17.7475 50.6799 21.2679 51.5331 24.416C52.3862 27.564 52.2264 30.9775 52.2264 30.9775H53.9699C53.9699 30.9775 54.8435 25.7513 54.3063 23.6999C53.7691 21.6484 54.4922 18.8225 52.6111 15.9198C50.73 13.0171 50.481 17.7475 50.481 17.7475Z" fill="#FBC7B1"/>
<path d="M52.4008 30.6608C51.9835 31.0563 51.3673 31.2752 50.8016 31.4925C50.6783 31.5239 50.5723 31.5972 50.5049 31.6979C50.4892 31.7245 50.481 31.7543 50.481 31.7847C50.481 31.815 50.4892 31.8448 50.5049 31.8715C50.5587 31.9545 50.6597 31.956 50.751 31.9545C51.6379 31.9394 52.422 32.0405 53.4083 31.9092C53.6789 31.8745 53.9593 31.9001 54.2234 31.8413C54.2741 31.8302 54.319 31.8033 54.3508 31.765C54.3826 31.7268 54.3992 31.6796 54.3978 31.6314C54.3978 31.4654 54.3798 31.2872 54.3684 31.1031C54.3603 30.9914 54.3538 30.8766 54.3489 30.7634C54.355 30.3 54.3991 29.8378 54.481 29.3806L53.2061 29.8999H53.1148L52.8328 28.9775C52.8328 28.9896 52.8018 29.9482 52.8018 29.9618C52.8018 29.9754 52.792 30.0267 52.7855 30.0584C52.7607 30.1516 52.7218 30.2411 52.6698 30.3241C52.6044 30.4293 52.5268 30.5275 52.4383 30.617L52.4008 30.6608Z" fill="#FBC7B1"/>
<path d="M49.5757 31.9854C49.4904 31.9178 49.4396 32.3051 49.5249 32.3727C50.311 32.9175 51.12 33.0957 51.9239 32.9014C52.7527 32.7662 53.5774 32.551 54.4082 32.508C54.4956 32.508 54.5098 32.0838 54.4204 32.0899C53.6302 32.133 52.842 32.3174 52.0539 32.4649C51.2245 32.6903 50.3888 32.5286 49.5757 31.9854Z" fill="#ED5450"/>
<path d="M54.3483 30.9775C52.7 31.4357 52.481 31.9775 52.481 31.9775L54.2425 31.9364C54.7081 31.647 54.3483 30.9775 54.3483 30.9775Z" fill="#ED5450"/>
<path d="M50.5183 30.9896C50.3061 31.0707 50.1159 31.2191 49.739 31.3854C49.4453 31.51 49.2636 31.8049 49.9852 31.9157C50.4816 31.9827 50.9824 31.9953 51.481 31.9533C51.481 31.9533 50.8799 30.8511 50.5183 30.9896Z" fill="#ED5450"/>
<path d="M50.503 30.9755C50.9849 30.7645 51.4068 30.5002 51.75 30.1942C52.0873 29.8512 52.3266 29.4708 52.4562 29.0717C52.4817 28.9565 52.4876 28.8399 52.4735 28.7239C52.4587 28.5347 52.4315 28.3438 52.3994 28.1562C52.229 27.1291 51.9624 26.1117 51.7278 25.091C51.62 24.7257 51.549 24.3561 51.5153 23.9847C51.5141 23.9826 51.5119 23.9808 51.5091 23.9795C51.5062 23.9782 51.5028 23.9775 51.4993 23.9775C51.4958 23.9775 51.4925 23.9782 51.4897 23.9795C51.4868 23.9808 51.4845 23.9826 51.4833 23.9847C51.5084 24.2799 51.562 24.5738 51.6438 24.8646C51.7549 25.3595 51.876 25.8529 51.9896 26.3478C52.1031 26.8428 52.2364 27.3814 52.3228 27.899C52.4087 28.2493 52.4492 28.6037 52.4439 28.9585C52.4285 29.0595 52.3971 29.1593 52.3501 29.2561C52.2415 29.5016 52.0959 29.7395 51.9154 29.9662C51.7546 30.1751 51.5446 30.3661 51.2931 30.5323C51.0376 30.6842 50.7689 30.8262 50.4882 30.9577C50.4709 30.9658 50.4882 30.9836 50.503 30.9755Z" fill="#FC9171"/>
<path d="M53.9042 12.9986C53.9042 12.9986 55.0844 15.3032 55.4559 17.1259C55.8273 18.9486 56.1099 22.7341 56.668 24.0871C57.2261 25.4401 57.6757 26.5635 57.3949 26.8001C57.1141 27.0367 54.2881 28.6946 52.4805 27.6168C50.5574 26.4706 47.822 28.097 47.4897 27.1471C47.3297 26.6914 49.4199 13.6207 49.7398 13.2457C50.0598 12.8706 53.9042 12.9986 53.9042 12.9986Z" fill="#00ACA4"/>
<path d="M47.481 3.82993L45.481 2.97754V4.97754L47.481 3.82993Z" fill="#ED5450"/>
<path d="M44.509 7.78457L44.481 8.34004C44.7946 9.23236 45.7201 8.97359 45.9572 8.82412C46.1943 8.67466 46.5563 8.79735 46.4671 8.29988C46.435 8.14444 46.3765 7.99406 46.2937 7.85372L45.5952 7.15994C45.5522 7.08327 45.4766 7.02442 45.3845 6.99605C45.2925 6.96768 45.1914 6.97206 45.103 7.00825L44.7282 7.19563C44.6276 7.26266 44.5527 7.35494 44.5136 7.46015C44.4744 7.56537 44.4728 7.67854 44.509 7.78457Z" fill="#FBC7B1"/>
<path d="M49.3306 8.04794C48.195 8.39137 47.5607 10.8039 47.5607 10.8039C47.5607 10.8039 46.5371 9.15033 46.4543 7.97754L45.481 8.27804C45.481 8.27804 45.6302 12.0712 46.6652 12.7735C48.1934 13.8037 49.3533 10.5979 49.3533 10.5979C49.3533 10.5979 49.6551 7.95522 49.3306 8.04794Z" fill="#FBC7B1"/>
<path d="M47.4431 12.9608C47.6412 12.8655 46.9975 11.9775 46.9975 11.9775C46.9975 11.9775 46.5486 12.4265 46.481 12.7137C46.481 12.7137 47.2434 13.0561 47.4431 12.9608Z" fill="#FDB737"/>
<path d="M48.5381 8.61099C48.1159 9.36826 47.7619 10.1673 47.481 10.9971L48.7693 12.9775L51.6038 11.0807L52.481 8.76757L51.4601 6.97754C51.4601 6.97754 49.2913 7.21241 48.5381 8.61099Z" fill="#FDB737"/>
<path d="M53.9752 11.6721C53.038 12.245 51.9651 12.5136 50.8875 12.4452C50.8282 12.4398 50.7692 12.431 50.7108 12.4188L50.481 13.9027C50.481 13.9027 56.3453 14.3582 56.4637 13.0218C56.6405 11.1069 55.4156 8.96702 54.7582 8.10692C54.3464 7.56251 53.521 8.83659 53.4626 10.0559C53.4237 10.7761 54.2332 11.5227 53.9752 11.6721Z" fill="#FBC7B1"/>
<path d="M53.0933 11.5283C52.8882 13.2174 53.887 13.9775 53.887 13.9775C53.887 13.9775 56.2312 13.7423 56.4363 12.6839C56.7758 10.942 55.0998 8.2405 54.0974 7.64908C53.095 7.05765 51.481 6.97754 51.481 6.97754L53.0933 11.5283Z" fill="#FDB737"/>
<path d="M53.0324 3.76377C53.132 3.87038 53.2582 3.93965 53.3937 3.96217C53.4975 3.98266 53.6037 3.98266 53.7075 3.96217C53.7287 3.95995 53.7497 3.95562 53.7702 3.94923C53.7999 3.9429 53.8291 3.93424 53.8577 3.92335L53.8938 3.90826H53.9129L53.9357 3.89747L54.0098 3.85866C54.1252 3.79319 54.2268 3.70041 54.3079 3.58657C54.3889 3.47273 54.4475 3.34048 54.4795 3.19878V3.15997C54.4814 3.13126 54.4814 3.10242 54.4795 3.07371C54.4789 3.00948 54.4706 2.94564 54.4548 2.88394C54.4525 2.87216 54.4493 2.86062 54.4453 2.84944C54.4206 2.7645 54.3868 2.68337 54.3445 2.60792C54.3006 2.52741 54.2503 2.45162 54.1943 2.38149C54.1826 2.36467 54.1699 2.34881 54.1562 2.33404C54.0566 2.22023 53.9385 2.12942 53.8083 2.06665C53.5458 1.94784 53.253 1.94784 52.9905 2.06665C52.7972 2.15192 52.6363 2.31141 52.536 2.51734C52.526 2.53976 52.5172 2.5628 52.5095 2.58635L52.498 2.62732C52.4887 2.66533 52.4829 2.70437 52.481 2.74377L52.9982 3.7379L53.0324 3.76377Z" fill="#ED5450"/>
<path d="M50.8959 3.28036C50.7002 3.391 50.5514 3.58174 50.481 3.81196L51.2266 4.99454C51.3957 5.28098 51.608 5.53331 51.8541 5.74065C51.9895 5.86845 52.1551 5.95065 52.3314 5.97754C52.5035 5.97479 52.6722 5.9248 52.8224 5.83205C52.9911 5.74065 53.8717 4.94418 53.2779 3.59372C53.2239 3.48397 53.1476 3.3895 53.0551 3.31766C52.9523 3.23612 52.8384 3.17316 52.7178 3.13114C52.4224 3.00851 52.1066 2.95835 51.792 2.98411C51.4774 3.00988 51.1717 3.11096 50.8959 3.28036Z" fill="#ED5450"/>
<path d="M51.6672 6.15149L51.5595 6.18665L50.6205 6.50124C50.6863 6.74448 50.7217 6.99248 50.7259 7.24145C50.7323 7.45246 50.717 7.66353 50.6801 7.87248C50.6749 7.90369 50.6672 7.93459 50.6571 7.96501C50.5632 8.28145 50.2151 8.99391 50.8724 8.97725C52.0611 8.94949 52.5375 8.08159 52.4757 7.77996C52.322 7.18644 52.2309 6.58348 52.2031 5.97754L51.6672 6.15149Z" fill="#FBC7B1"/>
<path d="M50.481 6.97754C50.7736 6.8699 51.0168 6.72513 51.1906 6.55501C51.3643 6.38489 51.4638 6.19422 51.481 5.99852C51.481 5.99153 51.481 5.98453 51.481 5.97754L51.3585 6.04048C51.176 6.13278 50.8285 6.31041 50.556 6.43208C50.563 6.59156 50.5463 6.75108 50.506 6.909C50.5002 6.93212 50.4918 6.95501 50.481 6.97754Z" fill="#F69582"/>
<path d="M49.86 4.63843C49.321 5.30498 49.2075 7.07011 50.5307 6.97374C51.8539 6.87738 52.4354 5.56678 52.4354 5.56678C52.8427 3.23628 50.399 3.97189 49.86 4.63843Z" fill="#FBC7B1"/>
<path d="M51.3352 3.21245C51.0995 3.02006 50.834 2.94328 50.5715 2.99161C49.8195 3.09263 49.5426 3.49437 49.4902 3.90314C49.4858 3.93487 49.4829 3.96706 49.4814 3.99947C49.4775 4.16537 49.4993 4.33023 49.5448 4.47914C49.5904 4.62804 49.6582 4.75629 49.7423 4.85227C49.836 4.92637 49.9382 4.96858 50.0425 4.97626C50.1468 4.98394 50.251 4.95693 50.3486 4.8969C50.5446 4.78394 50.7351 4.64729 50.9184 4.48812C51.0947 4.35421 51.3075 4.24145 51.481 4.38945L51.3775 3.5484V3.50611L51.3352 3.21245Z" fill="#ED5450"/>
<path d="M51.481 4.05371L51.6047 4.80525C51.6047 4.80525 51.8191 4.97451 51.7553 5.69389C51.8257 5.84153 51.926 5.93941 52.0366 5.96851C52.1472 5.9976 52.2603 5.95583 52.3537 5.85131C52.7068 5.48908 52.2141 4.35331 52.2031 4.34146C52.1922 4.32961 51.9458 3.97754 51.9458 3.97754L51.481 4.05371Z" fill="#FF6A51"/>
<path d="M52.1992 5.70442C52.4016 5.58002 52.4853 5.34843 52.3862 5.18717C52.2871 5.02592 52.0426 4.99607 51.8403 5.12047C51.6379 5.24488 51.5542 5.47642 51.6534 5.63767C51.7525 5.79893 51.9969 5.82882 52.1992 5.70442Z" fill="#FBC7B1"/>
<path d="M52.4896 5.94152C52.6354 5.99819 52.7887 5.98781 52.9309 5.91162C53.0731 5.83543 53.198 5.69671 53.2905 5.51226C53.5291 5.08299 53.4753 4.52065 53.4767 3.99051C53.4758 3.98672 53.4743 3.98344 53.4722 3.98112C53.4701 3.97879 53.4676 3.97754 53.465 3.97754C53.4624 3.97754 53.4599 3.97879 53.4578 3.98112C53.4557 3.98344 53.4541 3.98672 53.4533 3.99051C53.4533 4.49704 53.5084 5.04006 53.2864 5.46504C53.196 5.64931 53.0728 5.78821 52.9321 5.86452C52.7915 5.94083 52.6394 5.95118 52.495 5.8943C52.4812 5.8986 52.4744 5.93508 52.4896 5.94152Z" fill="#E04B3E"/>
<path d="M51.5026 5.90131C51.4737 5.90131 51.4737 5.96337 51.5026 5.96725C51.755 6.01044 52.0094 5.91675 52.2187 5.70355C52.2911 5.62074 52.3516 5.51736 52.3967 5.39949C52.4417 5.28161 52.4704 5.15161 52.481 5.01713C52.481 4.97448 52.4443 4.95509 52.4391 5.01713C52.4296 5.15042 52.4013 5.2793 52.3561 5.3955C52.3109 5.5117 52.2499 5.61267 52.1768 5.69191C51.9744 5.87189 51.7368 5.94566 51.5026 5.90131Z" fill="#FC9171"/>
<path d="M53.5053 3.96488C53.5355 3.84556 53.5683 3.73954 53.6031 3.6483C53.7493 3.32507 53.9091 3.14194 54.0722 3.1107C54.2101 3.02867 54.3505 3.09839 54.481 3.31379V3.20628C54.3487 2.99841 54.2074 2.9309 54.0682 3.00915C53.9022 3.04019 53.7396 3.22748 53.5911 3.5587C53.5528 3.65022 53.5172 3.76258 53.4852 3.8932C53.4731 3.93502 53.4892 4.0067 53.5053 3.96488Z" fill="#E04B3E"/>
<path d="M52.2281 4.97153C52.3683 4.78182 52.5211 4.56702 52.4714 4.32871C52.4464 4.2304 52.3842 4.14254 52.2951 4.07956C52.206 4.01659 52.0953 3.98225 51.9812 3.98221C51.9169 3.97598 51.852 3.97598 51.7877 3.98221C51.5625 4.02363 51.3441 4.09001 51.1377 4.17976C50.8574 4.2969 50.5655 4.39136 50.2658 4.46198C50.0925 4.50645 49.9092 4.51131 49.7331 4.47609C49.6737 4.45994 49.6201 4.43029 49.5777 4.39012C49.5353 4.34995 49.5057 4.30066 49.4916 4.24718C49.4863 4.26835 49.4828 4.28984 49.481 4.31146C49.5033 4.35493 49.5355 4.39391 49.5755 4.426C49.6155 4.45808 49.6624 4.4826 49.7136 4.49803C49.9693 4.57486 50.2836 4.49804 50.5304 4.42278C50.8128 4.33812 51.0809 4.22053 51.3597 4.12645C51.4986 4.07471 51.6432 4.03583 51.7912 4.01043C51.8771 3.99311 51.9663 3.99255 52.0525 4.0088C52.1387 4.02505 52.2198 4.05771 52.2902 4.10451C52.6134 4.33498 52.3737 4.71596 52.1979 4.95271C52.1908 4.97309 52.2174 4.98564 52.2281 4.97153Z" fill="#E04B3E"/>
<path d="M49.9199 10.9802L46.6593 11.2664C46.6339 11.2661 46.6087 11.2716 46.5855 11.2824C46.5623 11.2933 46.5416 11.3093 46.5248 11.3292C46.508 11.3492 46.4956 11.3727 46.4883 11.3982C46.481 11.4237 46.4791 11.4505 46.4827 11.4768C46.6225 12.1888 46.7274 12.9079 46.7971 13.6311L46.9737 15.8149C46.9765 15.8394 46.9841 15.8631 46.9958 15.8845C47.0075 15.906 47.0231 15.9247 47.0419 15.9397C47.0607 15.9547 47.0822 15.9655 47.105 15.9717C47.1279 15.9779 47.1517 15.9792 47.1751 15.9755L50.3014 15.7023C50.3483 15.7023 50.3932 15.6829 50.4263 15.6483C50.4594 15.6136 50.478 15.5667 50.478 15.5177C50.4899 14.7785 50.4657 14.0392 50.4056 13.3025C50.3296 12.3537 50.1866 11.5654 50.1212 11.1168C50.1103 11.0718 50.0835 11.0326 50.0461 11.0073C50.0088 10.982 49.9637 10.9723 49.9199 10.9802Z" fill="#262F36"/>
<path d="M49.481 10.9892C49.3653 10.9892 47.7388 10.9116 47.0955 11.1572C46.9019 11.2358 46.7418 11.3527 46.6334 11.4948C46.525 11.6369 46.4726 11.7985 46.482 11.9613C47.1481 12.0466 48.7501 11.7674 48.7501 11.7674C48.5801 10.9724 49.3986 10.9853 49.481 10.9892Z" fill="#ECEAFF"/>
<path d="M50.272 13.0177C50.2648 12.8632 50.1467 13.1971 49.9537 13.3067C49.7607 13.4164 49.4698 13.6008 49.4813 13.8599C49.4928 14.1191 50.2302 13.8849 50.4218 13.7752C50.6133 13.6656 50.2792 13.1771 50.272 13.0177Z" fill="#FBC7B1"/>
<path d="M48.4811 12.2861C48.4684 12.634 49.2641 12.8675 49.7867 12.9544C50.3093 13.0414 50.4722 12.872 50.4806 12.6248C50.4891 12.3776 50.3431 12.167 49.8204 12.0618C49.2978 11.9565 48.4959 11.8787 48.4811 12.2861Z" fill="#FBC7B1"/>
<path d="M45.9248 7.97698C46.0799 7.96177 46.2661 8.02136 46.4325 7.87301C46.599 7.72465 46.2887 7.50528 46.2153 7.4368C45.8908 7.13248 45.8908 6.97905 45.8174 6.97778C45.3293 6.96637 45.4931 7.36579 45.5721 7.5281C45.6511 7.69041 45.7696 7.9922 45.9248 7.97698Z" fill="#FBC7B1"/>
<path d="M44.7975 7.95238C44.4891 7.88937 44.4742 7.67094 44.4825 7.4063C44.4908 7.14166 44.5175 6.93163 44.8275 6.98624C45.1376 7.04085 45.481 7.19627 45.481 7.59534C45.481 7.9944 45.1075 8.01119 44.7975 7.95238Z" fill="#FBC7B1"/>
<path d="M52.5213 11.9765C53.1748 11.8857 53.818 11.7793 54.4512 11.6573C54.4564 11.6568 54.4615 11.6558 54.4658 11.6543C54.4701 11.6528 54.4736 11.6509 54.4762 11.6487C54.4788 11.6464 54.4804 11.644 54.4808 11.6414C54.4813 11.6389 54.4805 11.6363 54.4786 11.6339C54.3295 11.4116 54.1449 11.1952 53.926 10.9867C53.9016 10.9647 53.8312 10.9867 53.8556 11.0072C54.0004 11.1434 54.1299 11.2831 54.2435 11.426C54.2998 11.4771 54.3411 11.5318 54.3657 11.5885C54.3474 11.6646 54.161 11.672 54.0389 11.6939C53.532 11.7857 53.023 11.8677 52.512 11.9399C52.5067 11.9405 52.5018 11.9416 52.4974 11.9431C52.493 11.9446 52.4894 11.9465 52.4867 11.9487C52.4839 11.9509 52.482 11.9534 52.4813 11.956C52.4806 11.9585 52.481 11.9611 52.4825 11.9636C52.4839 11.9661 52.4864 11.9685 52.4898 11.9705C52.4932 11.9725 52.4974 11.9741 52.5022 11.9753C52.5069 11.9766 52.5121 11.9773 52.5175 11.9775C52.5229 11.9777 52.5284 11.9774 52.5335 11.9765H52.5213Z" fill="white"/>
<path d="M51.4953 11.183C51.7907 11.7722 52.1212 12.0421 52.4525 11.9645C52.4904 11.9645 52.4904 11.7301 52.4525 11.7387C52.1323 11.8162 51.8124 11.5583 51.5265 10.992C51.493 10.9226 51.4618 11.1223 51.4953 11.183Z" fill="white"/>
<path d="M55.4836 22.0024L56.4427 23.9673C56.4552 23.9918 56.4898 23.9673 56.4788 23.9461L55.5182 21.9878C55.5072 21.9633 55.471 21.9878 55.4836 22.009V22.0024Z" fill="#645ED7"/>
<path d="M50.4875 25.0056C50.8607 25.2964 51.1805 25.6205 51.4388 25.9698C51.4525 25.9883 51.4918 25.9698 51.4781 25.9539C51.2174 25.6017 50.8948 25.2752 50.5183 24.9822C50.4995 24.9675 50.467 24.9908 50.4875 25.0056Z" fill="#645ED7"/>
<path d="M51.416 14.9946C51.3359 15.6748 50.9155 16.3201 50.4826 16.956C50.4701 16.9775 50.5326 16.9869 50.5476 16.9654C50.978 16.3255 51.4009 15.6788 51.481 14.9946C51.481 14.9718 51.4185 14.9718 51.416 14.9946Z" fill="#645ED7"/>
<path d="M51.4883 15.0001C52.1171 15.3143 52.3257 15.6386 52.1065 15.9608C52.1065 15.9831 52.3777 15.9831 52.3994 15.9608C52.6162 15.6354 52.4002 15.308 51.7595 14.9909C51.7553 14.9887 51.7474 14.9865 51.7362 14.9846C51.725 14.9827 51.7108 14.9812 51.6944 14.98C51.6779 14.9788 51.6593 14.978 51.6403 14.9777C51.6213 14.9774 51.6021 14.9775 51.5836 14.9782C51.5652 14.9788 51.5482 14.9799 51.5333 14.9813C51.5184 14.9828 51.5062 14.9846 51.4973 14.9867C51.4884 14.9887 51.4829 14.991 51.4814 14.9933C51.4799 14.9956 51.4821 14.9979 51.4883 15.0001Z" fill="#645ED7"/>
<path d="M51.3117 9.2971L50.4075 9.21289L50.2845 10.5335L51.1888 10.6177L51.3117 9.2971Z" fill="white"/>
<path d="M50.4833 9.43351C50.489 9.36783 50.5076 9.30393 50.5381 9.24551C50.5687 9.18709 50.6105 9.13528 50.6612 9.0931C50.7119 9.05092 50.7704 9.0192 50.8334 8.99975C50.8964 8.98031 50.9627 8.97353 51.0283 8.97981C51.1601 8.99292 51.2814 9.05754 51.3658 9.15961C51.4502 9.26168 51.4908 9.39295 51.4789 9.52486C51.4658 9.65665 51.4011 9.77793 51.299 9.86233C51.197 9.94672 51.0658 9.9874 50.9339 9.97551C50.8686 9.96978 50.8051 9.95118 50.747 9.92079C50.6889 9.89039 50.6375 9.84879 50.5957 9.7984C50.5538 9.74801 50.5222 9.68983 50.5029 9.6272C50.4836 9.56457 50.477 9.49874 50.4833 9.43351Z" fill="#ECEAFF"/>
<path d="M50.7126 7.00304C50.6434 7.31021 50.534 7.61393 50.4893 7.92627C50.4562 8.27806 50.5217 8.63124 50.6814 8.96167C50.6829 8.96545 50.6856 8.96885 50.6894 8.97154C50.6931 8.97423 50.6977 8.97611 50.7027 8.97698C50.7077 8.97786 50.7128 8.9777 50.7177 8.97652C50.7226 8.97535 50.727 8.9732 50.7305 8.97029C51.1496 8.70668 51.5464 8.42251 51.9183 8.11954C52.2612 7.8074 52.4592 7.41562 52.481 7.00649C52.481 6.97715 52.4251 6.97715 52.4229 7.00649C52.3715 7.77441 51.7285 8.24379 51.0185 8.71317C50.9448 8.76149 50.8756 8.82016 50.7952 8.8633C50.7149 8.90645 50.7551 8.90989 50.7059 8.88228C50.6568 8.85467 50.6524 8.75459 50.6412 8.72353C50.5665 8.51805 50.5304 8.30534 50.534 8.09193C50.5707 7.72608 50.6453 7.36309 50.7573 7.00649C50.7573 6.97715 50.706 6.96507 50.6993 6.99441L50.7126 7.00304Z" fill="#8A80EE"/>
<path d="M30.4674 8.03519C30.117 8.07381 29.7128 8.16783 29.5574 8.53889C29.4832 8.77483 29.4689 9.02732 29.5162 9.27093C29.6842 10.8878 29.5891 12.5231 29.4971 14.1484C29.4586 14.4278 29.4892 14.713 29.5859 14.9761C29.6735 15.1378 29.793 15.2775 29.9363 15.3858C30.1794 15.6034 30.4569 15.774 30.7559 15.8895C31.0514 16.0039 31.3751 16.0069 31.6724 15.8979L32.481 8.12753C31.8209 7.96587 31.1382 7.93456 30.4674 8.03519Z" fill="#FDB737"/>
<path d="M35.5453 32.2262C35.5453 32.4003 35.5365 32.5745 35.538 32.7364C35.5379 32.7829 35.5515 32.828 35.5763 32.8639C35.6011 32.8998 35.6356 32.9243 35.6739 32.9332C35.8764 32.9719 36.0816 32.9853 36.2864 32.9733L38.2786 32.9315C38.3473 32.9315 38.4248 32.9315 38.4613 32.8444C38.4742 32.8179 38.481 32.7879 38.481 32.7573C38.481 32.7267 38.4742 32.6967 38.4613 32.6702C38.4083 32.5748 38.3268 32.5069 38.2333 32.4804C37.8021 32.2906 37.3344 32.099 37.0099 31.7299L36.9807 31.695C36.9115 31.6116 36.8502 31.5193 36.798 31.4199C36.757 31.3413 36.7255 31.2563 36.7044 31.1674C36.6974 31.1371 36.6925 31.1063 36.6898 31.0751C36.689 31.0623 36.689 31.0495 36.6898 31.0368L36.4545 31.0246H36.3872L35.481 30.9775C35.5381 31.2779 35.5632 31.5857 35.5555 31.8936C35.5497 32.0155 35.5468 32.1182 35.5453 32.2262Z" fill="#2A2C4B"/>
<path d="M33.8001 21.3253C33.8001 21.3253 34.8533 23.815 34.8801 25.059C34.907 26.303 34.7004 30.6295 34.7004 30.6295C34.7004 30.6295 34.8852 30.8914 35.6528 30.9622C36.3146 31.0241 36.585 30.879 36.585 30.879C36.585 30.879 37.3493 26.3472 37.4668 24.6609C37.5962 22.8223 36.795 17.3916 36.795 17.3916L33.481 16.9775L33.8001 21.3253Z" fill="#00ACA4"/>
<path d="M27.6809 31.1138C27.6152 31.2718 27.5511 31.4231 27.495 31.5677C27.4786 31.6092 27.4765 31.6554 27.4891 31.6983C27.5017 31.7413 27.5281 31.7783 27.5639 31.803C27.7556 31.9263 27.9592 32.0277 28.1714 32.1056L30.2072 32.946C30.2395 32.9666 30.2767 32.9775 30.3146 32.9775C30.3524 32.9775 30.3896 32.9666 30.4219 32.946C30.443 32.928 30.4594 32.9046 30.4695 32.8782C30.4795 32.8517 30.4831 32.823 30.4797 32.7947C30.4595 32.6875 30.4025 32.5918 30.3194 32.5258C29.9491 32.1677 29.542 31.7929 29.3416 31.3223L29.324 31.2769C29.2832 31.1725 29.2536 31.0637 29.2358 30.9525C29.2237 30.8638 29.2237 30.7738 29.2358 30.6852C29.2399 30.6552 29.2459 30.6254 29.2534 30.5961L29.263 30.5625L29.029 30.4482L28.9633 30.4163L28.0592 29.9775C28.0131 30.271 27.9307 30.557 27.814 30.8281C27.7611 30.9138 27.721 31.018 27.6809 31.1138Z" fill="#2A2C4B"/>
<path d="M30.9084 17.8891C30.9084 17.8891 30.3022 24.0045 29.8718 25.1017C29.4414 26.199 27.481 30.083 27.481 30.083C27.481 30.083 27.6517 30.4794 28.2819 30.7938C28.5783 30.9507 28.9186 31.0094 29.2519 30.9611C29.2519 30.9611 31.7179 27.1574 32.4471 25.729C33.2429 24.17 34.481 19.1186 34.481 19.1186L33.2412 16.9775L30.9084 17.8891Z" fill="#00ACA4"/>
<path d="M39.5014 7.14256L39.2112 9.9302C39.2112 9.9302 36.8349 7.5152 35.6061 7.54744C34.9051 7.56715 33.7645 9.50023 35.0969 10.602C37.1914 12.3398 40.1769 13.8788 41.0731 12.3542C41.8623 11.0105 41.2632 7.19093 41.2632 7.19093C41.2208 7.08523 39.476 6.79679 39.5014 7.14256Z" fill="#ED5450"/>
<path d="M30.6978 17.4205C30.6978 17.4205 30.635 17.7659 33.9693 17.9472C36.3411 18.0802 37.4082 17.7331 37.4082 17.7331C37.5984 16.9249 37.7886 15.4693 38.1423 13.4783C38.3877 12.1193 38.4391 10.4944 38.481 8.67786C38.481 8.61051 37.6954 8.6226 37.6802 8.56389C37.49 7.92153 37.0107 7.86282 35.5404 8.12011C33.258 8.52072 30.481 9.50153 30.481 9.50153C30.7751 11.2086 30.9403 12.9319 30.9755 14.6594C30.9926 15.5366 30.8024 16.5848 30.6978 17.4205Z" fill="#ED5450"/>
<path d="M36.6768 13.833C36.6312 14.1693 36.4565 14.4734 36.1913 14.6785C35.926 14.8836 35.5918 14.9729 35.262 14.9268C34.5597 15.0415 33.8402 14.9609 33.1791 14.6934C29.5578 13.2725 27.6887 12.2077 31.8679 7.81205C33.0371 6.58878 36.2108 6.85966 37.3934 7.66893C37.968 8.0642 35.546 8.92799 35.0449 9.41525L32.4391 11.947L35.6045 12.39C35.9342 12.4365 36.2323 12.6146 36.4333 12.8852C36.6344 13.1557 36.722 13.4967 36.6768 13.833Z" fill="#ED5450"/>
<path d="M36.481 4.24163L37.186 3.97754C37.186 3.97754 37.6793 4.74007 37.39 4.947C37.1008 5.15392 36.481 4.24163 36.481 4.24163Z" fill="#262F36"/>
<path d="M35.3048 5.9335C34.8448 6.12133 34.3389 5.72657 33.6293 4.39583C33.0007 3.21472 34.5732 2.97754 34.5732 2.97754C34.7812 3.01256 35.9092 5.68518 35.3048 5.9335Z" fill="#262F36"/>
<path d="M35.7856 7.97734C34.7063 7.98757 34.4133 7.60749 34.4934 7.37652C34.8117 6.46433 34.915 5.979 34.915 5.97754L35.3177 6.13396L35.4146 6.16611L36.2578 6.4424C36.2578 6.4424 36.2578 6.48187 36.2578 6.54766C36.2578 6.61344 36.2578 6.6573 36.2578 6.72746C36.2578 6.79763 36.2578 6.85611 36.2578 6.92335V6.93943C36.2578 7.02568 36.2684 7.11485 36.2789 7.19525C36.2885 7.26858 36.3053 7.34137 36.3295 7.41307C36.3295 7.42184 36.3295 7.43061 36.3401 7.43938C36.4075 7.59287 36.829 7.96857 35.7856 7.97734Z" fill="#E29171"/>
<path d="M36.481 6.97754C36.2108 6.90044 35.9738 6.76594 35.7971 6.58931C35.6203 6.41269 35.5108 6.20103 35.481 5.97839C35.481 5.97081 35.5862 6.0163 35.5862 6.00872C35.5862 6.00114 35.6213 6.03146 35.6798 6.06482C35.8474 6.16488 36.2042 6.36804 36.4128 6.46963V6.48631C36.4128 6.57576 36.4225 6.66825 36.4322 6.75163C36.4417 6.82773 36.458 6.90321 36.481 6.97754Z" fill="#9B5846"/>
<path d="M36.3881 6.96321C34.8336 7.13402 34.5521 5.72098 34.5521 5.72098C34.0217 3.51136 36.6167 3.65733 37.0614 4.75049C37.5388 5.9508 37.9161 6.79707 36.3881 6.96321Z" fill="#E29171"/>
<path d="M35.4532 6.97525C35.0426 6.72936 34.7078 6.39079 34.481 5.99205C34.481 5.97867 34.4981 5.96752 34.5078 5.99205C34.7354 6.3873 35.0703 6.72208 35.48 6.96411C35.4849 6.96411 35.4702 6.98417 35.4532 6.97525Z" fill="#9B5846"/>
<path d="M36.4329 4.35985C36.3847 4.41613 36.3241 4.44304 36.2631 4.43514C35.9564 4.45589 35.6508 4.50294 35.3478 4.57606C35.315 4.57669 35.2827 4.58913 35.2538 4.61232C35.2249 4.63552 35.2002 4.66877 35.1818 4.70926C35.1702 4.75486 35.1645 4.80333 35.165 4.85211C35.1585 5.17642 35.2104 5.64939 35.1248 5.67834L34.9705 5.96212C34.885 6.02196 34.7774 5.89842 34.7462 5.74977C34.7241 5.60176 34.7318 5.44734 34.7683 5.30577C34.7783 5.26676 34.7844 5.22579 34.7864 5.18415C34.7837 5.10897 34.7694 5.03571 34.7449 4.96987C34.6423 4.62878 34.5603 4.27475 34.4999 3.91198C34.4746 3.80384 34.4746 3.68615 34.4999 3.57801C34.5195 3.5248 34.5481 3.48019 34.5829 3.44867C34.681 3.34568 34.7945 3.27945 34.9135 3.25562C34.9915 3.25432 35.0684 3.22798 35.139 3.17841C35.1731 3.13453 35.2091 3.09391 35.2466 3.05679C35.3387 2.99308 35.4476 3.07802 35.5475 3.13015C35.59 3.15659 35.6357 3.16924 35.6818 3.16724C35.7278 3.16524 35.7731 3.14865 35.8145 3.11856C35.8495 3.08575 35.878 3.03941 35.9143 3.00853C35.9656 2.97661 36.0224 2.96913 36.0767 2.9871C36.131 3.00507 36.1803 3.04762 36.2177 3.10891C36.2992 3.23796 36.3587 3.39417 36.3914 3.5645C36.4249 3.7108 36.4513 3.86047 36.4705 4.01237C36.4815 4.07088 36.4839 4.13226 36.4774 4.19227C36.4709 4.25227 36.4557 4.30945 36.4329 4.35985Z" fill="#262F36"/>
<path d="M34.7752 5.88183C34.6586 5.82698 34.5662 5.72447 34.5178 5.59618C34.4693 5.46788 34.4687 5.32395 34.5159 5.19512C34.591 5.08302 34.7032 5.00751 34.8286 4.98473C34.954 4.96196 35.0825 4.99373 35.1867 5.07325C35.3033 5.12809 35.3957 5.23061 35.4441 5.3589C35.4926 5.4872 35.4932 5.63112 35.446 5.75995C35.3709 5.87205 35.2587 5.94757 35.1333 5.97034C35.008 5.99312 34.8794 5.96134 34.7752 5.88183Z" fill="#E29171"/>
<path d="M31.5294 11.9683C31.5099 11.9908 31.4644 11.9683 31.4872 11.9433C31.799 11.6236 32.113 11.3048 32.4292 10.9868C32.452 10.9643 32.4975 10.9868 32.4748 11.0118L31.5294 11.9683Z" fill="white"/>
<path d="M40.4617 6.75665C40.3708 6.84149 40.3426 7.06538 40.1106 6.94048C39.8787 6.81557 39.7972 6.24995 39.7658 6.08969C39.6091 5.38268 39.4525 5.1258 39.4854 5.0716C39.7095 4.71337 40.0417 5.47224 40.1702 5.77861C40.2987 6.08499 40.5526 6.67417 40.4617 6.75665Z" fill="#E29171"/>
<path d="M41.481 5.69918L41.3953 6.49347C41.3799 6.8713 41.0104 7.02747 40.8805 6.96366C40.7506 6.89985 40.537 6.88809 40.4898 6.43805C40.478 6.29887 40.478 6.15742 40.4898 6.01824L40.665 5.24074C40.6698 5.16376 40.6918 5.09318 40.7262 5.04419C40.7605 4.9952 40.8045 4.97171 40.8487 4.97877L41.2529 5.26929C41.3103 5.29588 41.3623 5.35041 41.4026 5.42652C41.443 5.50262 41.4702 5.59718 41.481 5.69918Z" fill="#E29171"/>
<path d="M34.4791 19.0141C34.2817 19.5002 34.0736 19.9863 33.9067 20.4724C33.7492 20.9579 33.6217 21.4549 33.525 21.9599C33.525 21.9915 33.475 21.9769 33.4815 21.9453C33.582 21.4252 33.7147 20.9136 33.8784 20.4141C34.0454 19.928 34.2471 19.4613 34.4401 18.9897C34.4509 18.9606 34.4899 18.9897 34.4791 19.0141Z" fill="white"/>
<path d="M31.4737 18.9956L31.1177 21.3689C31.0047 22.1277 30.9001 22.8901 30.7588 23.6419C30.4731 25.0697 30.0459 26.4477 29.4872 27.7441C29.1764 28.4959 28.8429 29.2336 28.5081 29.9695C28.4996 29.9889 28.4742 29.9695 28.4827 29.9502C29.0718 28.6543 29.6638 27.3532 30.123 25.9747C30.3527 25.2983 30.5416 24.6015 30.6882 23.8901C30.8408 23.133 30.9467 22.3636 31.0612 21.6013C31.1912 20.7316 31.3216 19.8612 31.4526 18.9903C31.4526 18.9674 31.4836 18.978 31.4808 19.0009L31.4737 18.9956Z" fill="white"/>
<path d="M29.4511 30.9775C29.0359 30.8883 28.6301 30.7582 28.2392 30.589C27.936 30.4777 27.6728 30.2745 27.4841 30.0062C27.4709 29.9849 27.503 29.9654 27.5181 29.9868C27.7383 30.2813 28.0426 30.4973 28.3883 30.6046C28.7383 30.7441 29.0988 30.8539 29.4662 30.9329C29.4687 30.9335 29.471 30.9346 29.4731 30.9362C29.4751 30.9378 29.4768 30.9397 29.4782 30.942C29.4795 30.9442 29.4804 30.9467 29.4807 30.9493C29.4811 30.9519 29.481 30.9546 29.4804 30.9571C29.4798 30.9597 29.4787 30.9621 29.4772 30.9642C29.4756 30.9663 29.4737 30.9681 29.4715 30.9695C29.4693 30.9708 29.4669 30.9717 29.4643 30.9721C29.4618 30.9725 29.4593 30.9723 29.4568 30.9717L29.4511 30.9775Z" fill="white"/>
<path d="M40.3712 3.97754H39.5907C39.5301 3.97754 39.481 4.08103 39.481 4.20869V4.74638C39.481 4.87405 39.5301 4.97754 39.5907 4.97754H40.3712C40.4318 4.97754 40.481 4.87405 40.481 4.74638V4.20869C40.481 4.08103 40.4318 3.97754 40.3712 3.97754Z" fill="#353659"/>
<path d="M40.3891 3.97754H39.5728C39.5221 3.97754 39.481 4.10138 39.481 4.25414V4.70094C39.481 4.8537 39.5221 4.97754 39.5728 4.97754H40.3891C40.4398 4.97754 40.481 4.8537 40.481 4.70094V4.25414C40.481 4.10138 40.4398 3.97754 40.3891 3.97754Z" fill="#E0DCFF"/>
<path d="M40.3706 4.97754H38.5914C38.5304 4.97754 38.481 5.01643 38.481 5.06441V5.89067C38.481 5.93865 38.5304 5.97754 38.5914 5.97754H40.3706C40.4315 5.97754 40.481 5.93865 40.481 5.89067V5.06441C40.481 5.01643 40.4315 4.97754 40.3706 4.97754Z" fill="#2B2E4B"/>
<path d="M40.3706 4.97754H38.5914C38.5304 4.97754 38.481 5.01643 38.481 5.06441V5.89067C38.481 5.93865 38.5304 5.97754 38.5914 5.97754H40.3706C40.4315 5.97754 40.481 5.93865 40.481 5.89067V5.06441C40.481 5.01643 40.4315 4.97754 40.3706 4.97754Z" fill="#353659"/>
<path d="M40.4756 5.47687V4.97754H39.4756C39.4131 4.97787 39.3509 4.98102 39.2896 4.98696C39.0617 5.00888 38.8563 5.0698 38.7087 5.15923C38.561 5.24865 38.4805 5.36098 38.481 5.47687C38.481 5.60942 38.5862 5.73657 38.7737 5.83042C38.9611 5.92428 39.2155 5.97718 39.481 5.97754H40.481V5.47821L40.4756 5.47687Z" fill="#23273F"/>
<path d="M42.0267 5.57438C42.6017 5.31458 42.5214 5.20296 42.3737 5.08557C42.2259 4.96818 42.0523 4.89313 41.4934 5.151C40.9345 5.40887 40.2985 5.74757 40.5297 5.92077C40.761 6.09397 41.4581 5.83995 42.0267 5.57438Z" fill="#E29171"/>
<path d="M41.2551 5.57266C41.5413 5.31246 41.5011 5.20067 41.4271 5.08503C41.3532 4.96938 41.276 4.89228 40.9882 5.15056C40.7004 5.40883 40.39 5.74612 40.5058 5.92151C40.6216 6.09691 40.9609 5.82707 41.2551 5.57266Z" fill="#E29171"/>
<path d="M41.2551 4.57266C41.5413 4.31439 41.5011 4.20067 41.4271 4.08503C41.3532 3.96938 41.276 3.89228 40.9882 4.15056C40.7004 4.40883 40.39 4.74612 40.5058 4.92151C40.6216 5.09691 40.9641 4.82707 41.2551 4.57266Z" fill="#E29171"/>
<path d="M41.4723 5.62032C41.3061 5.72289 40.6645 6.20368 40.4959 5.84896C40.4374 5.72716 40.5639 5.60537 40.6435 5.52417C40.8295 5.32735 41.0339 5.14574 41.2545 4.98141C41.2756 4.96645 41.299 4.9985 41.278 5.0156C41.14 5.11832 41.008 5.22745 40.8823 5.34253C40.7718 5.42895 40.6749 5.5289 40.5944 5.63956C40.5054 5.80409 40.7067 5.95153 40.8729 5.90666C40.9478 5.88317 41.0192 5.8516 41.0859 5.81264C41.21 5.74426 41.3201 5.66306 41.4489 5.58827C41.4723 5.57331 41.4934 5.6075 41.4723 5.62032Z" fill="#9B5846"/>
<path d="M41.109 4.86256C40.9384 4.95863 40.7109 5.04816 40.5403 4.89532C40.4379 4.80143 40.4835 4.71408 40.5603 4.61801C40.7869 4.3566 41.0883 4.13851 41.4416 3.98044C41.4701 3.96734 41.4986 4.00227 41.4673 4.01319C41.2594 4.11757 41.0684 4.24072 40.8986 4.38001C40.7883 4.4599 40.6926 4.551 40.6143 4.65077C40.5804 4.68544 40.558 4.72589 40.5489 4.76867C40.5489 4.88221 40.8333 4.93461 40.9271 4.9106C40.9887 4.89002 41.046 4.86281 41.0976 4.82981C41.1232 4.81452 41.1517 4.84727 41.1233 4.86256H41.109Z" fill="#9B5846"/>
<path d="M40.481 5.47956C40.481 5.51114 40.4783 5.54267 40.4729 5.57377C40.4501 5.68744 40.3887 5.78975 40.2991 5.86335C40.2094 5.93695 40.097 5.97729 39.981 5.97754C39.8482 5.97718 39.721 5.92427 39.6273 5.83042C39.5336 5.73656 39.481 5.60942 39.481 5.47687C39.4807 5.36099 39.521 5.24866 39.5948 5.15923C39.6686 5.06981 39.7713 5.00889 39.8853 4.98696C39.9159 4.98114 39.947 4.97799 39.9783 4.97754C40.0443 4.97736 40.1097 4.99023 40.1708 5.01539C40.2319 5.04056 40.2874 5.07753 40.3341 5.12418C40.3808 5.17084 40.4179 5.22625 40.4431 5.28724C40.4683 5.34822 40.4811 5.41358 40.481 5.47956Z" fill="#2B2E4B"/>
<path d="M40.4809 5.47833C40.4814 5.50949 40.4788 5.54062 40.473 5.57124C40.4511 5.6855 40.3899 5.78854 40.3001 5.86268C40.2103 5.93682 40.0974 5.97743 39.9809 5.97754C39.8483 5.97754 39.7211 5.92494 39.6274 5.83132C39.5336 5.7377 39.481 5.61073 39.481 5.47833C39.4808 5.36191 39.5213 5.24907 39.5956 5.15935C39.6699 5.06963 39.7733 5.00866 39.8878 4.98699C39.9184 4.98065 39.9497 4.97748 39.9809 4.97754C40.0467 4.97754 40.1118 4.99051 40.1726 5.01569C40.2334 5.04088 40.2886 5.07779 40.335 5.12431C40.3815 5.17084 40.4183 5.22606 40.4433 5.2868C40.4683 5.34755 40.4811 5.41264 40.4809 5.47833Z" fill="#E0DCFF"/>
<path d="M33.5546 7.12166C33.5546 7.12166 35.3687 11.4689 35.0407 12.6703C34.7126 13.8718 32.7231 14.452 31.5636 14.2712C31.5636 14.2712 31.3927 14.6624 31.5424 14.9746C31.5424 14.9746 34.2892 15.1176 35.2417 13.3984C36.1941 11.6793 33.996 7.01319 33.996 7.01319C33.9215 6.97706 33.8382 6.9681 33.7587 6.98765C33.6791 7.0072 33.6075 7.05421 33.5546 7.12166Z" fill="#FDB737"/>
<path d="M34.2398 14.1851C34.1924 14.2935 34.1404 14.3973 34.0838 14.496C33.9826 14.6914 33.8504 14.8485 33.6985 14.9539C33.6618 14.9767 33.6213 14.9832 33.5821 14.9725C33.5731 14.9692 33.5645 14.9641 33.5565 14.9573C33.5292 14.9284 33.5079 14.8892 33.495 14.8438C33.482 14.7985 33.4779 14.7489 33.4832 14.7005C33.4873 14.5752 33.5046 14.4515 33.5344 14.3338C33.5606 14.2234 33.5925 14.1161 33.6299 14.0127C33.6578 13.935 33.6892 13.8539 33.7242 13.7728C33.7728 13.6613 33.8264 13.5546 33.8848 13.4534C33.9069 13.4129 33.9302 13.3757 33.9534 13.3402C33.9874 13.2875 34.0232 13.2373 34.0606 13.1898C34.1085 13.1288 34.1607 13.0755 34.2166 13.031C34.2447 13.0032 34.2771 12.9856 34.3109 12.9797C34.3447 12.9739 34.379 12.9798 34.411 12.9972C34.5495 13.1104 34.4773 13.6444 34.2398 14.1851Z" fill="#262F36"/>
<path d="M34.4609 12.977C34.0867 12.8903 33.7215 12.7862 33.3616 12.6735C32.7265 12.4726 32.1021 12.2399 31.4886 12.0014C31.4706 12.0014 31.4886 11.9725 31.4994 11.9783C32.4553 12.3682 33.4494 12.6944 34.4717 12.9539C34.4897 12.9582 34.4789 12.9813 34.4609 12.977Z" fill="white"/>
<path d="M33.4559 14.9775C33.0552 14.8073 32.66 14.6141 32.2665 14.4108C32.0107 14.2762 31.7549 14.1288 31.492 14.022C31.4723 14.022 31.4812 13.9687 31.5009 13.9788C31.7638 14.083 32.0196 14.233 32.2754 14.3651C32.6689 14.5709 33.0641 14.7641 33.4648 14.9318C33.4691 14.9318 33.4732 14.9342 33.4762 14.9385C33.4793 14.9428 33.481 14.9486 33.481 14.9547C33.481 14.9607 33.4793 14.9665 33.4762 14.9708C33.4732 14.9751 33.4691 14.9775 33.4648 14.9775H33.4559Z" fill="white"/>
<path d="M34.481 13.0613L34.0411 13.8375H34.0205H33.8901H33.8109L33.8768 13.9775C33.758 13.9562 33.6144 13.9075 33.481 13.8725C33.5139 13.7731 33.5541 13.6764 33.6012 13.5833C33.6364 13.5133 33.676 13.4402 33.7199 13.3672C33.7812 13.2668 33.8488 13.1707 33.9223 13.0795C33.9501 13.043 33.9795 13.0095 34.0088 12.9775L34.481 13.0613Z" fill="#E29171"/>
<path d="M36.481 13.4128C36.4765 13.4258 36.468 13.4371 36.4569 13.4447C36.4056 13.4805 36.3477 13.5048 36.2868 13.5161C36.2259 13.5274 36.1633 13.5255 36.1031 13.5104C35.9829 13.4891 35.8662 13.4429 35.7443 13.4288C35.6997 13.4252 35.6549 13.4252 35.6104 13.4288H35.5897H35.6069C35.8526 13.5379 36.0807 13.6851 36.2835 13.8652C36.3093 13.8865 36.3384 13.9203 36.3247 13.9522C36.3185 13.966 36.3075 13.9768 36.2938 13.9824C36.234 14.0132 36.1685 14.0309 36.1017 14.0343C36.0349 14.0376 35.9681 14.0266 35.9057 14.0019C35.8542 13.9859 35.8027 13.9646 35.7511 13.9433C35.8584 14.0303 35.9599 14.1245 36.0551 14.2254C36.0774 14.2485 36.1032 14.2858 36.086 14.3159C36.0785 14.3284 36.0669 14.3378 36.0533 14.3425C35.9908 14.3671 35.9242 14.378 35.8574 14.3746C35.7906 14.3713 35.7252 14.3537 35.6653 14.323C35.5451 14.2698 35.4352 14.1935 35.3133 14.1456H35.2943L35.3218 14.1669C35.4665 14.2722 35.6016 14.391 35.7254 14.5218C35.7494 14.5466 35.7735 14.5821 35.758 14.6123C35.7498 14.6249 35.7377 14.6343 35.7236 14.6389C35.6615 14.6638 35.595 14.6749 35.5284 14.6715C35.4619 14.6682 35.3968 14.6504 35.3373 14.6193C35.2342 14.575 35.1398 14.5147 35.0402 14.4668H35.0316C34.8956 14.5037 34.769 14.571 34.6607 14.6637C34.592 14.724 34.5319 14.795 34.4598 14.85C34.3712 14.9166 34.2679 14.9593 34.1593 14.9742C34.113 14.9786 34.0664 14.9786 34.0202 14.9742C33.9457 14.9692 33.8726 14.9512 33.8039 14.921C33.7832 14.9103 33.7626 14.9015 33.742 14.8891C33.683 14.8549 33.6311 14.8091 33.5892 14.7542C33.5348 14.665 33.4979 14.5654 33.481 14.4614C33.5222 14.3798 33.5685 14.2946 33.6201 14.2095C33.6918 14.0924 33.771 13.9804 33.8571 13.8741C33.8897 13.8315 33.924 13.7925 33.9584 13.7552C34.0084 13.6999 34.0611 13.6472 34.1164 13.5973C34.2571 13.483 34.4051 13.3787 34.5594 13.285C34.7278 13.1646 34.9131 13.0718 35.1089 13.01C35.172 12.994 35.2364 12.9834 35.3012 12.9781C35.7081 12.9684 36.1075 13.0926 36.4415 13.3329C36.4586 13.356 36.481 13.3826 36.481 13.4128Z" fill="#E29171"/>
<path d="M35.4741 13.7509C35.3395 13.393 35.1819 13.1498 35.0144 13.0415C34.847 12.9332 34.6745 12.9628 34.511 13.128C34.4666 13.128 34.4755 13.4319 34.511 13.3863C34.6654 13.222 34.8291 13.1873 34.9882 13.2851C35.1474 13.383 35.2971 13.6105 35.4251 13.9484C35.4606 14.0548 35.5052 13.8421 35.4652 13.7509H35.4741Z" fill="#9B5846"/>
<path d="M35.482 21.0112C35.6848 21.6305 35.8734 22.2543 36.0479 22.8826C36.1329 23.1917 36.2114 23.5025 36.2932 23.8133C36.392 24.1286 36.4412 24.4581 36.4387 24.7893C36.4224 25.1068 36.3438 25.4192 36.3079 25.7351C36.2719 26.0509 36.2556 26.3717 36.2441 26.6909C36.2196 27.3545 36.2016 28.018 36.1803 28.6816C36.1574 29.4386 36.134 30.1968 36.11 30.9561C36.11 30.9847 36.1509 30.9847 36.1525 30.9561C36.1951 29.6122 36.237 28.2683 36.2785 26.9244C36.2883 26.5884 36.2997 26.2625 36.3291 25.9316C36.3585 25.6007 36.4273 25.2798 36.4665 24.9506C36.5385 24.3441 36.3259 23.741 36.1705 23.1632C35.9743 22.4341 35.7589 21.7106 35.5245 20.9928C35.5147 20.9659 35.4739 20.9776 35.482 21.0045V21.0112Z" fill="white"/>
</svg>
