<svg width="15" height="12" viewBox="0 0 15 12" fill="none" xmlns="http://www.w3.org/2000/svg">
<path d="M7.12101 11.2569C6.71967 11.2569 6.37901 11.1589 6.09901 10.9629C5.81901 10.7575 5.60901 10.4402 5.46901 10.0109L2.80901 2.39485C2.69701 2.05885 2.49634 1.89085 2.20701 1.89085C2.04834 1.89085 1.91767 1.94685 1.81501 2.05885C1.71234 2.16152 1.66101 2.34352 1.66101 2.60485V11.1729H0.555006V2.43685C0.555006 1.89552 0.699673 1.48952 0.989006 1.21885C1.27834 0.938851 1.64701 0.798851 2.09501 0.798851C2.54301 0.798851 2.89767 0.901518 3.15901 1.10685C3.42034 1.31218 3.62101 1.62485 3.76101 2.04485L6.40701 9.73085C6.46301 9.86152 6.54234 9.96885 6.64501 10.0529C6.74767 10.1275 6.85501 10.1649 6.96701 10.1649C7.16301 10.1649 7.31234 10.1042 7.41501 9.98285C7.51767 9.85218 7.56901 9.67485 7.56901 9.45085V3.61285C7.56901 2.85685 7.69501 2.26885 7.94701 1.84885C8.20834 1.41952 8.54901 1.12085 8.96901 0.952851C9.39834 0.784851 9.86034 0.700851 10.355 0.700851H12.371C12.8003 0.700851 13.1783 0.794184 13.505 0.980851C13.841 1.16752 14.1023 1.46152 14.289 1.86285C14.4757 2.26418 14.569 2.79152 14.569 3.44485C14.569 4.23818 14.3963 4.84485 14.051 5.26485C13.7057 5.68485 13.183 5.89485 12.483 5.89485H12.035C11.587 5.89485 11.209 5.80152 10.901 5.61485C10.6023 5.41885 10.3783 5.08752 10.229 4.62085C10.0797 4.15418 10.005 3.51485 10.005 2.70285H10.859C10.859 3.31885 10.9057 3.79952 10.999 4.14485C11.0923 4.49018 11.2277 4.73285 11.405 4.87285C11.5917 5.01285 11.8157 5.08285 12.077 5.08285H12.441C12.8797 5.08285 13.2017 4.94752 13.407 4.67685C13.6123 4.40618 13.715 3.99552 13.715 3.44485C13.715 2.96885 13.6497 2.60018 13.519 2.33885C13.3977 2.07752 13.2343 1.89552 13.029 1.79285C12.8237 1.68085 12.595 1.62485 12.343 1.62485H10.481C10.145 1.62485 9.83701 1.68085 9.55701 1.79285C9.28634 1.89552 9.07167 2.09152 8.91301 2.38085C8.75434 2.67018 8.67501 3.09485 8.67501 3.65485V9.71685C8.67501 10.0435 8.60501 10.3235 8.46501 10.5569C8.33434 10.7809 8.15234 10.9535 7.91901 11.0749C7.68567 11.1962 7.41967 11.2569 7.12101 11.2569Z" fill="#01877D"/>
</svg>
