<svg width="15" height="17" viewBox="0 0 15 17" fill="none" xmlns="http://www.w3.org/2000/svg">
<path d="M6.14281 15.2457C5.75515 15.0489 5.46841 14.7673 5.27118 14.4043H9.12563C9.10495 14.4396 9.08306 14.4743 9.05999 14.5084L9.05997 14.5084L9.05786 14.5115C8.68357 15.0726 8.17746 15.4004 7.50384 15.5028L7.48453 15.5058L7.47012 15.5075C7.44702 15.51 7.41633 15.5131 7.38411 15.5161C7.35211 15.5191 7.32061 15.5218 7.29636 15.5238L7.27112 15.5257H7.09576C6.7337 15.5004 6.40247 15.3796 6.14572 15.2472L6.14572 15.2472L6.14281 15.2457Z" stroke="#00ADA6"/>
<path d="M0.520936 13.6295L0.521452 13.6319C0.594778 13.9765 0.868625 14.216 1.34072 14.216H1.35216H1.36361H1.37505H1.38649H1.39793H1.40938H1.42082H1.43226H1.4437H1.45515H1.46659H1.47803H1.48947H1.50092H1.51236H1.5238H1.53524H1.54669H1.55813H1.56957H1.58101H1.59246H1.6039H1.61534H1.62678H1.63823H1.64967H1.66111H1.67255H1.684H1.69544H1.70688H1.71833H1.72977H1.74121H1.75265H1.7641H1.77554H1.78698H1.79842H1.80987H1.82131H1.83275H1.84419H1.85564H1.86708H1.87852H1.88996H1.90141H1.91285H1.92429H1.93573H1.94718H1.95862H1.97006H1.9815H1.99295H2.00439H2.01583H2.02727H2.03872H2.05016H2.0616H2.07304H2.08449H2.09593H2.10737H2.11881H2.13026H2.1417H2.15314H2.16459H2.17603H2.18747H2.19891H2.21036H2.2218H2.23324H2.24468H2.25613H2.26757H2.27901H2.29045H2.3019H2.31334H2.32478H2.33622H2.34767H2.35911H2.37055H2.38199H2.39344H2.40488H2.41632H2.42776H2.43921H2.45065H2.46209H2.47353H2.48498H2.49642H2.50786H2.5193H2.53075H2.54219H2.55363H2.56507H2.57652H2.58796H2.5994H2.61085H2.62229H2.63373H2.64517H2.65662H2.66806H2.6795H2.69094H2.70239H2.71383H2.72527H2.73671H2.74816H2.7596H2.77104H2.78248H2.79393H2.80537H2.81681H2.82825H2.8397H2.85114H2.86258H2.87402H2.88547H2.89691H2.90835H2.91979H2.93124H2.94268H2.95412H2.96556H2.97701H2.98845H2.99989H3.01133H3.02278H3.03422H3.04566H3.05711H3.06855H3.07999H3.09143H3.10288H3.11432H3.12576H3.1372H3.14865H3.16009H3.17153H3.18297H3.19442H3.20586H3.2173H3.22874H3.24019H3.25163H3.26307H3.27451H3.28596H3.2974H3.30884H3.32028H3.33173H3.34317H3.35461H3.36605H3.3775H3.38894H3.40038H3.41182H3.42327H3.43471H3.44615H3.45759H3.46904H3.48048H3.49192H3.50337H3.51481H3.52625H3.53769H3.54914H3.56058H3.57202H3.58346H3.59491H3.60635H3.61779H3.62923H3.64068H3.65212H3.66356H3.675H3.68645H3.69789H3.70933H3.72077H3.73222H3.74366H3.7551H3.76654H3.77799H3.78943H3.80087H3.81231H3.82376H3.8352H3.84664H3.85808H3.86953H3.88097H3.89241H3.90385H3.9153H3.92674H3.93818H3.94963H3.96107H3.97251H3.98395H3.9954H4.00684H4.01828H4.02972H4.04117H4.05261H4.06405H4.07549H4.08694H4.09838H4.10982H4.12126H4.13271H4.14415H4.15559H4.16703H4.17848H4.18992H4.20136H4.2128H4.22425H4.23569H4.24713H4.25857H4.27002H4.28146H4.2929H4.30434H4.31579H4.32723H4.33867H4.35011H4.36156H4.373H4.38444H4.39588H4.40733H4.41877H4.43021H4.44166H4.4531H4.46454H4.47598H4.48743H4.49887H4.51031H4.52175H4.5332H4.54464H4.55608H4.56752H4.57897H4.59041H4.60185H4.61329H4.62474H4.63618H4.64762H4.65906H4.67051H4.68195H4.69339H4.70483H4.71628H4.72772H4.73916H4.7506H4.76205H4.77349H4.78493H4.79637H4.80782H4.81926H4.8307H4.84214H4.85359H4.86503H4.87647H4.88792H4.89936H4.9108H4.92224H4.93369H4.94513H4.95657H4.96801H4.97946H4.9909H5.00234H5.01378H5.02523H5.03667H5.04811H5.05955H5.071H5.08244H5.09388H5.10532H5.11677H5.12821H5.13965H5.15109H5.16254H5.17398H5.18542H5.19686H5.20831H5.21975H5.23119H5.24263H5.25408H5.26552H5.27696H5.2884H5.29985H5.31129H5.32273H5.33418H5.34562H5.35706H5.3685H5.37995H5.39139H5.40283H5.41427H5.42572H5.43716H5.4486H5.46004H5.47149H5.48293H5.49437H5.50581H5.51726H5.5287H5.54014H5.55158H5.56303H5.57447H5.58591H5.59735H5.6088H5.62024H5.63168H5.64312H5.65457H5.66601H5.67745H5.68889H5.70034H5.71178H5.72322H5.73466H5.74611H5.75755H5.76899H5.78044H5.79188H5.80332H5.81476H5.82621H5.83765H5.84909H5.86053H5.87198H5.88342H5.89486H5.9063H5.91775H5.92919H5.94063H5.95207H5.96352H5.97496H5.9864H5.99784H6.00929H6.02073H6.03217H6.04361H6.05506H6.0665H6.07794H6.08938H6.10083H6.11227H6.12371H6.13515H6.1466H6.15804H6.16948H6.18092H6.19237H6.20381H6.21525H6.2267H6.23814H6.24958H6.26102H6.27247H6.28391H6.29535H6.30679H6.31824H6.32968H6.34112H6.35256H6.36401H6.37545H6.38689H6.39833H6.40978H6.42122H6.43266H6.4441H6.45555H6.46699H6.47843H6.48987H6.50132H6.51276H6.5242H6.53564H6.54709H6.55853H6.56997H6.58141H6.59286H6.6043H6.61574H6.62718H6.63863H6.65007H6.66151H6.67296H6.6844H6.69584H6.70728H6.71873H6.73017H6.74161H6.75305H6.7645H6.77594H6.78738H6.79882H6.81027H6.82171H6.83315H6.84459H6.85604H6.86748H6.87892H6.89036H6.90181H6.91325H6.92469H6.93613H6.94758H6.95902H6.97046H6.9819H6.99335H7.00479H7.01623H7.02767H7.03912H7.05056H7.062H7.07344H7.08489H7.09633H7.10777H7.11922H7.13066H7.1421H7.15354H7.16499H7.17643H7.18787H7.19913H7.19931L10.8133 14.2146H10.8134C11.069 14.2146 11.3234 14.2152 11.5772 14.2157C12.0823 14.2168 12.585 14.2179 13.0894 14.2146M0.520936 13.6295L13.0926 14.7146M0.520936 13.6295C0.45541 13.3287 0.537481 13.0926 0.804611 12.8656L0.804736 12.8655M0.520936 13.6295L0.804736 12.8655M13.0894 14.2146L13.0926 14.7146M13.0894 14.2146C13.0894 14.2146 13.0894 14.2146 13.0893 14.2146L13.0926 14.7146M13.0894 14.2146C13.6204 14.2111 13.9345 13.8517 13.8963 13.381M13.0926 14.7146C13.8984 14.7093 14.4578 14.1168 14.3947 13.3403M13.8963 13.381C13.8963 13.3811 13.8963 13.3812 13.8963 13.3812L14.3947 13.3403M13.8963 13.381C13.8804 13.1873 13.7762 13.0205 13.5296 12.8012M13.8963 13.381C13.8963 13.381 13.8963 13.3809 13.8963 13.3809L14.3947 13.3403M14.3947 13.3403L13.5296 12.8012M13.5296 12.8012L13.8619 12.4275L13.5295 12.8011C13.5296 12.8012 13.5296 12.8012 13.5296 12.8012ZM13.5296 12.8012C12.481 11.8687 11.8606 10.686 11.7708 9.27298L13.5296 12.8012ZM0.804736 12.8655C1.25279 12.4845 1.63351 12.032 1.931 11.5266C2.43092 10.6822 2.65934 9.76865 2.66181 8.80845V8.80716M0.804736 12.8655L2.66181 8.80716M2.66181 8.80716C2.66181 8.61562 2.6612 8.42553 2.66059 8.23638C2.65899 7.73718 2.6574 7.24458 2.66713 6.74952L2.66713 6.7494M2.66181 8.80716L2.66713 6.7494M2.66713 6.7494C2.70746 4.66948 4.3091 2.83284 6.40405 2.48612C6.48616 2.47276 6.68149 2.43625 6.82933 2.27001C6.98833 2.09122 6.99118 1.88121 6.98694 1.78273L6.9869 1.7818M2.66713 6.7494L6.9869 1.7818M7.91664 1.83946C7.9234 1.61672 7.92476 1.39398 7.91664 1.17124C7.91006 0.988433 7.83188 0.81528 7.69859 0.688252C7.56529 0.561224 7.38727 0.490234 7.20202 0.490234C7.01677 0.490234 6.83875 0.561224 6.70545 0.688252C6.57215 0.81528 6.49398 0.988433 6.4874 1.17124L7.91664 1.83946ZM7.91664 1.83946C7.91664 1.93701 7.94957 1.9731 8.04747 1.98824M7.91664 1.83946L8.04747 1.98824M6.9869 1.7818C6.97821 1.58857 6.97973 1.3912 6.98707 1.18943L6.98708 1.18922M6.9869 1.7818L6.98708 1.18922M6.98708 1.18922C6.98893 1.13784 7.0109 1.08785 7.05039 1.05022C7.09008 1.01239 7.14434 0.990234 7.20202 0.990234C7.2597 0.990234 7.31396 1.01239 7.35365 1.05022C7.39314 1.08785 7.41511 1.13785 7.41696 1.18923L7.41697 1.18946M6.98708 1.18922L7.41697 1.18946M7.41697 1.18946C7.42458 1.39824 7.4234 1.60942 7.41687 1.82427L7.41664 1.83186M7.41697 1.18946L7.41664 1.83186M7.41664 1.83186V1.83946M7.41664 1.83186V1.83946M7.41664 1.83946C7.41664 1.92784 7.42786 2.11464 7.57107 2.2763C7.70731 2.4301 7.88171 2.46808 7.96509 2.48143C9.92724 2.82844 11.3884 4.30348 11.6927 6.23201C11.7251 6.483 11.7406 6.73583 11.7391 6.98884L11.739 6.98884M7.41664 1.83946L11.739 6.98884M11.739 6.98884L11.7391 7.00027M11.739 6.98884L11.7391 7.00027M11.7391 7.00027C11.7432 7.2438 11.7425 7.49884 11.7418 7.75954M11.7391 7.00027L11.7418 7.75954M11.7418 7.75954C11.7404 8.25679 11.7389 8.77466 11.7708 9.27274L11.7418 7.75954ZM8.04747 1.98824C10.2197 2.37046 11.8515 4.01205 12.1876 6.16103L8.04747 1.98824Z" stroke="#00ADA6"/>
</svg>
