<svg width="17" height="16" viewBox="0 0 17 16" fill="none" xmlns="http://www.w3.org/2000/svg">
<path d="M16.4708 1.94684L14.9303 0.496839C14.2264 -0.165629 13.0813 -0.165597 12.3774 0.496839C11.7147 1.12062 1.59255 10.6481 0.916103 11.2848C0.844052 11.3526 0.795775 11.4427 0.778576 11.5308L0.00833114 15.4458C-0.0215184 15.5976 0.0298799 15.7535 0.145858 15.8627C0.261969 15.972 0.427653 16.0202 0.588721 15.9922L4.74804 15.2671C4.84416 15.2502 4.93865 15.2044 5.00951 15.1377L16.4708 4.34974C17.1763 3.68574 17.1764 2.61093 16.4708 1.94684ZM1.11964 14.9461L1.58558 12.5778L3.63573 14.5075L1.11964 14.9461ZM4.65736 14.1433L1.97259 11.6163L11.7745 2.39024L14.4592 4.91727L4.65736 14.1433ZM15.7665 3.68683L15.1635 4.25436L12.4788 1.72734L13.0817 1.15981C13.3972 0.862869 13.9105 0.862838 14.226 1.15981L15.7665 2.6098C16.0827 2.90746 16.0827 3.38915 15.7665 3.68683Z" fill="#575757"/>
</svg>
