<svg width="14" height="16" viewBox="0 0 14 16" fill="none" xmlns="http://www.w3.org/2000/svg">
<path d="M9.30971 0.0924075C9.23634 0.0151368 9.13576 -0.03125 9.03151 -0.03125H2.78992C1.63819 -0.03125 0.6875 0.915651 0.6875 2.06726V13.8701C0.6875 15.0219 1.63819 15.9688 2.78992 15.9688H11.2614C12.4131 15.9688 13.3638 15.0219 13.3638 13.8701V4.49818C13.3638 4.39771 13.3174 4.30116 13.2517 4.22767L9.30971 0.0924075ZM9.42177 1.33301L12.0614 4.10401H10.3455C9.83534 4.10401 9.42177 3.69434 9.42177 3.18421V1.33301ZM11.2614 15.1958H2.78992C2.06726 15.1958 1.46045 14.5968 1.46045 13.8701V2.06726C1.46045 1.34461 2.06336 0.741701 2.78992 0.741701H8.64882V3.18421C8.64882 4.1233 9.40639 4.87696 10.3455 4.87696H12.5908V13.8701C12.5908 14.5968 11.9879 15.1958 11.2614 15.1958Z" fill="#00ADA6"/>
<path d="M10.2063 12.5293H3.84497C3.63245 12.5293 3.4585 12.7031 3.4585 12.9158C3.4585 13.1283 3.63245 13.3022 3.84497 13.3022H10.2102C10.4227 13.3022 10.5967 13.1283 10.5967 12.9158C10.5967 12.7031 10.4227 12.5293 10.2063 12.5293Z" fill="#00ADA6"/>
<path d="M5.04691 8.37122L6.6392 6.65906V10.8794C6.6392 11.0919 6.81315 11.2659 7.02568 11.2659C7.23832 11.2659 7.41215 11.0919 7.41215 10.8794V6.65906L9.00444 8.37122C9.08171 8.45228 9.1823 8.49488 9.28654 8.49488C9.37932 8.49488 9.476 8.46009 9.54936 8.39051C9.70403 8.24366 9.71562 8.00013 9.56877 7.84559L7.304 5.41467C7.23051 5.3374 7.13005 5.29102 7.02189 5.29102C6.91362 5.29102 6.81315 5.3374 6.73979 5.41467L4.47501 7.84559C4.32816 8.00013 4.33976 8.24744 4.4943 8.39051C4.65665 8.53736 4.90006 8.52576 5.04691 8.37122Z" fill="#00ADA6"/>
</svg>
