<svg width="13" height="12" viewBox="0 0 13 12" fill="none" xmlns="http://www.w3.org/2000/svg">
<g clip-path="url(#clip0_605_2915)">
<path d="M7.00956 -4.65475e-06C7.08041 0.0187774 7.1521 0.0349977 7.22295 0.0554871C7.5018 0.136557 7.74755 0.304423 7.92453 0.534706C8.1015 0.764989 8.20048 1.0457 8.20709 1.33608C8.21562 2.08992 8.20709 2.84376 8.20709 3.5976C8.21033 3.64845 8.20322 3.69942 8.18619 3.74744C8.16916 3.79546 8.14255 3.83952 8.108 3.87695C8.07345 3.91439 8.03166 3.94441 7.98517 3.96522C7.93867 3.98603 7.88844 3.99718 7.83751 3.998C7.78554 3.99728 7.73424 3.98604 7.68673 3.96496C7.63922 3.94388 7.59648 3.9134 7.56106 3.87534C7.52565 3.83729 7.49831 3.79246 7.48069 3.74355C7.46307 3.69464 7.45553 3.64267 7.45853 3.59078C7.45853 2.86852 7.45853 2.14541 7.45853 1.42316C7.45853 1.06545 7.26562 0.817865 6.94213 0.756397C6.89984 0.74914 6.85699 0.745711 6.8141 0.746153H3.74133H3.65598C3.73023 0.774326 3.77291 0.793108 3.8173 0.807621L4.47197 1.02447C4.94398 1.18326 5.2009 1.53671 5.20176 2.0387C5.20176 3.03813 5.20176 4.03813 5.20176 5.0387V9.7342C5.24529 9.7342 5.28711 9.74103 5.31955 9.74103H6.78422C7.19136 9.74103 7.45085 9.48491 7.4517 9.07598C7.4517 8.35372 7.4517 7.63061 7.4517 6.90836C7.4517 6.62151 7.66765 6.43967 7.92286 6.50455C7.99697 6.52386 8.06327 6.56567 8.11264 6.62423C8.16201 6.68278 8.19203 6.75521 8.19855 6.83153C8.19855 6.86226 8.19855 6.89385 8.19855 6.92458C8.19855 7.64342 8.19855 8.36226 8.19855 9.0811C8.19855 9.89726 7.60107 10.4906 6.78422 10.4915H5.19919C5.19919 10.6511 5.19919 10.8014 5.19919 10.9525C5.19407 11.5697 4.74339 12.0162 4.14762 11.9889C4.04648 11.9822 3.94664 11.9624 3.85059 11.93C2.87299 11.6073 1.89626 11.2826 0.920368 10.9559C0.461161 10.8022 0.201679 10.4343 0.201679 9.94336V1.06459C0.201679 0.502841 0.491035 0.137446 1.0373 0.00853315C1.04838 0.00462812 1.05898 -0.000529536 1.06888 -0.00683594L7.00956 -4.65475e-06ZM4.46087 6.50455V2.07541C4.46087 1.86368 4.41564 1.80136 4.2142 1.73392L1.36421 0.783717C1.10814 0.698344 0.963046 0.800791 0.963046 1.07398V9.93226C0.963046 10.1337 1.01255 10.2012 1.2046 10.2661L2.30311 10.6315L4.06739 11.2197C4.31833 11.3051 4.45917 11.2001 4.46087 10.9328V6.50455Z" fill="white"/>
<path d="M12.2128 5.36786C12.1351 5.4575 12.0625 5.55312 11.9789 5.63679C11.4036 6.21561 10.8269 6.79302 10.2488 7.369C10.0217 7.59438 9.67603 7.51328 9.60007 7.21789C9.58254 7.14931 9.58461 7.07719 9.60604 7.00972C9.62747 6.94226 9.66739 6.88216 9.72128 6.83627C10.0926 6.46746 10.4613 6.09694 10.8309 5.72643C10.8573 5.69996 10.8821 5.67179 10.9248 5.62569H7.12393C6.84141 5.62569 6.6579 5.40543 6.72619 5.15187C6.74597 5.07777 6.78816 5.01159 6.84698 4.96238C6.9058 4.91317 6.97838 4.88334 7.0548 4.87697C7.09748 4.87697 7.14015 4.87697 7.18369 4.87697H10.9248C10.8838 4.83257 10.8582 4.80355 10.83 4.77537C10.455 4.39973 10.0798 4.02409 9.70421 3.64845C9.64654 3.59556 9.60719 3.5257 9.59185 3.44896C9.5765 3.37222 9.58596 3.29259 9.61885 3.22159C9.64935 3.15099 9.70198 3.09223 9.76881 3.05419C9.83564 3.01615 9.91303 3.00089 9.98929 3.01072C10.0771 3.02484 10.1591 3.06363 10.2257 3.12256C10.8551 3.74236 11.481 4.3653 12.1035 4.99137C12.143 5.03758 12.1789 5.08666 12.2111 5.13821L12.2128 5.36786Z" fill="white"/>
</g>
<defs>
<clipPath id="clip0_605_2915">
<rect width="12" height="12" fill="white" transform="translate(0.212776)"/>
</clipPath>
</defs>
</svg>
