<svg width="16" height="14" viewBox="0 0 16 14" fill="none" xmlns="http://www.w3.org/2000/svg">
<path d="M14.6774 4.39277L14.6786 4.65555C14.6807 5.09092 14.5962 5.52235 14.4301 5.92477C14.2639 6.32718 14.0194 6.69256 13.7108 6.99967L13.702 7.00849L13.6934 7.0176L13.3147 7.42049L8.09468 12.6405L2.87465 7.42048L2.49594 7.0176L2.488 7.00915L2.4798 7.00095C1.85682 6.37797 1.50684 5.53303 1.50684 4.652C1.50684 3.77097 1.85682 2.92603 2.4798 2.30305C3.10278 1.68007 3.94773 1.33008 4.82875 1.33008C5.70978 1.33008 6.55473 1.68007 7.17771 2.30305L7.58904 2.71437L8.13602 3.26136L8.66584 2.69772L9.04417 2.29524C9.50628 1.83606 10.0937 1.52341 10.7328 1.39657C11.3756 1.26903 12.0417 1.33514 12.6469 1.58653C13.252 1.83792 13.7689 2.26327 14.132 2.8087C14.4474 3.2824 14.6346 3.82816 14.6774 4.39277Z" stroke="#A3A3A3" stroke-width="1.5"/>
</svg>
