<svg width="17" height="16" viewBox="0 0 17 16" fill="none" xmlns="http://www.w3.org/2000/svg">
<path d="M15.6347 2.10934L14.1849 0.749966C13.5224 0.128903 12.4446 0.128932 11.7821 0.749966C11.1584 1.33476 1.63168 10.2667 0.995027 10.8636C0.927215 10.9272 0.881777 11.0117 0.86559 11.0943L0.140654 14.7647C0.11256 14.9069 0.160935 15.0531 0.270091 15.1554C0.379372 15.2579 0.535309 15.3032 0.686903 15.2768L4.60155 14.5971C4.69202 14.5813 4.78096 14.5383 4.84764 14.4757L15.6347 4.36206C16.2987 3.73956 16.2988 2.73193 15.6347 2.10934ZM1.18659 14.2961L1.62512 12.0759L3.55468 13.885L1.18659 14.2961ZM4.51621 13.5435L1.98937 11.1744L11.2147 2.52503L13.7415 4.89412L4.51621 13.5435ZM14.9718 3.74059L14.4044 4.27264L11.8775 1.90356L12.445 1.3715C12.7419 1.09312 13.225 1.09309 13.522 1.3715L14.9718 2.73087C15.2695 3.00992 15.2695 3.4615 14.9718 3.74059Z" fill="#A3A3A3"/>
</svg>
