<svg width="13" height="12" viewBox="0 0 13 12" fill="none" xmlns="http://www.w3.org/2000/svg">
<path d="M12.9698 4.32969C12.9719 4.778 12.8871 5.22226 12.7202 5.63665C12.5534 6.05104 12.308 6.42728 11.9981 6.74352L11.6821 7.08835L6.97479 11.916L2.26753 7.08835L1.95147 6.74352C1.32725 6.10333 0.976562 5.23505 0.976562 4.32969C0.976563 3.42433 1.32725 2.55605 1.95147 1.91586C2.57569 1.27567 3.42232 0.916016 4.3051 0.916016C5.18788 0.916016 6.03451 1.27567 6.65873 1.91586L6.99497 2.26069L7.31102 1.91586C7.77555 1.43933 8.36754 1.11494 9.01199 0.983787C9.65645 0.852632 10.3244 0.920613 10.9311 1.17912C11.5379 1.43763 12.0561 1.87503 12.4203 2.4359C12.7844 2.99677 12.978 3.65587 12.9766 4.32969H12.9698Z" fill="#A3A3A3"/>
</svg>
