<svg width="16" height="9" viewBox="0 0 16 9" fill="none" xmlns="http://www.w3.org/2000/svg">
<path d="M15.7468 3.92715C15.6134 3.77829 12.4036 0.277344 8.38332 0.277344C4.36306 0.277344 1.15332 3.77829 1.01985 3.92715C0.870988 4.09353 0.870988 4.34506 1.01985 4.51144C1.15332 4.6603 4.36312 8.16124 8.38332 8.16124C12.4035 8.16124 15.6133 4.6603 15.7468 4.51144C15.8956 4.34506 15.8956 4.09353 15.7468 3.92715ZM8.38332 7.28525C6.69293 7.28525 5.31736 5.90969 5.31736 4.21929C5.31736 2.5289 6.69293 1.15333 8.38332 1.15333C10.0737 1.15333 11.4493 2.5289 11.4493 4.21929C11.4493 5.90969 10.0737 7.28525 8.38332 7.28525Z" fill="#A3A3A3"/>
</svg>
